G04 #@! TF.GenerationSoftware,KiCad,Pcbnew,(5.1.10)-1*
G04 #@! TF.CreationDate,2021-08-27T22:23:48-03:00*
G04 #@! TF.ProjectId,ESP32-GATEWAY_Rev_F,45535033-322d-4474-9154-455741595f52,F*
G04 #@! TF.SameCoordinates,Original*
G04 #@! TF.FileFunction,Soldermask,Bot*
G04 #@! TF.FilePolarity,Negative*
%FSLAX46Y46*%
G04 Gerber Fmt 4.6, Leading zero omitted, Abs format (unit mm)*
G04 Created by KiCad (PCBNEW (5.1.10)-1) date 2021-08-27 22:23:48*
%MOMM*%
%LPD*%
G01*
G04 APERTURE LIST*
%ADD10O,2.140000X2.590000*%
%ADD11O,2.100000X2.100000*%
%ADD12C,1.810000*%
%ADD13C,2.050000*%
%ADD14C,3.100000*%
%ADD15C,3.600000*%
%ADD16C,1.600000*%
%ADD17C,6.700000*%
%ADD18C,2.101600*%
G04 APERTURE END LIST*
D10*
X86868000Y-125539500D03*
G36*
G01*
X90478000Y-124551970D02*
X90478000Y-126527030D01*
G75*
G02*
X90170530Y-126834500I-307470J0D01*
G01*
X88645470Y-126834500D01*
G75*
G02*
X88338000Y-126527030I0J307470D01*
G01*
X88338000Y-124551970D01*
G75*
G02*
X88645470Y-124244500I307470J0D01*
G01*
X90170530Y-124244500D01*
G75*
G02*
X90478000Y-124551970I0J-307470D01*
G01*
G37*
X92964000Y-125539500D03*
G36*
G01*
X96574000Y-124551970D02*
X96574000Y-126527030D01*
G75*
G02*
X96266530Y-126834500I-307470J0D01*
G01*
X94741470Y-126834500D01*
G75*
G02*
X94434000Y-126527030I0J307470D01*
G01*
X94434000Y-124551970D01*
G75*
G02*
X94741470Y-124244500I307470J0D01*
G01*
X96266530Y-124244500D01*
G75*
G02*
X96574000Y-124551970I0J-307470D01*
G01*
G37*
D11*
X72567800Y-113995200D03*
X72567800Y-111455200D03*
X72567800Y-108915200D03*
X72567800Y-106375200D03*
X72567800Y-103835200D03*
X72567800Y-101295200D03*
G36*
G01*
X71517800Y-99605200D02*
X71517800Y-97905200D01*
G75*
G02*
X71717800Y-97705200I200000J0D01*
G01*
X73417800Y-97705200D01*
G75*
G02*
X73617800Y-97905200I0J-200000D01*
G01*
X73617800Y-99605200D01*
G75*
G02*
X73417800Y-99805200I-200000J0D01*
G01*
X71717800Y-99805200D01*
G75*
G02*
X71517800Y-99605200I0J200000D01*
G01*
G37*
D10*
X78232000Y-125412500D03*
X80772000Y-125412500D03*
G36*
G01*
X84382000Y-124424970D02*
X84382000Y-126400030D01*
G75*
G02*
X84074530Y-126707500I-307470J0D01*
G01*
X82549470Y-126707500D01*
G75*
G02*
X82242000Y-126400030I0J307470D01*
G01*
X82242000Y-124424970D01*
G75*
G02*
X82549470Y-124117500I307470J0D01*
G01*
X84074530Y-124117500D01*
G75*
G02*
X84382000Y-124424970I0J-307470D01*
G01*
G37*
X99060000Y-125412500D03*
G36*
G01*
X102670000Y-124424970D02*
X102670000Y-126400030D01*
G75*
G02*
X102362530Y-126707500I-307470J0D01*
G01*
X100837470Y-126707500D01*
G75*
G02*
X100530000Y-126400030I0J307470D01*
G01*
X100530000Y-124424970D01*
G75*
G02*
X100837470Y-124117500I307470J0D01*
G01*
X102362530Y-124117500D01*
G75*
G02*
X102670000Y-124424970I0J-307470D01*
G01*
G37*
X105156000Y-125476000D03*
G36*
G01*
X108766000Y-124488470D02*
X108766000Y-126463530D01*
G75*
G02*
X108458530Y-126771000I-307470J0D01*
G01*
X106933470Y-126771000D01*
G75*
G02*
X106626000Y-126463530I0J307470D01*
G01*
X106626000Y-124488470D01*
G75*
G02*
X106933470Y-124181000I307470J0D01*
G01*
X108458530Y-124181000D01*
G75*
G02*
X108766000Y-124488470I0J-307470D01*
G01*
G37*
D12*
X106055000Y-85059000D03*
X104785000Y-87599000D03*
X103515000Y-85059000D03*
X102245000Y-87599000D03*
X100975000Y-85059000D03*
X99705000Y-87599000D03*
X98435000Y-85059000D03*
X97165000Y-87599000D03*
D13*
X97530000Y-73610500D03*
X108210000Y-73610500D03*
D14*
X109400000Y-81409000D03*
X93800000Y-81409000D03*
D13*
X94990000Y-73610500D03*
X105670000Y-73610500D03*
D15*
X107315000Y-78359000D03*
X95885000Y-78359000D03*
G36*
G01*
X106527600Y-100393500D02*
X104927400Y-100393500D01*
G75*
G02*
X104876600Y-100342700I0J50800D01*
G01*
X104876600Y-99174300D01*
G75*
G02*
X104927400Y-99123500I50800J0D01*
G01*
X106527600Y-99123500D01*
G75*
G02*
X106578400Y-99174300I0J-50800D01*
G01*
X106578400Y-100342700D01*
G75*
G02*
X106527600Y-100393500I-50800J0D01*
G01*
G37*
G36*
G01*
X106527600Y-101917500D02*
X104927400Y-101917500D01*
G75*
G02*
X104876600Y-101866700I0J50800D01*
G01*
X104876600Y-100698300D01*
G75*
G02*
X104927400Y-100647500I50800J0D01*
G01*
X106527600Y-100647500D01*
G75*
G02*
X106578400Y-100698300I0J-50800D01*
G01*
X106578400Y-101866700D01*
G75*
G02*
X106527600Y-101917500I-50800J0D01*
G01*
G37*
G36*
G01*
X106527600Y-101917500D02*
X104927400Y-101917500D01*
G75*
G02*
X104876600Y-101866700I0J50800D01*
G01*
X104876600Y-100698300D01*
G75*
G02*
X104927400Y-100647500I50800J0D01*
G01*
X106527600Y-100647500D01*
G75*
G02*
X106578400Y-100698300I0J-50800D01*
G01*
X106578400Y-101866700D01*
G75*
G02*
X106527600Y-101917500I-50800J0D01*
G01*
G37*
G36*
G01*
X99237800Y-97132800D02*
X100660200Y-97132800D01*
G75*
G02*
X100860200Y-97332800I0J-200000D01*
G01*
X100860200Y-98755200D01*
G75*
G02*
X100660200Y-98955200I-200000J0D01*
G01*
X99237800Y-98955200D01*
G75*
G02*
X99037800Y-98755200I0J200000D01*
G01*
X99037800Y-97332800D01*
G75*
G02*
X99237800Y-97132800I200000J0D01*
G01*
G37*
D16*
X70739000Y-122301000D03*
X75565000Y-122301000D03*
X74803000Y-123952000D03*
X71501000Y-124079000D03*
X74803000Y-120650000D03*
X71501000Y-120650000D03*
X73152000Y-124714000D03*
X73152000Y-119888000D03*
D17*
X73152000Y-122301000D03*
D16*
X113919000Y-71120000D03*
X118745000Y-71120000D03*
X117983000Y-72771000D03*
X114681000Y-72898000D03*
X117983000Y-69469000D03*
X114681000Y-69469000D03*
X116332000Y-73533000D03*
X116332000Y-68707000D03*
D17*
X116332000Y-71120000D03*
D18*
X79010000Y-82083000D03*
M02*
