G04 #@! TF.GenerationSoftware,KiCad,Pcbnew,(5.1.10)-1*
G04 #@! TF.CreationDate,2021-08-27T22:23:48-03:00*
G04 #@! TF.ProjectId,ESP32-GATEWAY_Rev_F,45535033-322d-4474-9154-455741595f52,F*
G04 #@! TF.SameCoordinates,Original*
G04 #@! TF.FileFunction,OtherDrawing,Comment*
%FSLAX46Y46*%
G04 Gerber Fmt 4.6, Leading zero omitted, Abs format (unit mm)*
G04 Created by KiCad (PCBNEW (5.1.10)-1) date 2021-08-27 22:23:48*
%MOMM*%
%LPD*%
G01*
G04 APERTURE LIST*
%ADD10C,0.150000*%
%ADD11C,0.254000*%
%ADD12C,0.127000*%
%ADD13C,0.480000*%
%ADD14C,0.120000*%
%ADD15C,0.080000*%
G04 APERTURE END LIST*
D10*
X111163791Y-122985040D02*
X111256063Y-122961459D01*
X111360126Y-122984015D01*
X111418053Y-123018361D01*
X111487770Y-123098843D01*
X111581068Y-123271598D01*
X111640020Y-123502280D01*
X111641045Y-123698615D01*
X111618490Y-123802678D01*
X111584144Y-123860605D01*
X111503662Y-123930322D01*
X111411389Y-123953903D01*
X111307326Y-123931347D01*
X111249399Y-123897001D01*
X111179682Y-123816519D01*
X111086384Y-123643764D01*
X111027432Y-123413083D01*
X111026407Y-123216747D01*
X111048963Y-123112684D01*
X111083308Y-123054757D01*
X111163791Y-122985040D01*
X112183916Y-123707330D02*
X112195706Y-123753466D01*
X112173151Y-123857529D01*
X112138805Y-123915456D01*
X112271062Y-122702071D02*
X112916971Y-122537005D01*
X112749342Y-123611981D01*
X113470607Y-122395520D02*
X113562880Y-122371940D01*
X113666943Y-122394495D01*
X113724869Y-122428841D01*
X113794586Y-122509323D01*
X113887884Y-122682078D01*
X113946836Y-122912760D01*
X113947861Y-123109096D01*
X113925306Y-123213159D01*
X113890960Y-123271085D01*
X113810478Y-123340802D01*
X113718205Y-123364383D01*
X113614142Y-123341828D01*
X113556215Y-123307482D01*
X113486498Y-123227000D01*
X113393200Y-123054245D01*
X113334248Y-122823563D01*
X113333223Y-122627227D01*
X113355779Y-122523164D01*
X113390125Y-122465238D01*
X113470607Y-122395520D01*
X114453311Y-122586730D02*
X114349248Y-122564174D01*
X114291321Y-122529828D01*
X114221604Y-122449346D01*
X114209813Y-122403210D01*
X114232369Y-122299147D01*
X114266715Y-122241220D01*
X114347197Y-122171503D01*
X114531742Y-122124341D01*
X114635805Y-122146897D01*
X114693732Y-122181243D01*
X114763449Y-122261725D01*
X114775240Y-122307861D01*
X114752684Y-122411924D01*
X114718338Y-122469851D01*
X114637856Y-122539568D01*
X114453311Y-122586730D01*
X114372828Y-122656447D01*
X114338482Y-122714374D01*
X114315927Y-122818437D01*
X114363088Y-123002982D01*
X114432806Y-123083464D01*
X114490732Y-123117810D01*
X114594795Y-123140366D01*
X114779341Y-123093204D01*
X114859823Y-123023487D01*
X114894169Y-122965560D01*
X114916724Y-122861497D01*
X114869563Y-122676952D01*
X114799846Y-122596470D01*
X114741919Y-122562124D01*
X114637856Y-122539568D01*
X116117294Y-122751283D02*
X115952228Y-122105374D01*
X115975809Y-122197647D02*
X116010155Y-122139720D01*
X116090637Y-122070003D01*
X116229046Y-122034632D01*
X116333109Y-122057187D01*
X116402827Y-122137670D01*
X116532521Y-122645169D01*
X116402827Y-122137670D02*
X116425382Y-122033607D01*
X116505864Y-121963890D01*
X116644273Y-121928518D01*
X116748336Y-121951074D01*
X116818053Y-122031556D01*
X116947748Y-122539056D01*
X117409111Y-122421152D02*
X117244045Y-121775243D01*
X117267626Y-121867516D02*
X117301972Y-121809589D01*
X117382454Y-121739872D01*
X117520863Y-121704501D01*
X117624926Y-121727056D01*
X117694644Y-121807539D01*
X117824338Y-122315038D01*
X117694644Y-121807539D02*
X117717199Y-121703476D01*
X117797681Y-121633758D01*
X117936090Y-121598387D01*
X118040153Y-121620943D01*
X118109870Y-121701425D01*
X118239565Y-122208925D01*
X113956418Y-121494808D02*
X114642218Y-121319548D01*
X113946940Y-121457720D02*
X114101615Y-122062969D01*
X114632740Y-121282460D02*
X114787415Y-121887709D01*
X114642218Y-121319548D02*
X113695987Y-122166630D01*
X114642218Y-121319548D02*
X113405594Y-121030307D01*
X113956418Y-121494808D02*
X115193042Y-121784049D01*
X113956418Y-121494808D02*
X114902649Y-120647726D01*
D11*
X89281000Y-98298000D02*
X88138000Y-98298000D01*
X88138000Y-98298000D02*
X88138000Y-96774000D01*
X88138000Y-96774000D02*
X89281000Y-96774000D01*
X90297000Y-98298000D02*
X91440000Y-98298000D01*
X91440000Y-98298000D02*
X91440000Y-96774000D01*
X91440000Y-96774000D02*
X90297000Y-96774000D01*
D12*
X86461600Y-102870000D02*
X88188800Y-102870000D01*
X88188800Y-101092000D02*
X88188800Y-102870000D01*
X88188800Y-101092000D02*
X86461600Y-101092000D01*
X85750400Y-101092000D02*
X84023200Y-101092000D01*
X84023200Y-101092000D02*
X84023200Y-102870000D01*
X84023200Y-102870000D02*
X85750400Y-102870000D01*
D11*
X90296999Y-98298000D02*
X91439999Y-98298000D01*
X91439999Y-98298000D02*
X91439999Y-99822000D01*
X91439999Y-99822000D02*
X90296999Y-99822000D01*
X89280999Y-98298000D02*
X88137999Y-98298000D01*
X88137999Y-98298000D02*
X88137999Y-99822000D01*
X88137999Y-99822000D02*
X89280999Y-99822000D01*
D13*
X87193120Y-94165420D02*
X87563960Y-94165420D01*
X87200740Y-96078040D02*
X87571580Y-96078040D01*
X89202260Y-95120460D02*
X89573100Y-95120460D01*
D10*
X87739220Y-93708220D02*
X89042240Y-93708220D01*
X89047320Y-96547940D02*
X87749380Y-96547940D01*
X89042240Y-95115380D02*
X89044780Y-93766640D01*
X89042240Y-95117920D02*
X89042240Y-96540320D01*
X87739220Y-96532700D02*
X87739220Y-93713300D01*
D11*
X90296999Y-99822000D02*
X91439999Y-99822000D01*
X91439999Y-99822000D02*
X91439999Y-101346000D01*
X91439999Y-101346000D02*
X90296999Y-101346000D01*
X89280999Y-99822000D02*
X88137999Y-99822000D01*
X88137999Y-99822000D02*
X88137999Y-101346000D01*
X88137999Y-101346000D02*
X89280999Y-101346000D01*
D13*
X90619580Y-102306120D02*
X90619580Y-102676960D01*
X88706960Y-102313740D02*
X88706960Y-102684580D01*
X89664540Y-104315260D02*
X89664540Y-104686100D01*
D10*
X91076780Y-102852220D02*
X91076780Y-104155240D01*
X88237060Y-104160320D02*
X88237060Y-102862380D01*
X89669620Y-104155240D02*
X91018360Y-104157780D01*
X89667080Y-104155240D02*
X88244680Y-104155240D01*
X88252300Y-102852220D02*
X91071700Y-102852220D01*
D11*
X84863940Y-105008680D02*
X84863940Y-103865680D01*
X84863940Y-103865680D02*
X86387940Y-103865680D01*
X86387940Y-103865680D02*
X86387940Y-105008680D01*
X84863940Y-106024680D02*
X84863940Y-107167680D01*
X84863940Y-107167680D02*
X86387940Y-107167680D01*
X86387940Y-107167680D02*
X86387940Y-106024680D01*
X115062000Y-113919000D02*
X116459000Y-113919000D01*
X115062000Y-115951000D02*
X116459000Y-115951000D01*
X117475000Y-113919000D02*
X118872000Y-113919000D01*
X117475000Y-115951000D02*
X118872000Y-115951000D01*
X115062000Y-115951000D02*
X115062000Y-113919000D01*
X118872000Y-115951000D02*
X118872000Y-113919000D01*
X115062000Y-111887000D02*
X116459000Y-111887000D01*
X115062000Y-113919000D02*
X116459000Y-113919000D01*
X117475000Y-111887000D02*
X118872000Y-111887000D01*
X117475000Y-113919000D02*
X118872000Y-113919000D01*
X115062000Y-113919000D02*
X115062000Y-111887000D01*
X118872000Y-113919000D02*
X118872000Y-111887000D01*
X113411000Y-115062000D02*
X113411000Y-113919000D01*
X113411000Y-113919000D02*
X114935000Y-113919000D01*
X114935000Y-113919000D02*
X114935000Y-115062000D01*
X113411000Y-116078000D02*
X113411000Y-117221000D01*
X113411000Y-117221000D02*
X114935000Y-117221000D01*
X114935000Y-117221000D02*
X114935000Y-116078000D01*
X114935000Y-119380000D02*
X114935000Y-120523000D01*
X114935000Y-120523000D02*
X113411000Y-120523000D01*
X113411000Y-120523000D02*
X113411000Y-119380000D01*
X114935000Y-118364000D02*
X114935000Y-117221000D01*
X114935000Y-117221000D02*
X113411000Y-117221000D01*
X113411000Y-117221000D02*
X113411000Y-118364000D01*
X83693000Y-101981000D02*
X83693000Y-103124000D01*
X83693000Y-103124000D02*
X82169000Y-103124000D01*
X82169000Y-103124000D02*
X82169000Y-101981000D01*
X83693000Y-100965000D02*
X83693000Y-99822000D01*
X83693000Y-99822000D02*
X82169000Y-99822000D01*
X82169000Y-99822000D02*
X82169000Y-100965000D01*
X90932000Y-76835000D02*
X90932000Y-75184000D01*
X90932000Y-75184000D02*
X93218000Y-75184000D01*
X93218000Y-75184000D02*
X93218000Y-76835000D01*
X90932000Y-78359000D02*
X90932000Y-80010000D01*
X90932000Y-80010000D02*
X93218000Y-80010000D01*
X93218000Y-80010000D02*
X93218000Y-78359000D01*
X93218000Y-85979000D02*
X93218000Y-87630000D01*
X93218000Y-87630000D02*
X90932000Y-87630000D01*
X90932000Y-87630000D02*
X90932000Y-85979000D01*
X93218000Y-84455000D02*
X93218000Y-82804000D01*
X93218000Y-82804000D02*
X90932000Y-82804000D01*
X90932000Y-82804000D02*
X90932000Y-84455000D01*
X93091000Y-93853000D02*
X91948000Y-93853000D01*
X91948000Y-93853000D02*
X91948000Y-92329000D01*
X91948000Y-92329000D02*
X93091000Y-92329000D01*
X94107000Y-93853000D02*
X95250000Y-93853000D01*
X95250000Y-93853000D02*
X95250000Y-92329000D01*
X95250000Y-92329000D02*
X94107000Y-92329000D01*
X106426000Y-99441000D02*
X107569000Y-99441000D01*
X107569000Y-99441000D02*
X107569000Y-100965000D01*
X107569000Y-100965000D02*
X106426000Y-100965000D01*
X105410000Y-99441000D02*
X104267000Y-99441000D01*
X104267000Y-99441000D02*
X104267000Y-100965000D01*
X104267000Y-100965000D02*
X105410000Y-100965000D01*
X100838000Y-92202000D02*
X100838000Y-93345000D01*
X100838000Y-93345000D02*
X99314000Y-93345000D01*
X99314000Y-93345000D02*
X99314000Y-92202000D01*
X100838000Y-91186000D02*
X100838000Y-90043000D01*
X100838000Y-90043000D02*
X99314000Y-90043000D01*
X99314000Y-90043000D02*
X99314000Y-91186000D01*
X103124000Y-92202000D02*
X103124000Y-93345000D01*
X103124000Y-93345000D02*
X101600000Y-93345000D01*
X101600000Y-93345000D02*
X101600000Y-92202000D01*
X103124000Y-91186000D02*
X103124000Y-90043000D01*
X103124000Y-90043000D02*
X101600000Y-90043000D01*
X101600000Y-90043000D02*
X101600000Y-91186000D01*
X97028000Y-92202000D02*
X97028000Y-93345000D01*
X97028000Y-93345000D02*
X95504000Y-93345000D01*
X95504000Y-93345000D02*
X95504000Y-92202000D01*
X97028000Y-91186000D02*
X97028000Y-90043000D01*
X97028000Y-90043000D02*
X95504000Y-90043000D01*
X95504000Y-90043000D02*
X95504000Y-91186000D01*
X78465680Y-98772980D02*
X77322680Y-98772980D01*
X77322680Y-98772980D02*
X77322680Y-97248980D01*
X77322680Y-97248980D02*
X78465680Y-97248980D01*
X79481680Y-98772980D02*
X80624680Y-98772980D01*
X80624680Y-98772980D02*
X80624680Y-97248980D01*
X80624680Y-97248980D02*
X79481680Y-97248980D01*
X99314000Y-92202000D02*
X99314000Y-93345000D01*
X99314000Y-93345000D02*
X97790000Y-93345000D01*
X97790000Y-93345000D02*
X97790000Y-92202000D01*
X99314000Y-91186000D02*
X99314000Y-90043000D01*
X99314000Y-90043000D02*
X97790000Y-90043000D01*
X97790000Y-90043000D02*
X97790000Y-91186000D01*
X112395000Y-77470000D02*
X112395000Y-78613000D01*
X112395000Y-78613000D02*
X110871000Y-78613000D01*
X110871000Y-78613000D02*
X110871000Y-77470000D01*
X112395000Y-76454000D02*
X112395000Y-75311000D01*
X112395000Y-75311000D02*
X110871000Y-75311000D01*
X110871000Y-75311000D02*
X110871000Y-76454000D01*
X90932000Y-71882000D02*
X90932000Y-70739000D01*
X90932000Y-70739000D02*
X92456000Y-70739000D01*
X92456000Y-70739000D02*
X92456000Y-71882000D01*
X90932000Y-72898000D02*
X90932000Y-74041000D01*
X90932000Y-74041000D02*
X92456000Y-74041000D01*
X92456000Y-74041000D02*
X92456000Y-72898000D01*
X80391000Y-100965000D02*
X80391000Y-99822000D01*
X80391000Y-99822000D02*
X81915000Y-99822000D01*
X81915000Y-99822000D02*
X81915000Y-100965000D01*
X80391000Y-101981000D02*
X80391000Y-103124000D01*
X80391000Y-103124000D02*
X81915000Y-103124000D01*
X81915000Y-103124000D02*
X81915000Y-101981000D01*
X105410000Y-99441000D02*
X104267000Y-99441000D01*
X104267000Y-99441000D02*
X104267000Y-97917000D01*
X104267000Y-97917000D02*
X105410000Y-97917000D01*
X106426000Y-99441000D02*
X107569000Y-99441000D01*
X107569000Y-99441000D02*
X107569000Y-97917000D01*
X107569000Y-97917000D02*
X106426000Y-97917000D01*
X93091000Y-99060000D02*
X91948000Y-99060000D01*
X91948000Y-99060000D02*
X91948000Y-97536000D01*
X91948000Y-97536000D02*
X93091000Y-97536000D01*
X94107000Y-99060000D02*
X95250000Y-99060000D01*
X95250000Y-99060000D02*
X95250000Y-97536000D01*
X95250000Y-97536000D02*
X94107000Y-97536000D01*
X93091000Y-100584000D02*
X91948000Y-100584000D01*
X91948000Y-100584000D02*
X91948000Y-99060000D01*
X91948000Y-99060000D02*
X93091000Y-99060000D01*
X94107000Y-100584000D02*
X95250000Y-100584000D01*
X95250000Y-100584000D02*
X95250000Y-99060000D01*
X95250000Y-99060000D02*
X94107000Y-99060000D01*
X93091000Y-95631000D02*
X91948000Y-95631000D01*
X91948000Y-95631000D02*
X91948000Y-94107000D01*
X91948000Y-94107000D02*
X93091000Y-94107000D01*
X94107000Y-95631000D02*
X95250000Y-95631000D01*
X95250000Y-95631000D02*
X95250000Y-94107000D01*
X95250000Y-94107000D02*
X94107000Y-94107000D01*
X105029000Y-93472000D02*
X106172000Y-93472000D01*
X106172000Y-93472000D02*
X106172000Y-94996000D01*
X106172000Y-94996000D02*
X105029000Y-94996000D01*
X104013000Y-93472000D02*
X102870000Y-93472000D01*
X102870000Y-93472000D02*
X102870000Y-94996000D01*
X102870000Y-94996000D02*
X104013000Y-94996000D01*
X98552000Y-104521000D02*
X98552000Y-105664000D01*
X98552000Y-105664000D02*
X97028000Y-105664000D01*
X97028000Y-105664000D02*
X97028000Y-104521000D01*
X98552000Y-103505000D02*
X98552000Y-102362000D01*
X98552000Y-102362000D02*
X97028000Y-102362000D01*
X97028000Y-102362000D02*
X97028000Y-103505000D01*
X110236000Y-104394000D02*
X110236000Y-105537000D01*
X110236000Y-105537000D02*
X108712000Y-105537000D01*
X108712000Y-105537000D02*
X108712000Y-104394000D01*
X110236000Y-103378000D02*
X110236000Y-102235000D01*
X110236000Y-102235000D02*
X108712000Y-102235000D01*
X108712000Y-102235000D02*
X108712000Y-103378000D01*
X107188000Y-92202000D02*
X107188000Y-93345000D01*
X107188000Y-93345000D02*
X105664000Y-93345000D01*
X105664000Y-93345000D02*
X105664000Y-92202000D01*
X107188000Y-91186000D02*
X107188000Y-90043000D01*
X107188000Y-90043000D02*
X105664000Y-90043000D01*
X105664000Y-90043000D02*
X105664000Y-91186000D01*
X103378000Y-103505000D02*
X103378000Y-102362000D01*
X103378000Y-102362000D02*
X104902000Y-102362000D01*
X104902000Y-102362000D02*
X104902000Y-103505000D01*
X103378000Y-104521000D02*
X103378000Y-105664000D01*
X103378000Y-105664000D02*
X104902000Y-105664000D01*
X104902000Y-105664000D02*
X104902000Y-104521000D01*
X104902000Y-103505000D02*
X104902000Y-102362000D01*
X104902000Y-102362000D02*
X106426000Y-102362000D01*
X106426000Y-102362000D02*
X106426000Y-103505000D01*
X104902000Y-104521000D02*
X104902000Y-105664000D01*
X104902000Y-105664000D02*
X106426000Y-105664000D01*
X106426000Y-105664000D02*
X106426000Y-104521000D01*
X113411000Y-121158000D02*
X113411000Y-122555000D01*
X111379000Y-121158000D02*
X111379000Y-122555000D01*
X113411000Y-123571000D02*
X113411000Y-124968000D01*
X111379000Y-123571000D02*
X111379000Y-124968000D01*
X111379000Y-121158000D02*
X113411000Y-121158000D01*
X111379000Y-124968000D02*
X113411000Y-124968000D01*
X105219500Y-99783900D02*
X106235500Y-99783900D01*
X106387900Y-99961700D02*
X105067100Y-99961700D01*
X105067100Y-100164900D02*
X105067100Y-99860100D01*
X106387900Y-100164900D02*
X106387900Y-99860100D01*
X106387900Y-100164900D02*
X105067100Y-100164900D01*
X105067100Y-100876100D02*
X105067100Y-101180900D01*
X106387900Y-100876100D02*
X105067100Y-100876100D01*
X106387900Y-101180900D02*
X106387900Y-100876100D01*
X105067100Y-101079300D02*
X106387900Y-101079300D01*
X105168700Y-101231700D02*
X106184700Y-101231700D01*
X105168700Y-101231700D02*
X106184700Y-101231700D01*
X105067100Y-101079300D02*
X106387900Y-101079300D01*
X106387900Y-101180900D02*
X106387900Y-100876100D01*
X106387900Y-100876100D02*
X105067100Y-100876100D01*
X105067100Y-100876100D02*
X105067100Y-101180900D01*
X105727500Y-99504500D02*
X105727500Y-98996500D01*
X105727500Y-101536500D02*
X105727500Y-102044500D01*
X106616500Y-100520500D02*
X104838500Y-100520500D01*
X106387900Y-101180900D02*
G75*
G02*
X105067100Y-101180900I-660400J660400D01*
G01*
X105067100Y-99860100D02*
G75*
G02*
X106387900Y-99860100I660400J-660400D01*
G01*
D10*
X118623080Y-117561360D02*
X115818920Y-117568980D01*
X115818920Y-119169180D02*
X118630700Y-119161560D01*
D12*
X108458000Y-103276400D02*
X108458000Y-101549200D01*
X106680000Y-101549200D02*
X108458000Y-101549200D01*
X106680000Y-101549200D02*
X106680000Y-103276400D01*
X106680000Y-103987600D02*
X106680000Y-105714800D01*
X106680000Y-105714800D02*
X108458000Y-105714800D01*
X108458000Y-105714800D02*
X108458000Y-103987600D01*
D11*
X98958400Y-105486200D02*
X98958400Y-102552500D01*
X102971600Y-102539800D02*
X99021900Y-102539800D01*
X102971600Y-105486200D02*
X102971600Y-102539800D01*
X102971600Y-105486200D02*
X98958400Y-105486200D01*
D10*
X99326700Y-103365300D02*
X99956620Y-103357680D01*
X100012500Y-103479600D02*
X99357180Y-103479600D01*
X100007420Y-104510840D02*
X99364800Y-104510840D01*
X99971860Y-104653080D02*
X99390200Y-104653080D01*
X100058220Y-104790240D02*
X99296220Y-104790240D01*
X99308920Y-104790240D02*
X99301300Y-103271320D01*
X99301300Y-103256080D02*
X100063300Y-103251000D01*
X100063300Y-103251000D02*
X100068380Y-104780080D01*
X100789740Y-103352600D02*
X100411280Y-103350060D01*
X100799900Y-103461820D02*
X100380800Y-103461820D01*
X100779580Y-104658160D02*
X100413820Y-104658160D01*
X100802440Y-104515920D02*
X100370640Y-104515920D01*
X100810060Y-104792780D02*
X100340160Y-104792780D01*
X100342700Y-104795320D02*
X100342700Y-103245920D01*
X100342700Y-103245920D02*
X100810060Y-103245920D01*
X100810060Y-103245920D02*
X100810060Y-104790240D01*
X101554280Y-103451660D02*
X101145340Y-103451660D01*
X101546660Y-103367840D02*
X101203760Y-103367840D01*
X101546660Y-104531160D02*
X101150420Y-104531160D01*
X101566980Y-104645460D02*
X101178360Y-104642920D01*
X101592380Y-104785160D02*
X101086920Y-104785160D01*
X101086920Y-104790240D02*
X101089460Y-103230680D01*
X101089460Y-103230680D02*
X101587300Y-103230680D01*
X101587300Y-103230680D02*
X101587300Y-104790240D01*
X102608380Y-104531160D02*
X101993700Y-104526080D01*
X101945440Y-103505000D02*
X102582980Y-103505000D01*
X102580440Y-103357680D02*
X101973380Y-103360220D01*
X101904800Y-104635300D02*
X102603300Y-104635300D01*
X102649020Y-104775000D02*
X102649020Y-103223060D01*
X102643940Y-104769920D02*
X101897180Y-104769920D01*
X101894640Y-104775000D02*
X101894640Y-103223060D01*
X101894640Y-103223060D02*
X102603300Y-103223060D01*
D11*
X96621600Y-102539800D02*
X96621600Y-105473500D01*
X92608400Y-105486200D02*
X96558100Y-105486200D01*
X92608400Y-102539800D02*
X92608400Y-105486200D01*
X92608400Y-102539800D02*
X96621600Y-102539800D01*
D10*
X96253300Y-104660700D02*
X95623380Y-104668320D01*
X95567500Y-104546400D02*
X96222820Y-104546400D01*
X95572580Y-103515160D02*
X96215200Y-103515160D01*
X95608140Y-103372920D02*
X96189800Y-103372920D01*
X95521780Y-103235760D02*
X96283780Y-103235760D01*
X96271080Y-103235760D02*
X96278700Y-104754680D01*
X96278700Y-104769920D02*
X95516700Y-104775000D01*
X95516700Y-104775000D02*
X95511620Y-103245920D01*
X94790260Y-104673400D02*
X95168720Y-104675940D01*
X94780100Y-104564180D02*
X95199200Y-104564180D01*
X94800420Y-103367840D02*
X95166180Y-103367840D01*
X94777560Y-103510080D02*
X95209360Y-103510080D01*
X94769940Y-103233220D02*
X95239840Y-103233220D01*
X95237300Y-103230680D02*
X95237300Y-104780080D01*
X95237300Y-104780080D02*
X94769940Y-104780080D01*
X94769940Y-104780080D02*
X94769940Y-103235760D01*
X94025720Y-104574340D02*
X94434660Y-104574340D01*
X94033340Y-104658160D02*
X94376240Y-104658160D01*
X94033340Y-103494840D02*
X94429580Y-103494840D01*
X94013020Y-103380540D02*
X94401640Y-103383080D01*
X93987620Y-103240840D02*
X94493080Y-103240840D01*
X94493080Y-103235760D02*
X94490540Y-104795320D01*
X94490540Y-104795320D02*
X93992700Y-104795320D01*
X93992700Y-104795320D02*
X93992700Y-103235760D01*
X92971620Y-103494840D02*
X93586300Y-103499920D01*
X93634560Y-104521000D02*
X92997020Y-104521000D01*
X92999560Y-104668320D02*
X93606620Y-104665780D01*
X93675200Y-103390700D02*
X92976700Y-103390700D01*
X92930980Y-103251000D02*
X92930980Y-104802940D01*
X92936060Y-103256080D02*
X93682820Y-103256080D01*
X93685360Y-103251000D02*
X93685360Y-104802940D01*
X93685360Y-104802940D02*
X92976700Y-104802940D01*
D14*
X89010000Y-67133000D02*
X71010000Y-92633000D01*
X71010000Y-67133000D02*
X89010000Y-92633000D01*
D11*
X120372000Y-124079000D02*
G75*
G03*
X120372000Y-124079000I-1500000J0D01*
G01*
X120372000Y-75057000D02*
G75*
G03*
X120372000Y-75057000I-1500000J0D01*
G01*
X104013000Y-91186000D02*
X104013000Y-90043000D01*
X104013000Y-90043000D02*
X105537000Y-90043000D01*
X105537000Y-90043000D02*
X105537000Y-91186000D01*
X104013000Y-92202000D02*
X104013000Y-93345000D01*
X104013000Y-93345000D02*
X105537000Y-93345000D01*
X105537000Y-93345000D02*
X105537000Y-92202000D01*
D15*
X118444590Y-96965080D02*
X117944590Y-96965080D01*
X117944590Y-96774604D01*
X117968400Y-96726985D01*
X117992209Y-96703176D01*
X118039828Y-96679366D01*
X118111257Y-96679366D01*
X118158876Y-96703176D01*
X118182685Y-96726985D01*
X118206495Y-96774604D01*
X118206495Y-96965080D01*
X118396971Y-96179366D02*
X118420780Y-96203176D01*
X118444590Y-96274604D01*
X118444590Y-96322223D01*
X118420780Y-96393652D01*
X118373161Y-96441271D01*
X118325542Y-96465080D01*
X118230304Y-96488890D01*
X118158876Y-96488890D01*
X118063638Y-96465080D01*
X118016019Y-96441271D01*
X117968400Y-96393652D01*
X117944590Y-96322223D01*
X117944590Y-96274604D01*
X117968400Y-96203176D01*
X117992209Y-96179366D01*
X118182685Y-95798414D02*
X118206495Y-95726985D01*
X118230304Y-95703176D01*
X118277923Y-95679366D01*
X118349352Y-95679366D01*
X118396971Y-95703176D01*
X118420780Y-95726985D01*
X118444590Y-95774604D01*
X118444590Y-95965080D01*
X117944590Y-95965080D01*
X117944590Y-95798414D01*
X117968400Y-95750795D01*
X117992209Y-95726985D01*
X118039828Y-95703176D01*
X118087447Y-95703176D01*
X118135066Y-95726985D01*
X118158876Y-95750795D01*
X118182685Y-95798414D01*
X118182685Y-95965080D01*
X118420780Y-94893652D02*
X118444590Y-94941271D01*
X118444590Y-95036509D01*
X118420780Y-95084128D01*
X118373161Y-95107938D01*
X118182685Y-95107938D01*
X118135066Y-95084128D01*
X118111257Y-95036509D01*
X118111257Y-94941271D01*
X118135066Y-94893652D01*
X118182685Y-94869842D01*
X118230304Y-94869842D01*
X118277923Y-95107938D01*
X118444590Y-94441271D02*
X117944590Y-94441271D01*
X118420780Y-94441271D02*
X118444590Y-94488890D01*
X118444590Y-94584128D01*
X118420780Y-94631747D01*
X118396971Y-94655557D01*
X118349352Y-94679366D01*
X118206495Y-94679366D01*
X118158876Y-94655557D01*
X118135066Y-94631747D01*
X118111257Y-94584128D01*
X118111257Y-94488890D01*
X118135066Y-94441271D01*
X118111257Y-93988890D02*
X118516019Y-93988890D01*
X118563638Y-94012700D01*
X118587447Y-94036509D01*
X118611257Y-94084128D01*
X118611257Y-94155557D01*
X118587447Y-94203176D01*
X118420780Y-93988890D02*
X118444590Y-94036509D01*
X118444590Y-94131747D01*
X118420780Y-94179366D01*
X118396971Y-94203176D01*
X118349352Y-94226985D01*
X118206495Y-94226985D01*
X118158876Y-94203176D01*
X118135066Y-94179366D01*
X118111257Y-94131747D01*
X118111257Y-94036509D01*
X118135066Y-93988890D01*
X118420780Y-93560319D02*
X118444590Y-93607938D01*
X118444590Y-93703176D01*
X118420780Y-93750795D01*
X118373161Y-93774604D01*
X118182685Y-93774604D01*
X118135066Y-93750795D01*
X118111257Y-93703176D01*
X118111257Y-93607938D01*
X118135066Y-93560319D01*
X118182685Y-93536509D01*
X118230304Y-93536509D01*
X118277923Y-93774604D01*
D10*
X73107142Y-70630142D02*
X73154761Y-70677761D01*
X73107142Y-70725380D01*
X73059523Y-70677761D01*
X73107142Y-70630142D01*
X73107142Y-70725380D01*
X73107142Y-70344428D02*
X73059523Y-69773000D01*
X73107142Y-69725380D01*
X73154761Y-69773000D01*
X73107142Y-70344428D01*
X73107142Y-69725380D01*
X74345238Y-70725380D02*
X74345238Y-69725380D01*
X74916666Y-70725380D02*
X74488095Y-70153952D01*
X74916666Y-69725380D02*
X74345238Y-70296809D01*
X75726190Y-70677761D02*
X75630952Y-70725380D01*
X75440476Y-70725380D01*
X75345238Y-70677761D01*
X75297619Y-70582523D01*
X75297619Y-70201571D01*
X75345238Y-70106333D01*
X75440476Y-70058714D01*
X75630952Y-70058714D01*
X75726190Y-70106333D01*
X75773809Y-70201571D01*
X75773809Y-70296809D01*
X75297619Y-70392047D01*
X76583333Y-70677761D02*
X76488095Y-70725380D01*
X76297619Y-70725380D01*
X76202380Y-70677761D01*
X76154761Y-70582523D01*
X76154761Y-70201571D01*
X76202380Y-70106333D01*
X76297619Y-70058714D01*
X76488095Y-70058714D01*
X76583333Y-70106333D01*
X76630952Y-70201571D01*
X76630952Y-70296809D01*
X76154761Y-70392047D01*
X77059523Y-70058714D02*
X77059523Y-71058714D01*
X77059523Y-70106333D02*
X77154761Y-70058714D01*
X77345238Y-70058714D01*
X77440476Y-70106333D01*
X77488095Y-70153952D01*
X77535714Y-70249190D01*
X77535714Y-70534904D01*
X77488095Y-70630142D01*
X77440476Y-70677761D01*
X77345238Y-70725380D01*
X77154761Y-70725380D01*
X77059523Y-70677761D01*
X78916666Y-69725380D02*
X79107142Y-69725380D01*
X79202380Y-69773000D01*
X79297619Y-69868238D01*
X79345238Y-70058714D01*
X79345238Y-70392047D01*
X79297619Y-70582523D01*
X79202380Y-70677761D01*
X79107142Y-70725380D01*
X78916666Y-70725380D01*
X78821428Y-70677761D01*
X78726190Y-70582523D01*
X78678571Y-70392047D01*
X78678571Y-70058714D01*
X78726190Y-69868238D01*
X78821428Y-69773000D01*
X78916666Y-69725380D01*
X80202380Y-70058714D02*
X80202380Y-70725380D01*
X79773809Y-70058714D02*
X79773809Y-70582523D01*
X79821428Y-70677761D01*
X79916666Y-70725380D01*
X80059523Y-70725380D01*
X80154761Y-70677761D01*
X80202380Y-70630142D01*
X80535714Y-70058714D02*
X80916666Y-70058714D01*
X80678571Y-69725380D02*
X80678571Y-70582523D01*
X80726190Y-70677761D01*
X80821428Y-70725380D01*
X80916666Y-70725380D01*
X81916666Y-69725380D02*
X82583333Y-69725380D01*
X81916666Y-70725380D01*
X82583333Y-70725380D01*
X83107142Y-70725380D02*
X83011904Y-70677761D01*
X82964285Y-70630142D01*
X82916666Y-70534904D01*
X82916666Y-70249190D01*
X82964285Y-70153952D01*
X83011904Y-70106333D01*
X83107142Y-70058714D01*
X83250000Y-70058714D01*
X83345238Y-70106333D01*
X83392857Y-70153952D01*
X83440476Y-70249190D01*
X83440476Y-70534904D01*
X83392857Y-70630142D01*
X83345238Y-70677761D01*
X83250000Y-70725380D01*
X83107142Y-70725380D01*
X83869047Y-70058714D02*
X83869047Y-70725380D01*
X83869047Y-70153952D02*
X83916666Y-70106333D01*
X84011904Y-70058714D01*
X84154761Y-70058714D01*
X84250000Y-70106333D01*
X84297619Y-70201571D01*
X84297619Y-70725380D01*
X85154761Y-70677761D02*
X85059523Y-70725380D01*
X84869047Y-70725380D01*
X84773809Y-70677761D01*
X84726190Y-70582523D01*
X84726190Y-70201571D01*
X84773809Y-70106333D01*
X84869047Y-70058714D01*
X85059523Y-70058714D01*
X85154761Y-70106333D01*
X85202380Y-70201571D01*
X85202380Y-70296809D01*
X84726190Y-70392047D01*
X86392857Y-70630142D02*
X86440476Y-70677761D01*
X86392857Y-70725380D01*
X86345238Y-70677761D01*
X86392857Y-70630142D01*
X86392857Y-70725380D01*
X86392857Y-70344428D02*
X86345238Y-69773000D01*
X86392857Y-69725380D01*
X86440476Y-69773000D01*
X86392857Y-70344428D01*
X86392857Y-69725380D01*
M02*
