M48
; DRILL file {KiCad (5.1.10)-1} date 08/27/21 22:23:50
; FORMAT={-:-/ absolute / inch / decimal}
; #@! TF.CreationDate,2021-08-27T22:23:50-03:00
; #@! TF.GenerationSoftware,Kicad,Pcbnew,(5.1.10)-1
; #@! TF.FileFunction,Plated,1,2,PTH
FMAT,2
INCH
T1C0.0118
T2C0.0118
T3C0.0157
T4C0.0197
T5C0.0236
T6C0.0354
T7C0.0394
T8C0.0433
T9C0.0469
T10C0.0472
T11C0.0512
T12C0.0709
T13C0.1299
%
G90
G05
T1
X3.9547Y-3.9112
T2
X3.8838Y-3.8403
X3.8838Y-3.8797
X3.9153Y-3.8088
X3.9153Y-3.9112
X3.9547Y-3.8088
X3.9862Y-3.8403
X3.9862Y-3.8797
T3
X2.765Y-4.295
X2.765Y-4.42
X2.765Y-4.58
X2.7942Y-4.1
X2.7985Y-4.5884
X2.87Y-3.035
X2.87Y-3.285
X2.8708Y-3.3359
X2.9Y-3.455
X2.9173Y-3.3855
X2.9175Y-3.4225
X2.97Y-4.46
X2.975Y-3.685
X2.9802Y-4.3416
X2.9943Y-3.5182
X3.0902Y-4.2667
X3.1257Y-3.5652
X3.155Y-3.475
X3.1598Y-3.7904
X3.174Y-4.2346
X3.19Y-3.46
X3.19Y-3.72
X3.2051Y-3.5226
X3.2284Y-3.4972
X3.23Y-3.72
X3.2342Y-3.5499
X3.2692Y-3.72
X3.3091Y-4.1191
X3.31Y-3.82
X3.3472Y-3.2903
X3.3475Y-3.325
X3.37Y-4.3875
X3.3746Y-3.3976
X3.376Y-3.4321
X3.3773Y-3.4667
X3.395Y-3.84
X3.395Y-3.955
X3.41Y-3.68
X3.5625Y-4.41
X3.5625Y-4.4425
X3.5625Y-4.4775
X3.6108Y-3.9021
X3.7113Y-3.5238
X3.7464Y-3.529
X3.772Y-4.465
X3.775Y-4.0175
X3.81Y-4.0175
X3.91Y-3.575
X3.9485Y-4.0271
X3.9829Y-4.0239
X4.0175Y-4.025
X4.03Y-3.755
X4.043Y-4.465
X4.06Y-3.775
X4.1Y-3.82
X4.1Y-4.025
X4.105Y-3.93
X4.135Y-4.025
X4.1384Y-3.8234
X4.1402Y-3.7869
X4.17Y-3.805
X4.17Y-4.025
X4.19Y-3.515
X4.55Y-4.725
X4.715Y-4.055
X4.715Y-4.155
X4.715Y-4.32
X4.715Y-4.485
X4.715Y-4.66
X4.715Y-4.8
T4
X3.755Y-3.565
T5
X2.785Y-4.815
X2.815Y-4.75
X2.815Y-4.885
X2.88Y-2.935
X2.88Y-4.72
X2.88Y-4.91
X2.92Y-2.925
X2.925Y-3.57
X2.925Y-3.715
X2.925Y-3.765
X2.925Y-4.565
X2.945Y-4.75
X2.945Y-4.88
X2.975Y-2.925
X2.975Y-2.995
X2.975Y-3.075
X2.975Y-3.2
X2.975Y-4.815
X2.985Y-3.295
X3.035Y-2.925
X3.035Y-2.995
X3.035Y-3.075
X3.035Y-3.56
X3.0375Y-3.5
X3.0398Y-3.1607
X3.0398Y-3.2316
X3.0398Y-3.3025
X3.0775Y-3.56
X3.1Y-2.925
X3.1Y-2.995
X3.1Y-3.075
X3.1106Y-3.1607
X3.1106Y-3.3025
X3.1325Y-4.6225
X3.1325Y-4.6675
X3.165Y-2.925
X3.165Y-2.995
X3.165Y-3.075
X3.1815Y-3.1607
X3.1815Y-3.2316
X3.1815Y-3.3025
X3.1875Y-4.625
X3.1875Y-4.67
X3.225Y-2.925
X3.225Y-2.995
X3.225Y-3.075
X3.248Y-4.23
X3.248Y-4.27
X3.275Y-2.925
X3.275Y-2.995
X3.275Y-3.075
X3.31Y-4.045
X3.325Y-2.925
X3.325Y-2.995
X3.325Y-3.075
X3.375Y-2.925
X3.375Y-2.995
X3.425Y-2.935
X3.435Y-3.97
X3.44Y-3.84
X3.49Y-4.12
X3.495Y-4.195
X3.495Y-4.235
X3.55Y-2.685
X3.55Y-2.735
X3.55Y-2.785
X3.55Y-2.835
X3.55Y-2.885
X3.55Y-3.61
X3.58Y-4.1
X3.605Y-3.47
X3.61Y-2.685
X3.61Y-2.735
X3.61Y-2.94
X3.644Y-3.47
X3.6484Y-3.7016
X3.65Y-2.94
X3.7075Y-4.29
X3.7075Y-4.335
X3.725Y-3.6125
X3.75Y-2.775
X3.755Y-4.29
X3.755Y-4.335
X3.8Y-2.7
X3.805Y-4.29
X3.805Y-4.335
X3.825Y-2.975
X3.85Y-2.775
X3.85Y-3.225
X3.855Y-4.29
X3.855Y-4.335
X3.89Y-4.12
X3.905Y-4.29
X3.905Y-4.335
X3.925Y-2.7
X3.925Y-2.85
X3.925Y-3.0
X3.925Y-3.15
X3.955Y-4.29
X3.955Y-4.335
X4.0Y-2.775
X4.0Y-2.925
X4.0Y-3.075
X4.0Y-3.225
X4.01Y-4.29
X4.01Y-4.335
X4.06Y-3.975
X4.06Y-4.02
X4.075Y-2.7
X4.075Y-2.85
X4.075Y-3.0
X4.075Y-3.15
X4.075Y-3.575
X4.08Y-4.29
X4.08Y-4.335
X4.15Y-2.775
X4.15Y-3.225
X4.155Y-4.29
X4.155Y-4.33
X4.175Y-2.975
X4.19Y-3.705
X4.19Y-3.745
X4.2Y-2.7
X4.225Y-4.29
X4.225Y-4.33
X4.24Y-4.556
X4.247Y-4.419
X4.25Y-2.775
X4.255Y-3.575
X4.305Y-3.575
X4.305Y-3.62
X4.305Y-3.665
X4.305Y-3.71
X4.305Y-3.755
X4.305Y-3.8
X4.305Y-3.845
X4.305Y-3.89
X4.305Y-3.935
X4.305Y-3.98
X4.34Y-4.235
X4.375Y-3.37
X4.375Y-3.42
X4.375Y-3.47
X4.375Y-3.52
X4.375Y-3.57
X4.375Y-3.62
X4.375Y-3.665
X4.375Y-3.705
X4.38Y-2.7
X4.38Y-2.775
X4.38Y-2.85
X4.38Y-2.925
X4.405Y-4.93
X4.415Y-4.625
X4.425Y-2.95
X4.425Y-3.37
X4.425Y-3.42
X4.425Y-3.47
X4.425Y-3.52
X4.425Y-3.57
X4.4275Y-3.695
X4.435Y-4.125
X4.435Y-4.76
X4.44Y-4.715
X4.445Y-3.66
X4.45Y-4.93
X4.46Y-4.4
X4.475Y-2.95
X4.475Y-3.0
X4.475Y-3.05
X4.475Y-3.37
X4.475Y-3.42
X4.475Y-3.47
X4.475Y-3.52
X4.475Y-3.57
X4.485Y-2.8
X4.49Y-3.66
X4.5Y-4.4
X4.5Y-4.465
X4.515Y-2.735
X4.515Y-2.87
X4.525Y-2.95
X4.525Y-3.0
X4.525Y-3.05
X4.525Y-3.1
X4.525Y-3.15
X4.525Y-3.22
X4.525Y-3.27
X4.525Y-3.32
X4.525Y-3.37
X4.525Y-3.42
X4.525Y-3.47
X4.525Y-3.52
X4.525Y-3.57
X4.55Y-4.66
X4.57Y-3.36
X4.575Y-3.0
X4.575Y-3.05
X4.575Y-3.1
X4.58Y-2.705
X4.58Y-2.895
X4.59Y-4.66
X4.595Y-4.365
X4.645Y-2.735
X4.645Y-2.865
X4.675Y-2.8
T6
X3.8254Y-3.4488
X3.8754Y-3.3488
X3.9254Y-3.4488
X3.9754Y-3.3488
X4.0254Y-3.4488
X4.0754Y-3.3488
X4.1254Y-3.4488
X4.1754Y-3.3488
T7
X2.857Y-3.888
X2.857Y-3.988
X2.857Y-4.088
X2.857Y-4.188
X2.857Y-4.288
X2.857Y-4.388
X2.857Y-4.488
T8
X3.7398Y-2.8981
X3.8398Y-2.8981
X4.1602Y-2.8981
X4.2602Y-2.8981
T9
X3.08Y-4.9375
X3.18Y-4.9375
X3.28Y-4.9375
X3.42Y-4.9425
X3.52Y-4.9425
X3.66Y-4.9425
X3.76Y-4.9425
X3.9Y-4.9375
X4.0Y-4.9375
X4.14Y-4.94
X4.24Y-4.94
T10
X3.935Y-3.86
T11
X3.1106Y-3.2316
T12
X3.6929Y-3.2051
X4.3071Y-3.2051
T13
X2.88Y-4.815
X4.58Y-2.8
T0
M30
