G04 #@! TF.GenerationSoftware,KiCad,Pcbnew,(5.1.10)-1*
G04 #@! TF.CreationDate,2021-08-27T22:23:48-03:00*
G04 #@! TF.ProjectId,ESP32-GATEWAY_Rev_F,45535033-322d-4474-9154-455741595f52,F*
G04 #@! TF.SameCoordinates,Original*
G04 #@! TF.FileFunction,Soldermask,Top*
G04 #@! TF.FilePolarity,Negative*
%FSLAX46Y46*%
G04 Gerber Fmt 4.6, Leading zero omitted, Abs format (unit mm)*
G04 Created by KiCad (PCBNEW (5.1.10)-1) date 2021-08-27 22:23:48*
%MOMM*%
%LPD*%
G01*
G04 APERTURE LIST*
%ADD10O,2.140000X2.590000*%
%ADD11O,2.100000X2.100000*%
%ADD12C,1.810000*%
%ADD13C,2.050000*%
%ADD14C,3.100000*%
%ADD15C,3.600000*%
%ADD16C,1.101600*%
%ADD17C,1.600000*%
%ADD18C,6.700000*%
%ADD19C,2.101600*%
%ADD20C,1.254000*%
G04 APERTURE END LIST*
G36*
G01*
X84538500Y-115753300D02*
X83863500Y-115753300D01*
G75*
G02*
X83526000Y-115415800I0J337500D01*
G01*
X83526000Y-114715800D01*
G75*
G02*
X83863500Y-114378300I337500J0D01*
G01*
X84538500Y-114378300D01*
G75*
G02*
X84876000Y-114715800I0J-337500D01*
G01*
X84876000Y-115415800D01*
G75*
G02*
X84538500Y-115753300I-337500J0D01*
G01*
G37*
G36*
G01*
X84538500Y-117578300D02*
X83863500Y-117578300D01*
G75*
G02*
X83526000Y-117240800I0J337500D01*
G01*
X83526000Y-116540800D01*
G75*
G02*
X83863500Y-116203300I337500J0D01*
G01*
X84538500Y-116203300D01*
G75*
G02*
X84876000Y-116540800I0J-337500D01*
G01*
X84876000Y-117240800D01*
G75*
G02*
X84538500Y-117578300I-337500J0D01*
G01*
G37*
D10*
X86868000Y-125539500D03*
G36*
G01*
X90478000Y-124551970D02*
X90478000Y-126527030D01*
G75*
G02*
X90170530Y-126834500I-307470J0D01*
G01*
X88645470Y-126834500D01*
G75*
G02*
X88338000Y-126527030I0J307470D01*
G01*
X88338000Y-124551970D01*
G75*
G02*
X88645470Y-124244500I307470J0D01*
G01*
X90170530Y-124244500D01*
G75*
G02*
X90478000Y-124551970I0J-307470D01*
G01*
G37*
G36*
G01*
X86108500Y-120847500D02*
X85468500Y-120847500D01*
G75*
G02*
X85268500Y-120647500I0J200000D01*
G01*
X85268500Y-118647500D01*
G75*
G02*
X85468500Y-118447500I200000J0D01*
G01*
X86108500Y-118447500D01*
G75*
G02*
X86308500Y-118647500I0J-200000D01*
G01*
X86308500Y-120647500D01*
G75*
G02*
X86108500Y-120847500I-200000J0D01*
G01*
G37*
G36*
G01*
X87378500Y-120847500D02*
X86738500Y-120847500D01*
G75*
G02*
X86538500Y-120647500I0J200000D01*
G01*
X86538500Y-118647500D01*
G75*
G02*
X86738500Y-118447500I200000J0D01*
G01*
X87378500Y-118447500D01*
G75*
G02*
X87578500Y-118647500I0J-200000D01*
G01*
X87578500Y-120647500D01*
G75*
G02*
X87378500Y-120847500I-200000J0D01*
G01*
G37*
G36*
G01*
X87378500Y-114547500D02*
X86738500Y-114547500D01*
G75*
G02*
X86538500Y-114347500I0J200000D01*
G01*
X86538500Y-112347500D01*
G75*
G02*
X86738500Y-112147500I200000J0D01*
G01*
X87378500Y-112147500D01*
G75*
G02*
X87578500Y-112347500I0J-200000D01*
G01*
X87578500Y-114347500D01*
G75*
G02*
X87378500Y-114547500I-200000J0D01*
G01*
G37*
G36*
G01*
X86108500Y-114547500D02*
X85468500Y-114547500D01*
G75*
G02*
X85268500Y-114347500I0J200000D01*
G01*
X85268500Y-112347500D01*
G75*
G02*
X85468500Y-112147500I200000J0D01*
G01*
X86108500Y-112147500D01*
G75*
G02*
X86308500Y-112347500I0J-200000D01*
G01*
X86308500Y-114347500D01*
G75*
G02*
X86108500Y-114547500I-200000J0D01*
G01*
G37*
G36*
G01*
X92077500Y-120847500D02*
X91437500Y-120847500D01*
G75*
G02*
X91237500Y-120647500I0J200000D01*
G01*
X91237500Y-118647500D01*
G75*
G02*
X91437500Y-118447500I200000J0D01*
G01*
X92077500Y-118447500D01*
G75*
G02*
X92277500Y-118647500I0J-200000D01*
G01*
X92277500Y-120647500D01*
G75*
G02*
X92077500Y-120847500I-200000J0D01*
G01*
G37*
G36*
G01*
X93347500Y-120847500D02*
X92707500Y-120847500D01*
G75*
G02*
X92507500Y-120647500I0J200000D01*
G01*
X92507500Y-118647500D01*
G75*
G02*
X92707500Y-118447500I200000J0D01*
G01*
X93347500Y-118447500D01*
G75*
G02*
X93547500Y-118647500I0J-200000D01*
G01*
X93547500Y-120647500D01*
G75*
G02*
X93347500Y-120847500I-200000J0D01*
G01*
G37*
G36*
G01*
X93347500Y-114547500D02*
X92707500Y-114547500D01*
G75*
G02*
X92507500Y-114347500I0J200000D01*
G01*
X92507500Y-112347500D01*
G75*
G02*
X92707500Y-112147500I200000J0D01*
G01*
X93347500Y-112147500D01*
G75*
G02*
X93547500Y-112347500I0J-200000D01*
G01*
X93547500Y-114347500D01*
G75*
G02*
X93347500Y-114547500I-200000J0D01*
G01*
G37*
G36*
G01*
X92077500Y-114547500D02*
X91437500Y-114547500D01*
G75*
G02*
X91237500Y-114347500I0J200000D01*
G01*
X91237500Y-112347500D01*
G75*
G02*
X91437500Y-112147500I200000J0D01*
G01*
X92077500Y-112147500D01*
G75*
G02*
X92277500Y-112347500I0J-200000D01*
G01*
X92277500Y-114347500D01*
G75*
G02*
X92077500Y-114547500I-200000J0D01*
G01*
G37*
G36*
G01*
X90444000Y-115753300D02*
X89769000Y-115753300D01*
G75*
G02*
X89431500Y-115415800I0J337500D01*
G01*
X89431500Y-114715800D01*
G75*
G02*
X89769000Y-114378300I337500J0D01*
G01*
X90444000Y-114378300D01*
G75*
G02*
X90781500Y-114715800I0J-337500D01*
G01*
X90781500Y-115415800D01*
G75*
G02*
X90444000Y-115753300I-337500J0D01*
G01*
G37*
G36*
G01*
X90444000Y-117578300D02*
X89769000Y-117578300D01*
G75*
G02*
X89431500Y-117240800I0J337500D01*
G01*
X89431500Y-116540800D01*
G75*
G02*
X89769000Y-116203300I337500J0D01*
G01*
X90444000Y-116203300D01*
G75*
G02*
X90781500Y-116540800I0J-337500D01*
G01*
X90781500Y-117240800D01*
G75*
G02*
X90444000Y-117578300I-337500J0D01*
G01*
G37*
X92964000Y-125539500D03*
G36*
G01*
X96574000Y-124551970D02*
X96574000Y-126527030D01*
G75*
G02*
X96266530Y-126834500I-307470J0D01*
G01*
X94741470Y-126834500D01*
G75*
G02*
X94434000Y-126527030I0J307470D01*
G01*
X94434000Y-124551970D01*
G75*
G02*
X94741470Y-124244500I307470J0D01*
G01*
X96266530Y-124244500D01*
G75*
G02*
X96574000Y-124551970I0J-307470D01*
G01*
G37*
G36*
G01*
X114370800Y-125276400D02*
X116870800Y-125276400D01*
G75*
G02*
X117070800Y-125476400I0J-200000D01*
G01*
X117070800Y-127376400D01*
G75*
G02*
X116870800Y-127576400I-200000J0D01*
G01*
X114370800Y-127576400D01*
G75*
G02*
X114170800Y-127376400I0J200000D01*
G01*
X114170800Y-125476400D01*
G75*
G02*
X114370800Y-125276400I200000J0D01*
G01*
G37*
G36*
G01*
X114370800Y-121176400D02*
X116870800Y-121176400D01*
G75*
G02*
X117070800Y-121376400I0J-200000D01*
G01*
X117070800Y-123276400D01*
G75*
G02*
X116870800Y-123476400I-200000J0D01*
G01*
X114370800Y-123476400D01*
G75*
G02*
X114170800Y-123276400I0J200000D01*
G01*
X114170800Y-121376400D01*
G75*
G02*
X114370800Y-121176400I200000J0D01*
G01*
G37*
G36*
G01*
X98694200Y-120809000D02*
X98054200Y-120809000D01*
G75*
G02*
X97854200Y-120609000I0J200000D01*
G01*
X97854200Y-118609000D01*
G75*
G02*
X98054200Y-118409000I200000J0D01*
G01*
X98694200Y-118409000D01*
G75*
G02*
X98894200Y-118609000I0J-200000D01*
G01*
X98894200Y-120609000D01*
G75*
G02*
X98694200Y-120809000I-200000J0D01*
G01*
G37*
G36*
G01*
X99964200Y-120809000D02*
X99324200Y-120809000D01*
G75*
G02*
X99124200Y-120609000I0J200000D01*
G01*
X99124200Y-118609000D01*
G75*
G02*
X99324200Y-118409000I200000J0D01*
G01*
X99964200Y-118409000D01*
G75*
G02*
X100164200Y-118609000I0J-200000D01*
G01*
X100164200Y-120609000D01*
G75*
G02*
X99964200Y-120809000I-200000J0D01*
G01*
G37*
G36*
G01*
X99964200Y-114509000D02*
X99324200Y-114509000D01*
G75*
G02*
X99124200Y-114309000I0J200000D01*
G01*
X99124200Y-112309000D01*
G75*
G02*
X99324200Y-112109000I200000J0D01*
G01*
X99964200Y-112109000D01*
G75*
G02*
X100164200Y-112309000I0J-200000D01*
G01*
X100164200Y-114309000D01*
G75*
G02*
X99964200Y-114509000I-200000J0D01*
G01*
G37*
G36*
G01*
X98694200Y-114509000D02*
X98054200Y-114509000D01*
G75*
G02*
X97854200Y-114309000I0J200000D01*
G01*
X97854200Y-112309000D01*
G75*
G02*
X98054200Y-112109000I200000J0D01*
G01*
X98694200Y-112109000D01*
G75*
G02*
X98894200Y-112309000I0J-200000D01*
G01*
X98894200Y-114309000D01*
G75*
G02*
X98694200Y-114509000I-200000J0D01*
G01*
G37*
G36*
G01*
X105450600Y-120809000D02*
X104810600Y-120809000D01*
G75*
G02*
X104610600Y-120609000I0J200000D01*
G01*
X104610600Y-118609000D01*
G75*
G02*
X104810600Y-118409000I200000J0D01*
G01*
X105450600Y-118409000D01*
G75*
G02*
X105650600Y-118609000I0J-200000D01*
G01*
X105650600Y-120609000D01*
G75*
G02*
X105450600Y-120809000I-200000J0D01*
G01*
G37*
G36*
G01*
X106720600Y-120809000D02*
X106080600Y-120809000D01*
G75*
G02*
X105880600Y-120609000I0J200000D01*
G01*
X105880600Y-118609000D01*
G75*
G02*
X106080600Y-118409000I200000J0D01*
G01*
X106720600Y-118409000D01*
G75*
G02*
X106920600Y-118609000I0J-200000D01*
G01*
X106920600Y-120609000D01*
G75*
G02*
X106720600Y-120809000I-200000J0D01*
G01*
G37*
G36*
G01*
X106720600Y-114509000D02*
X106080600Y-114509000D01*
G75*
G02*
X105880600Y-114309000I0J200000D01*
G01*
X105880600Y-112309000D01*
G75*
G02*
X106080600Y-112109000I200000J0D01*
G01*
X106720600Y-112109000D01*
G75*
G02*
X106920600Y-112309000I0J-200000D01*
G01*
X106920600Y-114309000D01*
G75*
G02*
X106720600Y-114509000I-200000J0D01*
G01*
G37*
G36*
G01*
X105450600Y-114509000D02*
X104810600Y-114509000D01*
G75*
G02*
X104610600Y-114309000I0J200000D01*
G01*
X104610600Y-112309000D01*
G75*
G02*
X104810600Y-112109000I200000J0D01*
G01*
X105450600Y-112109000D01*
G75*
G02*
X105650600Y-112309000I0J-200000D01*
G01*
X105650600Y-114309000D01*
G75*
G02*
X105450600Y-114509000I-200000J0D01*
G01*
G37*
G36*
G01*
X96603500Y-115753300D02*
X95928500Y-115753300D01*
G75*
G02*
X95591000Y-115415800I0J337500D01*
G01*
X95591000Y-114715800D01*
G75*
G02*
X95928500Y-114378300I337500J0D01*
G01*
X96603500Y-114378300D01*
G75*
G02*
X96941000Y-114715800I0J-337500D01*
G01*
X96941000Y-115415800D01*
G75*
G02*
X96603500Y-115753300I-337500J0D01*
G01*
G37*
G36*
G01*
X96603500Y-117578300D02*
X95928500Y-117578300D01*
G75*
G02*
X95591000Y-117240800I0J337500D01*
G01*
X95591000Y-116540800D01*
G75*
G02*
X95928500Y-116203300I337500J0D01*
G01*
X96603500Y-116203300D01*
G75*
G02*
X96941000Y-116540800I0J-337500D01*
G01*
X96941000Y-117240800D01*
G75*
G02*
X96603500Y-117578300I-337500J0D01*
G01*
G37*
G36*
G01*
X103436100Y-115753300D02*
X102761100Y-115753300D01*
G75*
G02*
X102423600Y-115415800I0J337500D01*
G01*
X102423600Y-114715800D01*
G75*
G02*
X102761100Y-114378300I337500J0D01*
G01*
X103436100Y-114378300D01*
G75*
G02*
X103773600Y-114715800I0J-337500D01*
G01*
X103773600Y-115415800D01*
G75*
G02*
X103436100Y-115753300I-337500J0D01*
G01*
G37*
G36*
G01*
X103436100Y-117578300D02*
X102761100Y-117578300D01*
G75*
G02*
X102423600Y-117240800I0J337500D01*
G01*
X102423600Y-116540800D01*
G75*
G02*
X102761100Y-116203300I337500J0D01*
G01*
X103436100Y-116203300D01*
G75*
G02*
X103773600Y-116540800I0J-337500D01*
G01*
X103773600Y-117240800D01*
G75*
G02*
X103436100Y-117578300I-337500J0D01*
G01*
G37*
G36*
G01*
X111079894Y-122863800D02*
X109900106Y-122863800D01*
G75*
G02*
X109565000Y-122528694I0J335106D01*
G01*
X109565000Y-121623906D01*
G75*
G02*
X109900106Y-121288800I335106J0D01*
G01*
X111079894Y-121288800D01*
G75*
G02*
X111415000Y-121623906I0J-335106D01*
G01*
X111415000Y-122528694D01*
G75*
G02*
X111079894Y-122863800I-335106J0D01*
G01*
G37*
G36*
G01*
X111079894Y-124938800D02*
X109900106Y-124938800D01*
G75*
G02*
X109565000Y-124603694I0J335106D01*
G01*
X109565000Y-123698906D01*
G75*
G02*
X109900106Y-123363800I335106J0D01*
G01*
X111079894Y-123363800D01*
G75*
G02*
X111415000Y-123698906I0J-335106D01*
G01*
X111415000Y-124603694D01*
G75*
G02*
X111079894Y-124938800I-335106J0D01*
G01*
G37*
G36*
G01*
X82862600Y-112348600D02*
X82862600Y-111048600D01*
G75*
G02*
X83062600Y-110848600I200000J0D01*
G01*
X84612600Y-110848600D01*
G75*
G02*
X84812600Y-111048600I0J-200000D01*
G01*
X84812600Y-112348600D01*
G75*
G02*
X84612600Y-112548600I-200000J0D01*
G01*
X83062600Y-112548600D01*
G75*
G02*
X82862600Y-112348600I0J200000D01*
G01*
G37*
G36*
G01*
X82862600Y-107848600D02*
X82862600Y-106548600D01*
G75*
G02*
X83062600Y-106348600I200000J0D01*
G01*
X84612600Y-106348600D01*
G75*
G02*
X84812600Y-106548600I0J-200000D01*
G01*
X84812600Y-107848600D01*
G75*
G02*
X84612600Y-108048600I-200000J0D01*
G01*
X83062600Y-108048600D01*
G75*
G02*
X82862600Y-107848600I0J200000D01*
G01*
G37*
G36*
G01*
X74902600Y-107848600D02*
X74902600Y-106548600D01*
G75*
G02*
X75102600Y-106348600I200000J0D01*
G01*
X76652600Y-106348600D01*
G75*
G02*
X76852600Y-106548600I0J-200000D01*
G01*
X76852600Y-107848600D01*
G75*
G02*
X76652600Y-108048600I-200000J0D01*
G01*
X75102600Y-108048600D01*
G75*
G02*
X74902600Y-107848600I0J200000D01*
G01*
G37*
G36*
G01*
X74902600Y-112348600D02*
X74902600Y-111048600D01*
G75*
G02*
X75102600Y-110848600I200000J0D01*
G01*
X76652600Y-110848600D01*
G75*
G02*
X76852600Y-111048600I0J-200000D01*
G01*
X76852600Y-112348600D01*
G75*
G02*
X76652600Y-112548600I-200000J0D01*
G01*
X75102600Y-112548600D01*
G75*
G02*
X74902600Y-112348600I0J200000D01*
G01*
G37*
G36*
G01*
X78798000Y-121559000D02*
X78798000Y-120884000D01*
G75*
G02*
X79135500Y-120546500I337500J0D01*
G01*
X79835500Y-120546500D01*
G75*
G02*
X80173000Y-120884000I0J-337500D01*
G01*
X80173000Y-121559000D01*
G75*
G02*
X79835500Y-121896500I-337500J0D01*
G01*
X79135500Y-121896500D01*
G75*
G02*
X78798000Y-121559000I0J337500D01*
G01*
G37*
G36*
G01*
X76973000Y-121559000D02*
X76973000Y-120884000D01*
G75*
G02*
X77310500Y-120546500I337500J0D01*
G01*
X78010500Y-120546500D01*
G75*
G02*
X78348000Y-120884000I0J-337500D01*
G01*
X78348000Y-121559000D01*
G75*
G02*
X78010500Y-121896500I-337500J0D01*
G01*
X77310500Y-121896500D01*
G75*
G02*
X76973000Y-121559000I0J337500D01*
G01*
G37*
D11*
X72567800Y-113995200D03*
X72567800Y-111455200D03*
X72567800Y-108915200D03*
X72567800Y-106375200D03*
X72567800Y-103835200D03*
X72567800Y-101295200D03*
G36*
G01*
X71517800Y-99605200D02*
X71517800Y-97905200D01*
G75*
G02*
X71717800Y-97705200I200000J0D01*
G01*
X73417800Y-97705200D01*
G75*
G02*
X73617800Y-97905200I0J-200000D01*
G01*
X73617800Y-99605200D01*
G75*
G02*
X73417800Y-99805200I-200000J0D01*
G01*
X71717800Y-99805200D01*
G75*
G02*
X71517800Y-99605200I0J200000D01*
G01*
G37*
D10*
X78232000Y-125412500D03*
X80772000Y-125412500D03*
G36*
G01*
X84382000Y-124424970D02*
X84382000Y-126400030D01*
G75*
G02*
X84074530Y-126707500I-307470J0D01*
G01*
X82549470Y-126707500D01*
G75*
G02*
X82242000Y-126400030I0J307470D01*
G01*
X82242000Y-124424970D01*
G75*
G02*
X82549470Y-124117500I307470J0D01*
G01*
X84074530Y-124117500D01*
G75*
G02*
X84382000Y-124424970I0J-307470D01*
G01*
G37*
X99060000Y-125412500D03*
G36*
G01*
X102670000Y-124424970D02*
X102670000Y-126400030D01*
G75*
G02*
X102362530Y-126707500I-307470J0D01*
G01*
X100837470Y-126707500D01*
G75*
G02*
X100530000Y-126400030I0J307470D01*
G01*
X100530000Y-124424970D01*
G75*
G02*
X100837470Y-124117500I307470J0D01*
G01*
X102362530Y-124117500D01*
G75*
G02*
X102670000Y-124424970I0J-307470D01*
G01*
G37*
X105156000Y-125476000D03*
G36*
G01*
X108766000Y-124488470D02*
X108766000Y-126463530D01*
G75*
G02*
X108458530Y-126771000I-307470J0D01*
G01*
X106933470Y-126771000D01*
G75*
G02*
X106626000Y-126463530I0J307470D01*
G01*
X106626000Y-124488470D01*
G75*
G02*
X106933470Y-124181000I307470J0D01*
G01*
X108458530Y-124181000D01*
G75*
G02*
X108766000Y-124488470I0J-307470D01*
G01*
G37*
G36*
G01*
X114618400Y-96962700D02*
X113218400Y-96962700D01*
G75*
G02*
X113018400Y-96762700I0J200000D01*
G01*
X113018400Y-96362700D01*
G75*
G02*
X113218400Y-96162700I200000J0D01*
G01*
X114618400Y-96162700D01*
G75*
G02*
X114818400Y-96362700I0J-200000D01*
G01*
X114818400Y-96762700D01*
G75*
G02*
X114618400Y-96962700I-200000J0D01*
G01*
G37*
G36*
G01*
X114618400Y-96312700D02*
X113218400Y-96312700D01*
G75*
G02*
X113018400Y-96112700I0J200000D01*
G01*
X113018400Y-95712700D01*
G75*
G02*
X113218400Y-95512700I200000J0D01*
G01*
X114618400Y-95512700D01*
G75*
G02*
X114818400Y-95712700I0J-200000D01*
G01*
X114818400Y-96112700D01*
G75*
G02*
X114618400Y-96312700I-200000J0D01*
G01*
G37*
G36*
G01*
X114618400Y-95662700D02*
X113218400Y-95662700D01*
G75*
G02*
X113018400Y-95462700I0J200000D01*
G01*
X113018400Y-95062700D01*
G75*
G02*
X113218400Y-94862700I200000J0D01*
G01*
X114618400Y-94862700D01*
G75*
G02*
X114818400Y-95062700I0J-200000D01*
G01*
X114818400Y-95462700D01*
G75*
G02*
X114618400Y-95662700I-200000J0D01*
G01*
G37*
G36*
G01*
X114618400Y-95012700D02*
X113218400Y-95012700D01*
G75*
G02*
X113018400Y-94812700I0J200000D01*
G01*
X113018400Y-94412700D01*
G75*
G02*
X113218400Y-94212700I200000J0D01*
G01*
X114618400Y-94212700D01*
G75*
G02*
X114818400Y-94412700I0J-200000D01*
G01*
X114818400Y-94812700D01*
G75*
G02*
X114618400Y-95012700I-200000J0D01*
G01*
G37*
G36*
G01*
X114618400Y-94362700D02*
X113218400Y-94362700D01*
G75*
G02*
X113018400Y-94162700I0J200000D01*
G01*
X113018400Y-93762700D01*
G75*
G02*
X113218400Y-93562700I200000J0D01*
G01*
X114618400Y-93562700D01*
G75*
G02*
X114818400Y-93762700I0J-200000D01*
G01*
X114818400Y-94162700D01*
G75*
G02*
X114618400Y-94362700I-200000J0D01*
G01*
G37*
G36*
G01*
X117718400Y-100362700D02*
X115818400Y-100362700D01*
G75*
G02*
X115618400Y-100162700I0J200000D01*
G01*
X115618400Y-97862700D01*
G75*
G02*
X115818400Y-97662700I200000J0D01*
G01*
X117718400Y-97662700D01*
G75*
G02*
X117918400Y-97862700I0J-200000D01*
G01*
X117918400Y-100162700D01*
G75*
G02*
X117718400Y-100362700I-200000J0D01*
G01*
G37*
G36*
G01*
X117718400Y-92862700D02*
X115818400Y-92862700D01*
G75*
G02*
X115618400Y-92662700I0J200000D01*
G01*
X115618400Y-90362700D01*
G75*
G02*
X115818400Y-90162700I200000J0D01*
G01*
X117718400Y-90162700D01*
G75*
G02*
X117918400Y-90362700I0J-200000D01*
G01*
X117918400Y-92662700D01*
G75*
G02*
X117718400Y-92862700I-200000J0D01*
G01*
G37*
G36*
G01*
X117718400Y-97512700D02*
X115818400Y-97512700D01*
G75*
G02*
X115618400Y-97312700I0J200000D01*
G01*
X115618400Y-95512700D01*
G75*
G02*
X115818400Y-95312700I200000J0D01*
G01*
X117718400Y-95312700D01*
G75*
G02*
X117918400Y-95512700I0J-200000D01*
G01*
X117918400Y-97312700D01*
G75*
G02*
X117718400Y-97512700I-200000J0D01*
G01*
G37*
G36*
G01*
X117718400Y-95212700D02*
X115818400Y-95212700D01*
G75*
G02*
X115618400Y-95012700I0J200000D01*
G01*
X115618400Y-93212700D01*
G75*
G02*
X115818400Y-93012700I200000J0D01*
G01*
X117718400Y-93012700D01*
G75*
G02*
X117918400Y-93212700I0J-200000D01*
G01*
X117918400Y-95012700D01*
G75*
G02*
X117718400Y-95212700I-200000J0D01*
G01*
G37*
D12*
X106055000Y-85059000D03*
X104785000Y-87599000D03*
X103515000Y-85059000D03*
X102245000Y-87599000D03*
X100975000Y-85059000D03*
X99705000Y-87599000D03*
X98435000Y-85059000D03*
X97165000Y-87599000D03*
D13*
X97530000Y-73610500D03*
X108210000Y-73610500D03*
D14*
X109400000Y-81409000D03*
X93800000Y-81409000D03*
D13*
X94990000Y-73610500D03*
X105670000Y-73610500D03*
D15*
X107315000Y-78359000D03*
X95885000Y-78359000D03*
G36*
G01*
X89458800Y-97028000D02*
X89458800Y-98044000D01*
G75*
G02*
X89408000Y-98094800I-50800J0D01*
G01*
X88392000Y-98094800D01*
G75*
G02*
X88341200Y-98044000I0J50800D01*
G01*
X88341200Y-97028000D01*
G75*
G02*
X88392000Y-96977200I50800J0D01*
G01*
X89408000Y-96977200D01*
G75*
G02*
X89458800Y-97028000I0J-50800D01*
G01*
G37*
G36*
G01*
X91236800Y-97028000D02*
X91236800Y-98044000D01*
G75*
G02*
X91186000Y-98094800I-50800J0D01*
G01*
X90170000Y-98094800D01*
G75*
G02*
X90119200Y-98044000I0J50800D01*
G01*
X90119200Y-97028000D01*
G75*
G02*
X90170000Y-96977200I50800J0D01*
G01*
X91186000Y-96977200D01*
G75*
G02*
X91236800Y-97028000I0J-50800D01*
G01*
G37*
G36*
G01*
X84277200Y-102616000D02*
X84277200Y-101346000D01*
G75*
G02*
X84328000Y-101295200I50800J0D01*
G01*
X85852000Y-101295200D01*
G75*
G02*
X85902800Y-101346000I0J-50800D01*
G01*
X85902800Y-102616000D01*
G75*
G02*
X85852000Y-102666800I-50800J0D01*
G01*
X84328000Y-102666800D01*
G75*
G02*
X84277200Y-102616000I0J50800D01*
G01*
G37*
G36*
G01*
X86309200Y-102616000D02*
X86309200Y-101346000D01*
G75*
G02*
X86360000Y-101295200I50800J0D01*
G01*
X87884000Y-101295200D01*
G75*
G02*
X87934800Y-101346000I0J-50800D01*
G01*
X87934800Y-102616000D01*
G75*
G02*
X87884000Y-102666800I-50800J0D01*
G01*
X86360000Y-102666800D01*
G75*
G02*
X86309200Y-102616000I0J50800D01*
G01*
G37*
G36*
G01*
X90119199Y-99568000D02*
X90119199Y-98552000D01*
G75*
G02*
X90169999Y-98501200I50800J0D01*
G01*
X91185999Y-98501200D01*
G75*
G02*
X91236799Y-98552000I0J-50800D01*
G01*
X91236799Y-99568000D01*
G75*
G02*
X91185999Y-99618800I-50800J0D01*
G01*
X90169999Y-99618800D01*
G75*
G02*
X90119199Y-99568000I0J50800D01*
G01*
G37*
G36*
G01*
X88341199Y-99568000D02*
X88341199Y-98552000D01*
G75*
G02*
X88391999Y-98501200I50800J0D01*
G01*
X89407999Y-98501200D01*
G75*
G02*
X89458799Y-98552000I0J-50800D01*
G01*
X89458799Y-99568000D01*
G75*
G02*
X89407999Y-99618800I-50800J0D01*
G01*
X88391999Y-99618800D01*
G75*
G02*
X88341199Y-99568000I0J50800D01*
G01*
G37*
G36*
G01*
X88035360Y-93673040D02*
X88035360Y-94673040D01*
G75*
G02*
X87984560Y-94723840I-50800J0D01*
G01*
X86584560Y-94723840D01*
G75*
G02*
X86533760Y-94673040I0J50800D01*
G01*
X86533760Y-93673040D01*
G75*
G02*
X86584560Y-93622240I50800J0D01*
G01*
X87984560Y-93622240D01*
G75*
G02*
X88035360Y-93673040I0J-50800D01*
G01*
G37*
G36*
G01*
X88035360Y-95575500D02*
X88035360Y-96575500D01*
G75*
G02*
X87984560Y-96626300I-50800J0D01*
G01*
X86584560Y-96626300D01*
G75*
G02*
X86533760Y-96575500I0J50800D01*
G01*
X86533760Y-95575500D01*
G75*
G02*
X86584560Y-95524700I50800J0D01*
G01*
X87984560Y-95524700D01*
G75*
G02*
X88035360Y-95575500I0J-50800D01*
G01*
G37*
G36*
G01*
X90245160Y-94620460D02*
X90245160Y-95620460D01*
G75*
G02*
X90194360Y-95671260I-50800J0D01*
G01*
X88794360Y-95671260D01*
G75*
G02*
X88743560Y-95620460I0J50800D01*
G01*
X88743560Y-94620460D01*
G75*
G02*
X88794360Y-94569660I50800J0D01*
G01*
X90194360Y-94569660D01*
G75*
G02*
X90245160Y-94620460I0J-50800D01*
G01*
G37*
G36*
G01*
X90119199Y-101092000D02*
X90119199Y-100076000D01*
G75*
G02*
X90169999Y-100025200I50800J0D01*
G01*
X91185999Y-100025200D01*
G75*
G02*
X91236799Y-100076000I0J-50800D01*
G01*
X91236799Y-101092000D01*
G75*
G02*
X91185999Y-101142800I-50800J0D01*
G01*
X90169999Y-101142800D01*
G75*
G02*
X90119199Y-101092000I0J50800D01*
G01*
G37*
G36*
G01*
X88341199Y-101092000D02*
X88341199Y-100076000D01*
G75*
G02*
X88391999Y-100025200I50800J0D01*
G01*
X89407999Y-100025200D01*
G75*
G02*
X89458799Y-100076000I0J-50800D01*
G01*
X89458799Y-101092000D01*
G75*
G02*
X89407999Y-101142800I-50800J0D01*
G01*
X88391999Y-101142800D01*
G75*
G02*
X88341199Y-101092000I0J50800D01*
G01*
G37*
G36*
G01*
X91111960Y-103148360D02*
X90111960Y-103148360D01*
G75*
G02*
X90061160Y-103097560I0J50800D01*
G01*
X90061160Y-101697560D01*
G75*
G02*
X90111960Y-101646760I50800J0D01*
G01*
X91111960Y-101646760D01*
G75*
G02*
X91162760Y-101697560I0J-50800D01*
G01*
X91162760Y-103097560D01*
G75*
G02*
X91111960Y-103148360I-50800J0D01*
G01*
G37*
G36*
G01*
X89209500Y-103148360D02*
X88209500Y-103148360D01*
G75*
G02*
X88158700Y-103097560I0J50800D01*
G01*
X88158700Y-101697560D01*
G75*
G02*
X88209500Y-101646760I50800J0D01*
G01*
X89209500Y-101646760D01*
G75*
G02*
X89260300Y-101697560I0J-50800D01*
G01*
X89260300Y-103097560D01*
G75*
G02*
X89209500Y-103148360I-50800J0D01*
G01*
G37*
G36*
G01*
X90164540Y-105358160D02*
X89164540Y-105358160D01*
G75*
G02*
X89113740Y-105307360I0J50800D01*
G01*
X89113740Y-103907360D01*
G75*
G02*
X89164540Y-103856560I50800J0D01*
G01*
X90164540Y-103856560D01*
G75*
G02*
X90215340Y-103907360I0J-50800D01*
G01*
X90215340Y-105307360D01*
G75*
G02*
X90164540Y-105358160I-50800J0D01*
G01*
G37*
G36*
G01*
X86133940Y-105186480D02*
X85117940Y-105186480D01*
G75*
G02*
X85067140Y-105135680I0J50800D01*
G01*
X85067140Y-104119680D01*
G75*
G02*
X85117940Y-104068880I50800J0D01*
G01*
X86133940Y-104068880D01*
G75*
G02*
X86184740Y-104119680I0J-50800D01*
G01*
X86184740Y-105135680D01*
G75*
G02*
X86133940Y-105186480I-50800J0D01*
G01*
G37*
G36*
G01*
X86133940Y-106964480D02*
X85117940Y-106964480D01*
G75*
G02*
X85067140Y-106913680I0J50800D01*
G01*
X85067140Y-105897680D01*
G75*
G02*
X85117940Y-105846880I50800J0D01*
G01*
X86133940Y-105846880D01*
G75*
G02*
X86184740Y-105897680I0J-50800D01*
G01*
X86184740Y-106913680D01*
G75*
G02*
X86133940Y-106964480I-50800J0D01*
G01*
G37*
G36*
G01*
X115316000Y-114122200D02*
X116586000Y-114122200D01*
G75*
G02*
X116636800Y-114173000I0J-50800D01*
G01*
X116636800Y-115697000D01*
G75*
G02*
X116586000Y-115747800I-50800J0D01*
G01*
X115316000Y-115747800D01*
G75*
G02*
X115265200Y-115697000I0J50800D01*
G01*
X115265200Y-114173000D01*
G75*
G02*
X115316000Y-114122200I50800J0D01*
G01*
G37*
G36*
G01*
X117348000Y-114122200D02*
X118618000Y-114122200D01*
G75*
G02*
X118668800Y-114173000I0J-50800D01*
G01*
X118668800Y-115697000D01*
G75*
G02*
X118618000Y-115747800I-50800J0D01*
G01*
X117348000Y-115747800D01*
G75*
G02*
X117297200Y-115697000I0J50800D01*
G01*
X117297200Y-114173000D01*
G75*
G02*
X117348000Y-114122200I50800J0D01*
G01*
G37*
G36*
G01*
X115316000Y-112090200D02*
X116586000Y-112090200D01*
G75*
G02*
X116636800Y-112141000I0J-50800D01*
G01*
X116636800Y-113665000D01*
G75*
G02*
X116586000Y-113715800I-50800J0D01*
G01*
X115316000Y-113715800D01*
G75*
G02*
X115265200Y-113665000I0J50800D01*
G01*
X115265200Y-112141000D01*
G75*
G02*
X115316000Y-112090200I50800J0D01*
G01*
G37*
G36*
G01*
X117348000Y-112090200D02*
X118618000Y-112090200D01*
G75*
G02*
X118668800Y-112141000I0J-50800D01*
G01*
X118668800Y-113665000D01*
G75*
G02*
X118618000Y-113715800I-50800J0D01*
G01*
X117348000Y-113715800D01*
G75*
G02*
X117297200Y-113665000I0J50800D01*
G01*
X117297200Y-112141000D01*
G75*
G02*
X117348000Y-112090200I50800J0D01*
G01*
G37*
G36*
G01*
X114681000Y-115239800D02*
X113665000Y-115239800D01*
G75*
G02*
X113614200Y-115189000I0J50800D01*
G01*
X113614200Y-114173000D01*
G75*
G02*
X113665000Y-114122200I50800J0D01*
G01*
X114681000Y-114122200D01*
G75*
G02*
X114731800Y-114173000I0J-50800D01*
G01*
X114731800Y-115189000D01*
G75*
G02*
X114681000Y-115239800I-50800J0D01*
G01*
G37*
G36*
G01*
X114681000Y-117017800D02*
X113665000Y-117017800D01*
G75*
G02*
X113614200Y-116967000I0J50800D01*
G01*
X113614200Y-115951000D01*
G75*
G02*
X113665000Y-115900200I50800J0D01*
G01*
X114681000Y-115900200D01*
G75*
G02*
X114731800Y-115951000I0J-50800D01*
G01*
X114731800Y-116967000D01*
G75*
G02*
X114681000Y-117017800I-50800J0D01*
G01*
G37*
G36*
G01*
X113665000Y-119202200D02*
X114681000Y-119202200D01*
G75*
G02*
X114731800Y-119253000I0J-50800D01*
G01*
X114731800Y-120269000D01*
G75*
G02*
X114681000Y-120319800I-50800J0D01*
G01*
X113665000Y-120319800D01*
G75*
G02*
X113614200Y-120269000I0J50800D01*
G01*
X113614200Y-119253000D01*
G75*
G02*
X113665000Y-119202200I50800J0D01*
G01*
G37*
G36*
G01*
X113665000Y-117424200D02*
X114681000Y-117424200D01*
G75*
G02*
X114731800Y-117475000I0J-50800D01*
G01*
X114731800Y-118491000D01*
G75*
G02*
X114681000Y-118541800I-50800J0D01*
G01*
X113665000Y-118541800D01*
G75*
G02*
X113614200Y-118491000I0J50800D01*
G01*
X113614200Y-117475000D01*
G75*
G02*
X113665000Y-117424200I50800J0D01*
G01*
G37*
G36*
G01*
X82423000Y-101803200D02*
X83439000Y-101803200D01*
G75*
G02*
X83489800Y-101854000I0J-50800D01*
G01*
X83489800Y-102870000D01*
G75*
G02*
X83439000Y-102920800I-50800J0D01*
G01*
X82423000Y-102920800D01*
G75*
G02*
X82372200Y-102870000I0J50800D01*
G01*
X82372200Y-101854000D01*
G75*
G02*
X82423000Y-101803200I50800J0D01*
G01*
G37*
G36*
G01*
X82423000Y-100025200D02*
X83439000Y-100025200D01*
G75*
G02*
X83489800Y-100076000I0J-50800D01*
G01*
X83489800Y-101092000D01*
G75*
G02*
X83439000Y-101142800I-50800J0D01*
G01*
X82423000Y-101142800D01*
G75*
G02*
X82372200Y-101092000I0J50800D01*
G01*
X82372200Y-100076000D01*
G75*
G02*
X82423000Y-100025200I50800J0D01*
G01*
G37*
G36*
G01*
X92964000Y-76377800D02*
X91186000Y-76377800D01*
G75*
G02*
X91135200Y-76327000I0J50800D01*
G01*
X91135200Y-75311000D01*
G75*
G02*
X91186000Y-75260200I50800J0D01*
G01*
X92964000Y-75260200D01*
G75*
G02*
X93014800Y-75311000I0J-50800D01*
G01*
X93014800Y-76327000D01*
G75*
G02*
X92964000Y-76377800I-50800J0D01*
G01*
G37*
G36*
G01*
X92964000Y-79933800D02*
X91186000Y-79933800D01*
G75*
G02*
X91135200Y-79883000I0J50800D01*
G01*
X91135200Y-78867000D01*
G75*
G02*
X91186000Y-78816200I50800J0D01*
G01*
X92964000Y-78816200D01*
G75*
G02*
X93014800Y-78867000I0J-50800D01*
G01*
X93014800Y-79883000D01*
G75*
G02*
X92964000Y-79933800I-50800J0D01*
G01*
G37*
G36*
G01*
X91186000Y-86436200D02*
X92964000Y-86436200D01*
G75*
G02*
X93014800Y-86487000I0J-50800D01*
G01*
X93014800Y-87503000D01*
G75*
G02*
X92964000Y-87553800I-50800J0D01*
G01*
X91186000Y-87553800D01*
G75*
G02*
X91135200Y-87503000I0J50800D01*
G01*
X91135200Y-86487000D01*
G75*
G02*
X91186000Y-86436200I50800J0D01*
G01*
G37*
G36*
G01*
X91186000Y-82880200D02*
X92964000Y-82880200D01*
G75*
G02*
X93014800Y-82931000I0J-50800D01*
G01*
X93014800Y-83947000D01*
G75*
G02*
X92964000Y-83997800I-50800J0D01*
G01*
X91186000Y-83997800D01*
G75*
G02*
X91135200Y-83947000I0J50800D01*
G01*
X91135200Y-82931000D01*
G75*
G02*
X91186000Y-82880200I50800J0D01*
G01*
G37*
G36*
G01*
X93268800Y-92583000D02*
X93268800Y-93599000D01*
G75*
G02*
X93218000Y-93649800I-50800J0D01*
G01*
X92202000Y-93649800D01*
G75*
G02*
X92151200Y-93599000I0J50800D01*
G01*
X92151200Y-92583000D01*
G75*
G02*
X92202000Y-92532200I50800J0D01*
G01*
X93218000Y-92532200D01*
G75*
G02*
X93268800Y-92583000I0J-50800D01*
G01*
G37*
G36*
G01*
X95046800Y-92583000D02*
X95046800Y-93599000D01*
G75*
G02*
X94996000Y-93649800I-50800J0D01*
G01*
X93980000Y-93649800D01*
G75*
G02*
X93929200Y-93599000I0J50800D01*
G01*
X93929200Y-92583000D01*
G75*
G02*
X93980000Y-92532200I50800J0D01*
G01*
X94996000Y-92532200D01*
G75*
G02*
X95046800Y-92583000I0J-50800D01*
G01*
G37*
G36*
G01*
X106248200Y-100711000D02*
X106248200Y-99695000D01*
G75*
G02*
X106299000Y-99644200I50800J0D01*
G01*
X107315000Y-99644200D01*
G75*
G02*
X107365800Y-99695000I0J-50800D01*
G01*
X107365800Y-100711000D01*
G75*
G02*
X107315000Y-100761800I-50800J0D01*
G01*
X106299000Y-100761800D01*
G75*
G02*
X106248200Y-100711000I0J50800D01*
G01*
G37*
G36*
G01*
X104470200Y-100711000D02*
X104470200Y-99695000D01*
G75*
G02*
X104521000Y-99644200I50800J0D01*
G01*
X105537000Y-99644200D01*
G75*
G02*
X105587800Y-99695000I0J-50800D01*
G01*
X105587800Y-100711000D01*
G75*
G02*
X105537000Y-100761800I-50800J0D01*
G01*
X104521000Y-100761800D01*
G75*
G02*
X104470200Y-100711000I0J50800D01*
G01*
G37*
G36*
G01*
X99568000Y-92024200D02*
X100584000Y-92024200D01*
G75*
G02*
X100634800Y-92075000I0J-50800D01*
G01*
X100634800Y-93091000D01*
G75*
G02*
X100584000Y-93141800I-50800J0D01*
G01*
X99568000Y-93141800D01*
G75*
G02*
X99517200Y-93091000I0J50800D01*
G01*
X99517200Y-92075000D01*
G75*
G02*
X99568000Y-92024200I50800J0D01*
G01*
G37*
G36*
G01*
X99568000Y-90246200D02*
X100584000Y-90246200D01*
G75*
G02*
X100634800Y-90297000I0J-50800D01*
G01*
X100634800Y-91313000D01*
G75*
G02*
X100584000Y-91363800I-50800J0D01*
G01*
X99568000Y-91363800D01*
G75*
G02*
X99517200Y-91313000I0J50800D01*
G01*
X99517200Y-90297000D01*
G75*
G02*
X99568000Y-90246200I50800J0D01*
G01*
G37*
G36*
G01*
X101854000Y-92024200D02*
X102870000Y-92024200D01*
G75*
G02*
X102920800Y-92075000I0J-50800D01*
G01*
X102920800Y-93091000D01*
G75*
G02*
X102870000Y-93141800I-50800J0D01*
G01*
X101854000Y-93141800D01*
G75*
G02*
X101803200Y-93091000I0J50800D01*
G01*
X101803200Y-92075000D01*
G75*
G02*
X101854000Y-92024200I50800J0D01*
G01*
G37*
G36*
G01*
X101854000Y-90246200D02*
X102870000Y-90246200D01*
G75*
G02*
X102920800Y-90297000I0J-50800D01*
G01*
X102920800Y-91313000D01*
G75*
G02*
X102870000Y-91363800I-50800J0D01*
G01*
X101854000Y-91363800D01*
G75*
G02*
X101803200Y-91313000I0J50800D01*
G01*
X101803200Y-90297000D01*
G75*
G02*
X101854000Y-90246200I50800J0D01*
G01*
G37*
G36*
G01*
X95758000Y-92024200D02*
X96774000Y-92024200D01*
G75*
G02*
X96824800Y-92075000I0J-50800D01*
G01*
X96824800Y-93091000D01*
G75*
G02*
X96774000Y-93141800I-50800J0D01*
G01*
X95758000Y-93141800D01*
G75*
G02*
X95707200Y-93091000I0J50800D01*
G01*
X95707200Y-92075000D01*
G75*
G02*
X95758000Y-92024200I50800J0D01*
G01*
G37*
G36*
G01*
X95758000Y-90246200D02*
X96774000Y-90246200D01*
G75*
G02*
X96824800Y-90297000I0J-50800D01*
G01*
X96824800Y-91313000D01*
G75*
G02*
X96774000Y-91363800I-50800J0D01*
G01*
X95758000Y-91363800D01*
G75*
G02*
X95707200Y-91313000I0J50800D01*
G01*
X95707200Y-90297000D01*
G75*
G02*
X95758000Y-90246200I50800J0D01*
G01*
G37*
G36*
G01*
X78643480Y-97502980D02*
X78643480Y-98518980D01*
G75*
G02*
X78592680Y-98569780I-50800J0D01*
G01*
X77576680Y-98569780D01*
G75*
G02*
X77525880Y-98518980I0J50800D01*
G01*
X77525880Y-97502980D01*
G75*
G02*
X77576680Y-97452180I50800J0D01*
G01*
X78592680Y-97452180D01*
G75*
G02*
X78643480Y-97502980I0J-50800D01*
G01*
G37*
G36*
G01*
X80421480Y-97502980D02*
X80421480Y-98518980D01*
G75*
G02*
X80370680Y-98569780I-50800J0D01*
G01*
X79354680Y-98569780D01*
G75*
G02*
X79303880Y-98518980I0J50800D01*
G01*
X79303880Y-97502980D01*
G75*
G02*
X79354680Y-97452180I50800J0D01*
G01*
X80370680Y-97452180D01*
G75*
G02*
X80421480Y-97502980I0J-50800D01*
G01*
G37*
G36*
G01*
X98044000Y-92024200D02*
X99060000Y-92024200D01*
G75*
G02*
X99110800Y-92075000I0J-50800D01*
G01*
X99110800Y-93091000D01*
G75*
G02*
X99060000Y-93141800I-50800J0D01*
G01*
X98044000Y-93141800D01*
G75*
G02*
X97993200Y-93091000I0J50800D01*
G01*
X97993200Y-92075000D01*
G75*
G02*
X98044000Y-92024200I50800J0D01*
G01*
G37*
G36*
G01*
X98044000Y-90246200D02*
X99060000Y-90246200D01*
G75*
G02*
X99110800Y-90297000I0J-50800D01*
G01*
X99110800Y-91313000D01*
G75*
G02*
X99060000Y-91363800I-50800J0D01*
G01*
X98044000Y-91363800D01*
G75*
G02*
X97993200Y-91313000I0J50800D01*
G01*
X97993200Y-90297000D01*
G75*
G02*
X98044000Y-90246200I50800J0D01*
G01*
G37*
G36*
G01*
X111125000Y-77292200D02*
X112141000Y-77292200D01*
G75*
G02*
X112191800Y-77343000I0J-50800D01*
G01*
X112191800Y-78359000D01*
G75*
G02*
X112141000Y-78409800I-50800J0D01*
G01*
X111125000Y-78409800D01*
G75*
G02*
X111074200Y-78359000I0J50800D01*
G01*
X111074200Y-77343000D01*
G75*
G02*
X111125000Y-77292200I50800J0D01*
G01*
G37*
G36*
G01*
X111125000Y-75514200D02*
X112141000Y-75514200D01*
G75*
G02*
X112191800Y-75565000I0J-50800D01*
G01*
X112191800Y-76581000D01*
G75*
G02*
X112141000Y-76631800I-50800J0D01*
G01*
X111125000Y-76631800D01*
G75*
G02*
X111074200Y-76581000I0J50800D01*
G01*
X111074200Y-75565000D01*
G75*
G02*
X111125000Y-75514200I50800J0D01*
G01*
G37*
G36*
G01*
X92202000Y-72059800D02*
X91186000Y-72059800D01*
G75*
G02*
X91135200Y-72009000I0J50800D01*
G01*
X91135200Y-70993000D01*
G75*
G02*
X91186000Y-70942200I50800J0D01*
G01*
X92202000Y-70942200D01*
G75*
G02*
X92252800Y-70993000I0J-50800D01*
G01*
X92252800Y-72009000D01*
G75*
G02*
X92202000Y-72059800I-50800J0D01*
G01*
G37*
G36*
G01*
X92202000Y-73837800D02*
X91186000Y-73837800D01*
G75*
G02*
X91135200Y-73787000I0J50800D01*
G01*
X91135200Y-72771000D01*
G75*
G02*
X91186000Y-72720200I50800J0D01*
G01*
X92202000Y-72720200D01*
G75*
G02*
X92252800Y-72771000I0J-50800D01*
G01*
X92252800Y-73787000D01*
G75*
G02*
X92202000Y-73837800I-50800J0D01*
G01*
G37*
G36*
G01*
X81661000Y-101142800D02*
X80645000Y-101142800D01*
G75*
G02*
X80594200Y-101092000I0J50800D01*
G01*
X80594200Y-100076000D01*
G75*
G02*
X80645000Y-100025200I50800J0D01*
G01*
X81661000Y-100025200D01*
G75*
G02*
X81711800Y-100076000I0J-50800D01*
G01*
X81711800Y-101092000D01*
G75*
G02*
X81661000Y-101142800I-50800J0D01*
G01*
G37*
G36*
G01*
X81661000Y-102920800D02*
X80645000Y-102920800D01*
G75*
G02*
X80594200Y-102870000I0J50800D01*
G01*
X80594200Y-101854000D01*
G75*
G02*
X80645000Y-101803200I50800J0D01*
G01*
X81661000Y-101803200D01*
G75*
G02*
X81711800Y-101854000I0J-50800D01*
G01*
X81711800Y-102870000D01*
G75*
G02*
X81661000Y-102920800I-50800J0D01*
G01*
G37*
D16*
X118872000Y-77978000D03*
G36*
G01*
X105587800Y-98171000D02*
X105587800Y-99187000D01*
G75*
G02*
X105537000Y-99237800I-50800J0D01*
G01*
X104521000Y-99237800D01*
G75*
G02*
X104470200Y-99187000I0J50800D01*
G01*
X104470200Y-98171000D01*
G75*
G02*
X104521000Y-98120200I50800J0D01*
G01*
X105537000Y-98120200D01*
G75*
G02*
X105587800Y-98171000I0J-50800D01*
G01*
G37*
G36*
G01*
X107365800Y-98171000D02*
X107365800Y-99187000D01*
G75*
G02*
X107315000Y-99237800I-50800J0D01*
G01*
X106299000Y-99237800D01*
G75*
G02*
X106248200Y-99187000I0J50800D01*
G01*
X106248200Y-98171000D01*
G75*
G02*
X106299000Y-98120200I50800J0D01*
G01*
X107315000Y-98120200D01*
G75*
G02*
X107365800Y-98171000I0J-50800D01*
G01*
G37*
G36*
G01*
X93268800Y-97790000D02*
X93268800Y-98806000D01*
G75*
G02*
X93218000Y-98856800I-50800J0D01*
G01*
X92202000Y-98856800D01*
G75*
G02*
X92151200Y-98806000I0J50800D01*
G01*
X92151200Y-97790000D01*
G75*
G02*
X92202000Y-97739200I50800J0D01*
G01*
X93218000Y-97739200D01*
G75*
G02*
X93268800Y-97790000I0J-50800D01*
G01*
G37*
G36*
G01*
X95046800Y-97790000D02*
X95046800Y-98806000D01*
G75*
G02*
X94996000Y-98856800I-50800J0D01*
G01*
X93980000Y-98856800D01*
G75*
G02*
X93929200Y-98806000I0J50800D01*
G01*
X93929200Y-97790000D01*
G75*
G02*
X93980000Y-97739200I50800J0D01*
G01*
X94996000Y-97739200D01*
G75*
G02*
X95046800Y-97790000I0J-50800D01*
G01*
G37*
G36*
G01*
X93268800Y-99314000D02*
X93268800Y-100330000D01*
G75*
G02*
X93218000Y-100380800I-50800J0D01*
G01*
X92202000Y-100380800D01*
G75*
G02*
X92151200Y-100330000I0J50800D01*
G01*
X92151200Y-99314000D01*
G75*
G02*
X92202000Y-99263200I50800J0D01*
G01*
X93218000Y-99263200D01*
G75*
G02*
X93268800Y-99314000I0J-50800D01*
G01*
G37*
G36*
G01*
X95046800Y-99314000D02*
X95046800Y-100330000D01*
G75*
G02*
X94996000Y-100380800I-50800J0D01*
G01*
X93980000Y-100380800D01*
G75*
G02*
X93929200Y-100330000I0J50800D01*
G01*
X93929200Y-99314000D01*
G75*
G02*
X93980000Y-99263200I50800J0D01*
G01*
X94996000Y-99263200D01*
G75*
G02*
X95046800Y-99314000I0J-50800D01*
G01*
G37*
G36*
G01*
X93268800Y-94361000D02*
X93268800Y-95377000D01*
G75*
G02*
X93218000Y-95427800I-50800J0D01*
G01*
X92202000Y-95427800D01*
G75*
G02*
X92151200Y-95377000I0J50800D01*
G01*
X92151200Y-94361000D01*
G75*
G02*
X92202000Y-94310200I50800J0D01*
G01*
X93218000Y-94310200D01*
G75*
G02*
X93268800Y-94361000I0J-50800D01*
G01*
G37*
G36*
G01*
X95046800Y-94361000D02*
X95046800Y-95377000D01*
G75*
G02*
X94996000Y-95427800I-50800J0D01*
G01*
X93980000Y-95427800D01*
G75*
G02*
X93929200Y-95377000I0J50800D01*
G01*
X93929200Y-94361000D01*
G75*
G02*
X93980000Y-94310200I50800J0D01*
G01*
X94996000Y-94310200D01*
G75*
G02*
X95046800Y-94361000I0J-50800D01*
G01*
G37*
G36*
G01*
X104851200Y-94742000D02*
X104851200Y-93726000D01*
G75*
G02*
X104902000Y-93675200I50800J0D01*
G01*
X105918000Y-93675200D01*
G75*
G02*
X105968800Y-93726000I0J-50800D01*
G01*
X105968800Y-94742000D01*
G75*
G02*
X105918000Y-94792800I-50800J0D01*
G01*
X104902000Y-94792800D01*
G75*
G02*
X104851200Y-94742000I0J50800D01*
G01*
G37*
G36*
G01*
X103073200Y-94742000D02*
X103073200Y-93726000D01*
G75*
G02*
X103124000Y-93675200I50800J0D01*
G01*
X104140000Y-93675200D01*
G75*
G02*
X104190800Y-93726000I0J-50800D01*
G01*
X104190800Y-94742000D01*
G75*
G02*
X104140000Y-94792800I-50800J0D01*
G01*
X103124000Y-94792800D01*
G75*
G02*
X103073200Y-94742000I0J50800D01*
G01*
G37*
G36*
G01*
X97282000Y-104343200D02*
X98298000Y-104343200D01*
G75*
G02*
X98348800Y-104394000I0J-50800D01*
G01*
X98348800Y-105410000D01*
G75*
G02*
X98298000Y-105460800I-50800J0D01*
G01*
X97282000Y-105460800D01*
G75*
G02*
X97231200Y-105410000I0J50800D01*
G01*
X97231200Y-104394000D01*
G75*
G02*
X97282000Y-104343200I50800J0D01*
G01*
G37*
G36*
G01*
X97282000Y-102565200D02*
X98298000Y-102565200D01*
G75*
G02*
X98348800Y-102616000I0J-50800D01*
G01*
X98348800Y-103632000D01*
G75*
G02*
X98298000Y-103682800I-50800J0D01*
G01*
X97282000Y-103682800D01*
G75*
G02*
X97231200Y-103632000I0J50800D01*
G01*
X97231200Y-102616000D01*
G75*
G02*
X97282000Y-102565200I50800J0D01*
G01*
G37*
G36*
G01*
X108966000Y-104216200D02*
X109982000Y-104216200D01*
G75*
G02*
X110032800Y-104267000I0J-50800D01*
G01*
X110032800Y-105283000D01*
G75*
G02*
X109982000Y-105333800I-50800J0D01*
G01*
X108966000Y-105333800D01*
G75*
G02*
X108915200Y-105283000I0J50800D01*
G01*
X108915200Y-104267000D01*
G75*
G02*
X108966000Y-104216200I50800J0D01*
G01*
G37*
G36*
G01*
X108966000Y-102438200D02*
X109982000Y-102438200D01*
G75*
G02*
X110032800Y-102489000I0J-50800D01*
G01*
X110032800Y-103505000D01*
G75*
G02*
X109982000Y-103555800I-50800J0D01*
G01*
X108966000Y-103555800D01*
G75*
G02*
X108915200Y-103505000I0J50800D01*
G01*
X108915200Y-102489000D01*
G75*
G02*
X108966000Y-102438200I50800J0D01*
G01*
G37*
G36*
G01*
X105918000Y-92024200D02*
X106934000Y-92024200D01*
G75*
G02*
X106984800Y-92075000I0J-50800D01*
G01*
X106984800Y-93091000D01*
G75*
G02*
X106934000Y-93141800I-50800J0D01*
G01*
X105918000Y-93141800D01*
G75*
G02*
X105867200Y-93091000I0J50800D01*
G01*
X105867200Y-92075000D01*
G75*
G02*
X105918000Y-92024200I50800J0D01*
G01*
G37*
G36*
G01*
X105918000Y-90246200D02*
X106934000Y-90246200D01*
G75*
G02*
X106984800Y-90297000I0J-50800D01*
G01*
X106984800Y-91313000D01*
G75*
G02*
X106934000Y-91363800I-50800J0D01*
G01*
X105918000Y-91363800D01*
G75*
G02*
X105867200Y-91313000I0J50800D01*
G01*
X105867200Y-90297000D01*
G75*
G02*
X105918000Y-90246200I50800J0D01*
G01*
G37*
G36*
G01*
X104648000Y-103682800D02*
X103632000Y-103682800D01*
G75*
G02*
X103581200Y-103632000I0J50800D01*
G01*
X103581200Y-102616000D01*
G75*
G02*
X103632000Y-102565200I50800J0D01*
G01*
X104648000Y-102565200D01*
G75*
G02*
X104698800Y-102616000I0J-50800D01*
G01*
X104698800Y-103632000D01*
G75*
G02*
X104648000Y-103682800I-50800J0D01*
G01*
G37*
G36*
G01*
X104648000Y-105460800D02*
X103632000Y-105460800D01*
G75*
G02*
X103581200Y-105410000I0J50800D01*
G01*
X103581200Y-104394000D01*
G75*
G02*
X103632000Y-104343200I50800J0D01*
G01*
X104648000Y-104343200D01*
G75*
G02*
X104698800Y-104394000I0J-50800D01*
G01*
X104698800Y-105410000D01*
G75*
G02*
X104648000Y-105460800I-50800J0D01*
G01*
G37*
G36*
G01*
X106172000Y-103682800D02*
X105156000Y-103682800D01*
G75*
G02*
X105105200Y-103632000I0J50800D01*
G01*
X105105200Y-102616000D01*
G75*
G02*
X105156000Y-102565200I50800J0D01*
G01*
X106172000Y-102565200D01*
G75*
G02*
X106222800Y-102616000I0J-50800D01*
G01*
X106222800Y-103632000D01*
G75*
G02*
X106172000Y-103682800I-50800J0D01*
G01*
G37*
G36*
G01*
X106172000Y-105460800D02*
X105156000Y-105460800D01*
G75*
G02*
X105105200Y-105410000I0J50800D01*
G01*
X105105200Y-104394000D01*
G75*
G02*
X105156000Y-104343200I50800J0D01*
G01*
X106172000Y-104343200D01*
G75*
G02*
X106222800Y-104394000I0J-50800D01*
G01*
X106222800Y-105410000D01*
G75*
G02*
X106172000Y-105460800I-50800J0D01*
G01*
G37*
G36*
G01*
X113207800Y-121412000D02*
X113207800Y-122682000D01*
G75*
G02*
X113157000Y-122732800I-50800J0D01*
G01*
X111633000Y-122732800D01*
G75*
G02*
X111582200Y-122682000I0J50800D01*
G01*
X111582200Y-121412000D01*
G75*
G02*
X111633000Y-121361200I50800J0D01*
G01*
X113157000Y-121361200D01*
G75*
G02*
X113207800Y-121412000I0J-50800D01*
G01*
G37*
G36*
G01*
X113207800Y-123444000D02*
X113207800Y-124714000D01*
G75*
G02*
X113157000Y-124764800I-50800J0D01*
G01*
X111633000Y-124764800D01*
G75*
G02*
X111582200Y-124714000I0J50800D01*
G01*
X111582200Y-123444000D01*
G75*
G02*
X111633000Y-123393200I50800J0D01*
G01*
X113157000Y-123393200D01*
G75*
G02*
X113207800Y-123444000I0J-50800D01*
G01*
G37*
G36*
G01*
X98149000Y-96193200D02*
X101749000Y-96193200D01*
G75*
G02*
X101799800Y-96244000I0J-50800D01*
G01*
X101799800Y-99844000D01*
G75*
G02*
X101749000Y-99894800I-50800J0D01*
G01*
X98149000Y-99894800D01*
G75*
G02*
X98098200Y-99844000I0J50800D01*
G01*
X98098200Y-96244000D01*
G75*
G02*
X98149000Y-96193200I50800J0D01*
G01*
G37*
G36*
G01*
X101049000Y-97144000D02*
X101449000Y-97144000D01*
G75*
G02*
X101649000Y-97344000I0J-200000D01*
G01*
X101649000Y-97744000D01*
G75*
G02*
X101449000Y-97944000I-200000J0D01*
G01*
X101049000Y-97944000D01*
G75*
G02*
X100849000Y-97744000I0J200000D01*
G01*
X100849000Y-97344000D01*
G75*
G02*
X101049000Y-97144000I200000J0D01*
G01*
G37*
G36*
G01*
X101049000Y-98144000D02*
X101449000Y-98144000D01*
G75*
G02*
X101649000Y-98344000I0J-200000D01*
G01*
X101649000Y-98744000D01*
G75*
G02*
X101449000Y-98944000I-200000J0D01*
G01*
X101049000Y-98944000D01*
G75*
G02*
X100849000Y-98744000I0J200000D01*
G01*
X100849000Y-98344000D01*
G75*
G02*
X101049000Y-98144000I200000J0D01*
G01*
G37*
G36*
G01*
X100249000Y-98944000D02*
X100649000Y-98944000D01*
G75*
G02*
X100849000Y-99144000I0J-200000D01*
G01*
X100849000Y-99544000D01*
G75*
G02*
X100649000Y-99744000I-200000J0D01*
G01*
X100249000Y-99744000D01*
G75*
G02*
X100049000Y-99544000I0J200000D01*
G01*
X100049000Y-99144000D01*
G75*
G02*
X100249000Y-98944000I200000J0D01*
G01*
G37*
G36*
G01*
X99249000Y-98944000D02*
X99649000Y-98944000D01*
G75*
G02*
X99849000Y-99144000I0J-200000D01*
G01*
X99849000Y-99544000D01*
G75*
G02*
X99649000Y-99744000I-200000J0D01*
G01*
X99249000Y-99744000D01*
G75*
G02*
X99049000Y-99544000I0J200000D01*
G01*
X99049000Y-99144000D01*
G75*
G02*
X99249000Y-98944000I200000J0D01*
G01*
G37*
G36*
G01*
X98449000Y-98144000D02*
X98849000Y-98144000D01*
G75*
G02*
X99049000Y-98344000I0J-200000D01*
G01*
X99049000Y-98744000D01*
G75*
G02*
X98849000Y-98944000I-200000J0D01*
G01*
X98449000Y-98944000D01*
G75*
G02*
X98249000Y-98744000I0J200000D01*
G01*
X98249000Y-98344000D01*
G75*
G02*
X98449000Y-98144000I200000J0D01*
G01*
G37*
G36*
G01*
X98449000Y-97144000D02*
X98849000Y-97144000D01*
G75*
G02*
X99049000Y-97344000I0J-200000D01*
G01*
X99049000Y-97744000D01*
G75*
G02*
X98849000Y-97944000I-200000J0D01*
G01*
X98449000Y-97944000D01*
G75*
G02*
X98249000Y-97744000I0J200000D01*
G01*
X98249000Y-97344000D01*
G75*
G02*
X98449000Y-97144000I200000J0D01*
G01*
G37*
G36*
G01*
X99249000Y-96344000D02*
X99649000Y-96344000D01*
G75*
G02*
X99849000Y-96544000I0J-200000D01*
G01*
X99849000Y-96944000D01*
G75*
G02*
X99649000Y-97144000I-200000J0D01*
G01*
X99249000Y-97144000D01*
G75*
G02*
X99049000Y-96944000I0J200000D01*
G01*
X99049000Y-96544000D01*
G75*
G02*
X99249000Y-96344000I200000J0D01*
G01*
G37*
G36*
G01*
X100249000Y-96344000D02*
X100649000Y-96344000D01*
G75*
G02*
X100849000Y-96544000I0J-200000D01*
G01*
X100849000Y-96944000D01*
G75*
G02*
X100649000Y-97144000I-200000J0D01*
G01*
X100249000Y-97144000D01*
G75*
G02*
X100049000Y-96944000I0J200000D01*
G01*
X100049000Y-96544000D01*
G75*
G02*
X100249000Y-96344000I200000J0D01*
G01*
G37*
G36*
G01*
X99237800Y-97132800D02*
X100660200Y-97132800D01*
G75*
G02*
X100860200Y-97332800I0J-200000D01*
G01*
X100860200Y-98755200D01*
G75*
G02*
X100660200Y-98955200I-200000J0D01*
G01*
X99237800Y-98955200D01*
G75*
G02*
X99037800Y-98755200I0J200000D01*
G01*
X99037800Y-97332800D01*
G75*
G02*
X99237800Y-97132800I200000J0D01*
G01*
G37*
G36*
G01*
X98074000Y-95143200D02*
X98324000Y-95143200D01*
G75*
G02*
X98374800Y-95194000I0J-50800D01*
G01*
X98374800Y-95994000D01*
G75*
G02*
X98324000Y-96044800I-50800J0D01*
G01*
X98074000Y-96044800D01*
G75*
G02*
X98023200Y-95994000I0J50800D01*
G01*
X98023200Y-95194000D01*
G75*
G02*
X98074000Y-95143200I50800J0D01*
G01*
G37*
G36*
G01*
X98574000Y-95143200D02*
X98824000Y-95143200D01*
G75*
G02*
X98874800Y-95194000I0J-50800D01*
G01*
X98874800Y-95994000D01*
G75*
G02*
X98824000Y-96044800I-50800J0D01*
G01*
X98574000Y-96044800D01*
G75*
G02*
X98523200Y-95994000I0J50800D01*
G01*
X98523200Y-95194000D01*
G75*
G02*
X98574000Y-95143200I50800J0D01*
G01*
G37*
G36*
G01*
X99074000Y-95143200D02*
X99324000Y-95143200D01*
G75*
G02*
X99374800Y-95194000I0J-50800D01*
G01*
X99374800Y-95994000D01*
G75*
G02*
X99324000Y-96044800I-50800J0D01*
G01*
X99074000Y-96044800D01*
G75*
G02*
X99023200Y-95994000I0J50800D01*
G01*
X99023200Y-95194000D01*
G75*
G02*
X99074000Y-95143200I50800J0D01*
G01*
G37*
G36*
G01*
X99574000Y-95143200D02*
X99824000Y-95143200D01*
G75*
G02*
X99874800Y-95194000I0J-50800D01*
G01*
X99874800Y-95994000D01*
G75*
G02*
X99824000Y-96044800I-50800J0D01*
G01*
X99574000Y-96044800D01*
G75*
G02*
X99523200Y-95994000I0J50800D01*
G01*
X99523200Y-95194000D01*
G75*
G02*
X99574000Y-95143200I50800J0D01*
G01*
G37*
G36*
G01*
X100074000Y-95143200D02*
X100324000Y-95143200D01*
G75*
G02*
X100374800Y-95194000I0J-50800D01*
G01*
X100374800Y-95994000D01*
G75*
G02*
X100324000Y-96044800I-50800J0D01*
G01*
X100074000Y-96044800D01*
G75*
G02*
X100023200Y-95994000I0J50800D01*
G01*
X100023200Y-95194000D01*
G75*
G02*
X100074000Y-95143200I50800J0D01*
G01*
G37*
G36*
G01*
X100574000Y-95143200D02*
X100824000Y-95143200D01*
G75*
G02*
X100874800Y-95194000I0J-50800D01*
G01*
X100874800Y-95994000D01*
G75*
G02*
X100824000Y-96044800I-50800J0D01*
G01*
X100574000Y-96044800D01*
G75*
G02*
X100523200Y-95994000I0J50800D01*
G01*
X100523200Y-95194000D01*
G75*
G02*
X100574000Y-95143200I50800J0D01*
G01*
G37*
G36*
G01*
X101074000Y-95143200D02*
X101324000Y-95143200D01*
G75*
G02*
X101374800Y-95194000I0J-50800D01*
G01*
X101374800Y-95994000D01*
G75*
G02*
X101324000Y-96044800I-50800J0D01*
G01*
X101074000Y-96044800D01*
G75*
G02*
X101023200Y-95994000I0J50800D01*
G01*
X101023200Y-95194000D01*
G75*
G02*
X101074000Y-95143200I50800J0D01*
G01*
G37*
G36*
G01*
X101574000Y-95143200D02*
X101824000Y-95143200D01*
G75*
G02*
X101874800Y-95194000I0J-50800D01*
G01*
X101874800Y-95994000D01*
G75*
G02*
X101824000Y-96044800I-50800J0D01*
G01*
X101574000Y-96044800D01*
G75*
G02*
X101523200Y-95994000I0J50800D01*
G01*
X101523200Y-95194000D01*
G75*
G02*
X101574000Y-95143200I50800J0D01*
G01*
G37*
G36*
G01*
X102849800Y-96169000D02*
X102849800Y-96419000D01*
G75*
G02*
X102799000Y-96469800I-50800J0D01*
G01*
X101999000Y-96469800D01*
G75*
G02*
X101948200Y-96419000I0J50800D01*
G01*
X101948200Y-96169000D01*
G75*
G02*
X101999000Y-96118200I50800J0D01*
G01*
X102799000Y-96118200D01*
G75*
G02*
X102849800Y-96169000I0J-50800D01*
G01*
G37*
G36*
G01*
X102849800Y-96669000D02*
X102849800Y-96919000D01*
G75*
G02*
X102799000Y-96969800I-50800J0D01*
G01*
X101999000Y-96969800D01*
G75*
G02*
X101948200Y-96919000I0J50800D01*
G01*
X101948200Y-96669000D01*
G75*
G02*
X101999000Y-96618200I50800J0D01*
G01*
X102799000Y-96618200D01*
G75*
G02*
X102849800Y-96669000I0J-50800D01*
G01*
G37*
G36*
G01*
X102849800Y-97169000D02*
X102849800Y-97419000D01*
G75*
G02*
X102799000Y-97469800I-50800J0D01*
G01*
X101999000Y-97469800D01*
G75*
G02*
X101948200Y-97419000I0J50800D01*
G01*
X101948200Y-97169000D01*
G75*
G02*
X101999000Y-97118200I50800J0D01*
G01*
X102799000Y-97118200D01*
G75*
G02*
X102849800Y-97169000I0J-50800D01*
G01*
G37*
G36*
G01*
X102849800Y-97669000D02*
X102849800Y-97919000D01*
G75*
G02*
X102799000Y-97969800I-50800J0D01*
G01*
X101999000Y-97969800D01*
G75*
G02*
X101948200Y-97919000I0J50800D01*
G01*
X101948200Y-97669000D01*
G75*
G02*
X101999000Y-97618200I50800J0D01*
G01*
X102799000Y-97618200D01*
G75*
G02*
X102849800Y-97669000I0J-50800D01*
G01*
G37*
G36*
G01*
X102849800Y-98169000D02*
X102849800Y-98419000D01*
G75*
G02*
X102799000Y-98469800I-50800J0D01*
G01*
X101999000Y-98469800D01*
G75*
G02*
X101948200Y-98419000I0J50800D01*
G01*
X101948200Y-98169000D01*
G75*
G02*
X101999000Y-98118200I50800J0D01*
G01*
X102799000Y-98118200D01*
G75*
G02*
X102849800Y-98169000I0J-50800D01*
G01*
G37*
G36*
G01*
X102849800Y-98669000D02*
X102849800Y-98919000D01*
G75*
G02*
X102799000Y-98969800I-50800J0D01*
G01*
X101999000Y-98969800D01*
G75*
G02*
X101948200Y-98919000I0J50800D01*
G01*
X101948200Y-98669000D01*
G75*
G02*
X101999000Y-98618200I50800J0D01*
G01*
X102799000Y-98618200D01*
G75*
G02*
X102849800Y-98669000I0J-50800D01*
G01*
G37*
G36*
G01*
X102849800Y-99169000D02*
X102849800Y-99419000D01*
G75*
G02*
X102799000Y-99469800I-50800J0D01*
G01*
X101999000Y-99469800D01*
G75*
G02*
X101948200Y-99419000I0J50800D01*
G01*
X101948200Y-99169000D01*
G75*
G02*
X101999000Y-99118200I50800J0D01*
G01*
X102799000Y-99118200D01*
G75*
G02*
X102849800Y-99169000I0J-50800D01*
G01*
G37*
G36*
G01*
X102849800Y-99669000D02*
X102849800Y-99919000D01*
G75*
G02*
X102799000Y-99969800I-50800J0D01*
G01*
X101999000Y-99969800D01*
G75*
G02*
X101948200Y-99919000I0J50800D01*
G01*
X101948200Y-99669000D01*
G75*
G02*
X101999000Y-99618200I50800J0D01*
G01*
X102799000Y-99618200D01*
G75*
G02*
X102849800Y-99669000I0J-50800D01*
G01*
G37*
G36*
G01*
X101824000Y-100944800D02*
X101574000Y-100944800D01*
G75*
G02*
X101523200Y-100894000I0J50800D01*
G01*
X101523200Y-100094000D01*
G75*
G02*
X101574000Y-100043200I50800J0D01*
G01*
X101824000Y-100043200D01*
G75*
G02*
X101874800Y-100094000I0J-50800D01*
G01*
X101874800Y-100894000D01*
G75*
G02*
X101824000Y-100944800I-50800J0D01*
G01*
G37*
G36*
G01*
X101324000Y-100944800D02*
X101074000Y-100944800D01*
G75*
G02*
X101023200Y-100894000I0J50800D01*
G01*
X101023200Y-100094000D01*
G75*
G02*
X101074000Y-100043200I50800J0D01*
G01*
X101324000Y-100043200D01*
G75*
G02*
X101374800Y-100094000I0J-50800D01*
G01*
X101374800Y-100894000D01*
G75*
G02*
X101324000Y-100944800I-50800J0D01*
G01*
G37*
G36*
G01*
X100824000Y-100944800D02*
X100574000Y-100944800D01*
G75*
G02*
X100523200Y-100894000I0J50800D01*
G01*
X100523200Y-100094000D01*
G75*
G02*
X100574000Y-100043200I50800J0D01*
G01*
X100824000Y-100043200D01*
G75*
G02*
X100874800Y-100094000I0J-50800D01*
G01*
X100874800Y-100894000D01*
G75*
G02*
X100824000Y-100944800I-50800J0D01*
G01*
G37*
G36*
G01*
X100324000Y-100944800D02*
X100074000Y-100944800D01*
G75*
G02*
X100023200Y-100894000I0J50800D01*
G01*
X100023200Y-100094000D01*
G75*
G02*
X100074000Y-100043200I50800J0D01*
G01*
X100324000Y-100043200D01*
G75*
G02*
X100374800Y-100094000I0J-50800D01*
G01*
X100374800Y-100894000D01*
G75*
G02*
X100324000Y-100944800I-50800J0D01*
G01*
G37*
G36*
G01*
X99824000Y-100944800D02*
X99574000Y-100944800D01*
G75*
G02*
X99523200Y-100894000I0J50800D01*
G01*
X99523200Y-100094000D01*
G75*
G02*
X99574000Y-100043200I50800J0D01*
G01*
X99824000Y-100043200D01*
G75*
G02*
X99874800Y-100094000I0J-50800D01*
G01*
X99874800Y-100894000D01*
G75*
G02*
X99824000Y-100944800I-50800J0D01*
G01*
G37*
G36*
G01*
X99324000Y-100944800D02*
X99074000Y-100944800D01*
G75*
G02*
X99023200Y-100894000I0J50800D01*
G01*
X99023200Y-100094000D01*
G75*
G02*
X99074000Y-100043200I50800J0D01*
G01*
X99324000Y-100043200D01*
G75*
G02*
X99374800Y-100094000I0J-50800D01*
G01*
X99374800Y-100894000D01*
G75*
G02*
X99324000Y-100944800I-50800J0D01*
G01*
G37*
G36*
G01*
X98824000Y-100944800D02*
X98574000Y-100944800D01*
G75*
G02*
X98523200Y-100894000I0J50800D01*
G01*
X98523200Y-100094000D01*
G75*
G02*
X98574000Y-100043200I50800J0D01*
G01*
X98824000Y-100043200D01*
G75*
G02*
X98874800Y-100094000I0J-50800D01*
G01*
X98874800Y-100894000D01*
G75*
G02*
X98824000Y-100944800I-50800J0D01*
G01*
G37*
G36*
G01*
X98324000Y-100944800D02*
X98074000Y-100944800D01*
G75*
G02*
X98023200Y-100894000I0J50800D01*
G01*
X98023200Y-100094000D01*
G75*
G02*
X98074000Y-100043200I50800J0D01*
G01*
X98324000Y-100043200D01*
G75*
G02*
X98374800Y-100094000I0J-50800D01*
G01*
X98374800Y-100894000D01*
G75*
G02*
X98324000Y-100944800I-50800J0D01*
G01*
G37*
G36*
G01*
X97048200Y-99919000D02*
X97048200Y-99669000D01*
G75*
G02*
X97099000Y-99618200I50800J0D01*
G01*
X97899000Y-99618200D01*
G75*
G02*
X97949800Y-99669000I0J-50800D01*
G01*
X97949800Y-99919000D01*
G75*
G02*
X97899000Y-99969800I-50800J0D01*
G01*
X97099000Y-99969800D01*
G75*
G02*
X97048200Y-99919000I0J50800D01*
G01*
G37*
G36*
G01*
X97048200Y-99419000D02*
X97048200Y-99169000D01*
G75*
G02*
X97099000Y-99118200I50800J0D01*
G01*
X97899000Y-99118200D01*
G75*
G02*
X97949800Y-99169000I0J-50800D01*
G01*
X97949800Y-99419000D01*
G75*
G02*
X97899000Y-99469800I-50800J0D01*
G01*
X97099000Y-99469800D01*
G75*
G02*
X97048200Y-99419000I0J50800D01*
G01*
G37*
G36*
G01*
X97048200Y-98919000D02*
X97048200Y-98669000D01*
G75*
G02*
X97099000Y-98618200I50800J0D01*
G01*
X97899000Y-98618200D01*
G75*
G02*
X97949800Y-98669000I0J-50800D01*
G01*
X97949800Y-98919000D01*
G75*
G02*
X97899000Y-98969800I-50800J0D01*
G01*
X97099000Y-98969800D01*
G75*
G02*
X97048200Y-98919000I0J50800D01*
G01*
G37*
G36*
G01*
X97048200Y-98419000D02*
X97048200Y-98169000D01*
G75*
G02*
X97099000Y-98118200I50800J0D01*
G01*
X97899000Y-98118200D01*
G75*
G02*
X97949800Y-98169000I0J-50800D01*
G01*
X97949800Y-98419000D01*
G75*
G02*
X97899000Y-98469800I-50800J0D01*
G01*
X97099000Y-98469800D01*
G75*
G02*
X97048200Y-98419000I0J50800D01*
G01*
G37*
G36*
G01*
X97048200Y-97919000D02*
X97048200Y-97669000D01*
G75*
G02*
X97099000Y-97618200I50800J0D01*
G01*
X97899000Y-97618200D01*
G75*
G02*
X97949800Y-97669000I0J-50800D01*
G01*
X97949800Y-97919000D01*
G75*
G02*
X97899000Y-97969800I-50800J0D01*
G01*
X97099000Y-97969800D01*
G75*
G02*
X97048200Y-97919000I0J50800D01*
G01*
G37*
G36*
G01*
X97048200Y-97419000D02*
X97048200Y-97169000D01*
G75*
G02*
X97099000Y-97118200I50800J0D01*
G01*
X97899000Y-97118200D01*
G75*
G02*
X97949800Y-97169000I0J-50800D01*
G01*
X97949800Y-97419000D01*
G75*
G02*
X97899000Y-97469800I-50800J0D01*
G01*
X97099000Y-97469800D01*
G75*
G02*
X97048200Y-97419000I0J50800D01*
G01*
G37*
G36*
G01*
X97048200Y-96919000D02*
X97048200Y-96669000D01*
G75*
G02*
X97099000Y-96618200I50800J0D01*
G01*
X97899000Y-96618200D01*
G75*
G02*
X97949800Y-96669000I0J-50800D01*
G01*
X97949800Y-96919000D01*
G75*
G02*
X97899000Y-96969800I-50800J0D01*
G01*
X97099000Y-96969800D01*
G75*
G02*
X97048200Y-96919000I0J50800D01*
G01*
G37*
G36*
G01*
X97048200Y-96419000D02*
X97048200Y-96169000D01*
G75*
G02*
X97099000Y-96118200I50800J0D01*
G01*
X97899000Y-96118200D01*
G75*
G02*
X97949800Y-96169000I0J-50800D01*
G01*
X97949800Y-96419000D01*
G75*
G02*
X97899000Y-96469800I-50800J0D01*
G01*
X97099000Y-96469800D01*
G75*
G02*
X97048200Y-96419000I0J50800D01*
G01*
G37*
D17*
X70739000Y-122301000D03*
X75565000Y-122301000D03*
X74803000Y-123952000D03*
X71501000Y-124079000D03*
X74803000Y-120650000D03*
X71501000Y-120650000D03*
X73152000Y-124714000D03*
X73152000Y-119888000D03*
D18*
X73152000Y-122301000D03*
D17*
X113919000Y-71120000D03*
X118745000Y-71120000D03*
X117983000Y-72771000D03*
X114681000Y-72898000D03*
X117983000Y-69469000D03*
X114681000Y-69469000D03*
X116332000Y-73533000D03*
X116332000Y-68707000D03*
D18*
X116332000Y-71120000D03*
G36*
G01*
X115996000Y-119013200D02*
X116546000Y-119013200D01*
G75*
G02*
X116596800Y-119064000I0J-50800D01*
G01*
X116596800Y-120264000D01*
G75*
G02*
X116546000Y-120314800I-50800J0D01*
G01*
X115996000Y-120314800D01*
G75*
G02*
X115945200Y-120264000I0J50800D01*
G01*
X115945200Y-119064000D01*
G75*
G02*
X115996000Y-119013200I50800J0D01*
G01*
G37*
G36*
G01*
X116946000Y-119013200D02*
X117496000Y-119013200D01*
G75*
G02*
X117546800Y-119064000I0J-50800D01*
G01*
X117546800Y-120264000D01*
G75*
G02*
X117496000Y-120314800I-50800J0D01*
G01*
X116946000Y-120314800D01*
G75*
G02*
X116895200Y-120264000I0J50800D01*
G01*
X116895200Y-119064000D01*
G75*
G02*
X116946000Y-119013200I50800J0D01*
G01*
G37*
G36*
G01*
X117896000Y-119013200D02*
X118446000Y-119013200D01*
G75*
G02*
X118496800Y-119064000I0J-50800D01*
G01*
X118496800Y-120264000D01*
G75*
G02*
X118446000Y-120314800I-50800J0D01*
G01*
X117896000Y-120314800D01*
G75*
G02*
X117845200Y-120264000I0J50800D01*
G01*
X117845200Y-119064000D01*
G75*
G02*
X117896000Y-119013200I50800J0D01*
G01*
G37*
G36*
G01*
X115996000Y-116413200D02*
X116546000Y-116413200D01*
G75*
G02*
X116596800Y-116464000I0J-50800D01*
G01*
X116596800Y-117664000D01*
G75*
G02*
X116546000Y-117714800I-50800J0D01*
G01*
X115996000Y-117714800D01*
G75*
G02*
X115945200Y-117664000I0J50800D01*
G01*
X115945200Y-116464000D01*
G75*
G02*
X115996000Y-116413200I50800J0D01*
G01*
G37*
G36*
G01*
X117896000Y-116413200D02*
X118446000Y-116413200D01*
G75*
G02*
X118496800Y-116464000I0J-50800D01*
G01*
X118496800Y-117664000D01*
G75*
G02*
X118446000Y-117714800I-50800J0D01*
G01*
X117896000Y-117714800D01*
G75*
G02*
X117845200Y-117664000I0J50800D01*
G01*
X117845200Y-116464000D01*
G75*
G02*
X117896000Y-116413200I50800J0D01*
G01*
G37*
G36*
G01*
X108204000Y-105460800D02*
X106934000Y-105460800D01*
G75*
G02*
X106883200Y-105410000I0J50800D01*
G01*
X106883200Y-103886000D01*
G75*
G02*
X106934000Y-103835200I50800J0D01*
G01*
X108204000Y-103835200D01*
G75*
G02*
X108254800Y-103886000I0J-50800D01*
G01*
X108254800Y-105410000D01*
G75*
G02*
X108204000Y-105460800I-50800J0D01*
G01*
G37*
G36*
G01*
X108204000Y-103428800D02*
X106934000Y-103428800D01*
G75*
G02*
X106883200Y-103378000I0J50800D01*
G01*
X106883200Y-101854000D01*
G75*
G02*
X106934000Y-101803200I50800J0D01*
G01*
X108204000Y-101803200D01*
G75*
G02*
X108254800Y-101854000I0J-50800D01*
G01*
X108254800Y-103378000D01*
G75*
G02*
X108204000Y-103428800I-50800J0D01*
G01*
G37*
G36*
G01*
X100825300Y-102743000D02*
X100825300Y-103759000D01*
G75*
G02*
X100774500Y-103809800I-50800J0D01*
G01*
X100393500Y-103809800D01*
G75*
G02*
X100342700Y-103759000I0J50800D01*
G01*
X100342700Y-102743000D01*
G75*
G02*
X100393500Y-102692200I50800J0D01*
G01*
X100774500Y-102692200D01*
G75*
G02*
X100825300Y-102743000I0J-50800D01*
G01*
G37*
G36*
G01*
X101587300Y-102743000D02*
X101587300Y-103759000D01*
G75*
G02*
X101536500Y-103809800I-50800J0D01*
G01*
X101155500Y-103809800D01*
G75*
G02*
X101104700Y-103759000I0J50800D01*
G01*
X101104700Y-102743000D01*
G75*
G02*
X101155500Y-102692200I50800J0D01*
G01*
X101536500Y-102692200D01*
G75*
G02*
X101587300Y-102743000I0J-50800D01*
G01*
G37*
G36*
G01*
X100825300Y-104267000D02*
X100825300Y-105283000D01*
G75*
G02*
X100774500Y-105333800I-50800J0D01*
G01*
X100393500Y-105333800D01*
G75*
G02*
X100342700Y-105283000I0J50800D01*
G01*
X100342700Y-104267000D01*
G75*
G02*
X100393500Y-104216200I50800J0D01*
G01*
X100774500Y-104216200D01*
G75*
G02*
X100825300Y-104267000I0J-50800D01*
G01*
G37*
G36*
G01*
X101587300Y-104267000D02*
X101587300Y-105283000D01*
G75*
G02*
X101536500Y-105333800I-50800J0D01*
G01*
X101155500Y-105333800D01*
G75*
G02*
X101104700Y-105283000I0J50800D01*
G01*
X101104700Y-104267000D01*
G75*
G02*
X101155500Y-104216200I50800J0D01*
G01*
X101536500Y-104216200D01*
G75*
G02*
X101587300Y-104267000I0J-50800D01*
G01*
G37*
G36*
G01*
X100063300Y-102743000D02*
X100063300Y-103759000D01*
G75*
G02*
X100012500Y-103809800I-50800J0D01*
G01*
X99377500Y-103809800D01*
G75*
G02*
X99326700Y-103759000I0J50800D01*
G01*
X99326700Y-102743000D01*
G75*
G02*
X99377500Y-102692200I50800J0D01*
G01*
X100012500Y-102692200D01*
G75*
G02*
X100063300Y-102743000I0J-50800D01*
G01*
G37*
G36*
G01*
X100063300Y-104267000D02*
X100063300Y-105283000D01*
G75*
G02*
X100012500Y-105333800I-50800J0D01*
G01*
X99377500Y-105333800D01*
G75*
G02*
X99326700Y-105283000I0J50800D01*
G01*
X99326700Y-104267000D01*
G75*
G02*
X99377500Y-104216200I50800J0D01*
G01*
X100012500Y-104216200D01*
G75*
G02*
X100063300Y-104267000I0J-50800D01*
G01*
G37*
G36*
G01*
X102603300Y-102743000D02*
X102603300Y-103759000D01*
G75*
G02*
X102552500Y-103809800I-50800J0D01*
G01*
X101917500Y-103809800D01*
G75*
G02*
X101866700Y-103759000I0J50800D01*
G01*
X101866700Y-102743000D01*
G75*
G02*
X101917500Y-102692200I50800J0D01*
G01*
X102552500Y-102692200D01*
G75*
G02*
X102603300Y-102743000I0J-50800D01*
G01*
G37*
G36*
G01*
X102603300Y-104267000D02*
X102603300Y-105283000D01*
G75*
G02*
X102552500Y-105333800I-50800J0D01*
G01*
X101917500Y-105333800D01*
G75*
G02*
X101866700Y-105283000I0J50800D01*
G01*
X101866700Y-104267000D01*
G75*
G02*
X101917500Y-104216200I50800J0D01*
G01*
X102552500Y-104216200D01*
G75*
G02*
X102603300Y-104267000I0J-50800D01*
G01*
G37*
G36*
G01*
X94754700Y-105283000D02*
X94754700Y-104267000D01*
G75*
G02*
X94805500Y-104216200I50800J0D01*
G01*
X95186500Y-104216200D01*
G75*
G02*
X95237300Y-104267000I0J-50800D01*
G01*
X95237300Y-105283000D01*
G75*
G02*
X95186500Y-105333800I-50800J0D01*
G01*
X94805500Y-105333800D01*
G75*
G02*
X94754700Y-105283000I0J50800D01*
G01*
G37*
G36*
G01*
X93992700Y-105283000D02*
X93992700Y-104267000D01*
G75*
G02*
X94043500Y-104216200I50800J0D01*
G01*
X94424500Y-104216200D01*
G75*
G02*
X94475300Y-104267000I0J-50800D01*
G01*
X94475300Y-105283000D01*
G75*
G02*
X94424500Y-105333800I-50800J0D01*
G01*
X94043500Y-105333800D01*
G75*
G02*
X93992700Y-105283000I0J50800D01*
G01*
G37*
G36*
G01*
X94754700Y-103759000D02*
X94754700Y-102743000D01*
G75*
G02*
X94805500Y-102692200I50800J0D01*
G01*
X95186500Y-102692200D01*
G75*
G02*
X95237300Y-102743000I0J-50800D01*
G01*
X95237300Y-103759000D01*
G75*
G02*
X95186500Y-103809800I-50800J0D01*
G01*
X94805500Y-103809800D01*
G75*
G02*
X94754700Y-103759000I0J50800D01*
G01*
G37*
G36*
G01*
X93992700Y-103759000D02*
X93992700Y-102743000D01*
G75*
G02*
X94043500Y-102692200I50800J0D01*
G01*
X94424500Y-102692200D01*
G75*
G02*
X94475300Y-102743000I0J-50800D01*
G01*
X94475300Y-103759000D01*
G75*
G02*
X94424500Y-103809800I-50800J0D01*
G01*
X94043500Y-103809800D01*
G75*
G02*
X93992700Y-103759000I0J50800D01*
G01*
G37*
G36*
G01*
X95516700Y-105283000D02*
X95516700Y-104267000D01*
G75*
G02*
X95567500Y-104216200I50800J0D01*
G01*
X96202500Y-104216200D01*
G75*
G02*
X96253300Y-104267000I0J-50800D01*
G01*
X96253300Y-105283000D01*
G75*
G02*
X96202500Y-105333800I-50800J0D01*
G01*
X95567500Y-105333800D01*
G75*
G02*
X95516700Y-105283000I0J50800D01*
G01*
G37*
G36*
G01*
X95516700Y-103759000D02*
X95516700Y-102743000D01*
G75*
G02*
X95567500Y-102692200I50800J0D01*
G01*
X96202500Y-102692200D01*
G75*
G02*
X96253300Y-102743000I0J-50800D01*
G01*
X96253300Y-103759000D01*
G75*
G02*
X96202500Y-103809800I-50800J0D01*
G01*
X95567500Y-103809800D01*
G75*
G02*
X95516700Y-103759000I0J50800D01*
G01*
G37*
G36*
G01*
X92976700Y-105283000D02*
X92976700Y-104267000D01*
G75*
G02*
X93027500Y-104216200I50800J0D01*
G01*
X93662500Y-104216200D01*
G75*
G02*
X93713300Y-104267000I0J-50800D01*
G01*
X93713300Y-105283000D01*
G75*
G02*
X93662500Y-105333800I-50800J0D01*
G01*
X93027500Y-105333800D01*
G75*
G02*
X92976700Y-105283000I0J50800D01*
G01*
G37*
G36*
G01*
X92976700Y-103759000D02*
X92976700Y-102743000D01*
G75*
G02*
X93027500Y-102692200I50800J0D01*
G01*
X93662500Y-102692200D01*
G75*
G02*
X93713300Y-102743000I0J-50800D01*
G01*
X93713300Y-103759000D01*
G75*
G02*
X93662500Y-103809800I-50800J0D01*
G01*
X93027500Y-103809800D01*
G75*
G02*
X92976700Y-103759000I0J50800D01*
G01*
G37*
D19*
X79010000Y-82083000D03*
G36*
G01*
X76459200Y-84583000D02*
X76459200Y-79583000D01*
G75*
G02*
X76510000Y-79532200I50800J0D01*
G01*
X81510000Y-79532200D01*
G75*
G02*
X81560800Y-79583000I0J-50800D01*
G01*
X81560800Y-84583000D01*
G75*
G02*
X81510000Y-84633800I-50800J0D01*
G01*
X76510000Y-84633800D01*
G75*
G02*
X76459200Y-84583000I0J50800D01*
G01*
G37*
G36*
G01*
X87459200Y-75023000D02*
X87459200Y-74123000D01*
G75*
G02*
X87510000Y-74072200I50800J0D01*
G01*
X89510000Y-74072200D01*
G75*
G02*
X89560800Y-74123000I0J-50800D01*
G01*
X89560800Y-75023000D01*
G75*
G02*
X89510000Y-75073800I-50800J0D01*
G01*
X87510000Y-75073800D01*
G75*
G02*
X87459200Y-75023000I0J50800D01*
G01*
G37*
G36*
G01*
X87459200Y-76293000D02*
X87459200Y-75393000D01*
G75*
G02*
X87510000Y-75342200I50800J0D01*
G01*
X89510000Y-75342200D01*
G75*
G02*
X89560800Y-75393000I0J-50800D01*
G01*
X89560800Y-76293000D01*
G75*
G02*
X89510000Y-76343800I-50800J0D01*
G01*
X87510000Y-76343800D01*
G75*
G02*
X87459200Y-76293000I0J50800D01*
G01*
G37*
G36*
G01*
X87459200Y-77563000D02*
X87459200Y-76663000D01*
G75*
G02*
X87510000Y-76612200I50800J0D01*
G01*
X89510000Y-76612200D01*
G75*
G02*
X89560800Y-76663000I0J-50800D01*
G01*
X89560800Y-77563000D01*
G75*
G02*
X89510000Y-77613800I-50800J0D01*
G01*
X87510000Y-77613800D01*
G75*
G02*
X87459200Y-77563000I0J50800D01*
G01*
G37*
G36*
G01*
X87459200Y-78833000D02*
X87459200Y-77933000D01*
G75*
G02*
X87510000Y-77882200I50800J0D01*
G01*
X89510000Y-77882200D01*
G75*
G02*
X89560800Y-77933000I0J-50800D01*
G01*
X89560800Y-78833000D01*
G75*
G02*
X89510000Y-78883800I-50800J0D01*
G01*
X87510000Y-78883800D01*
G75*
G02*
X87459200Y-78833000I0J50800D01*
G01*
G37*
G36*
G01*
X87459200Y-80103000D02*
X87459200Y-79203000D01*
G75*
G02*
X87510000Y-79152200I50800J0D01*
G01*
X89510000Y-79152200D01*
G75*
G02*
X89560800Y-79203000I0J-50800D01*
G01*
X89560800Y-80103000D01*
G75*
G02*
X89510000Y-80153800I-50800J0D01*
G01*
X87510000Y-80153800D01*
G75*
G02*
X87459200Y-80103000I0J50800D01*
G01*
G37*
G36*
G01*
X87459200Y-81373000D02*
X87459200Y-80473000D01*
G75*
G02*
X87510000Y-80422200I50800J0D01*
G01*
X89510000Y-80422200D01*
G75*
G02*
X89560800Y-80473000I0J-50800D01*
G01*
X89560800Y-81373000D01*
G75*
G02*
X89510000Y-81423800I-50800J0D01*
G01*
X87510000Y-81423800D01*
G75*
G02*
X87459200Y-81373000I0J50800D01*
G01*
G37*
G36*
G01*
X87459200Y-82643000D02*
X87459200Y-81743000D01*
G75*
G02*
X87510000Y-81692200I50800J0D01*
G01*
X89510000Y-81692200D01*
G75*
G02*
X89560800Y-81743000I0J-50800D01*
G01*
X89560800Y-82643000D01*
G75*
G02*
X89510000Y-82693800I-50800J0D01*
G01*
X87510000Y-82693800D01*
G75*
G02*
X87459200Y-82643000I0J50800D01*
G01*
G37*
G36*
G01*
X87459200Y-83913000D02*
X87459200Y-83013000D01*
G75*
G02*
X87510000Y-82962200I50800J0D01*
G01*
X89510000Y-82962200D01*
G75*
G02*
X89560800Y-83013000I0J-50800D01*
G01*
X89560800Y-83913000D01*
G75*
G02*
X89510000Y-83963800I-50800J0D01*
G01*
X87510000Y-83963800D01*
G75*
G02*
X87459200Y-83913000I0J50800D01*
G01*
G37*
G36*
G01*
X87459200Y-85183000D02*
X87459200Y-84283000D01*
G75*
G02*
X87510000Y-84232200I50800J0D01*
G01*
X89510000Y-84232200D01*
G75*
G02*
X89560800Y-84283000I0J-50800D01*
G01*
X89560800Y-85183000D01*
G75*
G02*
X89510000Y-85233800I-50800J0D01*
G01*
X87510000Y-85233800D01*
G75*
G02*
X87459200Y-85183000I0J50800D01*
G01*
G37*
G36*
G01*
X87459200Y-86453000D02*
X87459200Y-85553000D01*
G75*
G02*
X87510000Y-85502200I50800J0D01*
G01*
X89510000Y-85502200D01*
G75*
G02*
X89560800Y-85553000I0J-50800D01*
G01*
X89560800Y-86453000D01*
G75*
G02*
X89510000Y-86503800I-50800J0D01*
G01*
X87510000Y-86503800D01*
G75*
G02*
X87459200Y-86453000I0J50800D01*
G01*
G37*
G36*
G01*
X87459200Y-87723000D02*
X87459200Y-86823000D01*
G75*
G02*
X87510000Y-86772200I50800J0D01*
G01*
X89510000Y-86772200D01*
G75*
G02*
X89560800Y-86823000I0J-50800D01*
G01*
X89560800Y-87723000D01*
G75*
G02*
X89510000Y-87773800I-50800J0D01*
G01*
X87510000Y-87773800D01*
G75*
G02*
X87459200Y-87723000I0J50800D01*
G01*
G37*
G36*
G01*
X87459200Y-88993000D02*
X87459200Y-88093000D01*
G75*
G02*
X87510000Y-88042200I50800J0D01*
G01*
X89510000Y-88042200D01*
G75*
G02*
X89560800Y-88093000I0J-50800D01*
G01*
X89560800Y-88993000D01*
G75*
G02*
X89510000Y-89043800I-50800J0D01*
G01*
X87510000Y-89043800D01*
G75*
G02*
X87459200Y-88993000I0J50800D01*
G01*
G37*
G36*
G01*
X87459200Y-90263000D02*
X87459200Y-89363000D01*
G75*
G02*
X87510000Y-89312200I50800J0D01*
G01*
X89510000Y-89312200D01*
G75*
G02*
X89560800Y-89363000I0J-50800D01*
G01*
X89560800Y-90263000D01*
G75*
G02*
X89510000Y-90313800I-50800J0D01*
G01*
X87510000Y-90313800D01*
G75*
G02*
X87459200Y-90263000I0J50800D01*
G01*
G37*
G36*
G01*
X87459200Y-91533000D02*
X87459200Y-90633000D01*
G75*
G02*
X87510000Y-90582200I50800J0D01*
G01*
X89510000Y-90582200D01*
G75*
G02*
X89560800Y-90633000I0J-50800D01*
G01*
X89560800Y-91533000D01*
G75*
G02*
X89510000Y-91583800I-50800J0D01*
G01*
X87510000Y-91583800D01*
G75*
G02*
X87459200Y-91533000I0J50800D01*
G01*
G37*
G36*
G01*
X85239200Y-93083000D02*
X85239200Y-91083000D01*
G75*
G02*
X85290000Y-91032200I50800J0D01*
G01*
X86190000Y-91032200D01*
G75*
G02*
X86240800Y-91083000I0J-50800D01*
G01*
X86240800Y-93083000D01*
G75*
G02*
X86190000Y-93133800I-50800J0D01*
G01*
X85290000Y-93133800D01*
G75*
G02*
X85239200Y-93083000I0J50800D01*
G01*
G37*
G36*
G01*
X83969200Y-93083000D02*
X83969200Y-91083000D01*
G75*
G02*
X84020000Y-91032200I50800J0D01*
G01*
X84920000Y-91032200D01*
G75*
G02*
X84970800Y-91083000I0J-50800D01*
G01*
X84970800Y-93083000D01*
G75*
G02*
X84920000Y-93133800I-50800J0D01*
G01*
X84020000Y-93133800D01*
G75*
G02*
X83969200Y-93083000I0J50800D01*
G01*
G37*
G36*
G01*
X82699200Y-93083000D02*
X82699200Y-91083000D01*
G75*
G02*
X82750000Y-91032200I50800J0D01*
G01*
X83650000Y-91032200D01*
G75*
G02*
X83700800Y-91083000I0J-50800D01*
G01*
X83700800Y-93083000D01*
G75*
G02*
X83650000Y-93133800I-50800J0D01*
G01*
X82750000Y-93133800D01*
G75*
G02*
X82699200Y-93083000I0J50800D01*
G01*
G37*
G36*
G01*
X81429200Y-93083000D02*
X81429200Y-91083000D01*
G75*
G02*
X81480000Y-91032200I50800J0D01*
G01*
X82380000Y-91032200D01*
G75*
G02*
X82430800Y-91083000I0J-50800D01*
G01*
X82430800Y-93083000D01*
G75*
G02*
X82380000Y-93133800I-50800J0D01*
G01*
X81480000Y-93133800D01*
G75*
G02*
X81429200Y-93083000I0J50800D01*
G01*
G37*
G36*
G01*
X80159200Y-93083000D02*
X80159200Y-91083000D01*
G75*
G02*
X80210000Y-91032200I50800J0D01*
G01*
X81110000Y-91032200D01*
G75*
G02*
X81160800Y-91083000I0J-50800D01*
G01*
X81160800Y-93083000D01*
G75*
G02*
X81110000Y-93133800I-50800J0D01*
G01*
X80210000Y-93133800D01*
G75*
G02*
X80159200Y-93083000I0J50800D01*
G01*
G37*
G36*
G01*
X78889200Y-93083000D02*
X78889200Y-91083000D01*
G75*
G02*
X78940000Y-91032200I50800J0D01*
G01*
X79840000Y-91032200D01*
G75*
G02*
X79890800Y-91083000I0J-50800D01*
G01*
X79890800Y-93083000D01*
G75*
G02*
X79840000Y-93133800I-50800J0D01*
G01*
X78940000Y-93133800D01*
G75*
G02*
X78889200Y-93083000I0J50800D01*
G01*
G37*
G36*
G01*
X77619200Y-93083000D02*
X77619200Y-91083000D01*
G75*
G02*
X77670000Y-91032200I50800J0D01*
G01*
X78570000Y-91032200D01*
G75*
G02*
X78620800Y-91083000I0J-50800D01*
G01*
X78620800Y-93083000D01*
G75*
G02*
X78570000Y-93133800I-50800J0D01*
G01*
X77670000Y-93133800D01*
G75*
G02*
X77619200Y-93083000I0J50800D01*
G01*
G37*
G36*
G01*
X76349200Y-93083000D02*
X76349200Y-91083000D01*
G75*
G02*
X76400000Y-91032200I50800J0D01*
G01*
X77300000Y-91032200D01*
G75*
G02*
X77350800Y-91083000I0J-50800D01*
G01*
X77350800Y-93083000D01*
G75*
G02*
X77300000Y-93133800I-50800J0D01*
G01*
X76400000Y-93133800D01*
G75*
G02*
X76349200Y-93083000I0J50800D01*
G01*
G37*
G36*
G01*
X75079200Y-93083000D02*
X75079200Y-91083000D01*
G75*
G02*
X75130000Y-91032200I50800J0D01*
G01*
X76030000Y-91032200D01*
G75*
G02*
X76080800Y-91083000I0J-50800D01*
G01*
X76080800Y-93083000D01*
G75*
G02*
X76030000Y-93133800I-50800J0D01*
G01*
X75130000Y-93133800D01*
G75*
G02*
X75079200Y-93083000I0J50800D01*
G01*
G37*
G36*
G01*
X73809200Y-93083000D02*
X73809200Y-91083000D01*
G75*
G02*
X73860000Y-91032200I50800J0D01*
G01*
X74760000Y-91032200D01*
G75*
G02*
X74810800Y-91083000I0J-50800D01*
G01*
X74810800Y-93083000D01*
G75*
G02*
X74760000Y-93133800I-50800J0D01*
G01*
X73860000Y-93133800D01*
G75*
G02*
X73809200Y-93083000I0J50800D01*
G01*
G37*
G36*
G01*
X70459200Y-91533000D02*
X70459200Y-90633000D01*
G75*
G02*
X70510000Y-90582200I50800J0D01*
G01*
X72510000Y-90582200D01*
G75*
G02*
X72560800Y-90633000I0J-50800D01*
G01*
X72560800Y-91533000D01*
G75*
G02*
X72510000Y-91583800I-50800J0D01*
G01*
X70510000Y-91583800D01*
G75*
G02*
X70459200Y-91533000I0J50800D01*
G01*
G37*
G36*
G01*
X70459200Y-90263000D02*
X70459200Y-89363000D01*
G75*
G02*
X70510000Y-89312200I50800J0D01*
G01*
X72510000Y-89312200D01*
G75*
G02*
X72560800Y-89363000I0J-50800D01*
G01*
X72560800Y-90263000D01*
G75*
G02*
X72510000Y-90313800I-50800J0D01*
G01*
X70510000Y-90313800D01*
G75*
G02*
X70459200Y-90263000I0J50800D01*
G01*
G37*
G36*
G01*
X70459200Y-88993000D02*
X70459200Y-88093000D01*
G75*
G02*
X70510000Y-88042200I50800J0D01*
G01*
X72510000Y-88042200D01*
G75*
G02*
X72560800Y-88093000I0J-50800D01*
G01*
X72560800Y-88993000D01*
G75*
G02*
X72510000Y-89043800I-50800J0D01*
G01*
X70510000Y-89043800D01*
G75*
G02*
X70459200Y-88993000I0J50800D01*
G01*
G37*
G36*
G01*
X70459200Y-87723000D02*
X70459200Y-86823000D01*
G75*
G02*
X70510000Y-86772200I50800J0D01*
G01*
X72510000Y-86772200D01*
G75*
G02*
X72560800Y-86823000I0J-50800D01*
G01*
X72560800Y-87723000D01*
G75*
G02*
X72510000Y-87773800I-50800J0D01*
G01*
X70510000Y-87773800D01*
G75*
G02*
X70459200Y-87723000I0J50800D01*
G01*
G37*
G36*
G01*
X70459200Y-86453000D02*
X70459200Y-85553000D01*
G75*
G02*
X70510000Y-85502200I50800J0D01*
G01*
X72510000Y-85502200D01*
G75*
G02*
X72560800Y-85553000I0J-50800D01*
G01*
X72560800Y-86453000D01*
G75*
G02*
X72510000Y-86503800I-50800J0D01*
G01*
X70510000Y-86503800D01*
G75*
G02*
X70459200Y-86453000I0J50800D01*
G01*
G37*
G36*
G01*
X70459200Y-85183000D02*
X70459200Y-84283000D01*
G75*
G02*
X70510000Y-84232200I50800J0D01*
G01*
X72510000Y-84232200D01*
G75*
G02*
X72560800Y-84283000I0J-50800D01*
G01*
X72560800Y-85183000D01*
G75*
G02*
X72510000Y-85233800I-50800J0D01*
G01*
X70510000Y-85233800D01*
G75*
G02*
X70459200Y-85183000I0J50800D01*
G01*
G37*
G36*
G01*
X70459200Y-83913000D02*
X70459200Y-83013000D01*
G75*
G02*
X70510000Y-82962200I50800J0D01*
G01*
X72510000Y-82962200D01*
G75*
G02*
X72560800Y-83013000I0J-50800D01*
G01*
X72560800Y-83913000D01*
G75*
G02*
X72510000Y-83963800I-50800J0D01*
G01*
X70510000Y-83963800D01*
G75*
G02*
X70459200Y-83913000I0J50800D01*
G01*
G37*
G36*
G01*
X70459200Y-82643000D02*
X70459200Y-81743000D01*
G75*
G02*
X70510000Y-81692200I50800J0D01*
G01*
X72510000Y-81692200D01*
G75*
G02*
X72560800Y-81743000I0J-50800D01*
G01*
X72560800Y-82643000D01*
G75*
G02*
X72510000Y-82693800I-50800J0D01*
G01*
X70510000Y-82693800D01*
G75*
G02*
X70459200Y-82643000I0J50800D01*
G01*
G37*
G36*
G01*
X70459200Y-81373000D02*
X70459200Y-80473000D01*
G75*
G02*
X70510000Y-80422200I50800J0D01*
G01*
X72510000Y-80422200D01*
G75*
G02*
X72560800Y-80473000I0J-50800D01*
G01*
X72560800Y-81373000D01*
G75*
G02*
X72510000Y-81423800I-50800J0D01*
G01*
X70510000Y-81423800D01*
G75*
G02*
X70459200Y-81373000I0J50800D01*
G01*
G37*
G36*
G01*
X70459200Y-80103000D02*
X70459200Y-79203000D01*
G75*
G02*
X70510000Y-79152200I50800J0D01*
G01*
X72510000Y-79152200D01*
G75*
G02*
X72560800Y-79203000I0J-50800D01*
G01*
X72560800Y-80103000D01*
G75*
G02*
X72510000Y-80153800I-50800J0D01*
G01*
X70510000Y-80153800D01*
G75*
G02*
X70459200Y-80103000I0J50800D01*
G01*
G37*
G36*
G01*
X70459200Y-78833000D02*
X70459200Y-77933000D01*
G75*
G02*
X70510000Y-77882200I50800J0D01*
G01*
X72510000Y-77882200D01*
G75*
G02*
X72560800Y-77933000I0J-50800D01*
G01*
X72560800Y-78833000D01*
G75*
G02*
X72510000Y-78883800I-50800J0D01*
G01*
X70510000Y-78883800D01*
G75*
G02*
X70459200Y-78833000I0J50800D01*
G01*
G37*
G36*
G01*
X70459200Y-77563000D02*
X70459200Y-76663000D01*
G75*
G02*
X70510000Y-76612200I50800J0D01*
G01*
X72510000Y-76612200D01*
G75*
G02*
X72560800Y-76663000I0J-50800D01*
G01*
X72560800Y-77563000D01*
G75*
G02*
X72510000Y-77613800I-50800J0D01*
G01*
X70510000Y-77613800D01*
G75*
G02*
X70459200Y-77563000I0J50800D01*
G01*
G37*
G36*
G01*
X70459200Y-76293000D02*
X70459200Y-75393000D01*
G75*
G02*
X70510000Y-75342200I50800J0D01*
G01*
X72510000Y-75342200D01*
G75*
G02*
X72560800Y-75393000I0J-50800D01*
G01*
X72560800Y-76293000D01*
G75*
G02*
X72510000Y-76343800I-50800J0D01*
G01*
X70510000Y-76343800D01*
G75*
G02*
X70459200Y-76293000I0J50800D01*
G01*
G37*
G36*
G01*
X70459200Y-75023000D02*
X70459200Y-74123000D01*
G75*
G02*
X70510000Y-74072200I50800J0D01*
G01*
X72510000Y-74072200D01*
G75*
G02*
X72560800Y-74123000I0J-50800D01*
G01*
X72560800Y-75023000D01*
G75*
G02*
X72510000Y-75073800I-50800J0D01*
G01*
X70510000Y-75073800D01*
G75*
G02*
X70459200Y-75023000I0J50800D01*
G01*
G37*
D20*
X118872000Y-124079000D03*
X118872000Y-75057000D03*
G36*
G01*
X105283000Y-91363800D02*
X104267000Y-91363800D01*
G75*
G02*
X104216200Y-91313000I0J50800D01*
G01*
X104216200Y-90297000D01*
G75*
G02*
X104267000Y-90246200I50800J0D01*
G01*
X105283000Y-90246200D01*
G75*
G02*
X105333800Y-90297000I0J-50800D01*
G01*
X105333800Y-91313000D01*
G75*
G02*
X105283000Y-91363800I-50800J0D01*
G01*
G37*
G36*
G01*
X105283000Y-93141800D02*
X104267000Y-93141800D01*
G75*
G02*
X104216200Y-93091000I0J50800D01*
G01*
X104216200Y-92075000D01*
G75*
G02*
X104267000Y-92024200I50800J0D01*
G01*
X105283000Y-92024200D01*
G75*
G02*
X105333800Y-92075000I0J-50800D01*
G01*
X105333800Y-93091000D01*
G75*
G02*
X105283000Y-93141800I-50800J0D01*
G01*
G37*
M02*
