M48
; DRILL file {KiCad (5.1.12)-1} date 03/19/22 14:56:22
; FORMAT={-:-/ absolute / metric / decimal}
; #@! TF.CreationDate,2022-03-19T14:56:22-03:00
; #@! TF.GenerationSoftware,Kicad,Pcbnew,(5.1.12)-1
; #@! TF.FileFunction,Plated,1,2,PTH
FMAT,2
METRIC
T1C0.300
T2C0.300
T3C0.400
T4C0.500
T5C0.600
T6C0.900
T7C1.000
T8C1.100
T9C1.190
T10C1.200
T11C1.300
T12C1.800
T13C3.300
%
G90
G05
T1
X100.449Y-99.344
T2
X98.649Y-97.544
X98.649Y-98.544
X99.449Y-96.744
X99.449Y-99.344
X100.449Y-96.744
X101.249Y-97.544
X101.249Y-98.544
T3
X70.231Y-109.093
X70.231Y-112.268
X70.231Y-116.332
X70.973Y-104.14
X71.083Y-116.545
X72.898Y-77.089
X72.898Y-83.439
X72.918Y-84.733
X73.66Y-87.757
X74.101Y-85.993
X74.105Y-86.932
X75.438Y-113.284
X75.565Y-93.599
X75.698Y-110.277
X76.056Y-89.361
X78.492Y-108.374
X79.394Y-90.555
X80.137Y-88.265
X80.259Y-96.276
X80.62Y-107.559
X81.026Y-87.883
X81.026Y-94.488
X81.408Y-89.475
X82.001Y-88.828
X82.042Y-94.488
X82.149Y-90.167
X83.038Y-94.488
X84.052Y-104.625
X84.074Y-97.028
X85.019Y-83.573
X85.027Y-84.455
X85.598Y-111.442
X85.716Y-86.299
X85.75Y-87.176
X85.784Y-88.054
X86.233Y-97.536
X86.233Y-100.457
X86.615Y-93.471
X90.487Y-112.014
X90.487Y-112.84
X90.487Y-113.728
X91.714Y-99.113
X94.266Y-89.504
X95.16Y-89.637
X95.809Y-113.411
X95.885Y-102.044
X96.774Y-102.044
X99.314Y-90.805
X100.292Y-102.288
X101.167Y-102.208
X102.044Y-102.235
X102.362Y-95.377
X102.692Y-113.411
X103.124Y-95.885
X104.139Y-97.029
X104.14Y-102.235
X104.267Y-99.822
X105.029Y-102.235
X105.115Y-97.114
X105.161Y-96.188
X105.918Y-96.647
X105.918Y-102.235
X106.426Y-89.281
X115.57Y-120.015
X119.761Y-102.997
X119.761Y-105.537
X119.761Y-109.728
X119.761Y-113.919
X119.761Y-118.364
X119.761Y-121.92
T4
X95.377Y-90.551
T5
X70.739Y-122.301
X71.501Y-120.65
X71.501Y-124.079
X73.152Y-74.549
X73.152Y-119.888
X73.152Y-124.714
X74.168Y-74.295
X74.295Y-90.678
X74.295Y-94.361
X74.295Y-95.631
X74.295Y-115.951
X74.803Y-120.65
X74.803Y-123.952
X75.565Y-74.295
X75.565Y-76.073
X75.565Y-78.105
X75.565Y-81.28
X75.565Y-122.301
X75.819Y-83.693
X77.089Y-74.295
X77.089Y-76.073
X77.089Y-78.105
X77.089Y-90.424
X77.153Y-88.9
X77.21Y-80.283
X77.21Y-82.083
X77.21Y-83.883
X78.168Y-90.423
X78.74Y-74.295
X78.74Y-76.073
X78.74Y-78.105
X79.01Y-80.283
X79.01Y-83.883
X79.566Y-117.411
X79.566Y-118.554
X80.391Y-74.295
X80.391Y-76.073
X80.391Y-78.105
X80.81Y-80.283
X80.81Y-82.083
X80.81Y-83.883
X80.962Y-117.475
X80.962Y-118.618
X81.915Y-74.295
X81.915Y-76.073
X81.915Y-78.105
X82.499Y-107.442
X82.499Y-108.458
X83.185Y-74.295
X83.185Y-76.073
X83.185Y-78.105
X84.074Y-102.743
X84.455Y-74.295
X84.455Y-76.073
X84.455Y-78.105
X85.725Y-74.295
X85.725Y-76.073
X86.995Y-74.549
X87.249Y-100.838
X87.376Y-97.536
X88.646Y-104.648
X88.773Y-106.553
X88.773Y-107.569
X90.17Y-68.199
X90.17Y-69.469
X90.17Y-70.739
X90.17Y-72.009
X90.17Y-73.279
X90.17Y-91.694
X90.932Y-104.14
X91.567Y-88.138
X91.694Y-68.199
X91.694Y-69.469
X91.694Y-74.676
X92.558Y-88.138
X92.67Y-94.02
X92.71Y-74.676
X94.17Y-108.966
X94.17Y-110.109
X94.615Y-91.757
X95.25Y-70.485
X95.377Y-108.966
X95.377Y-110.109
X96.52Y-68.58
X96.647Y-108.966
X96.647Y-110.109
X97.155Y-75.565
X97.79Y-70.485
X97.79Y-81.915
X97.917Y-108.966
X97.917Y-110.109
X98.806Y-104.648
X99.187Y-108.966
X99.187Y-110.109
X99.695Y-68.58
X99.695Y-72.39
X99.695Y-76.2
X99.695Y-80.01
X100.457Y-108.966
X100.457Y-110.109
X101.6Y-70.485
X101.6Y-74.295
X101.6Y-78.105
X101.6Y-81.915
X101.854Y-108.966
X101.854Y-110.109
X103.124Y-100.965
X103.124Y-102.108
X103.505Y-68.58
X103.505Y-72.39
X103.505Y-76.2
X103.505Y-80.01
X103.505Y-90.805
X103.632Y-108.966
X103.632Y-110.109
X105.41Y-70.485
X105.41Y-81.915
X105.537Y-108.966
X105.537Y-109.982
X106.045Y-75.565
X106.426Y-94.107
X106.426Y-95.123
X106.68Y-68.58
X107.315Y-108.966
X107.315Y-109.982
X107.696Y-115.722
X107.874Y-112.243
X107.95Y-70.485
X108.077Y-90.805
X109.347Y-90.805
X109.347Y-91.948
X109.347Y-93.091
X109.347Y-94.234
X109.347Y-95.377
X109.347Y-96.52
X109.347Y-97.663
X109.347Y-98.806
X109.347Y-99.949
X109.347Y-101.092
X110.236Y-107.569
X111.125Y-85.598
X111.125Y-86.868
X111.125Y-88.138
X111.125Y-89.408
X111.125Y-90.678
X111.125Y-91.948
X111.125Y-93.091
X111.125Y-94.107
X111.252Y-68.58
X111.252Y-70.485
X111.252Y-72.39
X111.252Y-74.295
X111.887Y-125.222
X112.141Y-117.475
X112.395Y-74.93
X112.395Y-85.598
X112.395Y-86.868
X112.395Y-88.138
X112.395Y-89.408
X112.395Y-90.678
X112.459Y-93.853
X112.649Y-104.775
X112.649Y-120.904
X112.776Y-119.761
X112.903Y-92.964
X113.03Y-125.222
X113.284Y-111.76
X113.665Y-74.93
X113.665Y-76.2
X113.665Y-77.47
X113.665Y-85.598
X113.665Y-86.868
X113.665Y-88.138
X113.665Y-89.408
X113.665Y-90.678
X113.919Y-71.12
X114.046Y-92.964
X114.3Y-111.76
X114.3Y-113.411
X114.681Y-69.469
X114.681Y-72.898
X114.935Y-74.93
X114.935Y-76.2
X114.935Y-77.47
X114.935Y-78.74
X114.935Y-80.01
X114.935Y-81.788
X114.935Y-83.058
X114.935Y-84.328
X114.935Y-85.598
X114.935Y-86.868
X114.935Y-88.138
X114.935Y-89.408
X114.935Y-90.678
X115.57Y-118.364
X116.078Y-85.344
X116.205Y-76.2
X116.205Y-77.47
X116.205Y-78.74
X116.332Y-68.707
X116.332Y-73.533
X116.586Y-118.364
X116.713Y-110.871
X117.983Y-69.469
X117.983Y-72.771
X118.745Y-71.12
T6
X97.165Y-87.599
X98.435Y-85.059
X99.705Y-87.599
X100.975Y-85.059
X102.245Y-87.599
X103.515Y-85.059
X104.785Y-87.599
X106.055Y-85.059
T7
X72.568Y-98.755
X72.568Y-101.295
X72.568Y-103.835
X72.568Y-106.375
X72.568Y-108.915
X72.568Y-111.455
X72.568Y-113.995
T8
X94.99Y-73.611
X97.53Y-73.611
X105.67Y-73.611
X108.21Y-73.611
T9
X78.232Y-125.412
X80.772Y-125.412
X83.312Y-125.412
X86.868Y-125.539
X89.408Y-125.539
X92.964Y-125.539
X95.504Y-125.539
X99.06Y-125.412
X101.6Y-125.412
X105.156Y-125.476
X107.696Y-125.476
T10
X99.949Y-98.044
T11
X79.01Y-82.083
T12
X93.8Y-81.409
X109.4Y-81.409
T13
X73.152Y-122.301
X116.332Y-71.12
T0
M30
