G04 #@! TF.GenerationSoftware,KiCad,Pcbnew,(5.1.10)-1*
G04 #@! TF.CreationDate,2021-08-27T22:23:48-03:00*
G04 #@! TF.ProjectId,ESP32-GATEWAY_Rev_F,45535033-322d-4474-9154-455741595f52,F*
G04 #@! TF.SameCoordinates,Original*
G04 #@! TF.FileFunction,Legend,Top*
G04 #@! TF.FilePolarity,Positive*
%FSLAX46Y46*%
G04 Gerber Fmt 4.6, Leading zero omitted, Abs format (unit mm)*
G04 Created by KiCad (PCBNEW (5.1.10)-1) date 2021-08-27 22:23:48*
%MOMM*%
%LPD*%
G01*
G04 APERTURE LIST*
%ADD10C,0.125000*%
%ADD11C,0.010000*%
%ADD12C,0.120000*%
%ADD13C,0.254000*%
%ADD14C,0.127000*%
%ADD15C,0.200000*%
%ADD16C,0.150000*%
%ADD17C,0.190500*%
%ADD18C,0.177800*%
%ADD19C,0.158750*%
G04 APERTURE END LIST*
D10*
X74672000Y-113307904D02*
X74695809Y-113260285D01*
X74695809Y-113188857D01*
X74672000Y-113117428D01*
X74624380Y-113069809D01*
X74576761Y-113046000D01*
X74481523Y-113022190D01*
X74410095Y-113022190D01*
X74314857Y-113046000D01*
X74267238Y-113069809D01*
X74219619Y-113117428D01*
X74195809Y-113188857D01*
X74195809Y-113236476D01*
X74219619Y-113307904D01*
X74243428Y-113331714D01*
X74410095Y-113331714D01*
X74410095Y-113236476D01*
X74195809Y-113546000D02*
X74695809Y-113546000D01*
X74695809Y-113736476D01*
X74672000Y-113784095D01*
X74648190Y-113807904D01*
X74600571Y-113831714D01*
X74529142Y-113831714D01*
X74481523Y-113807904D01*
X74457714Y-113784095D01*
X74433904Y-113736476D01*
X74433904Y-113546000D01*
X74195809Y-114046000D02*
X74695809Y-114046000D01*
X74695809Y-114379333D02*
X74695809Y-114474571D01*
X74672000Y-114522190D01*
X74624380Y-114569809D01*
X74529142Y-114593619D01*
X74362476Y-114593619D01*
X74267238Y-114569809D01*
X74219619Y-114522190D01*
X74195809Y-114474571D01*
X74195809Y-114379333D01*
X74219619Y-114331714D01*
X74267238Y-114284095D01*
X74362476Y-114260285D01*
X74529142Y-114260285D01*
X74624380Y-114284095D01*
X74672000Y-114331714D01*
X74695809Y-114379333D01*
X74695809Y-114903142D02*
X74695809Y-114950761D01*
X74672000Y-114998380D01*
X74648190Y-115022190D01*
X74600571Y-115046000D01*
X74505333Y-115069809D01*
X74386285Y-115069809D01*
X74291047Y-115046000D01*
X74243428Y-115022190D01*
X74219619Y-114998380D01*
X74195809Y-114950761D01*
X74195809Y-114903142D01*
X74219619Y-114855523D01*
X74243428Y-114831714D01*
X74291047Y-114807904D01*
X74386285Y-114784095D01*
X74505333Y-114784095D01*
X74600571Y-114807904D01*
X74648190Y-114831714D01*
X74672000Y-114855523D01*
X74695809Y-114903142D01*
X74672000Y-110767904D02*
X74695809Y-110720285D01*
X74695809Y-110648857D01*
X74672000Y-110577428D01*
X74624380Y-110529809D01*
X74576761Y-110506000D01*
X74481523Y-110482190D01*
X74410095Y-110482190D01*
X74314857Y-110506000D01*
X74267238Y-110529809D01*
X74219619Y-110577428D01*
X74195809Y-110648857D01*
X74195809Y-110696476D01*
X74219619Y-110767904D01*
X74243428Y-110791714D01*
X74410095Y-110791714D01*
X74410095Y-110696476D01*
X74195809Y-111006000D02*
X74695809Y-111006000D01*
X74695809Y-111196476D01*
X74672000Y-111244095D01*
X74648190Y-111267904D01*
X74600571Y-111291714D01*
X74529142Y-111291714D01*
X74481523Y-111267904D01*
X74457714Y-111244095D01*
X74433904Y-111196476D01*
X74433904Y-111006000D01*
X74195809Y-111506000D02*
X74695809Y-111506000D01*
X74695809Y-111839333D02*
X74695809Y-111934571D01*
X74672000Y-111982190D01*
X74624380Y-112029809D01*
X74529142Y-112053619D01*
X74362476Y-112053619D01*
X74267238Y-112029809D01*
X74219619Y-111982190D01*
X74195809Y-111934571D01*
X74195809Y-111839333D01*
X74219619Y-111791714D01*
X74267238Y-111744095D01*
X74362476Y-111720285D01*
X74529142Y-111720285D01*
X74624380Y-111744095D01*
X74672000Y-111791714D01*
X74695809Y-111839333D01*
X74529142Y-112482190D02*
X74195809Y-112482190D01*
X74719619Y-112363142D02*
X74362476Y-112244095D01*
X74362476Y-112553619D01*
X74195809Y-108628666D02*
X74433904Y-108462000D01*
X74195809Y-108342952D02*
X74695809Y-108342952D01*
X74695809Y-108533428D01*
X74672000Y-108581047D01*
X74648190Y-108604857D01*
X74600571Y-108628666D01*
X74529142Y-108628666D01*
X74481523Y-108604857D01*
X74457714Y-108581047D01*
X74433904Y-108533428D01*
X74433904Y-108342952D01*
X74695809Y-108795333D02*
X74195809Y-109128666D01*
X74695809Y-109128666D02*
X74195809Y-108795333D01*
X74695809Y-105791047D02*
X74695809Y-106076761D01*
X74195809Y-105933904D02*
X74695809Y-105933904D01*
X74695809Y-106195809D02*
X74195809Y-106529142D01*
X74695809Y-106529142D02*
X74195809Y-106195809D01*
X74457714Y-103262952D02*
X74457714Y-103429619D01*
X74195809Y-103501047D02*
X74195809Y-103262952D01*
X74695809Y-103262952D01*
X74695809Y-103501047D01*
X74195809Y-103715333D02*
X74695809Y-103715333D01*
X74195809Y-104001047D01*
X74695809Y-104001047D01*
X74695809Y-100472952D02*
X74695809Y-100782476D01*
X74505333Y-100615809D01*
X74505333Y-100687238D01*
X74481523Y-100734857D01*
X74457714Y-100758666D01*
X74410095Y-100782476D01*
X74291047Y-100782476D01*
X74243428Y-100758666D01*
X74219619Y-100734857D01*
X74195809Y-100687238D01*
X74195809Y-100544380D01*
X74219619Y-100496761D01*
X74243428Y-100472952D01*
X74695809Y-100925333D02*
X74195809Y-101092000D01*
X74695809Y-101258666D01*
X74695809Y-101377714D02*
X74695809Y-101687238D01*
X74505333Y-101520571D01*
X74505333Y-101592000D01*
X74481523Y-101639619D01*
X74457714Y-101663428D01*
X74410095Y-101687238D01*
X74291047Y-101687238D01*
X74243428Y-101663428D01*
X74219619Y-101639619D01*
X74195809Y-101592000D01*
X74195809Y-101449142D01*
X74219619Y-101401523D01*
X74243428Y-101377714D01*
X74672000Y-98425047D02*
X74695809Y-98377428D01*
X74695809Y-98306000D01*
X74672000Y-98234571D01*
X74624380Y-98186952D01*
X74576761Y-98163142D01*
X74481523Y-98139333D01*
X74410095Y-98139333D01*
X74314857Y-98163142D01*
X74267238Y-98186952D01*
X74219619Y-98234571D01*
X74195809Y-98306000D01*
X74195809Y-98353619D01*
X74219619Y-98425047D01*
X74243428Y-98448857D01*
X74410095Y-98448857D01*
X74410095Y-98353619D01*
X74195809Y-98663142D02*
X74695809Y-98663142D01*
X74195809Y-98948857D01*
X74695809Y-98948857D01*
X74195809Y-99186952D02*
X74695809Y-99186952D01*
X74695809Y-99306000D01*
X74672000Y-99377428D01*
X74624380Y-99425047D01*
X74576761Y-99448857D01*
X74481523Y-99472666D01*
X74410095Y-99472666D01*
X74314857Y-99448857D01*
X74267238Y-99425047D01*
X74219619Y-99377428D01*
X74195809Y-99306000D01*
X74195809Y-99186952D01*
D11*
G36*
X115740541Y-102604940D02*
G01*
X116129198Y-102647383D01*
X116511952Y-102728623D01*
X116885731Y-102848308D01*
X117247463Y-103006087D01*
X117594074Y-103201606D01*
X117922494Y-103434514D01*
X118229650Y-103704458D01*
X118261064Y-103735457D01*
X118548487Y-104050030D01*
X118794439Y-104379264D01*
X118999606Y-104724625D01*
X119164675Y-105087579D01*
X119290333Y-105469591D01*
X119377265Y-105872128D01*
X119419337Y-106209323D01*
X119432285Y-106563552D01*
X119411590Y-106925096D01*
X119358777Y-107283193D01*
X119275372Y-107627080D01*
X119178566Y-107907691D01*
X119031524Y-108241064D01*
X118869107Y-108541019D01*
X118684901Y-108817391D01*
X118472493Y-109080018D01*
X118282071Y-109282699D01*
X117971582Y-109564330D01*
X117638121Y-109808289D01*
X117281490Y-110014686D01*
X116901489Y-110183634D01*
X116497918Y-110315242D01*
X116360489Y-110350270D01*
X116155851Y-110388930D01*
X115921800Y-110416215D01*
X115671751Y-110431570D01*
X115419120Y-110434442D01*
X115177323Y-110424275D01*
X115001261Y-110406457D01*
X114595587Y-110330343D01*
X114204470Y-110213535D01*
X113830389Y-110057829D01*
X113475823Y-109865022D01*
X113143252Y-109636911D01*
X112835156Y-109375293D01*
X112554013Y-109081964D01*
X112302302Y-108758720D01*
X112082504Y-108407359D01*
X111984792Y-108220566D01*
X111880689Y-107991426D01*
X111794887Y-107762793D01*
X111725162Y-107525924D01*
X111669291Y-107272075D01*
X111625051Y-106992503D01*
X111590218Y-106678465D01*
X111588841Y-106663435D01*
X111584767Y-106540208D01*
X111589711Y-106408652D01*
X111802482Y-106408652D01*
X111812034Y-106799889D01*
X111863745Y-107188558D01*
X111957442Y-107572145D01*
X112092952Y-107948138D01*
X112270099Y-108314023D01*
X112447580Y-108606653D01*
X112564696Y-108766083D01*
X112709696Y-108937477D01*
X112873127Y-109111378D01*
X113045535Y-109278325D01*
X113217467Y-109428860D01*
X113379471Y-109553523D01*
X113424842Y-109584541D01*
X113672647Y-109738670D01*
X113913506Y-109867305D01*
X114155791Y-109973306D01*
X114407876Y-110059534D01*
X114678136Y-110128849D01*
X114974945Y-110184112D01*
X115306676Y-110228182D01*
X115310479Y-110228607D01*
X115388499Y-110232469D01*
X115498764Y-110231526D01*
X115629684Y-110226419D01*
X115769667Y-110217784D01*
X115907122Y-110206262D01*
X116030456Y-110192491D01*
X116072479Y-110186610D01*
X116247859Y-110155006D01*
X116430554Y-110113091D01*
X116601677Y-110065517D01*
X116707480Y-110030236D01*
X116784031Y-110003227D01*
X116856854Y-109979096D01*
X116871582Y-109974518D01*
X116935550Y-109949725D01*
X117027735Y-109907093D01*
X117138581Y-109851685D01*
X117258532Y-109788563D01*
X117378029Y-109722789D01*
X117487518Y-109659424D01*
X117577440Y-109603532D01*
X117598331Y-109589555D01*
X117849081Y-109402516D01*
X118083711Y-109194040D01*
X118311659Y-108955363D01*
X118430262Y-108816913D01*
X118495359Y-108730725D01*
X118571450Y-108617802D01*
X118653442Y-108487003D01*
X118736244Y-108347185D01*
X118814763Y-108207209D01*
X118883908Y-108075931D01*
X118938586Y-107962212D01*
X118973705Y-107874910D01*
X118976194Y-107867174D01*
X118994729Y-107809989D01*
X119021260Y-107731008D01*
X119042583Y-107668904D01*
X119124384Y-107381176D01*
X119181273Y-107067412D01*
X119212712Y-106738416D01*
X119218162Y-106404994D01*
X119197083Y-106077951D01*
X119148937Y-105768093D01*
X119139566Y-105724740D01*
X119035166Y-105350714D01*
X118893972Y-104989336D01*
X118719573Y-104649023D01*
X118597991Y-104454740D01*
X118352925Y-104129800D01*
X118078677Y-103837336D01*
X117777297Y-103578587D01*
X117450835Y-103354790D01*
X117101343Y-103167184D01*
X116730871Y-103017007D01*
X116341468Y-102905497D01*
X115935187Y-102833891D01*
X115908061Y-102830626D01*
X115750745Y-102813564D01*
X115620756Y-102803524D01*
X115503664Y-102800539D01*
X115385041Y-102804638D01*
X115250455Y-102815853D01*
X115101137Y-102832364D01*
X114703257Y-102900551D01*
X114319713Y-103008695D01*
X113953205Y-103154907D01*
X113606433Y-103337301D01*
X113282098Y-103553989D01*
X112982898Y-103803082D01*
X112711533Y-104082693D01*
X112470705Y-104390935D01*
X112263112Y-104725919D01*
X112189341Y-104868292D01*
X112028519Y-105244667D01*
X111910551Y-105628528D01*
X111835263Y-106017361D01*
X111802482Y-106408652D01*
X111589711Y-106408652D01*
X111590607Y-106384816D01*
X111605197Y-106207861D01*
X111627375Y-106019940D01*
X111655978Y-105831653D01*
X111689842Y-105653600D01*
X111708769Y-105570131D01*
X111822739Y-105191427D01*
X111977338Y-104825374D01*
X112169971Y-104475512D01*
X112398044Y-104145383D01*
X112658961Y-103838529D01*
X112950128Y-103558491D01*
X113268949Y-103308810D01*
X113456696Y-103184749D01*
X113816249Y-102987012D01*
X114188334Y-102830185D01*
X114569878Y-102713917D01*
X114957809Y-102637855D01*
X115349054Y-102601646D01*
X115740541Y-102604940D01*
G37*
X115740541Y-102604940D02*
X116129198Y-102647383D01*
X116511952Y-102728623D01*
X116885731Y-102848308D01*
X117247463Y-103006087D01*
X117594074Y-103201606D01*
X117922494Y-103434514D01*
X118229650Y-103704458D01*
X118261064Y-103735457D01*
X118548487Y-104050030D01*
X118794439Y-104379264D01*
X118999606Y-104724625D01*
X119164675Y-105087579D01*
X119290333Y-105469591D01*
X119377265Y-105872128D01*
X119419337Y-106209323D01*
X119432285Y-106563552D01*
X119411590Y-106925096D01*
X119358777Y-107283193D01*
X119275372Y-107627080D01*
X119178566Y-107907691D01*
X119031524Y-108241064D01*
X118869107Y-108541019D01*
X118684901Y-108817391D01*
X118472493Y-109080018D01*
X118282071Y-109282699D01*
X117971582Y-109564330D01*
X117638121Y-109808289D01*
X117281490Y-110014686D01*
X116901489Y-110183634D01*
X116497918Y-110315242D01*
X116360489Y-110350270D01*
X116155851Y-110388930D01*
X115921800Y-110416215D01*
X115671751Y-110431570D01*
X115419120Y-110434442D01*
X115177323Y-110424275D01*
X115001261Y-110406457D01*
X114595587Y-110330343D01*
X114204470Y-110213535D01*
X113830389Y-110057829D01*
X113475823Y-109865022D01*
X113143252Y-109636911D01*
X112835156Y-109375293D01*
X112554013Y-109081964D01*
X112302302Y-108758720D01*
X112082504Y-108407359D01*
X111984792Y-108220566D01*
X111880689Y-107991426D01*
X111794887Y-107762793D01*
X111725162Y-107525924D01*
X111669291Y-107272075D01*
X111625051Y-106992503D01*
X111590218Y-106678465D01*
X111588841Y-106663435D01*
X111584767Y-106540208D01*
X111589711Y-106408652D01*
X111802482Y-106408652D01*
X111812034Y-106799889D01*
X111863745Y-107188558D01*
X111957442Y-107572145D01*
X112092952Y-107948138D01*
X112270099Y-108314023D01*
X112447580Y-108606653D01*
X112564696Y-108766083D01*
X112709696Y-108937477D01*
X112873127Y-109111378D01*
X113045535Y-109278325D01*
X113217467Y-109428860D01*
X113379471Y-109553523D01*
X113424842Y-109584541D01*
X113672647Y-109738670D01*
X113913506Y-109867305D01*
X114155791Y-109973306D01*
X114407876Y-110059534D01*
X114678136Y-110128849D01*
X114974945Y-110184112D01*
X115306676Y-110228182D01*
X115310479Y-110228607D01*
X115388499Y-110232469D01*
X115498764Y-110231526D01*
X115629684Y-110226419D01*
X115769667Y-110217784D01*
X115907122Y-110206262D01*
X116030456Y-110192491D01*
X116072479Y-110186610D01*
X116247859Y-110155006D01*
X116430554Y-110113091D01*
X116601677Y-110065517D01*
X116707480Y-110030236D01*
X116784031Y-110003227D01*
X116856854Y-109979096D01*
X116871582Y-109974518D01*
X116935550Y-109949725D01*
X117027735Y-109907093D01*
X117138581Y-109851685D01*
X117258532Y-109788563D01*
X117378029Y-109722789D01*
X117487518Y-109659424D01*
X117577440Y-109603532D01*
X117598331Y-109589555D01*
X117849081Y-109402516D01*
X118083711Y-109194040D01*
X118311659Y-108955363D01*
X118430262Y-108816913D01*
X118495359Y-108730725D01*
X118571450Y-108617802D01*
X118653442Y-108487003D01*
X118736244Y-108347185D01*
X118814763Y-108207209D01*
X118883908Y-108075931D01*
X118938586Y-107962212D01*
X118973705Y-107874910D01*
X118976194Y-107867174D01*
X118994729Y-107809989D01*
X119021260Y-107731008D01*
X119042583Y-107668904D01*
X119124384Y-107381176D01*
X119181273Y-107067412D01*
X119212712Y-106738416D01*
X119218162Y-106404994D01*
X119197083Y-106077951D01*
X119148937Y-105768093D01*
X119139566Y-105724740D01*
X119035166Y-105350714D01*
X118893972Y-104989336D01*
X118719573Y-104649023D01*
X118597991Y-104454740D01*
X118352925Y-104129800D01*
X118078677Y-103837336D01*
X117777297Y-103578587D01*
X117450835Y-103354790D01*
X117101343Y-103167184D01*
X116730871Y-103017007D01*
X116341468Y-102905497D01*
X115935187Y-102833891D01*
X115908061Y-102830626D01*
X115750745Y-102813564D01*
X115620756Y-102803524D01*
X115503664Y-102800539D01*
X115385041Y-102804638D01*
X115250455Y-102815853D01*
X115101137Y-102832364D01*
X114703257Y-102900551D01*
X114319713Y-103008695D01*
X113953205Y-103154907D01*
X113606433Y-103337301D01*
X113282098Y-103553989D01*
X112982898Y-103803082D01*
X112711533Y-104082693D01*
X112470705Y-104390935D01*
X112263112Y-104725919D01*
X112189341Y-104868292D01*
X112028519Y-105244667D01*
X111910551Y-105628528D01*
X111835263Y-106017361D01*
X111802482Y-106408652D01*
X111589711Y-106408652D01*
X111590607Y-106384816D01*
X111605197Y-106207861D01*
X111627375Y-106019940D01*
X111655978Y-105831653D01*
X111689842Y-105653600D01*
X111708769Y-105570131D01*
X111822739Y-105191427D01*
X111977338Y-104825374D01*
X112169971Y-104475512D01*
X112398044Y-104145383D01*
X112658961Y-103838529D01*
X112950128Y-103558491D01*
X113268949Y-103308810D01*
X113456696Y-103184749D01*
X113816249Y-102987012D01*
X114188334Y-102830185D01*
X114569878Y-102713917D01*
X114957809Y-102637855D01*
X115349054Y-102601646D01*
X115740541Y-102604940D01*
G36*
X115793715Y-103210417D02*
G01*
X116150255Y-103261878D01*
X116499595Y-103352305D01*
X116837893Y-103480033D01*
X117161309Y-103643397D01*
X117466003Y-103840732D01*
X117748134Y-104070371D01*
X118003862Y-104330651D01*
X118208521Y-104590079D01*
X118276451Y-104691173D01*
X118348706Y-104807106D01*
X118419885Y-104928311D01*
X118484589Y-105045220D01*
X118537420Y-105148263D01*
X118572979Y-105227873D01*
X118580802Y-105249870D01*
X118598333Y-105301268D01*
X118624913Y-105374474D01*
X118644494Y-105426566D01*
X118720324Y-105664814D01*
X118778280Y-105930105D01*
X118815915Y-106208090D01*
X118830782Y-106484420D01*
X118830914Y-106519870D01*
X118808378Y-106902124D01*
X118743452Y-107274379D01*
X118637269Y-107633915D01*
X118490963Y-107978014D01*
X118305666Y-108303960D01*
X118082513Y-108609034D01*
X117855805Y-108857994D01*
X117603135Y-109087736D01*
X117340237Y-109282508D01*
X117054435Y-109451449D01*
X116978044Y-109490658D01*
X116714351Y-109609166D01*
X116449324Y-109700046D01*
X116167509Y-109768107D01*
X115984131Y-109799961D01*
X115693161Y-109832834D01*
X115419367Y-109838485D01*
X115145152Y-109816936D01*
X115034392Y-109801180D01*
X114829656Y-109764865D01*
X114651948Y-109723910D01*
X114484124Y-109673858D01*
X114327609Y-109617445D01*
X113984774Y-109462510D01*
X113665667Y-109272186D01*
X113372324Y-109049429D01*
X113106777Y-108797195D01*
X112871060Y-108518440D01*
X112667209Y-108216120D01*
X112497256Y-107893192D01*
X112363235Y-107552612D01*
X112267180Y-107197336D01*
X112211125Y-106830320D01*
X112199128Y-106576770D01*
X112407544Y-106576770D01*
X112433826Y-106936136D01*
X112502012Y-107289853D01*
X112557571Y-107480653D01*
X112692015Y-107821509D01*
X112863352Y-108140423D01*
X113068881Y-108435030D01*
X113305896Y-108702969D01*
X113571695Y-108941876D01*
X113863573Y-109149387D01*
X114178828Y-109323141D01*
X114514755Y-109460774D01*
X114868651Y-109559922D01*
X114957087Y-109577942D01*
X115152644Y-109605064D01*
X115372710Y-109619149D01*
X115601121Y-109620183D01*
X115821713Y-109608151D01*
X116018321Y-109583038D01*
X116040610Y-109578939D01*
X116302933Y-109521473D01*
X116534344Y-109453890D01*
X116747776Y-109371429D01*
X116956164Y-109269331D01*
X117091947Y-109192028D01*
X117395420Y-108986405D01*
X117669192Y-108750993D01*
X117911701Y-108489029D01*
X118121389Y-108203750D01*
X118296694Y-107898393D01*
X118436058Y-107576193D01*
X118537921Y-107240387D01*
X118600722Y-106894213D01*
X118622901Y-106540905D01*
X118602900Y-106183701D01*
X118589687Y-106084482D01*
X118514965Y-105717690D01*
X118404114Y-105375551D01*
X118255913Y-105055652D01*
X118069140Y-104755577D01*
X117842576Y-104472912D01*
X117698768Y-104322218D01*
X117421522Y-104074275D01*
X117132120Y-103867751D01*
X116826789Y-103700694D01*
X116501757Y-103571151D01*
X116153250Y-103477171D01*
X116013870Y-103450375D01*
X115862534Y-103431560D01*
X115682757Y-103420711D01*
X115489549Y-103417821D01*
X115297919Y-103422885D01*
X115122875Y-103435899D01*
X115012305Y-103450735D01*
X114650582Y-103534127D01*
X114305910Y-103656816D01*
X113981017Y-103816755D01*
X113678632Y-104011903D01*
X113401485Y-104240213D01*
X113152304Y-104499644D01*
X112933819Y-104788149D01*
X112748759Y-105103686D01*
X112715434Y-105171032D01*
X112577112Y-105508886D01*
X112479489Y-105858735D01*
X112422866Y-106216166D01*
X112407544Y-106576770D01*
X112199128Y-106576770D01*
X112196435Y-106519870D01*
X112204397Y-106306230D01*
X112226626Y-106080879D01*
X112260795Y-105861938D01*
X112304576Y-105667527D01*
X112307058Y-105658479D01*
X112428649Y-105300545D01*
X112589139Y-104959688D01*
X112785826Y-104639350D01*
X113016008Y-104342973D01*
X113276983Y-104073997D01*
X113566048Y-103835866D01*
X113880501Y-103632020D01*
X113911818Y-103614440D01*
X114209363Y-103468323D01*
X114518167Y-103354859D01*
X114847971Y-103270837D01*
X115074391Y-103231056D01*
X115433813Y-103199588D01*
X115793715Y-103210417D01*
G37*
X115793715Y-103210417D02*
X116150255Y-103261878D01*
X116499595Y-103352305D01*
X116837893Y-103480033D01*
X117161309Y-103643397D01*
X117466003Y-103840732D01*
X117748134Y-104070371D01*
X118003862Y-104330651D01*
X118208521Y-104590079D01*
X118276451Y-104691173D01*
X118348706Y-104807106D01*
X118419885Y-104928311D01*
X118484589Y-105045220D01*
X118537420Y-105148263D01*
X118572979Y-105227873D01*
X118580802Y-105249870D01*
X118598333Y-105301268D01*
X118624913Y-105374474D01*
X118644494Y-105426566D01*
X118720324Y-105664814D01*
X118778280Y-105930105D01*
X118815915Y-106208090D01*
X118830782Y-106484420D01*
X118830914Y-106519870D01*
X118808378Y-106902124D01*
X118743452Y-107274379D01*
X118637269Y-107633915D01*
X118490963Y-107978014D01*
X118305666Y-108303960D01*
X118082513Y-108609034D01*
X117855805Y-108857994D01*
X117603135Y-109087736D01*
X117340237Y-109282508D01*
X117054435Y-109451449D01*
X116978044Y-109490658D01*
X116714351Y-109609166D01*
X116449324Y-109700046D01*
X116167509Y-109768107D01*
X115984131Y-109799961D01*
X115693161Y-109832834D01*
X115419367Y-109838485D01*
X115145152Y-109816936D01*
X115034392Y-109801180D01*
X114829656Y-109764865D01*
X114651948Y-109723910D01*
X114484124Y-109673858D01*
X114327609Y-109617445D01*
X113984774Y-109462510D01*
X113665667Y-109272186D01*
X113372324Y-109049429D01*
X113106777Y-108797195D01*
X112871060Y-108518440D01*
X112667209Y-108216120D01*
X112497256Y-107893192D01*
X112363235Y-107552612D01*
X112267180Y-107197336D01*
X112211125Y-106830320D01*
X112199128Y-106576770D01*
X112407544Y-106576770D01*
X112433826Y-106936136D01*
X112502012Y-107289853D01*
X112557571Y-107480653D01*
X112692015Y-107821509D01*
X112863352Y-108140423D01*
X113068881Y-108435030D01*
X113305896Y-108702969D01*
X113571695Y-108941876D01*
X113863573Y-109149387D01*
X114178828Y-109323141D01*
X114514755Y-109460774D01*
X114868651Y-109559922D01*
X114957087Y-109577942D01*
X115152644Y-109605064D01*
X115372710Y-109619149D01*
X115601121Y-109620183D01*
X115821713Y-109608151D01*
X116018321Y-109583038D01*
X116040610Y-109578939D01*
X116302933Y-109521473D01*
X116534344Y-109453890D01*
X116747776Y-109371429D01*
X116956164Y-109269331D01*
X117091947Y-109192028D01*
X117395420Y-108986405D01*
X117669192Y-108750993D01*
X117911701Y-108489029D01*
X118121389Y-108203750D01*
X118296694Y-107898393D01*
X118436058Y-107576193D01*
X118537921Y-107240387D01*
X118600722Y-106894213D01*
X118622901Y-106540905D01*
X118602900Y-106183701D01*
X118589687Y-106084482D01*
X118514965Y-105717690D01*
X118404114Y-105375551D01*
X118255913Y-105055652D01*
X118069140Y-104755577D01*
X117842576Y-104472912D01*
X117698768Y-104322218D01*
X117421522Y-104074275D01*
X117132120Y-103867751D01*
X116826789Y-103700694D01*
X116501757Y-103571151D01*
X116153250Y-103477171D01*
X116013870Y-103450375D01*
X115862534Y-103431560D01*
X115682757Y-103420711D01*
X115489549Y-103417821D01*
X115297919Y-103422885D01*
X115122875Y-103435899D01*
X115012305Y-103450735D01*
X114650582Y-103534127D01*
X114305910Y-103656816D01*
X113981017Y-103816755D01*
X113678632Y-104011903D01*
X113401485Y-104240213D01*
X113152304Y-104499644D01*
X112933819Y-104788149D01*
X112748759Y-105103686D01*
X112715434Y-105171032D01*
X112577112Y-105508886D01*
X112479489Y-105858735D01*
X112422866Y-106216166D01*
X112407544Y-106576770D01*
X112199128Y-106576770D01*
X112196435Y-106519870D01*
X112204397Y-106306230D01*
X112226626Y-106080879D01*
X112260795Y-105861938D01*
X112304576Y-105667527D01*
X112307058Y-105658479D01*
X112428649Y-105300545D01*
X112589139Y-104959688D01*
X112785826Y-104639350D01*
X113016008Y-104342973D01*
X113276983Y-104073997D01*
X113566048Y-103835866D01*
X113880501Y-103632020D01*
X113911818Y-103614440D01*
X114209363Y-103468323D01*
X114518167Y-103354859D01*
X114847971Y-103270837D01*
X115074391Y-103231056D01*
X115433813Y-103199588D01*
X115793715Y-103210417D01*
G36*
X114271744Y-104653533D02*
G01*
X114365066Y-104658070D01*
X114438803Y-104665841D01*
X114482443Y-104676827D01*
X114488428Y-104681131D01*
X114503452Y-104717197D01*
X114518358Y-104781161D01*
X114526770Y-104835437D01*
X114570091Y-105012049D01*
X114652554Y-105180140D01*
X114769138Y-105332300D01*
X114914826Y-105461117D01*
X114979584Y-105504119D01*
X115051002Y-105547189D01*
X115105057Y-105575460D01*
X115144165Y-105584966D01*
X115170742Y-105571741D01*
X115187204Y-105531816D01*
X115195967Y-105461225D01*
X115199447Y-105356002D01*
X115200060Y-105212179D01*
X115200044Y-105142140D01*
X115200658Y-104984878D01*
X115202734Y-104866498D01*
X115206622Y-104781719D01*
X115212671Y-104725264D01*
X115221231Y-104691852D01*
X115230814Y-104677568D01*
X115271642Y-104664784D01*
X115355492Y-104658123D01*
X115481632Y-104657637D01*
X115512422Y-104658298D01*
X115763261Y-104664566D01*
X115769231Y-105122870D01*
X115771394Y-105276077D01*
X115773751Y-105390701D01*
X115776918Y-105472329D01*
X115781514Y-105526549D01*
X115788153Y-105558949D01*
X115797453Y-105575118D01*
X115810031Y-105580643D01*
X115819807Y-105581174D01*
X115892098Y-105564156D01*
X115983968Y-105515839D01*
X116088580Y-105440328D01*
X116165858Y-105373370D01*
X116284851Y-105239182D01*
X116376870Y-105085877D01*
X116435468Y-104925344D01*
X116449787Y-104849565D01*
X116459833Y-104773891D01*
X116472214Y-104720706D01*
X116494030Y-104686050D01*
X116532385Y-104665963D01*
X116594377Y-104656485D01*
X116687110Y-104653656D01*
X116801348Y-104653522D01*
X116933560Y-104654187D01*
X117027349Y-104659084D01*
X117088464Y-104672566D01*
X117122656Y-104698986D01*
X117135675Y-104742697D01*
X117133271Y-104808051D01*
X117121676Y-104896007D01*
X117062994Y-105157593D01*
X116964669Y-105401598D01*
X116828607Y-105625435D01*
X116656714Y-105826520D01*
X116450899Y-106002268D01*
X116213067Y-106150092D01*
X116186713Y-106163687D01*
X116050392Y-106232740D01*
X116575796Y-106243783D01*
X116746355Y-106247785D01*
X116877766Y-106251999D01*
X116975054Y-106256831D01*
X117043242Y-106262688D01*
X117087356Y-106269975D01*
X117112420Y-106279099D01*
X117122109Y-106287957D01*
X117132379Y-106326979D01*
X117139150Y-106397714D01*
X117142454Y-106487840D01*
X117142321Y-106585037D01*
X117138783Y-106676984D01*
X117131869Y-106751362D01*
X117121612Y-106795849D01*
X117120832Y-106797409D01*
X117111327Y-106810978D01*
X117095552Y-106821329D01*
X117068018Y-106828896D01*
X117023236Y-106834111D01*
X116955717Y-106837409D01*
X116859971Y-106839222D01*
X116730509Y-106839985D01*
X116579701Y-106840131D01*
X116433693Y-106840918D01*
X116303605Y-106843128D01*
X116195541Y-106846532D01*
X116115606Y-106850903D01*
X116069903Y-106856012D01*
X116061435Y-106859498D01*
X116080072Y-106877976D01*
X116128249Y-106905640D01*
X116177392Y-106928520D01*
X116357951Y-107025014D01*
X116536396Y-107156146D01*
X116702176Y-107313197D01*
X116831915Y-107469609D01*
X116948766Y-107661172D01*
X117042012Y-107879049D01*
X117106379Y-108109362D01*
X117129488Y-108252475D01*
X117135367Y-108319473D01*
X117131299Y-108367120D01*
X117111245Y-108398710D01*
X117069168Y-108417537D01*
X116999029Y-108426895D01*
X116894789Y-108430076D01*
X116803275Y-108430392D01*
X116667805Y-108428841D01*
X116572510Y-108423962D01*
X116513495Y-108415414D01*
X116486862Y-108402859D01*
X116486802Y-108402783D01*
X116472500Y-108366696D01*
X116458534Y-108302691D01*
X116450805Y-108248435D01*
X116408989Y-108072449D01*
X116324490Y-107905598D01*
X116198155Y-107749511D01*
X116183351Y-107734653D01*
X116095059Y-107655795D01*
X116004736Y-107589150D01*
X115920696Y-107539651D01*
X115851255Y-107512233D01*
X115806514Y-107511080D01*
X115795263Y-107522013D01*
X115786882Y-107548592D01*
X115780984Y-107596242D01*
X115777185Y-107670387D01*
X115775097Y-107776453D01*
X115774334Y-107919862D01*
X115774305Y-107963509D01*
X115773908Y-108115705D01*
X115772426Y-108229397D01*
X115769423Y-108310253D01*
X115764461Y-108363938D01*
X115757105Y-108396119D01*
X115746919Y-108412463D01*
X115739368Y-108416985D01*
X115694155Y-108425447D01*
X115620654Y-108430129D01*
X115530376Y-108431326D01*
X115434831Y-108429331D01*
X115345531Y-108424438D01*
X115273986Y-108416942D01*
X115231707Y-108407137D01*
X115226548Y-108403887D01*
X115216378Y-108377387D01*
X115208822Y-108318881D01*
X115203701Y-108225258D01*
X115200838Y-108093407D01*
X115200044Y-107940061D01*
X115200096Y-107783575D01*
X115198820Y-107666770D01*
X115194064Y-107585158D01*
X115183676Y-107534254D01*
X115165507Y-107509573D01*
X115137406Y-107506627D01*
X115097220Y-107520931D01*
X115042800Y-107547998D01*
X115018108Y-107560612D01*
X114877644Y-107653936D01*
X114750844Y-107780181D01*
X114645098Y-107928938D01*
X114567796Y-108089794D01*
X114526327Y-108252338D01*
X114526150Y-108253696D01*
X114513504Y-108326369D01*
X114497925Y-108382660D01*
X114488084Y-108402783D01*
X114461088Y-108415562D01*
X114401841Y-108423879D01*
X114306267Y-108428084D01*
X114186861Y-108428648D01*
X114078515Y-108427139D01*
X113985191Y-108424286D01*
X113916343Y-108420486D01*
X113881428Y-108416138D01*
X113880348Y-108415764D01*
X113860946Y-108385321D01*
X113853822Y-108318949D01*
X113858868Y-108223119D01*
X113875978Y-108104303D01*
X113886375Y-108050836D01*
X113952598Y-107832420D01*
X114056369Y-107618999D01*
X114191797Y-107417836D01*
X114352988Y-107236192D01*
X114534050Y-107081327D01*
X114729090Y-106960504D01*
X114796957Y-106928720D01*
X114859792Y-106898593D01*
X114901901Y-106872446D01*
X114912913Y-106859498D01*
X114891868Y-106853922D01*
X114832895Y-106848974D01*
X114742241Y-106844899D01*
X114626148Y-106841940D01*
X114490864Y-106840343D01*
X114417763Y-106840131D01*
X114272621Y-106839552D01*
X114141132Y-106837932D01*
X114030141Y-106835442D01*
X113946495Y-106832257D01*
X113897039Y-106828550D01*
X113887676Y-106826724D01*
X113872413Y-106814125D01*
X113862225Y-106785351D01*
X113856177Y-106733085D01*
X113853335Y-106650011D01*
X113852739Y-106553342D01*
X113854400Y-106429078D01*
X113859746Y-106343592D01*
X113869322Y-106291600D01*
X113882100Y-106268999D01*
X113915804Y-106259808D01*
X113992044Y-106252045D01*
X114109201Y-106245801D01*
X114265657Y-106241167D01*
X114417709Y-106238686D01*
X114923957Y-106232740D01*
X114743585Y-106137369D01*
X114512000Y-105990835D01*
X114311146Y-105812628D01*
X114141775Y-105603522D01*
X114018808Y-105393435D01*
X113962190Y-105265395D01*
X113915723Y-105132687D01*
X113880934Y-105003127D01*
X113859353Y-104884532D01*
X113852509Y-104784716D01*
X113861930Y-104711495D01*
X113879244Y-104680026D01*
X113912824Y-104668107D01*
X113979375Y-104659517D01*
X114068387Y-104654237D01*
X114169347Y-104652249D01*
X114271744Y-104653533D01*
G37*
X114271744Y-104653533D02*
X114365066Y-104658070D01*
X114438803Y-104665841D01*
X114482443Y-104676827D01*
X114488428Y-104681131D01*
X114503452Y-104717197D01*
X114518358Y-104781161D01*
X114526770Y-104835437D01*
X114570091Y-105012049D01*
X114652554Y-105180140D01*
X114769138Y-105332300D01*
X114914826Y-105461117D01*
X114979584Y-105504119D01*
X115051002Y-105547189D01*
X115105057Y-105575460D01*
X115144165Y-105584966D01*
X115170742Y-105571741D01*
X115187204Y-105531816D01*
X115195967Y-105461225D01*
X115199447Y-105356002D01*
X115200060Y-105212179D01*
X115200044Y-105142140D01*
X115200658Y-104984878D01*
X115202734Y-104866498D01*
X115206622Y-104781719D01*
X115212671Y-104725264D01*
X115221231Y-104691852D01*
X115230814Y-104677568D01*
X115271642Y-104664784D01*
X115355492Y-104658123D01*
X115481632Y-104657637D01*
X115512422Y-104658298D01*
X115763261Y-104664566D01*
X115769231Y-105122870D01*
X115771394Y-105276077D01*
X115773751Y-105390701D01*
X115776918Y-105472329D01*
X115781514Y-105526549D01*
X115788153Y-105558949D01*
X115797453Y-105575118D01*
X115810031Y-105580643D01*
X115819807Y-105581174D01*
X115892098Y-105564156D01*
X115983968Y-105515839D01*
X116088580Y-105440328D01*
X116165858Y-105373370D01*
X116284851Y-105239182D01*
X116376870Y-105085877D01*
X116435468Y-104925344D01*
X116449787Y-104849565D01*
X116459833Y-104773891D01*
X116472214Y-104720706D01*
X116494030Y-104686050D01*
X116532385Y-104665963D01*
X116594377Y-104656485D01*
X116687110Y-104653656D01*
X116801348Y-104653522D01*
X116933560Y-104654187D01*
X117027349Y-104659084D01*
X117088464Y-104672566D01*
X117122656Y-104698986D01*
X117135675Y-104742697D01*
X117133271Y-104808051D01*
X117121676Y-104896007D01*
X117062994Y-105157593D01*
X116964669Y-105401598D01*
X116828607Y-105625435D01*
X116656714Y-105826520D01*
X116450899Y-106002268D01*
X116213067Y-106150092D01*
X116186713Y-106163687D01*
X116050392Y-106232740D01*
X116575796Y-106243783D01*
X116746355Y-106247785D01*
X116877766Y-106251999D01*
X116975054Y-106256831D01*
X117043242Y-106262688D01*
X117087356Y-106269975D01*
X117112420Y-106279099D01*
X117122109Y-106287957D01*
X117132379Y-106326979D01*
X117139150Y-106397714D01*
X117142454Y-106487840D01*
X117142321Y-106585037D01*
X117138783Y-106676984D01*
X117131869Y-106751362D01*
X117121612Y-106795849D01*
X117120832Y-106797409D01*
X117111327Y-106810978D01*
X117095552Y-106821329D01*
X117068018Y-106828896D01*
X117023236Y-106834111D01*
X116955717Y-106837409D01*
X116859971Y-106839222D01*
X116730509Y-106839985D01*
X116579701Y-106840131D01*
X116433693Y-106840918D01*
X116303605Y-106843128D01*
X116195541Y-106846532D01*
X116115606Y-106850903D01*
X116069903Y-106856012D01*
X116061435Y-106859498D01*
X116080072Y-106877976D01*
X116128249Y-106905640D01*
X116177392Y-106928520D01*
X116357951Y-107025014D01*
X116536396Y-107156146D01*
X116702176Y-107313197D01*
X116831915Y-107469609D01*
X116948766Y-107661172D01*
X117042012Y-107879049D01*
X117106379Y-108109362D01*
X117129488Y-108252475D01*
X117135367Y-108319473D01*
X117131299Y-108367120D01*
X117111245Y-108398710D01*
X117069168Y-108417537D01*
X116999029Y-108426895D01*
X116894789Y-108430076D01*
X116803275Y-108430392D01*
X116667805Y-108428841D01*
X116572510Y-108423962D01*
X116513495Y-108415414D01*
X116486862Y-108402859D01*
X116486802Y-108402783D01*
X116472500Y-108366696D01*
X116458534Y-108302691D01*
X116450805Y-108248435D01*
X116408989Y-108072449D01*
X116324490Y-107905598D01*
X116198155Y-107749511D01*
X116183351Y-107734653D01*
X116095059Y-107655795D01*
X116004736Y-107589150D01*
X115920696Y-107539651D01*
X115851255Y-107512233D01*
X115806514Y-107511080D01*
X115795263Y-107522013D01*
X115786882Y-107548592D01*
X115780984Y-107596242D01*
X115777185Y-107670387D01*
X115775097Y-107776453D01*
X115774334Y-107919862D01*
X115774305Y-107963509D01*
X115773908Y-108115705D01*
X115772426Y-108229397D01*
X115769423Y-108310253D01*
X115764461Y-108363938D01*
X115757105Y-108396119D01*
X115746919Y-108412463D01*
X115739368Y-108416985D01*
X115694155Y-108425447D01*
X115620654Y-108430129D01*
X115530376Y-108431326D01*
X115434831Y-108429331D01*
X115345531Y-108424438D01*
X115273986Y-108416942D01*
X115231707Y-108407137D01*
X115226548Y-108403887D01*
X115216378Y-108377387D01*
X115208822Y-108318881D01*
X115203701Y-108225258D01*
X115200838Y-108093407D01*
X115200044Y-107940061D01*
X115200096Y-107783575D01*
X115198820Y-107666770D01*
X115194064Y-107585158D01*
X115183676Y-107534254D01*
X115165507Y-107509573D01*
X115137406Y-107506627D01*
X115097220Y-107520931D01*
X115042800Y-107547998D01*
X115018108Y-107560612D01*
X114877644Y-107653936D01*
X114750844Y-107780181D01*
X114645098Y-107928938D01*
X114567796Y-108089794D01*
X114526327Y-108252338D01*
X114526150Y-108253696D01*
X114513504Y-108326369D01*
X114497925Y-108382660D01*
X114488084Y-108402783D01*
X114461088Y-108415562D01*
X114401841Y-108423879D01*
X114306267Y-108428084D01*
X114186861Y-108428648D01*
X114078515Y-108427139D01*
X113985191Y-108424286D01*
X113916343Y-108420486D01*
X113881428Y-108416138D01*
X113880348Y-108415764D01*
X113860946Y-108385321D01*
X113853822Y-108318949D01*
X113858868Y-108223119D01*
X113875978Y-108104303D01*
X113886375Y-108050836D01*
X113952598Y-107832420D01*
X114056369Y-107618999D01*
X114191797Y-107417836D01*
X114352988Y-107236192D01*
X114534050Y-107081327D01*
X114729090Y-106960504D01*
X114796957Y-106928720D01*
X114859792Y-106898593D01*
X114901901Y-106872446D01*
X114912913Y-106859498D01*
X114891868Y-106853922D01*
X114832895Y-106848974D01*
X114742241Y-106844899D01*
X114626148Y-106841940D01*
X114490864Y-106840343D01*
X114417763Y-106840131D01*
X114272621Y-106839552D01*
X114141132Y-106837932D01*
X114030141Y-106835442D01*
X113946495Y-106832257D01*
X113897039Y-106828550D01*
X113887676Y-106826724D01*
X113872413Y-106814125D01*
X113862225Y-106785351D01*
X113856177Y-106733085D01*
X113853335Y-106650011D01*
X113852739Y-106553342D01*
X113854400Y-106429078D01*
X113859746Y-106343592D01*
X113869322Y-106291600D01*
X113882100Y-106268999D01*
X113915804Y-106259808D01*
X113992044Y-106252045D01*
X114109201Y-106245801D01*
X114265657Y-106241167D01*
X114417709Y-106238686D01*
X114923957Y-106232740D01*
X114743585Y-106137369D01*
X114512000Y-105990835D01*
X114311146Y-105812628D01*
X114141775Y-105603522D01*
X114018808Y-105393435D01*
X113962190Y-105265395D01*
X113915723Y-105132687D01*
X113880934Y-105003127D01*
X113859353Y-104884532D01*
X113852509Y-104784716D01*
X113861930Y-104711495D01*
X113879244Y-104680026D01*
X113912824Y-104668107D01*
X113979375Y-104659517D01*
X114068387Y-104654237D01*
X114169347Y-104652249D01*
X114271744Y-104653533D01*
D12*
X83678500Y-116233024D02*
X83678500Y-115723576D01*
X84723500Y-116233024D02*
X84723500Y-115723576D01*
X90788000Y-128569500D02*
X90788000Y-122549500D01*
X90788000Y-122549500D02*
X85488000Y-122549500D01*
X85488000Y-122549500D02*
X85488000Y-128569500D01*
X85488000Y-128569500D02*
X90788000Y-128569500D01*
X91078000Y-127539500D02*
X91078000Y-123539500D01*
X89408000Y-122549500D02*
X89408000Y-123549500D01*
X89408000Y-123549500D02*
X86868000Y-123549500D01*
X86868000Y-123549500D02*
X86868000Y-122549500D01*
X89408000Y-123549500D02*
X89158000Y-124079500D01*
X89158000Y-124079500D02*
X87118000Y-124079500D01*
X87118000Y-124079500D02*
X86868000Y-123549500D01*
X89158000Y-122549500D02*
X89158000Y-123549500D01*
X87118000Y-122549500D02*
X87118000Y-123549500D01*
X90208000Y-128569500D02*
X90208000Y-127969500D01*
X90208000Y-127969500D02*
X88608000Y-127969500D01*
X88608000Y-127969500D02*
X88608000Y-128569500D01*
X87668000Y-128569500D02*
X87668000Y-127969500D01*
X87668000Y-127969500D02*
X86068000Y-127969500D01*
X86068000Y-127969500D02*
X86068000Y-128569500D01*
X85023500Y-114097500D02*
X85173500Y-114097500D01*
X85023500Y-118897500D02*
X85023500Y-114097500D01*
X85173500Y-118897500D02*
X85023500Y-118897500D01*
X87823500Y-118897500D02*
X87673500Y-118897500D01*
X87823500Y-114097500D02*
X87823500Y-118897500D01*
X87673500Y-114097500D02*
X87823500Y-114097500D01*
X85173500Y-118897500D02*
X85173500Y-120597500D01*
X90992500Y-114097500D02*
X91142500Y-114097500D01*
X90992500Y-118897500D02*
X90992500Y-114097500D01*
X91142500Y-118897500D02*
X90992500Y-118897500D01*
X93792500Y-118897500D02*
X93642500Y-118897500D01*
X93792500Y-114097500D02*
X93792500Y-118897500D01*
X93642500Y-114097500D02*
X93792500Y-114097500D01*
X91142500Y-118897500D02*
X91142500Y-120597500D01*
X89584000Y-116233024D02*
X89584000Y-115723576D01*
X90629000Y-116233024D02*
X90629000Y-115723576D01*
X96884000Y-128569500D02*
X96884000Y-122549500D01*
X96884000Y-122549500D02*
X91584000Y-122549500D01*
X91584000Y-122549500D02*
X91584000Y-128569500D01*
X91584000Y-128569500D02*
X96884000Y-128569500D01*
X97174000Y-127539500D02*
X97174000Y-123539500D01*
X95504000Y-122549500D02*
X95504000Y-123549500D01*
X95504000Y-123549500D02*
X92964000Y-123549500D01*
X92964000Y-123549500D02*
X92964000Y-122549500D01*
X95504000Y-123549500D02*
X95254000Y-124079500D01*
X95254000Y-124079500D02*
X93214000Y-124079500D01*
X93214000Y-124079500D02*
X92964000Y-123549500D01*
X95254000Y-122549500D02*
X95254000Y-123549500D01*
X93214000Y-122549500D02*
X93214000Y-123549500D01*
X96304000Y-128569500D02*
X96304000Y-127969500D01*
X96304000Y-127969500D02*
X94704000Y-127969500D01*
X94704000Y-127969500D02*
X94704000Y-128569500D01*
X93764000Y-128569500D02*
X93764000Y-127969500D01*
X93764000Y-127969500D02*
X92164000Y-127969500D01*
X92164000Y-127969500D02*
X92164000Y-128569500D01*
X97609200Y-114059000D02*
X97759200Y-114059000D01*
X97609200Y-118859000D02*
X97609200Y-114059000D01*
X97759200Y-118859000D02*
X97609200Y-118859000D01*
X100409200Y-118859000D02*
X100259200Y-118859000D01*
X100409200Y-114059000D02*
X100409200Y-118859000D01*
X100259200Y-114059000D02*
X100409200Y-114059000D01*
X97759200Y-118859000D02*
X97759200Y-120559000D01*
X104365600Y-114059000D02*
X104515600Y-114059000D01*
X104365600Y-118859000D02*
X104365600Y-114059000D01*
X104515600Y-118859000D02*
X104365600Y-118859000D01*
X107165600Y-118859000D02*
X107015600Y-118859000D01*
X107165600Y-114059000D02*
X107165600Y-118859000D01*
X107015600Y-114059000D02*
X107165600Y-114059000D01*
X104515600Y-118859000D02*
X104515600Y-120559000D01*
X95743500Y-116233024D02*
X95743500Y-115723576D01*
X96788500Y-116233024D02*
X96788500Y-115723576D01*
X102576100Y-116233024D02*
X102576100Y-115723576D01*
X103621100Y-116233024D02*
X103621100Y-115723576D01*
X109755000Y-123375052D02*
X109755000Y-122852548D01*
X111225000Y-123375052D02*
X111225000Y-122852548D01*
X83087600Y-106218600D02*
X83087600Y-106248600D01*
X83087600Y-112678600D02*
X83087600Y-112648600D01*
X76627600Y-112678600D02*
X76627600Y-112648600D01*
X76627600Y-106248600D02*
X76627600Y-106218600D01*
X83087600Y-108148600D02*
X83087600Y-110748600D01*
X76627600Y-106218600D02*
X83087600Y-106218600D01*
X76627600Y-108148600D02*
X76627600Y-110748600D01*
X76627600Y-112678600D02*
X83087600Y-112678600D01*
X78318276Y-120699000D02*
X78827724Y-120699000D01*
X78318276Y-121744000D02*
X78827724Y-121744000D01*
X71237800Y-97425200D02*
X72567800Y-97425200D01*
X71237800Y-98755200D02*
X71237800Y-97425200D01*
X71237800Y-100025200D02*
X73897800Y-100025200D01*
X73897800Y-100025200D02*
X73897800Y-115325200D01*
X71237800Y-100025200D02*
X71237800Y-115325200D01*
X71237800Y-115325200D02*
X73897800Y-115325200D01*
X84692000Y-128442500D02*
X84692000Y-122422500D01*
X84692000Y-122422500D02*
X76852000Y-122422500D01*
X76852000Y-122422500D02*
X76852000Y-128442500D01*
X76852000Y-128442500D02*
X84692000Y-128442500D01*
X84982000Y-127412500D02*
X84982000Y-123412500D01*
X83312000Y-122422500D02*
X83312000Y-123422500D01*
X83312000Y-123422500D02*
X78232000Y-123422500D01*
X78232000Y-123422500D02*
X78232000Y-122422500D01*
X83312000Y-123422500D02*
X83062000Y-123952500D01*
X83062000Y-123952500D02*
X78482000Y-123952500D01*
X78482000Y-123952500D02*
X78232000Y-123422500D01*
X83062000Y-122422500D02*
X83062000Y-123422500D01*
X78482000Y-122422500D02*
X78482000Y-123422500D01*
X84112000Y-128442500D02*
X84112000Y-127842500D01*
X84112000Y-127842500D02*
X82512000Y-127842500D01*
X82512000Y-127842500D02*
X82512000Y-128442500D01*
X81572000Y-128442500D02*
X81572000Y-127842500D01*
X81572000Y-127842500D02*
X79972000Y-127842500D01*
X79972000Y-127842500D02*
X79972000Y-128442500D01*
X79032000Y-128442500D02*
X79032000Y-127842500D01*
X79032000Y-127842500D02*
X77432000Y-127842500D01*
X77432000Y-127842500D02*
X77432000Y-128442500D01*
X102980000Y-128442500D02*
X102980000Y-122422500D01*
X102980000Y-122422500D02*
X97680000Y-122422500D01*
X97680000Y-122422500D02*
X97680000Y-128442500D01*
X97680000Y-128442500D02*
X102980000Y-128442500D01*
X103270000Y-127412500D02*
X103270000Y-123412500D01*
X101600000Y-122422500D02*
X101600000Y-123422500D01*
X101600000Y-123422500D02*
X99060000Y-123422500D01*
X99060000Y-123422500D02*
X99060000Y-122422500D01*
X101600000Y-123422500D02*
X101350000Y-123952500D01*
X101350000Y-123952500D02*
X99310000Y-123952500D01*
X99310000Y-123952500D02*
X99060000Y-123422500D01*
X101350000Y-122422500D02*
X101350000Y-123422500D01*
X99310000Y-122422500D02*
X99310000Y-123422500D01*
X102400000Y-128442500D02*
X102400000Y-127842500D01*
X102400000Y-127842500D02*
X100800000Y-127842500D01*
X100800000Y-127842500D02*
X100800000Y-128442500D01*
X99860000Y-128442500D02*
X99860000Y-127842500D01*
X99860000Y-127842500D02*
X98260000Y-127842500D01*
X98260000Y-127842500D02*
X98260000Y-128442500D01*
X109076000Y-128506000D02*
X109076000Y-122486000D01*
X109076000Y-122486000D02*
X103776000Y-122486000D01*
X103776000Y-122486000D02*
X103776000Y-128506000D01*
X103776000Y-128506000D02*
X109076000Y-128506000D01*
X109366000Y-127476000D02*
X109366000Y-123476000D01*
X107696000Y-122486000D02*
X107696000Y-123486000D01*
X107696000Y-123486000D02*
X105156000Y-123486000D01*
X105156000Y-123486000D02*
X105156000Y-122486000D01*
X107696000Y-123486000D02*
X107446000Y-124016000D01*
X107446000Y-124016000D02*
X105406000Y-124016000D01*
X105406000Y-124016000D02*
X105156000Y-123486000D01*
X107446000Y-122486000D02*
X107446000Y-123486000D01*
X105406000Y-122486000D02*
X105406000Y-123486000D01*
X108496000Y-128506000D02*
X108496000Y-127906000D01*
X108496000Y-127906000D02*
X106896000Y-127906000D01*
X106896000Y-127906000D02*
X106896000Y-128506000D01*
X105956000Y-128506000D02*
X105956000Y-127906000D01*
X105956000Y-127906000D02*
X104356000Y-127906000D01*
X104356000Y-127906000D02*
X104356000Y-128506000D01*
X119628400Y-99122700D02*
X118018400Y-99122700D01*
X113808400Y-91402700D02*
X113808400Y-93462700D01*
X115518400Y-91402700D02*
X113808400Y-91402700D01*
X113808400Y-99122700D02*
X113808400Y-97062700D01*
X115518400Y-99122700D02*
X113808400Y-99122700D01*
X119628400Y-99122700D02*
X119628400Y-91402700D01*
X119628400Y-91402700D02*
X118018400Y-91402700D01*
X113808400Y-97062700D02*
X113218400Y-97062700D01*
D13*
X98600260Y-67360800D02*
X100401120Y-67360800D01*
X99400360Y-72161400D02*
X98600260Y-67360800D01*
X99601020Y-72161400D02*
X99400360Y-72161400D01*
X100401120Y-67360800D02*
X99601020Y-72161400D01*
X102798880Y-67360800D02*
X104599740Y-67360800D01*
X103598980Y-72161400D02*
X102798880Y-67360800D01*
X103799640Y-72161400D02*
X103598980Y-72161400D01*
X104599740Y-67360800D02*
X103799640Y-72161400D01*
X110600000Y-67359000D02*
X110600000Y-74359000D01*
X109600000Y-67359000D02*
X110600000Y-67359000D01*
X92600000Y-67359000D02*
X92600000Y-74359000D01*
X93600000Y-67359000D02*
X92600000Y-67359000D01*
X99001580Y-72859900D02*
X98000820Y-67360800D01*
X100002340Y-72859900D02*
X99001580Y-72859900D01*
X101000560Y-67360800D02*
X100002340Y-72859900D01*
X103197660Y-72859900D02*
X102199440Y-67360800D01*
X104198420Y-72859900D02*
X103197660Y-72859900D01*
X105199180Y-67360800D02*
X104198420Y-72859900D01*
X95501460Y-68859400D02*
X95501460Y-69060060D01*
X95501460Y-68859400D02*
X95702120Y-68859400D01*
X95900240Y-69359780D02*
X95501460Y-68859400D01*
X96202500Y-68859400D02*
X96202500Y-69060060D01*
X96202500Y-68859400D02*
X96400620Y-68859400D01*
X96601280Y-69359780D02*
X96202500Y-68859400D01*
X97533460Y-70561200D02*
X97533460Y-72499220D01*
X96832420Y-70561200D02*
X97533460Y-70561200D01*
X95834200Y-69761100D02*
X95834200Y-71361300D01*
X95933260Y-70561200D02*
X96733360Y-71361300D01*
X96733360Y-69761100D02*
X95933260Y-70561200D01*
X96733360Y-69761100D02*
X96733360Y-71361300D01*
X95034100Y-70561200D02*
X95732600Y-70561200D01*
X95034100Y-72588120D02*
X95034100Y-70561200D01*
X106199940Y-68859400D02*
X106199940Y-69060060D01*
X106199940Y-68859400D02*
X106398060Y-68859400D01*
X106598720Y-69359780D02*
X106199940Y-68859400D01*
X106898440Y-68859400D02*
X106898440Y-69060060D01*
X106898440Y-68859400D02*
X107099100Y-68859400D01*
X107299760Y-69359780D02*
X106898440Y-68859400D01*
X105700000Y-70559000D02*
X105700000Y-72459000D01*
X106398060Y-70561200D02*
X105699560Y-70561200D01*
X106499660Y-71361300D02*
X106499660Y-69761100D01*
X106598720Y-70561200D02*
X107398820Y-69761100D01*
X107398820Y-71361300D02*
X106598720Y-70561200D01*
X107400000Y-71359000D02*
X107400000Y-69759000D01*
X108200000Y-70559000D02*
X107500000Y-70559000D01*
X108200000Y-72559000D02*
X108200000Y-70559000D01*
X109600000Y-83109000D02*
X109600000Y-89359000D01*
X109600000Y-67359000D02*
X109600000Y-79609000D01*
X93600000Y-67359000D02*
X109600000Y-67359000D01*
X93600000Y-79609000D02*
X93600000Y-67359000D01*
X93600000Y-89359000D02*
X93600000Y-83109000D01*
X109600000Y-89359000D02*
X93600000Y-89359000D01*
X103700000Y-72159000D02*
X103050000Y-67369000D01*
X103710000Y-72009000D02*
X104360000Y-67379000D01*
X103720000Y-71399000D02*
X103160000Y-67369000D01*
X103710000Y-71109000D02*
X104120000Y-67379000D01*
X103730000Y-70589000D02*
X103370000Y-67379000D01*
X103680000Y-69879000D02*
X103870000Y-67369000D01*
X103770000Y-68999000D02*
X103570000Y-67359000D01*
X103600000Y-68229000D02*
X103740000Y-67419000D01*
X99510000Y-71969000D02*
X98790000Y-67369000D01*
X99500000Y-71799000D02*
X100170000Y-67379000D01*
X99510000Y-71219000D02*
X98990000Y-67489000D01*
X99450000Y-70749000D02*
X99930000Y-67389000D01*
X99580000Y-69999000D02*
X99180000Y-67429000D01*
X99550000Y-69579000D02*
X99700000Y-67399000D01*
X99620000Y-68969000D02*
X99340000Y-67389000D01*
X99510000Y-68259000D02*
X99510000Y-67389000D01*
X90297000Y-96774000D02*
X89281000Y-96774000D01*
X90297000Y-98298000D02*
X89281000Y-98298000D01*
D14*
X85674200Y-102870000D02*
X86512400Y-102870000D01*
X85674200Y-101092000D02*
X86512400Y-101092000D01*
D13*
X89280999Y-99822000D02*
X90296999Y-99822000D01*
X89280999Y-98298000D02*
X90296999Y-98298000D01*
X89027000Y-94411800D02*
X89027000Y-93700600D01*
X88188800Y-93700600D02*
X89027000Y-93700600D01*
X88188800Y-96545400D02*
X89027000Y-96545400D01*
X89027000Y-96545400D02*
X89027000Y-95834200D01*
X89280999Y-101346000D02*
X90296999Y-101346000D01*
X89280999Y-99822000D02*
X90296999Y-99822000D01*
X90373200Y-104140000D02*
X91084400Y-104140000D01*
X91084400Y-103301800D02*
X91084400Y-104140000D01*
X88239600Y-103301800D02*
X88239600Y-104140000D01*
X88239600Y-104140000D02*
X88950800Y-104140000D01*
X86387940Y-106024680D02*
X86387940Y-105008680D01*
X84863940Y-106024680D02*
X84863940Y-105008680D01*
X117475000Y-113919000D02*
X116459000Y-113919000D01*
X117475000Y-115951000D02*
X116459000Y-115951000D01*
X117475000Y-111887000D02*
X116459000Y-111887000D01*
X117475000Y-113919000D02*
X116459000Y-113919000D01*
X114935000Y-116078000D02*
X114935000Y-115062000D01*
X113411000Y-116078000D02*
X113411000Y-115062000D01*
X113411000Y-118364000D02*
X113411000Y-119380000D01*
X114935000Y-118364000D02*
X114935000Y-119380000D01*
X82169000Y-100965000D02*
X82169000Y-101981000D01*
X83693000Y-100965000D02*
X83693000Y-101981000D01*
X93218000Y-76835000D02*
X93218000Y-78359000D01*
X90932000Y-76835000D02*
X90932000Y-78359000D01*
X90932000Y-85979000D02*
X90932000Y-84455000D01*
X93218000Y-85979000D02*
X93218000Y-84455000D01*
X94107000Y-92329000D02*
X93091000Y-92329000D01*
X94107000Y-93853000D02*
X93091000Y-93853000D01*
X105410000Y-100965000D02*
X106426000Y-100965000D01*
X105410000Y-99441000D02*
X106426000Y-99441000D01*
X99314000Y-91186000D02*
X99314000Y-92202000D01*
X100838000Y-91186000D02*
X100838000Y-92202000D01*
X101600000Y-91186000D02*
X101600000Y-92202000D01*
X103124000Y-91186000D02*
X103124000Y-92202000D01*
X95504000Y-91186000D02*
X95504000Y-92202000D01*
X97028000Y-91186000D02*
X97028000Y-92202000D01*
X79481680Y-97248980D02*
X78465680Y-97248980D01*
X79481680Y-98772980D02*
X78465680Y-98772980D01*
X97790000Y-91186000D02*
X97790000Y-92202000D01*
X99314000Y-91186000D02*
X99314000Y-92202000D01*
X110871000Y-76454000D02*
X110871000Y-77470000D01*
X112395000Y-76454000D02*
X112395000Y-77470000D01*
X92456000Y-72898000D02*
X92456000Y-71882000D01*
X90932000Y-72898000D02*
X90932000Y-71882000D01*
X81915000Y-101981000D02*
X81915000Y-100965000D01*
X80391000Y-101981000D02*
X80391000Y-100965000D01*
X106426000Y-97917000D02*
X105410000Y-97917000D01*
X106426000Y-99441000D02*
X105410000Y-99441000D01*
X94107000Y-97536000D02*
X93091000Y-97536000D01*
X94107000Y-99060000D02*
X93091000Y-99060000D01*
X94107000Y-99060000D02*
X93091000Y-99060000D01*
X94107000Y-100584000D02*
X93091000Y-100584000D01*
X94107000Y-94107000D02*
X93091000Y-94107000D01*
X94107000Y-95631000D02*
X93091000Y-95631000D01*
X104013000Y-94996000D02*
X105029000Y-94996000D01*
X104013000Y-93472000D02*
X105029000Y-93472000D01*
X97028000Y-103505000D02*
X97028000Y-104521000D01*
X98552000Y-103505000D02*
X98552000Y-104521000D01*
X108712000Y-103378000D02*
X108712000Y-104394000D01*
X110236000Y-103378000D02*
X110236000Y-104394000D01*
X105664000Y-91186000D02*
X105664000Y-92202000D01*
X107188000Y-91186000D02*
X107188000Y-92202000D01*
X104902000Y-104521000D02*
X104902000Y-103505000D01*
X103378000Y-104521000D02*
X103378000Y-103505000D01*
X106426000Y-104521000D02*
X106426000Y-103505000D01*
X104902000Y-104521000D02*
X104902000Y-103505000D01*
X113411000Y-123571000D02*
X113411000Y-122555000D01*
X111379000Y-123571000D02*
X111379000Y-122555000D01*
X97624900Y-95544640D02*
X97449640Y-95719900D01*
X97449640Y-95719900D02*
X97449640Y-95945960D01*
X97449640Y-100142040D02*
X97449640Y-100543360D01*
X97449640Y-100543360D02*
X97850960Y-100543360D01*
X102047040Y-100543360D02*
X102448360Y-100543360D01*
X102448360Y-100543360D02*
X102448360Y-100142040D01*
X102448360Y-95945960D02*
X102448360Y-95544640D01*
X102448360Y-95544640D02*
X102047040Y-95544640D01*
X97850960Y-95544640D02*
X97624900Y-95544640D01*
D15*
X97226873Y-95145860D02*
G75*
G03*
X97226873Y-95145860I-176013J0D01*
G01*
D13*
X115811300Y-117805200D02*
X115811300Y-118935500D01*
X118618000Y-117805200D02*
X118618000Y-118935500D01*
D14*
X108458000Y-104063800D02*
X108458000Y-103225600D01*
X106680000Y-104063800D02*
X106680000Y-103225600D01*
D13*
X98958400Y-102539800D02*
X99174300Y-102539800D01*
X98958400Y-105486200D02*
X98958400Y-102539800D01*
X99148900Y-105486200D02*
X98958400Y-105486200D01*
X102971600Y-102539800D02*
X102755700Y-102539800D01*
X102946200Y-105486200D02*
X102768400Y-105486200D01*
X102958900Y-105486200D02*
X102958900Y-102539800D01*
X96621600Y-105486200D02*
X96405700Y-105486200D01*
X96621600Y-102539800D02*
X96621600Y-105486200D01*
X96431100Y-102539800D02*
X96621600Y-102539800D01*
X92608400Y-105486200D02*
X92824300Y-105486200D01*
X92633800Y-102539800D02*
X92811600Y-102539800D01*
X92621100Y-102539800D02*
X92621100Y-105486200D01*
X87160000Y-92633000D02*
X86560000Y-92633000D01*
X72860000Y-92633000D02*
X73510000Y-92633000D01*
X71010000Y-67133000D02*
X71010000Y-73753000D01*
X89010000Y-92633000D02*
X89010000Y-91883000D01*
X89010000Y-92633000D02*
X86560000Y-92633000D01*
X71010000Y-92633000D02*
X73510000Y-92633000D01*
X71010000Y-92633000D02*
X71010000Y-91883000D01*
X89010000Y-67133000D02*
X89010000Y-73753000D01*
X71010000Y-73133000D02*
X89010000Y-73133000D01*
X71010000Y-67133000D02*
X89010000Y-67133000D01*
X105537000Y-92202000D02*
X105537000Y-91186000D01*
X104013000Y-92202000D02*
X104013000Y-91186000D01*
D16*
X83115714Y-116468157D02*
X82752857Y-116722157D01*
X83115714Y-116903585D02*
X82353714Y-116903585D01*
X82353714Y-116613300D01*
X82390000Y-116540728D01*
X82426285Y-116504442D01*
X82498857Y-116468157D01*
X82607714Y-116468157D01*
X82680285Y-116504442D01*
X82716571Y-116540728D01*
X82752857Y-116613300D01*
X82752857Y-116903585D01*
X82607714Y-115815014D02*
X83115714Y-115815014D01*
X82317428Y-115996442D02*
X82861714Y-116177871D01*
X82861714Y-115706157D01*
X82426285Y-115452157D02*
X82390000Y-115415871D01*
X82353714Y-115343300D01*
X82353714Y-115161871D01*
X82390000Y-115089300D01*
X82426285Y-115053014D01*
X82498857Y-115016728D01*
X82571428Y-115016728D01*
X82680285Y-115053014D01*
X83115714Y-115488442D01*
X83115714Y-115016728D01*
D15*
X85471285Y-122054880D02*
X85471285Y-121054880D01*
X85709380Y-121054880D01*
X85852238Y-121102500D01*
X85947476Y-121197738D01*
X85995095Y-121292976D01*
X86042714Y-121483452D01*
X86042714Y-121626309D01*
X85995095Y-121816785D01*
X85947476Y-121912023D01*
X85852238Y-122007261D01*
X85709380Y-122054880D01*
X85471285Y-122054880D01*
X86661761Y-121054880D02*
X86852238Y-121054880D01*
X86947476Y-121102500D01*
X87042714Y-121197738D01*
X87090333Y-121388214D01*
X87090333Y-121721547D01*
X87042714Y-121912023D01*
X86947476Y-122007261D01*
X86852238Y-122054880D01*
X86661761Y-122054880D01*
X86566523Y-122007261D01*
X86471285Y-121912023D01*
X86423666Y-121721547D01*
X86423666Y-121388214D01*
X86471285Y-121197738D01*
X86566523Y-121102500D01*
X86661761Y-121054880D01*
X87709380Y-121054880D02*
X87899857Y-121054880D01*
X87995095Y-121102500D01*
X88090333Y-121197738D01*
X88137952Y-121388214D01*
X88137952Y-121721547D01*
X88090333Y-121912023D01*
X87995095Y-122007261D01*
X87899857Y-122054880D01*
X87709380Y-122054880D01*
X87614142Y-122007261D01*
X87518904Y-121912023D01*
X87471285Y-121721547D01*
X87471285Y-121388214D01*
X87518904Y-121197738D01*
X87614142Y-121102500D01*
X87709380Y-121054880D01*
X89137952Y-122054880D02*
X88804619Y-121578690D01*
X88566523Y-122054880D02*
X88566523Y-121054880D01*
X88947476Y-121054880D01*
X89042714Y-121102500D01*
X89090333Y-121150119D01*
X89137952Y-121245357D01*
X89137952Y-121388214D01*
X89090333Y-121483452D01*
X89042714Y-121531071D01*
X88947476Y-121578690D01*
X88566523Y-121578690D01*
X89995095Y-121388214D02*
X89995095Y-122054880D01*
X89757000Y-121007261D02*
X89518904Y-121721547D01*
X90137952Y-121721547D01*
D16*
X86033428Y-111025214D02*
X86033428Y-111642071D01*
X86069714Y-111714642D01*
X86106000Y-111750928D01*
X86178571Y-111787214D01*
X86323714Y-111787214D01*
X86396285Y-111750928D01*
X86432571Y-111714642D01*
X86468857Y-111642071D01*
X86468857Y-111025214D01*
X86759142Y-111025214D02*
X87267142Y-111025214D01*
X86940571Y-111787214D01*
X91557928Y-110898214D02*
X91557928Y-111515071D01*
X91594214Y-111587642D01*
X91630500Y-111623928D01*
X91703071Y-111660214D01*
X91848214Y-111660214D01*
X91920785Y-111623928D01*
X91957071Y-111587642D01*
X91993357Y-111515071D01*
X91993357Y-110898214D01*
X92682785Y-110898214D02*
X92537642Y-110898214D01*
X92465071Y-110934500D01*
X92428785Y-110970785D01*
X92356214Y-111079642D01*
X92319928Y-111224785D01*
X92319928Y-111515071D01*
X92356214Y-111587642D01*
X92392500Y-111623928D01*
X92465071Y-111660214D01*
X92610214Y-111660214D01*
X92682785Y-111623928D01*
X92719071Y-111587642D01*
X92755357Y-111515071D01*
X92755357Y-111333642D01*
X92719071Y-111261071D01*
X92682785Y-111224785D01*
X92610214Y-111188500D01*
X92465071Y-111188500D01*
X92392500Y-111224785D01*
X92356214Y-111261071D01*
X92319928Y-111333642D01*
X89021214Y-116468157D02*
X88658357Y-116722157D01*
X89021214Y-116903585D02*
X88259214Y-116903585D01*
X88259214Y-116613300D01*
X88295500Y-116540728D01*
X88331785Y-116504442D01*
X88404357Y-116468157D01*
X88513214Y-116468157D01*
X88585785Y-116504442D01*
X88622071Y-116540728D01*
X88658357Y-116613300D01*
X88658357Y-116903585D01*
X88259214Y-116214157D02*
X88259214Y-115742442D01*
X88549500Y-115996442D01*
X88549500Y-115887585D01*
X88585785Y-115815014D01*
X88622071Y-115778728D01*
X88694642Y-115742442D01*
X88876071Y-115742442D01*
X88948642Y-115778728D01*
X88984928Y-115815014D01*
X89021214Y-115887585D01*
X89021214Y-116105300D01*
X88984928Y-116177871D01*
X88948642Y-116214157D01*
X88259214Y-115089300D02*
X88259214Y-115234442D01*
X88295500Y-115307014D01*
X88331785Y-115343300D01*
X88440642Y-115415871D01*
X88585785Y-115452157D01*
X88876071Y-115452157D01*
X88948642Y-115415871D01*
X88984928Y-115379585D01*
X89021214Y-115307014D01*
X89021214Y-115161871D01*
X88984928Y-115089300D01*
X88948642Y-115053014D01*
X88876071Y-115016728D01*
X88694642Y-115016728D01*
X88622071Y-115053014D01*
X88585785Y-115089300D01*
X88549500Y-115161871D01*
X88549500Y-115307014D01*
X88585785Y-115379585D01*
X88622071Y-115415871D01*
X88694642Y-115452157D01*
D15*
X91757785Y-122054880D02*
X91757785Y-121054880D01*
X91995880Y-121054880D01*
X92138738Y-121102500D01*
X92233976Y-121197738D01*
X92281595Y-121292976D01*
X92329214Y-121483452D01*
X92329214Y-121626309D01*
X92281595Y-121816785D01*
X92233976Y-121912023D01*
X92138738Y-122007261D01*
X91995880Y-122054880D01*
X91757785Y-122054880D01*
X92948261Y-121054880D02*
X93138738Y-121054880D01*
X93233976Y-121102500D01*
X93329214Y-121197738D01*
X93376833Y-121388214D01*
X93376833Y-121721547D01*
X93329214Y-121912023D01*
X93233976Y-122007261D01*
X93138738Y-122054880D01*
X92948261Y-122054880D01*
X92853023Y-122007261D01*
X92757785Y-121912023D01*
X92710166Y-121721547D01*
X92710166Y-121388214D01*
X92757785Y-121197738D01*
X92853023Y-121102500D01*
X92948261Y-121054880D01*
X93995880Y-121054880D02*
X94186357Y-121054880D01*
X94281595Y-121102500D01*
X94376833Y-121197738D01*
X94424452Y-121388214D01*
X94424452Y-121721547D01*
X94376833Y-121912023D01*
X94281595Y-122007261D01*
X94186357Y-122054880D01*
X93995880Y-122054880D01*
X93900642Y-122007261D01*
X93805404Y-121912023D01*
X93757785Y-121721547D01*
X93757785Y-121388214D01*
X93805404Y-121197738D01*
X93900642Y-121102500D01*
X93995880Y-121054880D01*
X95424452Y-122054880D02*
X95091119Y-121578690D01*
X94853023Y-122054880D02*
X94853023Y-121054880D01*
X95233976Y-121054880D01*
X95329214Y-121102500D01*
X95376833Y-121150119D01*
X95424452Y-121245357D01*
X95424452Y-121388214D01*
X95376833Y-121483452D01*
X95329214Y-121531071D01*
X95233976Y-121578690D01*
X94853023Y-121578690D01*
X95757785Y-121054880D02*
X96376833Y-121054880D01*
X96043500Y-121435833D01*
X96186357Y-121435833D01*
X96281595Y-121483452D01*
X96329214Y-121531071D01*
X96376833Y-121626309D01*
X96376833Y-121864404D01*
X96329214Y-121959642D01*
X96281595Y-122007261D01*
X96186357Y-122054880D01*
X95900642Y-122054880D01*
X95805404Y-122007261D01*
X95757785Y-121959642D01*
D16*
X111883180Y-126043066D02*
X111883180Y-126519257D01*
X110883180Y-126519257D01*
X110978419Y-125757352D02*
X110930800Y-125709733D01*
X110883180Y-125614495D01*
X110883180Y-125376400D01*
X110930800Y-125281161D01*
X110978419Y-125233542D01*
X111073657Y-125185923D01*
X111168895Y-125185923D01*
X111311752Y-125233542D01*
X111883180Y-125804971D01*
X111883180Y-125185923D01*
X98327028Y-110910914D02*
X98327028Y-111527771D01*
X98363314Y-111600342D01*
X98399600Y-111636628D01*
X98472171Y-111672914D01*
X98617314Y-111672914D01*
X98689885Y-111636628D01*
X98726171Y-111600342D01*
X98762457Y-111527771D01*
X98762457Y-110910914D01*
X99488171Y-110910914D02*
X99125314Y-110910914D01*
X99089028Y-111273771D01*
X99125314Y-111237485D01*
X99197885Y-111201200D01*
X99379314Y-111201200D01*
X99451885Y-111237485D01*
X99488171Y-111273771D01*
X99524457Y-111346342D01*
X99524457Y-111527771D01*
X99488171Y-111600342D01*
X99451885Y-111636628D01*
X99379314Y-111672914D01*
X99197885Y-111672914D01*
X99125314Y-111636628D01*
X99089028Y-111600342D01*
X105388228Y-110936714D02*
X105388228Y-111553571D01*
X105424514Y-111626142D01*
X105460800Y-111662428D01*
X105533371Y-111698714D01*
X105678514Y-111698714D01*
X105751085Y-111662428D01*
X105787371Y-111626142D01*
X105823657Y-111553571D01*
X105823657Y-110936714D01*
X106585657Y-111698714D02*
X106150228Y-111698714D01*
X106367942Y-111698714D02*
X106367942Y-110936714D01*
X106295371Y-111045571D01*
X106222800Y-111118142D01*
X106150228Y-111154428D01*
X95180714Y-116468157D02*
X94817857Y-116722157D01*
X95180714Y-116903585D02*
X94418714Y-116903585D01*
X94418714Y-116613300D01*
X94455000Y-116540728D01*
X94491285Y-116504442D01*
X94563857Y-116468157D01*
X94672714Y-116468157D01*
X94745285Y-116504442D01*
X94781571Y-116540728D01*
X94817857Y-116613300D01*
X94817857Y-116903585D01*
X94672714Y-115815014D02*
X95180714Y-115815014D01*
X94382428Y-115996442D02*
X94926714Y-116177871D01*
X94926714Y-115706157D01*
X95180714Y-115016728D02*
X95180714Y-115452157D01*
X95180714Y-115234442D02*
X94418714Y-115234442D01*
X94527571Y-115307014D01*
X94600142Y-115379585D01*
X94636428Y-115452157D01*
X102013314Y-116468157D02*
X101650457Y-116722157D01*
X102013314Y-116903585D02*
X101251314Y-116903585D01*
X101251314Y-116613300D01*
X101287600Y-116540728D01*
X101323885Y-116504442D01*
X101396457Y-116468157D01*
X101505314Y-116468157D01*
X101577885Y-116504442D01*
X101614171Y-116540728D01*
X101650457Y-116613300D01*
X101650457Y-116903585D01*
X101505314Y-115815014D02*
X102013314Y-115815014D01*
X101215028Y-115996442D02*
X101759314Y-116177871D01*
X101759314Y-115706157D01*
X101251314Y-115270728D02*
X101251314Y-115198157D01*
X101287600Y-115125585D01*
X101323885Y-115089300D01*
X101396457Y-115053014D01*
X101541600Y-115016728D01*
X101723028Y-115016728D01*
X101868171Y-115053014D01*
X101940742Y-115089300D01*
X101977028Y-115125585D01*
X102013314Y-115198157D01*
X102013314Y-115270728D01*
X101977028Y-115343300D01*
X101940742Y-115379585D01*
X101868171Y-115415871D01*
X101723028Y-115452157D01*
X101541600Y-115452157D01*
X101396457Y-115415871D01*
X101323885Y-115379585D01*
X101287600Y-115343300D01*
X101251314Y-115270728D01*
D17*
X110406542Y-120599200D02*
X110442828Y-120635485D01*
X110479114Y-120744342D01*
X110479114Y-120816914D01*
X110442828Y-120925771D01*
X110370257Y-120998342D01*
X110297685Y-121034628D01*
X110152542Y-121070914D01*
X110043685Y-121070914D01*
X109898542Y-121034628D01*
X109825971Y-120998342D01*
X109753400Y-120925771D01*
X109717114Y-120816914D01*
X109717114Y-120744342D01*
X109753400Y-120635485D01*
X109789685Y-120599200D01*
X109717114Y-119909771D02*
X109717114Y-120272628D01*
X110079971Y-120308914D01*
X110043685Y-120272628D01*
X110007400Y-120200057D01*
X110007400Y-120018628D01*
X110043685Y-119946057D01*
X110079971Y-119909771D01*
X110152542Y-119873485D01*
X110333971Y-119873485D01*
X110406542Y-119909771D01*
X110442828Y-119946057D01*
X110479114Y-120018628D01*
X110479114Y-120200057D01*
X110442828Y-120272628D01*
X110406542Y-120308914D01*
D16*
X77929028Y-105850980D02*
X77595695Y-105374790D01*
X77357600Y-105850980D02*
X77357600Y-104850980D01*
X77738552Y-104850980D01*
X77833790Y-104898600D01*
X77881409Y-104946219D01*
X77929028Y-105041457D01*
X77929028Y-105184314D01*
X77881409Y-105279552D01*
X77833790Y-105327171D01*
X77738552Y-105374790D01*
X77357600Y-105374790D01*
X78357600Y-105327171D02*
X78690933Y-105327171D01*
X78833790Y-105850980D02*
X78357600Y-105850980D01*
X78357600Y-104850980D01*
X78833790Y-104850980D01*
X79214742Y-105803361D02*
X79357600Y-105850980D01*
X79595695Y-105850980D01*
X79690933Y-105803361D01*
X79738552Y-105755742D01*
X79786171Y-105660504D01*
X79786171Y-105565266D01*
X79738552Y-105470028D01*
X79690933Y-105422409D01*
X79595695Y-105374790D01*
X79405219Y-105327171D01*
X79309980Y-105279552D01*
X79262361Y-105231933D01*
X79214742Y-105136695D01*
X79214742Y-105041457D01*
X79262361Y-104946219D01*
X79309980Y-104898600D01*
X79405219Y-104850980D01*
X79643314Y-104850980D01*
X79786171Y-104898600D01*
X80214742Y-105327171D02*
X80548076Y-105327171D01*
X80690933Y-105850980D02*
X80214742Y-105850980D01*
X80214742Y-104850980D01*
X80690933Y-104850980D01*
X80976647Y-104850980D02*
X81548076Y-104850980D01*
X81262361Y-105850980D02*
X81262361Y-104850980D01*
X82405219Y-105850980D02*
X81833790Y-105850980D01*
X82119504Y-105850980D02*
X82119504Y-104850980D01*
X82024266Y-104993838D01*
X81929028Y-105089076D01*
X81833790Y-105136695D01*
X78083142Y-120136214D02*
X77829142Y-119773357D01*
X77647714Y-120136214D02*
X77647714Y-119374214D01*
X77938000Y-119374214D01*
X78010571Y-119410500D01*
X78046857Y-119446785D01*
X78083142Y-119519357D01*
X78083142Y-119628214D01*
X78046857Y-119700785D01*
X78010571Y-119737071D01*
X77938000Y-119773357D01*
X77647714Y-119773357D01*
X78337142Y-119374214D02*
X78808857Y-119374214D01*
X78554857Y-119664500D01*
X78663714Y-119664500D01*
X78736285Y-119700785D01*
X78772571Y-119737071D01*
X78808857Y-119809642D01*
X78808857Y-119991071D01*
X78772571Y-120063642D01*
X78736285Y-120099928D01*
X78663714Y-120136214D01*
X78446000Y-120136214D01*
X78373428Y-120099928D01*
X78337142Y-120063642D01*
X79498285Y-119374214D02*
X79135428Y-119374214D01*
X79099142Y-119737071D01*
X79135428Y-119700785D01*
X79208000Y-119664500D01*
X79389428Y-119664500D01*
X79462000Y-119700785D01*
X79498285Y-119737071D01*
X79534571Y-119809642D01*
X79534571Y-119991071D01*
X79498285Y-120063642D01*
X79462000Y-120099928D01*
X79389428Y-120136214D01*
X79208000Y-120136214D01*
X79135428Y-120099928D01*
X79099142Y-120063642D01*
X72234466Y-95877580D02*
X72234466Y-96591866D01*
X72186847Y-96734723D01*
X72091609Y-96829961D01*
X71948752Y-96877580D01*
X71853514Y-96877580D01*
X73234466Y-96877580D02*
X72663038Y-96877580D01*
X72948752Y-96877580D02*
X72948752Y-95877580D01*
X72853514Y-96020438D01*
X72758276Y-96115676D01*
X72663038Y-96163295D01*
D15*
X80213485Y-121054880D02*
X80784914Y-121054880D01*
X80499200Y-122054880D02*
X80499200Y-121054880D01*
X81118247Y-121531071D02*
X81451580Y-121531071D01*
X81594438Y-122054880D02*
X81118247Y-122054880D01*
X81118247Y-121054880D01*
X81594438Y-121054880D01*
X82023009Y-122054880D02*
X82023009Y-121054880D01*
X82356342Y-121769166D01*
X82689676Y-121054880D01*
X82689676Y-122054880D01*
X83165866Y-122054880D02*
X83165866Y-121054880D01*
X83546819Y-121054880D01*
X83642057Y-121102500D01*
X83689676Y-121150119D01*
X83737295Y-121245357D01*
X83737295Y-121388214D01*
X83689676Y-121483452D01*
X83642057Y-121531071D01*
X83546819Y-121578690D01*
X83165866Y-121578690D01*
X84689676Y-122054880D02*
X84118247Y-122054880D01*
X84403961Y-122054880D02*
X84403961Y-121054880D01*
X84308723Y-121197738D01*
X84213485Y-121292976D01*
X84118247Y-121340595D01*
X98222085Y-122105680D02*
X98222085Y-121105680D01*
X98460180Y-121105680D01*
X98603038Y-121153300D01*
X98698276Y-121248538D01*
X98745895Y-121343776D01*
X98793514Y-121534252D01*
X98793514Y-121677109D01*
X98745895Y-121867585D01*
X98698276Y-121962823D01*
X98603038Y-122058061D01*
X98460180Y-122105680D01*
X98222085Y-122105680D01*
X99412561Y-121105680D02*
X99603038Y-121105680D01*
X99698276Y-121153300D01*
X99793514Y-121248538D01*
X99841133Y-121439014D01*
X99841133Y-121772347D01*
X99793514Y-121962823D01*
X99698276Y-122058061D01*
X99603038Y-122105680D01*
X99412561Y-122105680D01*
X99317323Y-122058061D01*
X99222085Y-121962823D01*
X99174466Y-121772347D01*
X99174466Y-121439014D01*
X99222085Y-121248538D01*
X99317323Y-121153300D01*
X99412561Y-121105680D01*
X100460180Y-121105680D02*
X100650657Y-121105680D01*
X100745895Y-121153300D01*
X100841133Y-121248538D01*
X100888752Y-121439014D01*
X100888752Y-121772347D01*
X100841133Y-121962823D01*
X100745895Y-122058061D01*
X100650657Y-122105680D01*
X100460180Y-122105680D01*
X100364942Y-122058061D01*
X100269704Y-121962823D01*
X100222085Y-121772347D01*
X100222085Y-121439014D01*
X100269704Y-121248538D01*
X100364942Y-121153300D01*
X100460180Y-121105680D01*
X101888752Y-122105680D02*
X101555419Y-121629490D01*
X101317323Y-122105680D02*
X101317323Y-121105680D01*
X101698276Y-121105680D01*
X101793514Y-121153300D01*
X101841133Y-121200919D01*
X101888752Y-121296157D01*
X101888752Y-121439014D01*
X101841133Y-121534252D01*
X101793514Y-121581871D01*
X101698276Y-121629490D01*
X101317323Y-121629490D01*
X102269704Y-121200919D02*
X102317323Y-121153300D01*
X102412561Y-121105680D01*
X102650657Y-121105680D01*
X102745895Y-121153300D01*
X102793514Y-121200919D01*
X102841133Y-121296157D01*
X102841133Y-121391395D01*
X102793514Y-121534252D01*
X102222085Y-122105680D01*
X102841133Y-122105680D01*
X104445085Y-122092980D02*
X104445085Y-121092980D01*
X104683180Y-121092980D01*
X104826038Y-121140600D01*
X104921276Y-121235838D01*
X104968895Y-121331076D01*
X105016514Y-121521552D01*
X105016514Y-121664409D01*
X104968895Y-121854885D01*
X104921276Y-121950123D01*
X104826038Y-122045361D01*
X104683180Y-122092980D01*
X104445085Y-122092980D01*
X105635561Y-121092980D02*
X105826038Y-121092980D01*
X105921276Y-121140600D01*
X106016514Y-121235838D01*
X106064133Y-121426314D01*
X106064133Y-121759647D01*
X106016514Y-121950123D01*
X105921276Y-122045361D01*
X105826038Y-122092980D01*
X105635561Y-122092980D01*
X105540323Y-122045361D01*
X105445085Y-121950123D01*
X105397466Y-121759647D01*
X105397466Y-121426314D01*
X105445085Y-121235838D01*
X105540323Y-121140600D01*
X105635561Y-121092980D01*
X106683180Y-121092980D02*
X106873657Y-121092980D01*
X106968895Y-121140600D01*
X107064133Y-121235838D01*
X107111752Y-121426314D01*
X107111752Y-121759647D01*
X107064133Y-121950123D01*
X106968895Y-122045361D01*
X106873657Y-122092980D01*
X106683180Y-122092980D01*
X106587942Y-122045361D01*
X106492704Y-121950123D01*
X106445085Y-121759647D01*
X106445085Y-121426314D01*
X106492704Y-121235838D01*
X106587942Y-121140600D01*
X106683180Y-121092980D01*
X108111752Y-122092980D02*
X107778419Y-121616790D01*
X107540323Y-122092980D02*
X107540323Y-121092980D01*
X107921276Y-121092980D01*
X108016514Y-121140600D01*
X108064133Y-121188219D01*
X108111752Y-121283457D01*
X108111752Y-121426314D01*
X108064133Y-121521552D01*
X108016514Y-121569171D01*
X107921276Y-121616790D01*
X107540323Y-121616790D01*
X109064133Y-122092980D02*
X108492704Y-122092980D01*
X108778419Y-122092980D02*
X108778419Y-121092980D01*
X108683180Y-121235838D01*
X108587942Y-121331076D01*
X108492704Y-121378695D01*
D16*
X111501114Y-98455842D02*
X112117971Y-98455842D01*
X112190542Y-98419557D01*
X112226828Y-98383271D01*
X112263114Y-98310700D01*
X112263114Y-98165557D01*
X112226828Y-98092985D01*
X112190542Y-98056700D01*
X112117971Y-98020414D01*
X111501114Y-98020414D01*
X112226828Y-97693842D02*
X112263114Y-97584985D01*
X112263114Y-97403557D01*
X112226828Y-97330985D01*
X112190542Y-97294700D01*
X112117971Y-97258414D01*
X112045400Y-97258414D01*
X111972828Y-97294700D01*
X111936542Y-97330985D01*
X111900257Y-97403557D01*
X111863971Y-97548700D01*
X111827685Y-97621271D01*
X111791400Y-97657557D01*
X111718828Y-97693842D01*
X111646257Y-97693842D01*
X111573685Y-97657557D01*
X111537400Y-97621271D01*
X111501114Y-97548700D01*
X111501114Y-97367271D01*
X111537400Y-97258414D01*
X111863971Y-96677842D02*
X111900257Y-96568985D01*
X111936542Y-96532700D01*
X112009114Y-96496414D01*
X112117971Y-96496414D01*
X112190542Y-96532700D01*
X112226828Y-96568985D01*
X112263114Y-96641557D01*
X112263114Y-96931842D01*
X111501114Y-96931842D01*
X111501114Y-96677842D01*
X111537400Y-96605271D01*
X111573685Y-96568985D01*
X111646257Y-96532700D01*
X111718828Y-96532700D01*
X111791400Y-96568985D01*
X111827685Y-96605271D01*
X111863971Y-96677842D01*
X111863971Y-96931842D01*
X111972828Y-96169842D02*
X111972828Y-95589271D01*
X111501114Y-95226414D02*
X112117971Y-95226414D01*
X112190542Y-95190128D01*
X112226828Y-95153842D01*
X112263114Y-95081271D01*
X112263114Y-94936128D01*
X112226828Y-94863557D01*
X112190542Y-94827271D01*
X112117971Y-94790985D01*
X111501114Y-94790985D01*
X112045400Y-94464414D02*
X112045400Y-94101557D01*
X112263114Y-94536985D02*
X111501114Y-94282985D01*
X112263114Y-94028985D01*
X112263114Y-93339557D02*
X111900257Y-93593557D01*
X112263114Y-93774985D02*
X111501114Y-93774985D01*
X111501114Y-93484700D01*
X111537400Y-93412128D01*
X111573685Y-93375842D01*
X111646257Y-93339557D01*
X111755114Y-93339557D01*
X111827685Y-93375842D01*
X111863971Y-93412128D01*
X111900257Y-93484700D01*
X111900257Y-93774985D01*
X111501114Y-93121842D02*
X111501114Y-92686414D01*
X112263114Y-92904128D02*
X111501114Y-92904128D01*
X111573685Y-92468700D02*
X111537400Y-92432414D01*
X111501114Y-92359842D01*
X111501114Y-92178414D01*
X111537400Y-92105842D01*
X111573685Y-92069557D01*
X111646257Y-92033271D01*
X111718828Y-92033271D01*
X111827685Y-92069557D01*
X112263114Y-92504985D01*
X112263114Y-92033271D01*
D17*
X110707714Y-88609714D02*
X110707714Y-88972571D01*
X109945714Y-88972571D01*
X110490000Y-88392000D02*
X110490000Y-88029142D01*
X110707714Y-88464571D02*
X109945714Y-88210571D01*
X110707714Y-87956571D01*
X110707714Y-87702571D02*
X109945714Y-87702571D01*
X110707714Y-87267142D01*
X109945714Y-87267142D01*
X110707714Y-86505142D02*
X110707714Y-86940571D01*
X110707714Y-86722857D02*
X109945714Y-86722857D01*
X110054571Y-86795428D01*
X110127142Y-86868000D01*
X110163428Y-86940571D01*
X91440000Y-96864714D02*
X91186000Y-96501857D01*
X91004571Y-96864714D02*
X91004571Y-96102714D01*
X91294857Y-96102714D01*
X91367428Y-96139000D01*
X91403714Y-96175285D01*
X91440000Y-96247857D01*
X91440000Y-96356714D01*
X91403714Y-96429285D01*
X91367428Y-96465571D01*
X91294857Y-96501857D01*
X91004571Y-96501857D01*
X92129428Y-96102714D02*
X91766571Y-96102714D01*
X91730285Y-96465571D01*
X91766571Y-96429285D01*
X91839142Y-96393000D01*
X92020571Y-96393000D01*
X92093142Y-96429285D01*
X92129428Y-96465571D01*
X92165714Y-96538142D01*
X92165714Y-96719571D01*
X92129428Y-96792142D01*
X92093142Y-96828428D01*
X92020571Y-96864714D01*
X91839142Y-96864714D01*
X91766571Y-96828428D01*
X91730285Y-96792142D01*
X84963000Y-103722714D02*
X84600142Y-103722714D01*
X84600142Y-102960714D01*
X85616142Y-103722714D02*
X85180714Y-103722714D01*
X85398428Y-103722714D02*
X85398428Y-102960714D01*
X85325857Y-103069571D01*
X85253285Y-103142142D01*
X85180714Y-103178428D01*
D18*
X91973400Y-99051533D02*
X92007266Y-99085400D01*
X92041133Y-99187000D01*
X92041133Y-99254733D01*
X92007266Y-99356333D01*
X91939533Y-99424066D01*
X91871800Y-99457933D01*
X91736333Y-99491800D01*
X91634733Y-99491800D01*
X91499266Y-99457933D01*
X91431533Y-99424066D01*
X91363800Y-99356333D01*
X91329933Y-99254733D01*
X91329933Y-99187000D01*
X91363800Y-99085400D01*
X91397666Y-99051533D01*
X91397666Y-98780600D02*
X91363800Y-98746733D01*
X91329933Y-98679000D01*
X91329933Y-98509666D01*
X91363800Y-98441933D01*
X91397666Y-98408066D01*
X91465400Y-98374200D01*
X91533133Y-98374200D01*
X91634733Y-98408066D01*
X92041133Y-98814466D01*
X92041133Y-98374200D01*
D17*
X85144428Y-94705714D02*
X85579857Y-94705714D01*
X85362142Y-95467714D02*
X85362142Y-94705714D01*
X86233000Y-95467714D02*
X85797571Y-95467714D01*
X86015285Y-95467714D02*
X86015285Y-94705714D01*
X85942714Y-94814571D01*
X85870142Y-94887142D01*
X85797571Y-94923428D01*
X91948000Y-101436714D02*
X91694000Y-101073857D01*
X91512571Y-101436714D02*
X91512571Y-100674714D01*
X91802857Y-100674714D01*
X91875428Y-100711000D01*
X91911714Y-100747285D01*
X91948000Y-100819857D01*
X91948000Y-100928714D01*
X91911714Y-101001285D01*
X91875428Y-101037571D01*
X91802857Y-101073857D01*
X91512571Y-101073857D01*
X92601142Y-100674714D02*
X92456000Y-100674714D01*
X92383428Y-100711000D01*
X92347142Y-100747285D01*
X92274571Y-100856142D01*
X92238285Y-101001285D01*
X92238285Y-101291571D01*
X92274571Y-101364142D01*
X92310857Y-101400428D01*
X92383428Y-101436714D01*
X92528571Y-101436714D01*
X92601142Y-101400428D01*
X92637428Y-101364142D01*
X92673714Y-101291571D01*
X92673714Y-101110142D01*
X92637428Y-101037571D01*
X92601142Y-101001285D01*
X92528571Y-100965000D01*
X92383428Y-100965000D01*
X92310857Y-101001285D01*
X92274571Y-101037571D01*
X92238285Y-101110142D01*
X91893571Y-104394000D02*
X91893571Y-104648000D01*
X92292714Y-104648000D02*
X91530714Y-104648000D01*
X91530714Y-104285142D01*
X91893571Y-103994857D02*
X91893571Y-103740857D01*
X92292714Y-103632000D02*
X92292714Y-103994857D01*
X91530714Y-103994857D01*
X91530714Y-103632000D01*
X91530714Y-103414285D02*
X91530714Y-102978857D01*
X92292714Y-103196571D02*
X91530714Y-103196571D01*
X92292714Y-102325714D02*
X92292714Y-102761142D01*
X92292714Y-102543428D02*
X91530714Y-102543428D01*
X91639571Y-102616000D01*
X91712142Y-102688571D01*
X91748428Y-102761142D01*
X87568314Y-105638600D02*
X87205457Y-105892600D01*
X87568314Y-106074028D02*
X86806314Y-106074028D01*
X86806314Y-105783742D01*
X86842600Y-105711171D01*
X86878885Y-105674885D01*
X86951457Y-105638600D01*
X87060314Y-105638600D01*
X87132885Y-105674885D01*
X87169171Y-105711171D01*
X87205457Y-105783742D01*
X87205457Y-106074028D01*
X86806314Y-105384600D02*
X86806314Y-104912885D01*
X87096600Y-105166885D01*
X87096600Y-105058028D01*
X87132885Y-104985457D01*
X87169171Y-104949171D01*
X87241742Y-104912885D01*
X87423171Y-104912885D01*
X87495742Y-104949171D01*
X87532028Y-104985457D01*
X87568314Y-105058028D01*
X87568314Y-105275742D01*
X87532028Y-105348314D01*
X87495742Y-105384600D01*
D13*
X119869857Y-115231333D02*
X119918238Y-115279714D01*
X119966619Y-115424857D01*
X119966619Y-115521619D01*
X119918238Y-115666761D01*
X119821476Y-115763523D01*
X119724714Y-115811904D01*
X119531190Y-115860285D01*
X119386047Y-115860285D01*
X119192523Y-115811904D01*
X119095761Y-115763523D01*
X118999000Y-115666761D01*
X118950619Y-115521619D01*
X118950619Y-115424857D01*
X118999000Y-115279714D01*
X119047380Y-115231333D01*
X119289285Y-114360476D02*
X119966619Y-114360476D01*
X118902238Y-114602380D02*
X119627952Y-114844285D01*
X119627952Y-114215333D01*
X119869857Y-112945333D02*
X119918238Y-112993714D01*
X119966619Y-113138857D01*
X119966619Y-113235619D01*
X119918238Y-113380761D01*
X119821476Y-113477523D01*
X119724714Y-113525904D01*
X119531190Y-113574285D01*
X119386047Y-113574285D01*
X119192523Y-113525904D01*
X119095761Y-113477523D01*
X118999000Y-113380761D01*
X118950619Y-113235619D01*
X118950619Y-113138857D01*
X118999000Y-112993714D01*
X119047380Y-112945333D01*
X118950619Y-112606666D02*
X118950619Y-111977714D01*
X119337666Y-112316380D01*
X119337666Y-112171238D01*
X119386047Y-112074476D01*
X119434428Y-112026095D01*
X119531190Y-111977714D01*
X119773095Y-111977714D01*
X119869857Y-112026095D01*
X119918238Y-112074476D01*
X119966619Y-112171238D01*
X119966619Y-112461523D01*
X119918238Y-112558285D01*
X119869857Y-112606666D01*
D17*
X113120714Y-115805857D02*
X112757857Y-116059857D01*
X113120714Y-116241285D02*
X112358714Y-116241285D01*
X112358714Y-115951000D01*
X112395000Y-115878428D01*
X112431285Y-115842142D01*
X112503857Y-115805857D01*
X112612714Y-115805857D01*
X112685285Y-115842142D01*
X112721571Y-115878428D01*
X112757857Y-115951000D01*
X112757857Y-116241285D01*
X112431285Y-115515571D02*
X112395000Y-115479285D01*
X112358714Y-115406714D01*
X112358714Y-115225285D01*
X112395000Y-115152714D01*
X112431285Y-115116428D01*
X112503857Y-115080142D01*
X112576428Y-115080142D01*
X112685285Y-115116428D01*
X113120714Y-115551857D01*
X113120714Y-115080142D01*
X112358714Y-114608428D02*
X112358714Y-114535857D01*
X112395000Y-114463285D01*
X112431285Y-114427000D01*
X112503857Y-114390714D01*
X112649000Y-114354428D01*
X112830428Y-114354428D01*
X112975571Y-114390714D01*
X113048142Y-114427000D01*
X113084428Y-114463285D01*
X113120714Y-114535857D01*
X113120714Y-114608428D01*
X113084428Y-114681000D01*
X113048142Y-114717285D01*
X112975571Y-114753571D01*
X112830428Y-114789857D01*
X112649000Y-114789857D01*
X112503857Y-114753571D01*
X112431285Y-114717285D01*
X112395000Y-114681000D01*
X112358714Y-114608428D01*
X113247714Y-118345857D02*
X112884857Y-118599857D01*
X113247714Y-118781285D02*
X112485714Y-118781285D01*
X112485714Y-118491000D01*
X112522000Y-118418428D01*
X112558285Y-118382142D01*
X112630857Y-118345857D01*
X112739714Y-118345857D01*
X112812285Y-118382142D01*
X112848571Y-118418428D01*
X112884857Y-118491000D01*
X112884857Y-118781285D01*
X113247714Y-117620142D02*
X113247714Y-118055571D01*
X113247714Y-117837857D02*
X112485714Y-117837857D01*
X112594571Y-117910428D01*
X112667142Y-117983000D01*
X112703428Y-118055571D01*
X113247714Y-117257285D02*
X113247714Y-117112142D01*
X113211428Y-117039571D01*
X113175142Y-117003285D01*
X113066285Y-116930714D01*
X112921142Y-116894428D01*
X112630857Y-116894428D01*
X112558285Y-116930714D01*
X112522000Y-116967000D01*
X112485714Y-117039571D01*
X112485714Y-117184714D01*
X112522000Y-117257285D01*
X112558285Y-117293571D01*
X112630857Y-117329857D01*
X112812285Y-117329857D01*
X112884857Y-117293571D01*
X112921142Y-117257285D01*
X112957428Y-117184714D01*
X112957428Y-117039571D01*
X112921142Y-116967000D01*
X112884857Y-116930714D01*
X112812285Y-116894428D01*
D19*
X80043261Y-101754214D02*
X79740880Y-101965880D01*
X80043261Y-102117071D02*
X79408261Y-102117071D01*
X79408261Y-101875166D01*
X79438500Y-101814690D01*
X79468738Y-101784452D01*
X79529214Y-101754214D01*
X79619928Y-101754214D01*
X79680404Y-101784452D01*
X79710642Y-101814690D01*
X79740880Y-101875166D01*
X79740880Y-102117071D01*
X79408261Y-101179690D02*
X79408261Y-101482071D01*
X79710642Y-101512309D01*
X79680404Y-101482071D01*
X79650166Y-101421595D01*
X79650166Y-101270404D01*
X79680404Y-101209928D01*
X79710642Y-101179690D01*
X79771119Y-101149452D01*
X79922309Y-101149452D01*
X79982785Y-101179690D01*
X80013023Y-101209928D01*
X80043261Y-101270404D01*
X80043261Y-101421595D01*
X80013023Y-101482071D01*
X79982785Y-101512309D01*
X79619928Y-100605166D02*
X80043261Y-100605166D01*
X79378023Y-100756357D02*
X79831595Y-100907547D01*
X79831595Y-100514452D01*
D17*
X90569142Y-78086857D02*
X90605428Y-78123142D01*
X90641714Y-78232000D01*
X90641714Y-78304571D01*
X90605428Y-78413428D01*
X90532857Y-78486000D01*
X90460285Y-78522285D01*
X90315142Y-78558571D01*
X90206285Y-78558571D01*
X90061142Y-78522285D01*
X89988571Y-78486000D01*
X89916000Y-78413428D01*
X89879714Y-78304571D01*
X89879714Y-78232000D01*
X89916000Y-78123142D01*
X89952285Y-78086857D01*
X89952285Y-77796571D02*
X89916000Y-77760285D01*
X89879714Y-77687714D01*
X89879714Y-77506285D01*
X89916000Y-77433714D01*
X89952285Y-77397428D01*
X90024857Y-77361142D01*
X90097428Y-77361142D01*
X90206285Y-77397428D01*
X90641714Y-77832857D01*
X90641714Y-77361142D01*
X89879714Y-76889428D02*
X89879714Y-76816857D01*
X89916000Y-76744285D01*
X89952285Y-76708000D01*
X90024857Y-76671714D01*
X90170000Y-76635428D01*
X90351428Y-76635428D01*
X90496571Y-76671714D01*
X90569142Y-76708000D01*
X90605428Y-76744285D01*
X90641714Y-76816857D01*
X90641714Y-76889428D01*
X90605428Y-76962000D01*
X90569142Y-76998285D01*
X90496571Y-77034571D01*
X90351428Y-77070857D01*
X90170000Y-77070857D01*
X90024857Y-77034571D01*
X89952285Y-76998285D01*
X89916000Y-76962000D01*
X89879714Y-76889428D01*
X90569142Y-85706857D02*
X90605428Y-85743142D01*
X90641714Y-85852000D01*
X90641714Y-85924571D01*
X90605428Y-86033428D01*
X90532857Y-86106000D01*
X90460285Y-86142285D01*
X90315142Y-86178571D01*
X90206285Y-86178571D01*
X90061142Y-86142285D01*
X89988571Y-86106000D01*
X89916000Y-86033428D01*
X89879714Y-85924571D01*
X89879714Y-85852000D01*
X89916000Y-85743142D01*
X89952285Y-85706857D01*
X90641714Y-84981142D02*
X90641714Y-85416571D01*
X90641714Y-85198857D02*
X89879714Y-85198857D01*
X89988571Y-85271428D01*
X90061142Y-85344000D01*
X90097428Y-85416571D01*
X90641714Y-84618285D02*
X90641714Y-84473142D01*
X90605428Y-84400571D01*
X90569142Y-84364285D01*
X90460285Y-84291714D01*
X90315142Y-84255428D01*
X90024857Y-84255428D01*
X89952285Y-84291714D01*
X89916000Y-84328000D01*
X89879714Y-84400571D01*
X89879714Y-84545714D01*
X89916000Y-84618285D01*
X89952285Y-84654571D01*
X90024857Y-84690857D01*
X90206285Y-84690857D01*
X90278857Y-84654571D01*
X90315142Y-84618285D01*
X90351428Y-84545714D01*
X90351428Y-84400571D01*
X90315142Y-84328000D01*
X90278857Y-84291714D01*
X90206285Y-84255428D01*
D19*
X92428785Y-91981261D02*
X92217119Y-91678880D01*
X92065928Y-91981261D02*
X92065928Y-91346261D01*
X92307833Y-91346261D01*
X92368309Y-91376500D01*
X92398547Y-91406738D01*
X92428785Y-91467214D01*
X92428785Y-91557928D01*
X92398547Y-91618404D01*
X92368309Y-91648642D01*
X92307833Y-91678880D01*
X92065928Y-91678880D01*
X92640452Y-91346261D02*
X93033547Y-91346261D01*
X92821880Y-91588166D01*
X92912595Y-91588166D01*
X92973071Y-91618404D01*
X93003309Y-91648642D01*
X93033547Y-91709119D01*
X93033547Y-91860309D01*
X93003309Y-91920785D01*
X92973071Y-91951023D01*
X92912595Y-91981261D01*
X92731166Y-91981261D01*
X92670690Y-91951023D01*
X92640452Y-91920785D01*
X93335928Y-91981261D02*
X93456880Y-91981261D01*
X93517357Y-91951023D01*
X93547595Y-91920785D01*
X93608071Y-91830071D01*
X93638309Y-91709119D01*
X93638309Y-91467214D01*
X93608071Y-91406738D01*
X93577833Y-91376500D01*
X93517357Y-91346261D01*
X93396404Y-91346261D01*
X93335928Y-91376500D01*
X93305690Y-91406738D01*
X93275452Y-91467214D01*
X93275452Y-91618404D01*
X93305690Y-91678880D01*
X93335928Y-91709119D01*
X93396404Y-91739357D01*
X93517357Y-91739357D01*
X93577833Y-91709119D01*
X93608071Y-91678880D01*
X93638309Y-91618404D01*
D17*
X107460142Y-101690714D02*
X107206142Y-101327857D01*
X107024714Y-101690714D02*
X107024714Y-100928714D01*
X107315000Y-100928714D01*
X107387571Y-100965000D01*
X107423857Y-101001285D01*
X107460142Y-101073857D01*
X107460142Y-101182714D01*
X107423857Y-101255285D01*
X107387571Y-101291571D01*
X107315000Y-101327857D01*
X107024714Y-101327857D01*
X107714142Y-100928714D02*
X108185857Y-100928714D01*
X107931857Y-101219000D01*
X108040714Y-101219000D01*
X108113285Y-101255285D01*
X108149571Y-101291571D01*
X108185857Y-101364142D01*
X108185857Y-101545571D01*
X108149571Y-101618142D01*
X108113285Y-101654428D01*
X108040714Y-101690714D01*
X107823000Y-101690714D01*
X107750428Y-101654428D01*
X107714142Y-101618142D01*
X108621285Y-101255285D02*
X108548714Y-101219000D01*
X108512428Y-101182714D01*
X108476142Y-101110142D01*
X108476142Y-101073857D01*
X108512428Y-101001285D01*
X108548714Y-100965000D01*
X108621285Y-100928714D01*
X108766428Y-100928714D01*
X108839000Y-100965000D01*
X108875285Y-101001285D01*
X108911571Y-101073857D01*
X108911571Y-101110142D01*
X108875285Y-101182714D01*
X108839000Y-101219000D01*
X108766428Y-101255285D01*
X108621285Y-101255285D01*
X108548714Y-101291571D01*
X108512428Y-101327857D01*
X108476142Y-101400428D01*
X108476142Y-101545571D01*
X108512428Y-101618142D01*
X108548714Y-101654428D01*
X108621285Y-101690714D01*
X108766428Y-101690714D01*
X108839000Y-101654428D01*
X108875285Y-101618142D01*
X108911571Y-101545571D01*
X108911571Y-101400428D01*
X108875285Y-101327857D01*
X108839000Y-101291571D01*
X108766428Y-101255285D01*
D19*
X100363261Y-94515214D02*
X100060880Y-94726880D01*
X100363261Y-94878071D02*
X99728261Y-94878071D01*
X99728261Y-94636166D01*
X99758500Y-94575690D01*
X99788738Y-94545452D01*
X99849214Y-94515214D01*
X99939928Y-94515214D01*
X100000404Y-94545452D01*
X100030642Y-94575690D01*
X100060880Y-94636166D01*
X100060880Y-94878071D01*
X99728261Y-94303547D02*
X99728261Y-93910452D01*
X99970166Y-94122119D01*
X99970166Y-94031404D01*
X100000404Y-93970928D01*
X100030642Y-93940690D01*
X100091119Y-93910452D01*
X100242309Y-93910452D01*
X100302785Y-93940690D01*
X100333023Y-93970928D01*
X100363261Y-94031404D01*
X100363261Y-94212833D01*
X100333023Y-94273309D01*
X100302785Y-94303547D01*
X99728261Y-93698785D02*
X99728261Y-93305690D01*
X99970166Y-93517357D01*
X99970166Y-93426642D01*
X100000404Y-93366166D01*
X100030642Y-93335928D01*
X100091119Y-93305690D01*
X100242309Y-93305690D01*
X100302785Y-93335928D01*
X100333023Y-93366166D01*
X100363261Y-93426642D01*
X100363261Y-93608071D01*
X100333023Y-93668547D01*
X100302785Y-93698785D01*
X102649261Y-94515214D02*
X102346880Y-94726880D01*
X102649261Y-94878071D02*
X102014261Y-94878071D01*
X102014261Y-94636166D01*
X102044500Y-94575690D01*
X102074738Y-94545452D01*
X102135214Y-94515214D01*
X102225928Y-94515214D01*
X102286404Y-94545452D01*
X102316642Y-94575690D01*
X102346880Y-94636166D01*
X102346880Y-94878071D01*
X102014261Y-94303547D02*
X102014261Y-93910452D01*
X102256166Y-94122119D01*
X102256166Y-94031404D01*
X102286404Y-93970928D01*
X102316642Y-93940690D01*
X102377119Y-93910452D01*
X102528309Y-93910452D01*
X102588785Y-93940690D01*
X102619023Y-93970928D01*
X102649261Y-94031404D01*
X102649261Y-94212833D01*
X102619023Y-94273309D01*
X102588785Y-94303547D01*
X102074738Y-93668547D02*
X102044500Y-93638309D01*
X102014261Y-93577833D01*
X102014261Y-93426642D01*
X102044500Y-93366166D01*
X102074738Y-93335928D01*
X102135214Y-93305690D01*
X102195690Y-93305690D01*
X102286404Y-93335928D01*
X102649261Y-93698785D01*
X102649261Y-93305690D01*
X96553261Y-94515214D02*
X96250880Y-94726880D01*
X96553261Y-94878071D02*
X95918261Y-94878071D01*
X95918261Y-94636166D01*
X95948500Y-94575690D01*
X95978738Y-94545452D01*
X96039214Y-94515214D01*
X96129928Y-94515214D01*
X96190404Y-94545452D01*
X96220642Y-94575690D01*
X96250880Y-94636166D01*
X96250880Y-94878071D01*
X95918261Y-94303547D02*
X95918261Y-93910452D01*
X96160166Y-94122119D01*
X96160166Y-94031404D01*
X96190404Y-93970928D01*
X96220642Y-93940690D01*
X96281119Y-93910452D01*
X96432309Y-93910452D01*
X96492785Y-93940690D01*
X96523023Y-93970928D01*
X96553261Y-94031404D01*
X96553261Y-94212833D01*
X96523023Y-94273309D01*
X96492785Y-94303547D01*
X96553261Y-93305690D02*
X96553261Y-93668547D01*
X96553261Y-93487119D02*
X95918261Y-93487119D01*
X96008976Y-93547595D01*
X96069452Y-93608071D01*
X96099690Y-93668547D01*
D17*
X77721822Y-99752694D02*
X77467822Y-99389837D01*
X77286394Y-99752694D02*
X77286394Y-98990694D01*
X77576680Y-98990694D01*
X77649251Y-99026980D01*
X77685537Y-99063265D01*
X77721822Y-99135837D01*
X77721822Y-99244694D01*
X77685537Y-99317265D01*
X77649251Y-99353551D01*
X77576680Y-99389837D01*
X77286394Y-99389837D01*
X78012108Y-99063265D02*
X78048394Y-99026980D01*
X78120965Y-98990694D01*
X78302394Y-98990694D01*
X78374965Y-99026980D01*
X78411251Y-99063265D01*
X78447537Y-99135837D01*
X78447537Y-99208408D01*
X78411251Y-99317265D01*
X77975822Y-99752694D01*
X78447537Y-99752694D01*
X78810394Y-99752694D02*
X78955537Y-99752694D01*
X79028108Y-99716408D01*
X79064394Y-99680122D01*
X79136965Y-99571265D01*
X79173251Y-99426122D01*
X79173251Y-99135837D01*
X79136965Y-99063265D01*
X79100680Y-99026980D01*
X79028108Y-98990694D01*
X78882965Y-98990694D01*
X78810394Y-99026980D01*
X78774108Y-99063265D01*
X78737822Y-99135837D01*
X78737822Y-99317265D01*
X78774108Y-99389837D01*
X78810394Y-99426122D01*
X78882965Y-99462408D01*
X79028108Y-99462408D01*
X79100680Y-99426122D01*
X79136965Y-99389837D01*
X79173251Y-99317265D01*
D19*
X98839261Y-94515214D02*
X98536880Y-94726880D01*
X98839261Y-94878071D02*
X98204261Y-94878071D01*
X98204261Y-94636166D01*
X98234500Y-94575690D01*
X98264738Y-94545452D01*
X98325214Y-94515214D01*
X98415928Y-94515214D01*
X98476404Y-94545452D01*
X98506642Y-94575690D01*
X98536880Y-94636166D01*
X98536880Y-94878071D01*
X98264738Y-94273309D02*
X98234500Y-94243071D01*
X98204261Y-94182595D01*
X98204261Y-94031404D01*
X98234500Y-93970928D01*
X98264738Y-93940690D01*
X98325214Y-93910452D01*
X98385690Y-93910452D01*
X98476404Y-93940690D01*
X98839261Y-94303547D01*
X98839261Y-93910452D01*
X98476404Y-93547595D02*
X98446166Y-93608071D01*
X98415928Y-93638309D01*
X98355452Y-93668547D01*
X98325214Y-93668547D01*
X98264738Y-93638309D01*
X98234500Y-93608071D01*
X98204261Y-93547595D01*
X98204261Y-93426642D01*
X98234500Y-93366166D01*
X98264738Y-93335928D01*
X98325214Y-93305690D01*
X98355452Y-93305690D01*
X98415928Y-93335928D01*
X98446166Y-93366166D01*
X98476404Y-93426642D01*
X98476404Y-93547595D01*
X98506642Y-93608071D01*
X98536880Y-93638309D01*
X98597357Y-93668547D01*
X98718309Y-93668547D01*
X98778785Y-93638309D01*
X98809023Y-93608071D01*
X98839261Y-93547595D01*
X98839261Y-93426642D01*
X98809023Y-93366166D01*
X98778785Y-93335928D01*
X98718309Y-93305690D01*
X98597357Y-93305690D01*
X98536880Y-93335928D01*
X98506642Y-93366166D01*
X98476404Y-93426642D01*
D17*
X111977714Y-80118857D02*
X111614857Y-80372857D01*
X111977714Y-80554285D02*
X111215714Y-80554285D01*
X111215714Y-80264000D01*
X111252000Y-80191428D01*
X111288285Y-80155142D01*
X111360857Y-80118857D01*
X111469714Y-80118857D01*
X111542285Y-80155142D01*
X111578571Y-80191428D01*
X111614857Y-80264000D01*
X111614857Y-80554285D01*
X111288285Y-79828571D02*
X111252000Y-79792285D01*
X111215714Y-79719714D01*
X111215714Y-79538285D01*
X111252000Y-79465714D01*
X111288285Y-79429428D01*
X111360857Y-79393142D01*
X111433428Y-79393142D01*
X111542285Y-79429428D01*
X111977714Y-79864857D01*
X111977714Y-79393142D01*
X111215714Y-79139142D02*
X111215714Y-78631142D01*
X111977714Y-78957714D01*
X91276714Y-70339857D02*
X90913857Y-70593857D01*
X91276714Y-70775285D02*
X90514714Y-70775285D01*
X90514714Y-70485000D01*
X90551000Y-70412428D01*
X90587285Y-70376142D01*
X90659857Y-70339857D01*
X90768714Y-70339857D01*
X90841285Y-70376142D01*
X90877571Y-70412428D01*
X90913857Y-70485000D01*
X90913857Y-70775285D01*
X90587285Y-70049571D02*
X90551000Y-70013285D01*
X90514714Y-69940714D01*
X90514714Y-69759285D01*
X90551000Y-69686714D01*
X90587285Y-69650428D01*
X90659857Y-69614142D01*
X90732428Y-69614142D01*
X90841285Y-69650428D01*
X91276714Y-70085857D01*
X91276714Y-69614142D01*
X90514714Y-68961000D02*
X90514714Y-69106142D01*
X90551000Y-69178714D01*
X90587285Y-69215000D01*
X90696142Y-69287571D01*
X90841285Y-69323857D01*
X91131571Y-69323857D01*
X91204142Y-69287571D01*
X91240428Y-69251285D01*
X91276714Y-69178714D01*
X91276714Y-69033571D01*
X91240428Y-68961000D01*
X91204142Y-68924714D01*
X91131571Y-68888428D01*
X90950142Y-68888428D01*
X90877571Y-68924714D01*
X90841285Y-68961000D01*
X90805000Y-69033571D01*
X90805000Y-69178714D01*
X90841285Y-69251285D01*
X90877571Y-69287571D01*
X90950142Y-69323857D01*
D19*
X79027261Y-101754214D02*
X78724880Y-101965880D01*
X79027261Y-102117071D02*
X78392261Y-102117071D01*
X78392261Y-101875166D01*
X78422500Y-101814690D01*
X78452738Y-101784452D01*
X78513214Y-101754214D01*
X78603928Y-101754214D01*
X78664404Y-101784452D01*
X78694642Y-101814690D01*
X78724880Y-101875166D01*
X78724880Y-102117071D01*
X78452738Y-101512309D02*
X78422500Y-101482071D01*
X78392261Y-101421595D01*
X78392261Y-101270404D01*
X78422500Y-101209928D01*
X78452738Y-101179690D01*
X78513214Y-101149452D01*
X78573690Y-101149452D01*
X78664404Y-101179690D01*
X79027261Y-101542547D01*
X79027261Y-101149452D01*
X78603928Y-100605166D02*
X79027261Y-100605166D01*
X78362023Y-100756357D02*
X78815595Y-100907547D01*
X78815595Y-100514452D01*
D17*
X117547571Y-78994000D02*
X117475000Y-78957714D01*
X117366142Y-78957714D01*
X117257285Y-78994000D01*
X117184714Y-79066571D01*
X117148428Y-79139142D01*
X117112142Y-79284285D01*
X117112142Y-79393142D01*
X117148428Y-79538285D01*
X117184714Y-79610857D01*
X117257285Y-79683428D01*
X117366142Y-79719714D01*
X117438714Y-79719714D01*
X117547571Y-79683428D01*
X117583857Y-79647142D01*
X117583857Y-79393142D01*
X117438714Y-79393142D01*
X117910428Y-79719714D02*
X117910428Y-78957714D01*
X118345857Y-79719714D01*
X118345857Y-78957714D01*
X118708714Y-79719714D02*
X118708714Y-78957714D01*
X118890142Y-78957714D01*
X118999000Y-78994000D01*
X119071571Y-79066571D01*
X119107857Y-79139142D01*
X119144142Y-79284285D01*
X119144142Y-79393142D01*
X119107857Y-79538285D01*
X119071571Y-79610857D01*
X118999000Y-79683428D01*
X118890142Y-79719714D01*
X118708714Y-79719714D01*
X119869857Y-79719714D02*
X119434428Y-79719714D01*
X119652142Y-79719714D02*
X119652142Y-78957714D01*
X119579571Y-79066571D01*
X119507000Y-79139142D01*
X119434428Y-79175428D01*
X107460142Y-97681142D02*
X107423857Y-97717428D01*
X107315000Y-97753714D01*
X107242428Y-97753714D01*
X107133571Y-97717428D01*
X107061000Y-97644857D01*
X107024714Y-97572285D01*
X106988428Y-97427142D01*
X106988428Y-97318285D01*
X107024714Y-97173142D01*
X107061000Y-97100571D01*
X107133571Y-97028000D01*
X107242428Y-96991714D01*
X107315000Y-96991714D01*
X107423857Y-97028000D01*
X107460142Y-97064285D01*
X108185857Y-97753714D02*
X107750428Y-97753714D01*
X107968142Y-97753714D02*
X107968142Y-96991714D01*
X107895571Y-97100571D01*
X107823000Y-97173142D01*
X107750428Y-97209428D01*
X108621285Y-97318285D02*
X108548714Y-97282000D01*
X108512428Y-97245714D01*
X108476142Y-97173142D01*
X108476142Y-97136857D01*
X108512428Y-97064285D01*
X108548714Y-97028000D01*
X108621285Y-96991714D01*
X108766428Y-96991714D01*
X108839000Y-97028000D01*
X108875285Y-97064285D01*
X108911571Y-97136857D01*
X108911571Y-97173142D01*
X108875285Y-97245714D01*
X108839000Y-97282000D01*
X108766428Y-97318285D01*
X108621285Y-97318285D01*
X108548714Y-97354571D01*
X108512428Y-97390857D01*
X108476142Y-97463428D01*
X108476142Y-97608571D01*
X108512428Y-97681142D01*
X108548714Y-97717428D01*
X108621285Y-97753714D01*
X108766428Y-97753714D01*
X108839000Y-97717428D01*
X108875285Y-97681142D01*
X108911571Y-97608571D01*
X108911571Y-97463428D01*
X108875285Y-97390857D01*
X108839000Y-97354571D01*
X108766428Y-97318285D01*
D19*
X95603785Y-98524785D02*
X95573547Y-98555023D01*
X95482833Y-98585261D01*
X95422357Y-98585261D01*
X95331642Y-98555023D01*
X95271166Y-98494547D01*
X95240928Y-98434071D01*
X95210690Y-98313119D01*
X95210690Y-98222404D01*
X95240928Y-98101452D01*
X95271166Y-98040976D01*
X95331642Y-97980500D01*
X95422357Y-97950261D01*
X95482833Y-97950261D01*
X95573547Y-97980500D01*
X95603785Y-98010738D01*
X96208547Y-98585261D02*
X95845690Y-98585261D01*
X96027119Y-98585261D02*
X96027119Y-97950261D01*
X95966642Y-98040976D01*
X95906166Y-98101452D01*
X95845690Y-98131690D01*
X96420214Y-97950261D02*
X96843547Y-97950261D01*
X96571404Y-98585261D01*
X95603785Y-100048785D02*
X95573547Y-100079023D01*
X95482833Y-100109261D01*
X95422357Y-100109261D01*
X95331642Y-100079023D01*
X95271166Y-100018547D01*
X95240928Y-99958071D01*
X95210690Y-99837119D01*
X95210690Y-99746404D01*
X95240928Y-99625452D01*
X95271166Y-99564976D01*
X95331642Y-99504500D01*
X95422357Y-99474261D01*
X95482833Y-99474261D01*
X95573547Y-99504500D01*
X95603785Y-99534738D01*
X96208547Y-100109261D02*
X95845690Y-100109261D01*
X96027119Y-100109261D02*
X96027119Y-99474261D01*
X95966642Y-99564976D01*
X95906166Y-99625452D01*
X95845690Y-99655690D01*
X96752833Y-99474261D02*
X96631880Y-99474261D01*
X96571404Y-99504500D01*
X96541166Y-99534738D01*
X96480690Y-99625452D01*
X96450452Y-99746404D01*
X96450452Y-99988309D01*
X96480690Y-100048785D01*
X96510928Y-100079023D01*
X96571404Y-100109261D01*
X96692357Y-100109261D01*
X96752833Y-100079023D01*
X96783071Y-100048785D01*
X96813309Y-99988309D01*
X96813309Y-99837119D01*
X96783071Y-99776642D01*
X96752833Y-99746404D01*
X96692357Y-99716166D01*
X96571404Y-99716166D01*
X96510928Y-99746404D01*
X96480690Y-99776642D01*
X96450452Y-99837119D01*
X93190785Y-96492785D02*
X93160547Y-96523023D01*
X93069833Y-96553261D01*
X93009357Y-96553261D01*
X92918642Y-96523023D01*
X92858166Y-96462547D01*
X92827928Y-96402071D01*
X92797690Y-96281119D01*
X92797690Y-96190404D01*
X92827928Y-96069452D01*
X92858166Y-96008976D01*
X92918642Y-95948500D01*
X93009357Y-95918261D01*
X93069833Y-95918261D01*
X93160547Y-95948500D01*
X93190785Y-95978738D01*
X93795547Y-96553261D02*
X93432690Y-96553261D01*
X93614119Y-96553261D02*
X93614119Y-95918261D01*
X93553642Y-96008976D01*
X93493166Y-96069452D01*
X93432690Y-96099690D01*
X94370071Y-95918261D02*
X94067690Y-95918261D01*
X94037452Y-96220642D01*
X94067690Y-96190404D01*
X94128166Y-96160166D01*
X94279357Y-96160166D01*
X94339833Y-96190404D01*
X94370071Y-96220642D01*
X94400309Y-96281119D01*
X94400309Y-96432309D01*
X94370071Y-96492785D01*
X94339833Y-96523023D01*
X94279357Y-96553261D01*
X94128166Y-96553261D01*
X94067690Y-96523023D01*
X94037452Y-96492785D01*
D17*
X104158142Y-96030142D02*
X104121857Y-96066428D01*
X104013000Y-96102714D01*
X103940428Y-96102714D01*
X103831571Y-96066428D01*
X103759000Y-95993857D01*
X103722714Y-95921285D01*
X103686428Y-95776142D01*
X103686428Y-95667285D01*
X103722714Y-95522142D01*
X103759000Y-95449571D01*
X103831571Y-95377000D01*
X103940428Y-95340714D01*
X104013000Y-95340714D01*
X104121857Y-95377000D01*
X104158142Y-95413285D01*
X104883857Y-96102714D02*
X104448428Y-96102714D01*
X104666142Y-96102714D02*
X104666142Y-95340714D01*
X104593571Y-95449571D01*
X104521000Y-95522142D01*
X104448428Y-95558428D01*
X105537000Y-95594714D02*
X105537000Y-96102714D01*
X105355571Y-95304428D02*
X105174142Y-95848714D01*
X105645857Y-95848714D01*
X97427142Y-106698142D02*
X97390857Y-106734428D01*
X97282000Y-106770714D01*
X97209428Y-106770714D01*
X97100571Y-106734428D01*
X97028000Y-106661857D01*
X96991714Y-106589285D01*
X96955428Y-106444142D01*
X96955428Y-106335285D01*
X96991714Y-106190142D01*
X97028000Y-106117571D01*
X97100571Y-106045000D01*
X97209428Y-106008714D01*
X97282000Y-106008714D01*
X97390857Y-106045000D01*
X97427142Y-106081285D01*
X98152857Y-106770714D02*
X97717428Y-106770714D01*
X97935142Y-106770714D02*
X97935142Y-106008714D01*
X97862571Y-106117571D01*
X97790000Y-106190142D01*
X97717428Y-106226428D01*
X98406857Y-106008714D02*
X98878571Y-106008714D01*
X98624571Y-106299000D01*
X98733428Y-106299000D01*
X98806000Y-106335285D01*
X98842285Y-106371571D01*
X98878571Y-106444142D01*
X98878571Y-106625571D01*
X98842285Y-106698142D01*
X98806000Y-106734428D01*
X98733428Y-106770714D01*
X98515714Y-106770714D01*
X98443142Y-106734428D01*
X98406857Y-106698142D01*
X111397142Y-104375857D02*
X111433428Y-104412142D01*
X111469714Y-104521000D01*
X111469714Y-104593571D01*
X111433428Y-104702428D01*
X111360857Y-104775000D01*
X111288285Y-104811285D01*
X111143142Y-104847571D01*
X111034285Y-104847571D01*
X110889142Y-104811285D01*
X110816571Y-104775000D01*
X110744000Y-104702428D01*
X110707714Y-104593571D01*
X110707714Y-104521000D01*
X110744000Y-104412142D01*
X110780285Y-104375857D01*
X111469714Y-103650142D02*
X111469714Y-104085571D01*
X111469714Y-103867857D02*
X110707714Y-103867857D01*
X110816571Y-103940428D01*
X110889142Y-104013000D01*
X110925428Y-104085571D01*
X110780285Y-103359857D02*
X110744000Y-103323571D01*
X110707714Y-103251000D01*
X110707714Y-103069571D01*
X110744000Y-102997000D01*
X110780285Y-102960714D01*
X110852857Y-102924428D01*
X110925428Y-102924428D01*
X111034285Y-102960714D01*
X111469714Y-103396142D01*
X111469714Y-102924428D01*
X110508142Y-92564857D02*
X110544428Y-92601142D01*
X110580714Y-92710000D01*
X110580714Y-92782571D01*
X110544428Y-92891428D01*
X110471857Y-92964000D01*
X110399285Y-93000285D01*
X110254142Y-93036571D01*
X110145285Y-93036571D01*
X110000142Y-93000285D01*
X109927571Y-92964000D01*
X109855000Y-92891428D01*
X109818714Y-92782571D01*
X109818714Y-92710000D01*
X109855000Y-92601142D01*
X109891285Y-92564857D01*
X110580714Y-91839142D02*
X110580714Y-92274571D01*
X110580714Y-92056857D02*
X109818714Y-92056857D01*
X109927571Y-92129428D01*
X110000142Y-92202000D01*
X110036428Y-92274571D01*
X110580714Y-91113428D02*
X110580714Y-91548857D01*
X110580714Y-91331142D02*
X109818714Y-91331142D01*
X109927571Y-91403714D01*
X110000142Y-91476285D01*
X110036428Y-91548857D01*
X103759000Y-106698142D02*
X103722714Y-106734428D01*
X103613857Y-106770714D01*
X103541285Y-106770714D01*
X103432428Y-106734428D01*
X103359857Y-106661857D01*
X103323571Y-106589285D01*
X103287285Y-106444142D01*
X103287285Y-106335285D01*
X103323571Y-106190142D01*
X103359857Y-106117571D01*
X103432428Y-106045000D01*
X103541285Y-106008714D01*
X103613857Y-106008714D01*
X103722714Y-106045000D01*
X103759000Y-106081285D01*
X104121857Y-106770714D02*
X104267000Y-106770714D01*
X104339571Y-106734428D01*
X104375857Y-106698142D01*
X104448428Y-106589285D01*
X104484714Y-106444142D01*
X104484714Y-106153857D01*
X104448428Y-106081285D01*
X104412142Y-106045000D01*
X104339571Y-106008714D01*
X104194428Y-106008714D01*
X104121857Y-106045000D01*
X104085571Y-106081285D01*
X104049285Y-106153857D01*
X104049285Y-106335285D01*
X104085571Y-106407857D01*
X104121857Y-106444142D01*
X104194428Y-106480428D01*
X104339571Y-106480428D01*
X104412142Y-106444142D01*
X104448428Y-106407857D01*
X104484714Y-106335285D01*
X105664000Y-106698142D02*
X105627714Y-106734428D01*
X105518857Y-106770714D01*
X105446285Y-106770714D01*
X105337428Y-106734428D01*
X105264857Y-106661857D01*
X105228571Y-106589285D01*
X105192285Y-106444142D01*
X105192285Y-106335285D01*
X105228571Y-106190142D01*
X105264857Y-106117571D01*
X105337428Y-106045000D01*
X105446285Y-106008714D01*
X105518857Y-106008714D01*
X105627714Y-106045000D01*
X105664000Y-106081285D01*
X106099428Y-106335285D02*
X106026857Y-106299000D01*
X105990571Y-106262714D01*
X105954285Y-106190142D01*
X105954285Y-106153857D01*
X105990571Y-106081285D01*
X106026857Y-106045000D01*
X106099428Y-106008714D01*
X106244571Y-106008714D01*
X106317142Y-106045000D01*
X106353428Y-106081285D01*
X106389714Y-106153857D01*
X106389714Y-106190142D01*
X106353428Y-106262714D01*
X106317142Y-106299000D01*
X106244571Y-106335285D01*
X106099428Y-106335285D01*
X106026857Y-106371571D01*
X105990571Y-106407857D01*
X105954285Y-106480428D01*
X105954285Y-106625571D01*
X105990571Y-106698142D01*
X106026857Y-106734428D01*
X106099428Y-106770714D01*
X106244571Y-106770714D01*
X106317142Y-106734428D01*
X106353428Y-106698142D01*
X106389714Y-106625571D01*
X106389714Y-106480428D01*
X106353428Y-106407857D01*
X106317142Y-106371571D01*
X106244571Y-106335285D01*
X112159142Y-120523000D02*
X112195428Y-120559285D01*
X112231714Y-120668142D01*
X112231714Y-120740714D01*
X112195428Y-120849571D01*
X112122857Y-120922142D01*
X112050285Y-120958428D01*
X111905142Y-120994714D01*
X111796285Y-120994714D01*
X111651142Y-120958428D01*
X111578571Y-120922142D01*
X111506000Y-120849571D01*
X111469714Y-120740714D01*
X111469714Y-120668142D01*
X111506000Y-120559285D01*
X111542285Y-120523000D01*
X112231714Y-119797285D02*
X112231714Y-120232714D01*
X112231714Y-120015000D02*
X111469714Y-120015000D01*
X111578571Y-120087571D01*
X111651142Y-120160142D01*
X111687428Y-120232714D01*
D13*
X95110904Y-95709619D02*
X95110904Y-96532095D01*
X95159285Y-96628857D01*
X95207666Y-96677238D01*
X95304428Y-96725619D01*
X95497952Y-96725619D01*
X95594714Y-96677238D01*
X95643095Y-96628857D01*
X95691476Y-96532095D01*
X95691476Y-95709619D01*
X96610714Y-96048285D02*
X96610714Y-96725619D01*
X96368809Y-95661238D02*
X96126904Y-96386952D01*
X96755857Y-96386952D01*
X119077619Y-120281095D02*
X119900095Y-120281095D01*
X119996857Y-120232714D01*
X120045238Y-120184333D01*
X120093619Y-120087571D01*
X120093619Y-119894047D01*
X120045238Y-119797285D01*
X119996857Y-119748904D01*
X119900095Y-119700523D01*
X119077619Y-119700523D01*
X119174380Y-119265095D02*
X119126000Y-119216714D01*
X119077619Y-119119952D01*
X119077619Y-118878047D01*
X119126000Y-118781285D01*
X119174380Y-118732904D01*
X119271142Y-118684523D01*
X119367904Y-118684523D01*
X119513047Y-118732904D01*
X120093619Y-119313476D01*
X120093619Y-118684523D01*
D17*
X107569000Y-106770714D02*
X107206142Y-106770714D01*
X107206142Y-106008714D01*
X107750428Y-106008714D02*
X108222142Y-106008714D01*
X107968142Y-106299000D01*
X108077000Y-106299000D01*
X108149571Y-106335285D01*
X108185857Y-106371571D01*
X108222142Y-106444142D01*
X108222142Y-106625571D01*
X108185857Y-106698142D01*
X108149571Y-106734428D01*
X108077000Y-106770714D01*
X107859285Y-106770714D01*
X107786714Y-106734428D01*
X107750428Y-106698142D01*
X100402571Y-106770714D02*
X100148571Y-106407857D01*
X99967142Y-106770714D02*
X99967142Y-106008714D01*
X100257428Y-106008714D01*
X100330000Y-106045000D01*
X100366285Y-106081285D01*
X100402571Y-106153857D01*
X100402571Y-106262714D01*
X100366285Y-106335285D01*
X100330000Y-106371571D01*
X100257428Y-106407857D01*
X99967142Y-106407857D01*
X100729142Y-106770714D02*
X100729142Y-106008714D01*
X100983142Y-106553000D01*
X101237142Y-106008714D01*
X101237142Y-106770714D01*
X101527428Y-106008714D02*
X101999142Y-106008714D01*
X101745142Y-106299000D01*
X101854000Y-106299000D01*
X101926571Y-106335285D01*
X101962857Y-106371571D01*
X101999142Y-106444142D01*
X101999142Y-106625571D01*
X101962857Y-106698142D01*
X101926571Y-106734428D01*
X101854000Y-106770714D01*
X101636285Y-106770714D01*
X101563714Y-106734428D01*
X101527428Y-106698142D01*
X94052571Y-106770714D02*
X93798571Y-106407857D01*
X93617142Y-106770714D02*
X93617142Y-106008714D01*
X93907428Y-106008714D01*
X93980000Y-106045000D01*
X94016285Y-106081285D01*
X94052571Y-106153857D01*
X94052571Y-106262714D01*
X94016285Y-106335285D01*
X93980000Y-106371571D01*
X93907428Y-106407857D01*
X93617142Y-106407857D01*
X94379142Y-106770714D02*
X94379142Y-106008714D01*
X94633142Y-106553000D01*
X94887142Y-106008714D01*
X94887142Y-106770714D01*
X95213714Y-106081285D02*
X95250000Y-106045000D01*
X95322571Y-106008714D01*
X95504000Y-106008714D01*
X95576571Y-106045000D01*
X95612857Y-106081285D01*
X95649142Y-106153857D01*
X95649142Y-106226428D01*
X95612857Y-106335285D01*
X95177428Y-106770714D01*
X95649142Y-106770714D01*
D13*
X89649904Y-92280619D02*
X89649904Y-93103095D01*
X89698285Y-93199857D01*
X89746666Y-93248238D01*
X89843428Y-93296619D01*
X90036952Y-93296619D01*
X90133714Y-93248238D01*
X90182095Y-93199857D01*
X90230476Y-93103095D01*
X90230476Y-92280619D01*
X90617523Y-92280619D02*
X91246476Y-92280619D01*
X90907809Y-92667666D01*
X91052952Y-92667666D01*
X91149714Y-92716047D01*
X91198095Y-92764428D01*
X91246476Y-92861190D01*
X91246476Y-93103095D01*
X91198095Y-93199857D01*
X91149714Y-93248238D01*
X91052952Y-93296619D01*
X90762666Y-93296619D01*
X90665904Y-93248238D01*
X90617523Y-93199857D01*
X70678523Y-73623714D02*
X70618047Y-73744666D01*
X70557571Y-73805142D01*
X70436619Y-73865619D01*
X70073761Y-73865619D01*
X69952809Y-73805142D01*
X69892333Y-73744666D01*
X69831857Y-73623714D01*
X69831857Y-73442285D01*
X69892333Y-73321333D01*
X69952809Y-73260857D01*
X70073761Y-73200380D01*
X70436619Y-73200380D01*
X70557571Y-73260857D01*
X70618047Y-73321333D01*
X70678523Y-73442285D01*
X70678523Y-73623714D01*
X76502380Y-70344666D02*
X77107142Y-70344666D01*
X76381428Y-70707523D02*
X76804761Y-69437523D01*
X77228095Y-70707523D01*
X77651428Y-69860857D02*
X77651428Y-70707523D01*
X77651428Y-69981809D02*
X77711904Y-69921333D01*
X77832857Y-69860857D01*
X78014285Y-69860857D01*
X78135238Y-69921333D01*
X78195714Y-70042285D01*
X78195714Y-70707523D01*
X78619047Y-69860857D02*
X79102857Y-69860857D01*
X78800476Y-69437523D02*
X78800476Y-70526095D01*
X78860952Y-70647047D01*
X78981904Y-70707523D01*
X79102857Y-70707523D01*
X80010000Y-70647047D02*
X79889047Y-70707523D01*
X79647142Y-70707523D01*
X79526190Y-70647047D01*
X79465714Y-70526095D01*
X79465714Y-70042285D01*
X79526190Y-69921333D01*
X79647142Y-69860857D01*
X79889047Y-69860857D01*
X80010000Y-69921333D01*
X80070476Y-70042285D01*
X80070476Y-70163238D01*
X79465714Y-70284190D01*
X80614761Y-69860857D02*
X80614761Y-70707523D01*
X80614761Y-69981809D02*
X80675238Y-69921333D01*
X80796190Y-69860857D01*
X80977619Y-69860857D01*
X81098571Y-69921333D01*
X81159047Y-70042285D01*
X81159047Y-70707523D01*
X81763809Y-69860857D02*
X81763809Y-70707523D01*
X81763809Y-69981809D02*
X81824285Y-69921333D01*
X81945238Y-69860857D01*
X82126666Y-69860857D01*
X82247619Y-69921333D01*
X82308095Y-70042285D01*
X82308095Y-70707523D01*
X83457142Y-70707523D02*
X83457142Y-70042285D01*
X83396666Y-69921333D01*
X83275714Y-69860857D01*
X83033809Y-69860857D01*
X82912857Y-69921333D01*
X83457142Y-70647047D02*
X83336190Y-70707523D01*
X83033809Y-70707523D01*
X82912857Y-70647047D01*
X82852380Y-70526095D01*
X82852380Y-70405142D01*
X82912857Y-70284190D01*
X83033809Y-70223714D01*
X83336190Y-70223714D01*
X83457142Y-70163238D01*
X73841428Y-86570428D02*
X74180095Y-86570428D01*
X74325238Y-87102619D02*
X73841428Y-87102619D01*
X73841428Y-86086619D01*
X74325238Y-86086619D01*
X74712285Y-87054238D02*
X74857428Y-87102619D01*
X75099333Y-87102619D01*
X75196095Y-87054238D01*
X75244476Y-87005857D01*
X75292857Y-86909095D01*
X75292857Y-86812333D01*
X75244476Y-86715571D01*
X75196095Y-86667190D01*
X75099333Y-86618809D01*
X74905809Y-86570428D01*
X74809047Y-86522047D01*
X74760666Y-86473666D01*
X74712285Y-86376904D01*
X74712285Y-86280142D01*
X74760666Y-86183380D01*
X74809047Y-86135000D01*
X74905809Y-86086619D01*
X75147714Y-86086619D01*
X75292857Y-86135000D01*
X75728285Y-87102619D02*
X75728285Y-86086619D01*
X76115333Y-86086619D01*
X76212095Y-86135000D01*
X76260476Y-86183380D01*
X76308857Y-86280142D01*
X76308857Y-86425285D01*
X76260476Y-86522047D01*
X76212095Y-86570428D01*
X76115333Y-86618809D01*
X75728285Y-86618809D01*
X76744285Y-86715571D02*
X77518380Y-86715571D01*
X77905428Y-86086619D02*
X78147333Y-87102619D01*
X78340857Y-86376904D01*
X78534380Y-87102619D01*
X78776285Y-86086619D01*
X79743904Y-87102619D02*
X79405238Y-86618809D01*
X79163333Y-87102619D02*
X79163333Y-86086619D01*
X79550380Y-86086619D01*
X79647142Y-86135000D01*
X79695523Y-86183380D01*
X79743904Y-86280142D01*
X79743904Y-86425285D01*
X79695523Y-86522047D01*
X79647142Y-86570428D01*
X79550380Y-86618809D01*
X79163333Y-86618809D01*
X80372857Y-86086619D02*
X80566380Y-86086619D01*
X80663142Y-86135000D01*
X80759904Y-86231761D01*
X80808285Y-86425285D01*
X80808285Y-86763952D01*
X80759904Y-86957476D01*
X80663142Y-87054238D01*
X80566380Y-87102619D01*
X80372857Y-87102619D01*
X80276095Y-87054238D01*
X80179333Y-86957476D01*
X80130952Y-86763952D01*
X80130952Y-86425285D01*
X80179333Y-86231761D01*
X80276095Y-86135000D01*
X80372857Y-86086619D01*
X81437238Y-86086619D02*
X81630761Y-86086619D01*
X81727523Y-86135000D01*
X81824285Y-86231761D01*
X81872666Y-86425285D01*
X81872666Y-86763952D01*
X81824285Y-86957476D01*
X81727523Y-87054238D01*
X81630761Y-87102619D01*
X81437238Y-87102619D01*
X81340476Y-87054238D01*
X81243714Y-86957476D01*
X81195333Y-86763952D01*
X81195333Y-86425285D01*
X81243714Y-86231761D01*
X81340476Y-86135000D01*
X81437238Y-86086619D01*
X82308095Y-87102619D02*
X82308095Y-86086619D01*
X82646761Y-86812333D01*
X82985428Y-86086619D01*
X82985428Y-87102619D01*
X83469238Y-86715571D02*
X84243333Y-86715571D01*
X84630380Y-86086619D02*
X85259333Y-86086619D01*
X84920666Y-86473666D01*
X85065809Y-86473666D01*
X85162571Y-86522047D01*
X85210952Y-86570428D01*
X85259333Y-86667190D01*
X85259333Y-86909095D01*
X85210952Y-87005857D01*
X85162571Y-87054238D01*
X85065809Y-87102619D01*
X84775523Y-87102619D01*
X84678761Y-87054238D01*
X84630380Y-87005857D01*
X85646380Y-86183380D02*
X85694761Y-86135000D01*
X85791523Y-86086619D01*
X86033428Y-86086619D01*
X86130190Y-86135000D01*
X86178571Y-86183380D01*
X86226952Y-86280142D01*
X86226952Y-86376904D01*
X86178571Y-86522047D01*
X85598000Y-87102619D01*
X86226952Y-87102619D01*
X73950285Y-75770619D02*
X73369714Y-75770619D01*
X73660000Y-75770619D02*
X73660000Y-74754619D01*
X73563238Y-74899761D01*
X73466476Y-74996523D01*
X73369714Y-75044904D01*
X85156523Y-74754619D02*
X85785476Y-74754619D01*
X85446809Y-75141666D01*
X85591952Y-75141666D01*
X85688714Y-75190047D01*
X85737095Y-75238428D01*
X85785476Y-75335190D01*
X85785476Y-75577095D01*
X85737095Y-75673857D01*
X85688714Y-75722238D01*
X85591952Y-75770619D01*
X85301666Y-75770619D01*
X85204904Y-75722238D01*
X85156523Y-75673857D01*
X86366047Y-75190047D02*
X86269285Y-75141666D01*
X86220904Y-75093285D01*
X86172523Y-74996523D01*
X86172523Y-74948142D01*
X86220904Y-74851380D01*
X86269285Y-74803000D01*
X86366047Y-74754619D01*
X86559571Y-74754619D01*
X86656333Y-74803000D01*
X86704714Y-74851380D01*
X86753095Y-74948142D01*
X86753095Y-74996523D01*
X86704714Y-75093285D01*
X86656333Y-75141666D01*
X86559571Y-75190047D01*
X86366047Y-75190047D01*
X86269285Y-75238428D01*
X86220904Y-75286809D01*
X86172523Y-75383571D01*
X86172523Y-75577095D01*
X86220904Y-75673857D01*
X86269285Y-75722238D01*
X86366047Y-75770619D01*
X86559571Y-75770619D01*
X86656333Y-75722238D01*
X86704714Y-75673857D01*
X86753095Y-75577095D01*
X86753095Y-75383571D01*
X86704714Y-75286809D01*
X86656333Y-75238428D01*
X86559571Y-75190047D01*
X74754619Y-90011523D02*
X74754619Y-90592095D01*
X74754619Y-90301809D02*
X73738619Y-90301809D01*
X73883761Y-90398571D01*
X73980523Y-90495333D01*
X74028904Y-90592095D01*
X73738619Y-89092285D02*
X73738619Y-89576095D01*
X74222428Y-89624476D01*
X74174047Y-89576095D01*
X74125666Y-89479333D01*
X74125666Y-89237428D01*
X74174047Y-89140666D01*
X74222428Y-89092285D01*
X74319190Y-89043904D01*
X74561095Y-89043904D01*
X74657857Y-89092285D01*
X74706238Y-89140666D01*
X74754619Y-89237428D01*
X74754619Y-89479333D01*
X74706238Y-89576095D01*
X74657857Y-89624476D01*
X85265380Y-90592095D02*
X85217000Y-90543714D01*
X85168619Y-90446952D01*
X85168619Y-90205047D01*
X85217000Y-90108285D01*
X85265380Y-90059904D01*
X85362142Y-90011523D01*
X85458904Y-90011523D01*
X85604047Y-90059904D01*
X86184619Y-90640476D01*
X86184619Y-90011523D01*
X85507285Y-89140666D02*
X86184619Y-89140666D01*
X85120238Y-89382571D02*
X85845952Y-89624476D01*
X85845952Y-88995523D01*
D17*
X108421714Y-92691857D02*
X108058857Y-92945857D01*
X108421714Y-93127285D02*
X107659714Y-93127285D01*
X107659714Y-92837000D01*
X107696000Y-92764428D01*
X107732285Y-92728142D01*
X107804857Y-92691857D01*
X107913714Y-92691857D01*
X107986285Y-92728142D01*
X108022571Y-92764428D01*
X108058857Y-92837000D01*
X108058857Y-93127285D01*
X107732285Y-92401571D02*
X107696000Y-92365285D01*
X107659714Y-92292714D01*
X107659714Y-92111285D01*
X107696000Y-92038714D01*
X107732285Y-92002428D01*
X107804857Y-91966142D01*
X107877428Y-91966142D01*
X107986285Y-92002428D01*
X108421714Y-92437857D01*
X108421714Y-91966142D01*
X107659714Y-91276714D02*
X107659714Y-91639571D01*
X108022571Y-91675857D01*
X107986285Y-91639571D01*
X107950000Y-91567000D01*
X107950000Y-91385571D01*
X107986285Y-91313000D01*
X108022571Y-91276714D01*
X108095142Y-91240428D01*
X108276571Y-91240428D01*
X108349142Y-91276714D01*
X108385428Y-91313000D01*
X108421714Y-91385571D01*
X108421714Y-91567000D01*
X108385428Y-91639571D01*
X108349142Y-91675857D01*
M02*
