G04 #@! TF.GenerationSoftware,KiCad,Pcbnew,(5.1.10)-1*
G04 #@! TF.CreationDate,2021-08-27T22:23:48-03:00*
G04 #@! TF.ProjectId,ESP32-GATEWAY_Rev_F,45535033-322d-4474-9154-455741595f52,F*
G04 #@! TF.SameCoordinates,Original*
G04 #@! TF.FileFunction,Legend,Bot*
G04 #@! TF.FilePolarity,Positive*
%FSLAX46Y46*%
G04 Gerber Fmt 4.6, Leading zero omitted, Abs format (unit mm)*
G04 Created by KiCad (PCBNEW (5.1.10)-1) date 2021-08-27 22:23:48*
%MOMM*%
%LPD*%
G01*
G04 APERTURE LIST*
%ADD10C,0.150000*%
%ADD11C,0.010000*%
%ADD12C,0.254000*%
%ADD13C,0.125000*%
G04 APERTURE END LIST*
D10*
X99448476Y-117373761D02*
X99305619Y-117421380D01*
X99067523Y-117421380D01*
X98972285Y-117373761D01*
X98924666Y-117326142D01*
X98877047Y-117230904D01*
X98877047Y-117135666D01*
X98924666Y-117040428D01*
X98972285Y-116992809D01*
X99067523Y-116945190D01*
X99258000Y-116897571D01*
X99353238Y-116849952D01*
X99400857Y-116802333D01*
X99448476Y-116707095D01*
X99448476Y-116611857D01*
X99400857Y-116516619D01*
X99353238Y-116469000D01*
X99258000Y-116421380D01*
X99019904Y-116421380D01*
X98877047Y-116469000D01*
X98448476Y-117421380D02*
X98448476Y-116421380D01*
X97877047Y-117421380D01*
X97877047Y-116421380D01*
X97400857Y-117421380D02*
X97400857Y-116421380D01*
X97067523Y-117135666D01*
X96734190Y-116421380D01*
X96734190Y-117421380D01*
X96258000Y-117421380D02*
X96258000Y-116421380D01*
X95877047Y-116421380D01*
X95781809Y-116469000D01*
X95734190Y-116516619D01*
X95686571Y-116611857D01*
X95686571Y-116754714D01*
X95734190Y-116849952D01*
X95781809Y-116897571D01*
X95877047Y-116945190D01*
X96258000Y-116945190D01*
X94496095Y-117421380D02*
X94496095Y-116421380D01*
X94496095Y-116897571D02*
X93924666Y-116897571D01*
X93924666Y-117421380D02*
X93924666Y-116421380D01*
X93019904Y-116754714D02*
X93019904Y-117421380D01*
X93448476Y-116754714D02*
X93448476Y-117278523D01*
X93400857Y-117373761D01*
X93305619Y-117421380D01*
X93162761Y-117421380D01*
X93067523Y-117373761D01*
X93019904Y-117326142D01*
X92543714Y-117421380D02*
X92543714Y-116421380D01*
X92543714Y-116802333D02*
X92448476Y-116754714D01*
X92257999Y-116754714D01*
X92162761Y-116802333D01*
X92115142Y-116849952D01*
X92067523Y-116945190D01*
X92067523Y-117230904D01*
X92115142Y-117326142D01*
X92162761Y-117373761D01*
X92257999Y-117421380D01*
X92448476Y-117421380D01*
X92543714Y-117373761D01*
X100091333Y-118976142D02*
X100138952Y-119023761D01*
X100281809Y-119071380D01*
X100377047Y-119071380D01*
X100519904Y-119023761D01*
X100615142Y-118928523D01*
X100662761Y-118833285D01*
X100710380Y-118642809D01*
X100710380Y-118499952D01*
X100662761Y-118309476D01*
X100615142Y-118214238D01*
X100519904Y-118119000D01*
X100377047Y-118071380D01*
X100281809Y-118071380D01*
X100138952Y-118119000D01*
X100091333Y-118166619D01*
X99234190Y-119071380D02*
X99234190Y-118547571D01*
X99281809Y-118452333D01*
X99377047Y-118404714D01*
X99567523Y-118404714D01*
X99662761Y-118452333D01*
X99234190Y-119023761D02*
X99329428Y-119071380D01*
X99567523Y-119071380D01*
X99662761Y-119023761D01*
X99710380Y-118928523D01*
X99710380Y-118833285D01*
X99662761Y-118738047D01*
X99567523Y-118690428D01*
X99329428Y-118690428D01*
X99234190Y-118642809D01*
X98805619Y-119023761D02*
X98710380Y-119071380D01*
X98519904Y-119071380D01*
X98424666Y-119023761D01*
X98377047Y-118928523D01*
X98377047Y-118880904D01*
X98424666Y-118785666D01*
X98519904Y-118738047D01*
X98662761Y-118738047D01*
X98758000Y-118690428D01*
X98805619Y-118595190D01*
X98805619Y-118547571D01*
X98758000Y-118452333D01*
X98662761Y-118404714D01*
X98519904Y-118404714D01*
X98424666Y-118452333D01*
X97519904Y-119071380D02*
X97519904Y-118547571D01*
X97567523Y-118452333D01*
X97662761Y-118404714D01*
X97853238Y-118404714D01*
X97948476Y-118452333D01*
X97519904Y-119023761D02*
X97615142Y-119071380D01*
X97853238Y-119071380D01*
X97948476Y-119023761D01*
X97996095Y-118928523D01*
X97996095Y-118833285D01*
X97948476Y-118738047D01*
X97853238Y-118690428D01*
X97615142Y-118690428D01*
X97519904Y-118642809D01*
X97091333Y-119023761D02*
X96996095Y-119071380D01*
X96805619Y-119071380D01*
X96710380Y-119023761D01*
X96662761Y-118928523D01*
X96662761Y-118880904D01*
X96710380Y-118785666D01*
X96805619Y-118738047D01*
X96948476Y-118738047D01*
X97043714Y-118690428D01*
X97091333Y-118595190D01*
X97091333Y-118547571D01*
X97043714Y-118452333D01*
X96948476Y-118404714D01*
X96805619Y-118404714D01*
X96710380Y-118452333D01*
X95472285Y-119071380D02*
X95472285Y-118071380D01*
X95234190Y-118071380D01*
X95091333Y-118119000D01*
X94996095Y-118214238D01*
X94948476Y-118309476D01*
X94900857Y-118499952D01*
X94900857Y-118642809D01*
X94948476Y-118833285D01*
X94996095Y-118928523D01*
X95091333Y-119023761D01*
X95234190Y-119071380D01*
X95472285Y-119071380D01*
X94043714Y-119071380D02*
X94043714Y-118547571D01*
X94091333Y-118452333D01*
X94186571Y-118404714D01*
X94377047Y-118404714D01*
X94472285Y-118452333D01*
X94043714Y-119023761D02*
X94138952Y-119071380D01*
X94377047Y-119071380D01*
X94472285Y-119023761D01*
X94519904Y-118928523D01*
X94519904Y-118833285D01*
X94472285Y-118738047D01*
X94377047Y-118690428D01*
X94138952Y-118690428D01*
X94043714Y-118642809D01*
X93567523Y-119071380D02*
X93567523Y-118404714D01*
X93567523Y-118071380D02*
X93615142Y-118119000D01*
X93567523Y-118166619D01*
X93519904Y-118119000D01*
X93567523Y-118071380D01*
X93567523Y-118166619D01*
X92662761Y-119071380D02*
X92662761Y-118547571D01*
X92710380Y-118452333D01*
X92805619Y-118404714D01*
X92996095Y-118404714D01*
X93091333Y-118452333D01*
X92662761Y-119023761D02*
X92758000Y-119071380D01*
X92996095Y-119071380D01*
X93091333Y-119023761D01*
X93138952Y-118928523D01*
X93138952Y-118833285D01*
X93091333Y-118738047D01*
X92996095Y-118690428D01*
X92758000Y-118690428D01*
X92662761Y-118642809D01*
X92186571Y-118404714D02*
X92186571Y-119071380D01*
X92186571Y-118499952D02*
X92138952Y-118452333D01*
X92043714Y-118404714D01*
X91900857Y-118404714D01*
X91805619Y-118452333D01*
X91758000Y-118547571D01*
X91758000Y-119071380D01*
X90853238Y-119071380D02*
X90853238Y-118547571D01*
X90900857Y-118452333D01*
X90996095Y-118404714D01*
X91186571Y-118404714D01*
X91281809Y-118452333D01*
X90853238Y-119023761D02*
X90948476Y-119071380D01*
X91186571Y-119071380D01*
X91281809Y-119023761D01*
X91329428Y-118928523D01*
X91329428Y-118833285D01*
X91281809Y-118738047D01*
X91186571Y-118690428D01*
X90948476Y-118690428D01*
X90853238Y-118642809D01*
X100186571Y-120721380D02*
X100186571Y-119721380D01*
X99805619Y-119721380D01*
X99710380Y-119769000D01*
X99662761Y-119816619D01*
X99615142Y-119911857D01*
X99615142Y-120054714D01*
X99662761Y-120149952D01*
X99710380Y-120197571D01*
X99805619Y-120245190D01*
X100186571Y-120245190D01*
X99186571Y-120721380D02*
X99186571Y-120054714D01*
X99186571Y-120245190D02*
X99138952Y-120149952D01*
X99091333Y-120102333D01*
X98996095Y-120054714D01*
X98900857Y-120054714D01*
X98186571Y-120673761D02*
X98281809Y-120721380D01*
X98472285Y-120721380D01*
X98567523Y-120673761D01*
X98615142Y-120578523D01*
X98615142Y-120197571D01*
X98567523Y-120102333D01*
X98472285Y-120054714D01*
X98281809Y-120054714D01*
X98186571Y-120102333D01*
X98138952Y-120197571D01*
X98138952Y-120292809D01*
X98615142Y-120388047D01*
X97281809Y-120054714D02*
X97281809Y-120864238D01*
X97329428Y-120959476D01*
X97377047Y-121007095D01*
X97472285Y-121054714D01*
X97615142Y-121054714D01*
X97710380Y-121007095D01*
X97281809Y-120673761D02*
X97377047Y-120721380D01*
X97567523Y-120721380D01*
X97662761Y-120673761D01*
X97710380Y-120626142D01*
X97758000Y-120530904D01*
X97758000Y-120245190D01*
X97710380Y-120149952D01*
X97662761Y-120102333D01*
X97567523Y-120054714D01*
X97377047Y-120054714D01*
X97281809Y-120102333D01*
X96424666Y-120673761D02*
X96519904Y-120721380D01*
X96710380Y-120721380D01*
X96805619Y-120673761D01*
X96853238Y-120578523D01*
X96853238Y-120197571D01*
X96805619Y-120102333D01*
X96710380Y-120054714D01*
X96519904Y-120054714D01*
X96424666Y-120102333D01*
X96377047Y-120197571D01*
X96377047Y-120292809D01*
X96853238Y-120388047D01*
X95805619Y-120721380D02*
X95900857Y-120673761D01*
X95948476Y-120578523D01*
X95948476Y-119721380D01*
X95424666Y-120054714D02*
X95424666Y-120911857D01*
X95472285Y-121007095D01*
X95567523Y-121054714D01*
X95615142Y-121054714D01*
X95424666Y-119721380D02*
X95472285Y-119769000D01*
X95424666Y-119816619D01*
X95377047Y-119769000D01*
X95424666Y-119721380D01*
X95424666Y-119816619D01*
X93900857Y-119721380D02*
X93900857Y-120435666D01*
X93948476Y-120578523D01*
X94043714Y-120673761D01*
X94186571Y-120721380D01*
X94281809Y-120721380D01*
X93281809Y-120721380D02*
X93377047Y-120673761D01*
X93424666Y-120626142D01*
X93472285Y-120530904D01*
X93472285Y-120245190D01*
X93424666Y-120149952D01*
X93377047Y-120102333D01*
X93281809Y-120054714D01*
X93138952Y-120054714D01*
X93043714Y-120102333D01*
X92996095Y-120149952D01*
X92948476Y-120245190D01*
X92948476Y-120530904D01*
X92996095Y-120626142D01*
X93043714Y-120673761D01*
X93138952Y-120721380D01*
X93281809Y-120721380D01*
X92567523Y-120673761D02*
X92472285Y-120721380D01*
X92281809Y-120721380D01*
X92186571Y-120673761D01*
X92138952Y-120578523D01*
X92138952Y-120530904D01*
X92186571Y-120435666D01*
X92281809Y-120388047D01*
X92424666Y-120388047D01*
X92519904Y-120340428D01*
X92567523Y-120245190D01*
X92567523Y-120197571D01*
X92519904Y-120102333D01*
X92424666Y-120054714D01*
X92281809Y-120054714D01*
X92186571Y-120102333D01*
X91329428Y-120673761D02*
X91424666Y-120721380D01*
X91615142Y-120721380D01*
X91710380Y-120673761D01*
X91758000Y-120578523D01*
X91758000Y-120197571D01*
X91710380Y-120102333D01*
X91615142Y-120054714D01*
X91424666Y-120054714D01*
X91329428Y-120102333D01*
X91281809Y-120197571D01*
X91281809Y-120292809D01*
X91758000Y-120388047D01*
X100329428Y-122371380D02*
X100662761Y-121895190D01*
X100900857Y-122371380D02*
X100900857Y-121371380D01*
X100519904Y-121371380D01*
X100424666Y-121419000D01*
X100377047Y-121466619D01*
X100329428Y-121561857D01*
X100329428Y-121704714D01*
X100377047Y-121799952D01*
X100424666Y-121847571D01*
X100519904Y-121895190D01*
X100900857Y-121895190D01*
X99900857Y-122371380D02*
X99900857Y-121704714D01*
X99900857Y-121371380D02*
X99948476Y-121419000D01*
X99900857Y-121466619D01*
X99853238Y-121419000D01*
X99900857Y-121371380D01*
X99900857Y-121466619D01*
X99519904Y-121704714D02*
X99281809Y-122371380D01*
X99043714Y-121704714D01*
X98281809Y-122323761D02*
X98377047Y-122371380D01*
X98567523Y-122371380D01*
X98662761Y-122323761D01*
X98710380Y-122228523D01*
X98710380Y-121847571D01*
X98662761Y-121752333D01*
X98567523Y-121704714D01*
X98377047Y-121704714D01*
X98281809Y-121752333D01*
X98234190Y-121847571D01*
X98234190Y-121942809D01*
X98710380Y-122038047D01*
X97805619Y-122371380D02*
X97805619Y-121704714D01*
X97805619Y-121895190D02*
X97758000Y-121799952D01*
X97710380Y-121752333D01*
X97615142Y-121704714D01*
X97519904Y-121704714D01*
X97043714Y-122371380D02*
X97138952Y-122323761D01*
X97186571Y-122276142D01*
X97234190Y-122180904D01*
X97234190Y-121895190D01*
X97186571Y-121799952D01*
X97138952Y-121752333D01*
X97043714Y-121704714D01*
X96900857Y-121704714D01*
X96805619Y-121752333D01*
X96758000Y-121799952D01*
X96710380Y-121895190D01*
X96710380Y-122180904D01*
X96758000Y-122276142D01*
X96805619Y-122323761D01*
X96900857Y-122371380D01*
X97043714Y-122371380D01*
X96329428Y-122323761D02*
X96234190Y-122371380D01*
X96043714Y-122371380D01*
X95948476Y-122323761D01*
X95900857Y-122228523D01*
X95900857Y-122180904D01*
X95948476Y-122085666D01*
X96043714Y-122038047D01*
X96186571Y-122038047D01*
X96281809Y-121990428D01*
X96329428Y-121895190D01*
X96329428Y-121847571D01*
X96281809Y-121752333D01*
X96186571Y-121704714D01*
X96043714Y-121704714D01*
X95948476Y-121752333D01*
X94138952Y-122371380D02*
X94472285Y-121895190D01*
X94710380Y-122371380D02*
X94710380Y-121371380D01*
X94329428Y-121371380D01*
X94234190Y-121419000D01*
X94186571Y-121466619D01*
X94138952Y-121561857D01*
X94138952Y-121704714D01*
X94186571Y-121799952D01*
X94234190Y-121847571D01*
X94329428Y-121895190D01*
X94710380Y-121895190D01*
X93281809Y-121704714D02*
X93281809Y-122371380D01*
X93710380Y-121704714D02*
X93710380Y-122228523D01*
X93662761Y-122323761D01*
X93567523Y-122371380D01*
X93424666Y-122371380D01*
X93329428Y-122323761D01*
X93281809Y-122276142D01*
X92805619Y-122371380D02*
X92805619Y-121371380D01*
X92805619Y-121752333D02*
X92710380Y-121704714D01*
X92519904Y-121704714D01*
X92424666Y-121752333D01*
X92377047Y-121799952D01*
X92329428Y-121895190D01*
X92329428Y-122180904D01*
X92377047Y-122276142D01*
X92424666Y-122323761D01*
X92519904Y-122371380D01*
X92710380Y-122371380D01*
X92805619Y-122323761D01*
X91519904Y-122323761D02*
X91615142Y-122371380D01*
X91805619Y-122371380D01*
X91900857Y-122323761D01*
X91948476Y-122228523D01*
X91948476Y-121847571D01*
X91900857Y-121752333D01*
X91805619Y-121704714D01*
X91615142Y-121704714D01*
X91519904Y-121752333D01*
X91472285Y-121847571D01*
X91472285Y-121942809D01*
X91948476Y-122038047D01*
X91615142Y-121323761D02*
X91758000Y-121466619D01*
X91043714Y-121704714D02*
X91043714Y-122371380D01*
X91043714Y-121799952D02*
X90996095Y-121752333D01*
X90900857Y-121704714D01*
X90758000Y-121704714D01*
X90662761Y-121752333D01*
X90615142Y-121847571D01*
X90615142Y-122371380D01*
X100305619Y-123021380D02*
X99972285Y-124021380D01*
X99638952Y-123021380D01*
X99305619Y-124021380D02*
X99305619Y-123354714D01*
X99305619Y-123021380D02*
X99353238Y-123069000D01*
X99305619Y-123116619D01*
X99258000Y-123069000D01*
X99305619Y-123021380D01*
X99305619Y-123116619D01*
X98448476Y-123973761D02*
X98543714Y-124021380D01*
X98734190Y-124021380D01*
X98829428Y-123973761D01*
X98877047Y-123878523D01*
X98877047Y-123497571D01*
X98829428Y-123402333D01*
X98734190Y-123354714D01*
X98543714Y-123354714D01*
X98448476Y-123402333D01*
X98400857Y-123497571D01*
X98400857Y-123592809D01*
X98877047Y-123688047D01*
X97972285Y-124021380D02*
X97972285Y-123354714D01*
X97972285Y-123021380D02*
X98019904Y-123069000D01*
X97972285Y-123116619D01*
X97924666Y-123069000D01*
X97972285Y-123021380D01*
X97972285Y-123116619D01*
X97496095Y-124021380D02*
X97496095Y-123354714D01*
X97496095Y-123545190D02*
X97448476Y-123449952D01*
X97400857Y-123402333D01*
X97305619Y-123354714D01*
X97210380Y-123354714D01*
X96734190Y-124021380D02*
X96829428Y-123973761D01*
X96877047Y-123926142D01*
X96924666Y-123830904D01*
X96924666Y-123545190D01*
X96877047Y-123449952D01*
X96829428Y-123402333D01*
X96734190Y-123354714D01*
X96591333Y-123354714D01*
X96496095Y-123402333D01*
X96448476Y-123449952D01*
X96400857Y-123545190D01*
X96400857Y-123830904D01*
X96448476Y-123926142D01*
X96496095Y-123973761D01*
X96591333Y-124021380D01*
X96734190Y-124021380D01*
X95258000Y-123735666D02*
X94781809Y-123735666D01*
X95353238Y-124021380D02*
X95019904Y-123021380D01*
X94686571Y-124021380D01*
X94210380Y-124021380D02*
X94305619Y-123973761D01*
X94353238Y-123878523D01*
X94353238Y-123021380D01*
X93448476Y-123973761D02*
X93543714Y-124021380D01*
X93734190Y-124021380D01*
X93829428Y-123973761D01*
X93877047Y-123878523D01*
X93877047Y-123497571D01*
X93829428Y-123402333D01*
X93734190Y-123354714D01*
X93543714Y-123354714D01*
X93448476Y-123402333D01*
X93400857Y-123497571D01*
X93400857Y-123592809D01*
X93877047Y-123688047D01*
X93067523Y-124021380D02*
X92543714Y-123354714D01*
X93067523Y-123354714D02*
X92543714Y-124021380D01*
X92162761Y-124021380D02*
X92162761Y-123354714D01*
X92162761Y-123021380D02*
X92210380Y-123069000D01*
X92162761Y-123116619D01*
X92115142Y-123069000D01*
X92162761Y-123021380D01*
X92162761Y-123116619D01*
X91734190Y-123973761D02*
X91638952Y-124021380D01*
X91448476Y-124021380D01*
X91353238Y-123973761D01*
X91305619Y-123878523D01*
X91305619Y-123830904D01*
X91353238Y-123735666D01*
X91448476Y-123688047D01*
X91591333Y-123688047D01*
X91686571Y-123640428D01*
X91734190Y-123545190D01*
X91734190Y-123497571D01*
X91686571Y-123402333D01*
X91591333Y-123354714D01*
X91448476Y-123354714D01*
X91353238Y-123402333D01*
D11*
G36*
X104870565Y-115492893D02*
G01*
X105074857Y-115804205D01*
X105310574Y-116105358D01*
X105573122Y-116390607D01*
X105642661Y-116459000D01*
X105969056Y-116748624D01*
X106321171Y-117013547D01*
X106697496Y-117253049D01*
X107096518Y-117466407D01*
X107516725Y-117652901D01*
X107956605Y-117811809D01*
X108414644Y-117942409D01*
X108889332Y-118043980D01*
X109007196Y-118064224D01*
X109231653Y-118099219D01*
X109428127Y-118125681D01*
X109603791Y-118144067D01*
X109765817Y-118154831D01*
X109921380Y-118158427D01*
X110077650Y-118155311D01*
X110241802Y-118145936D01*
X110266843Y-118144072D01*
X110618765Y-118104268D01*
X110963944Y-118039892D01*
X111297709Y-117952447D01*
X111615392Y-117843436D01*
X111912321Y-117714365D01*
X112183827Y-117566735D01*
X112307914Y-117486890D01*
X112394813Y-117421097D01*
X112494983Y-117334665D01*
X112601139Y-117234895D01*
X112705999Y-117129088D01*
X112802277Y-117024544D01*
X112882690Y-116928565D01*
X112931095Y-116862263D01*
X113073173Y-116617364D01*
X113189085Y-116354376D01*
X113275202Y-116082384D01*
X113313522Y-115904834D01*
X113331382Y-115797365D01*
X113340954Y-115724100D01*
X113341802Y-115683814D01*
X113333490Y-115675285D01*
X113315583Y-115697291D01*
X113287647Y-115748607D01*
X113270391Y-115783617D01*
X113128036Y-116037065D01*
X112957098Y-116269021D01*
X112759026Y-116478355D01*
X112535271Y-116663936D01*
X112287285Y-116824634D01*
X112016517Y-116959317D01*
X111724418Y-117066855D01*
X111567323Y-117110979D01*
X111339010Y-117157401D01*
X111083986Y-117188998D01*
X110808661Y-117205776D01*
X110519441Y-117207737D01*
X110222736Y-117194886D01*
X109924953Y-117167226D01*
X109632500Y-117124761D01*
X109550200Y-117109791D01*
X109136558Y-117016773D01*
X108747921Y-116900311D01*
X108384919Y-116760768D01*
X108048183Y-116598503D01*
X107738343Y-116413877D01*
X107456029Y-116207251D01*
X107201872Y-115978987D01*
X106976503Y-115729445D01*
X106852397Y-115565464D01*
X106753179Y-115424857D01*
X104830098Y-115424857D01*
X104870565Y-115492893D01*
G37*
X104870565Y-115492893D02*
X105074857Y-115804205D01*
X105310574Y-116105358D01*
X105573122Y-116390607D01*
X105642661Y-116459000D01*
X105969056Y-116748624D01*
X106321171Y-117013547D01*
X106697496Y-117253049D01*
X107096518Y-117466407D01*
X107516725Y-117652901D01*
X107956605Y-117811809D01*
X108414644Y-117942409D01*
X108889332Y-118043980D01*
X109007196Y-118064224D01*
X109231653Y-118099219D01*
X109428127Y-118125681D01*
X109603791Y-118144067D01*
X109765817Y-118154831D01*
X109921380Y-118158427D01*
X110077650Y-118155311D01*
X110241802Y-118145936D01*
X110266843Y-118144072D01*
X110618765Y-118104268D01*
X110963944Y-118039892D01*
X111297709Y-117952447D01*
X111615392Y-117843436D01*
X111912321Y-117714365D01*
X112183827Y-117566735D01*
X112307914Y-117486890D01*
X112394813Y-117421097D01*
X112494983Y-117334665D01*
X112601139Y-117234895D01*
X112705999Y-117129088D01*
X112802277Y-117024544D01*
X112882690Y-116928565D01*
X112931095Y-116862263D01*
X113073173Y-116617364D01*
X113189085Y-116354376D01*
X113275202Y-116082384D01*
X113313522Y-115904834D01*
X113331382Y-115797365D01*
X113340954Y-115724100D01*
X113341802Y-115683814D01*
X113333490Y-115675285D01*
X113315583Y-115697291D01*
X113287647Y-115748607D01*
X113270391Y-115783617D01*
X113128036Y-116037065D01*
X112957098Y-116269021D01*
X112759026Y-116478355D01*
X112535271Y-116663936D01*
X112287285Y-116824634D01*
X112016517Y-116959317D01*
X111724418Y-117066855D01*
X111567323Y-117110979D01*
X111339010Y-117157401D01*
X111083986Y-117188998D01*
X110808661Y-117205776D01*
X110519441Y-117207737D01*
X110222736Y-117194886D01*
X109924953Y-117167226D01*
X109632500Y-117124761D01*
X109550200Y-117109791D01*
X109136558Y-117016773D01*
X108747921Y-116900311D01*
X108384919Y-116760768D01*
X108048183Y-116598503D01*
X107738343Y-116413877D01*
X107456029Y-116207251D01*
X107201872Y-115978987D01*
X106976503Y-115729445D01*
X106852397Y-115565464D01*
X106753179Y-115424857D01*
X104830098Y-115424857D01*
X104870565Y-115492893D01*
G36*
X113342057Y-115615357D02*
G01*
X113351129Y-115624429D01*
X113360200Y-115615357D01*
X113351129Y-115606286D01*
X113342057Y-115615357D01*
G37*
X113342057Y-115615357D02*
X113351129Y-115624429D01*
X113360200Y-115615357D01*
X113351129Y-115606286D01*
X113342057Y-115615357D01*
G36*
X109189342Y-113054435D02*
G01*
X109028796Y-113074471D01*
X108884380Y-113109990D01*
X108747037Y-113162733D01*
X108724700Y-113173082D01*
X108574685Y-113261560D01*
X108454366Y-113370871D01*
X108363525Y-113501306D01*
X108301948Y-113653158D01*
X108275054Y-113779760D01*
X108269836Y-113937679D01*
X108296291Y-114102535D01*
X108352312Y-114268010D01*
X108435794Y-114427789D01*
X108537754Y-114567534D01*
X108687892Y-114720769D01*
X108851689Y-114844399D01*
X109026044Y-114936927D01*
X109207855Y-114996857D01*
X109394021Y-115022692D01*
X109480779Y-115022692D01*
X109556598Y-115017573D01*
X109606745Y-115008512D01*
X109641815Y-114992654D01*
X109666743Y-114972587D01*
X109698148Y-114937673D01*
X109713249Y-114910250D01*
X109713486Y-114907938D01*
X109728246Y-114905538D01*
X109767619Y-114917832D01*
X109824243Y-114942361D01*
X109841381Y-114950686D01*
X109971532Y-115000262D01*
X110104847Y-115023909D01*
X110234921Y-115022283D01*
X110355350Y-114996039D01*
X110459731Y-114945833D01*
X110535634Y-114879569D01*
X110600998Y-114776411D01*
X110633382Y-114658323D01*
X110632796Y-114526786D01*
X110234084Y-114526786D01*
X110232999Y-114618270D01*
X110213679Y-114684285D01*
X110172713Y-114732477D01*
X110130519Y-114759092D01*
X110045885Y-114782743D01*
X109947939Y-114774061D01*
X109839235Y-114733344D01*
X109818440Y-114722482D01*
X109723314Y-114653531D01*
X109633242Y-114556887D01*
X109553234Y-114441144D01*
X109488301Y-114314895D01*
X109443454Y-114186732D01*
X109423703Y-114065250D01*
X109423200Y-114044639D01*
X109426491Y-113984151D01*
X109441150Y-113942066D01*
X109474354Y-113900743D01*
X109486981Y-113887876D01*
X109523449Y-113853470D01*
X109553949Y-113835109D01*
X109591445Y-113828756D01*
X109648903Y-113830376D01*
X109667912Y-113831554D01*
X109739179Y-113839152D01*
X109794867Y-113855175D01*
X109851829Y-113885637D01*
X109889880Y-113910774D01*
X109993478Y-114000895D01*
X110084966Y-114117251D01*
X110159094Y-114250447D01*
X110210612Y-114391085D01*
X110234084Y-114526786D01*
X110632796Y-114526786D01*
X110632790Y-114525501D01*
X110599226Y-114378141D01*
X110532694Y-114216436D01*
X110522297Y-114195689D01*
X110413216Y-114019912D01*
X110278644Y-113868355D01*
X110121199Y-113743603D01*
X109987233Y-113668010D01*
X109905153Y-113632031D01*
X109834524Y-113610785D01*
X109756784Y-113599566D01*
X109702550Y-113595875D01*
X109593331Y-113592808D01*
X109511148Y-113598217D01*
X109447313Y-113614232D01*
X109393134Y-113642983D01*
X109342611Y-113684109D01*
X109265279Y-113755391D01*
X109199975Y-113610571D01*
X108805856Y-113610571D01*
X108830645Y-113669536D01*
X108844172Y-113701044D01*
X108870164Y-113760985D01*
X108906529Y-113844556D01*
X108951173Y-113946953D01*
X109002004Y-114063372D01*
X109056929Y-114189009D01*
X109068265Y-114214921D01*
X109122104Y-114339589D01*
X109170256Y-114454217D01*
X109210985Y-114554419D01*
X109242554Y-114635804D01*
X109263227Y-114693984D01*
X109271266Y-114724571D01*
X109271074Y-114727457D01*
X109244728Y-114749763D01*
X109193987Y-114749431D01*
X109122387Y-114726989D01*
X109056261Y-114695503D01*
X108907166Y-114598276D01*
X108779527Y-114479022D01*
X108676474Y-114342500D01*
X108601138Y-114193467D01*
X108556648Y-114036682D01*
X108545431Y-113919000D01*
X108546923Y-113837767D01*
X108556212Y-113776038D01*
X108576642Y-113717305D01*
X108593703Y-113680576D01*
X108673619Y-113557456D01*
X108781211Y-113456866D01*
X108915331Y-113379296D01*
X109074826Y-113325238D01*
X109258549Y-113295184D01*
X109465347Y-113289625D01*
X109504843Y-113291259D01*
X109749702Y-113317812D01*
X109971752Y-113371588D01*
X110172825Y-113453172D01*
X110354753Y-113563150D01*
X110354769Y-113563162D01*
X110511283Y-113696375D01*
X110648182Y-113854470D01*
X110761517Y-114031088D01*
X110847336Y-114219867D01*
X110901690Y-114414448D01*
X110908675Y-114455042D01*
X110917203Y-114619070D01*
X110892961Y-114774328D01*
X110837922Y-114916893D01*
X110754058Y-115042845D01*
X110643343Y-115148262D01*
X110522660Y-115222199D01*
X110435797Y-115261616D01*
X110354078Y-115291667D01*
X110270497Y-115313504D01*
X110178045Y-115328282D01*
X110069717Y-115337151D01*
X109938504Y-115341264D01*
X109795129Y-115341853D01*
X109664391Y-115340887D01*
X109562918Y-115338719D01*
X109483692Y-115334781D01*
X109419698Y-115328505D01*
X109363919Y-115319324D01*
X109309339Y-115306670D01*
X109287128Y-115300743D01*
X109136780Y-115251263D01*
X108991669Y-115188153D01*
X108863796Y-115117023D01*
X108801650Y-115073837D01*
X108757690Y-115041492D01*
X108721747Y-115021865D01*
X108682315Y-115011785D01*
X108627885Y-115008079D01*
X108561257Y-115007572D01*
X108491608Y-115009244D01*
X108438353Y-115013706D01*
X108409825Y-115020126D01*
X108407200Y-115022953D01*
X108420193Y-115043988D01*
X108454740Y-115081701D01*
X108504198Y-115129936D01*
X108561921Y-115182537D01*
X108621263Y-115233348D01*
X108675580Y-115276214D01*
X108697486Y-115291867D01*
X108886457Y-115400927D01*
X109100490Y-115488950D01*
X109333486Y-115553495D01*
X109369290Y-115560921D01*
X109460813Y-115574565D01*
X109578006Y-115585401D01*
X109710336Y-115593079D01*
X109847270Y-115597249D01*
X109978276Y-115597561D01*
X110092821Y-115593665D01*
X110164877Y-115587366D01*
X110376395Y-115549580D01*
X110568811Y-115492644D01*
X110737927Y-115418236D01*
X110879547Y-115328034D01*
X110938112Y-115278126D01*
X111043741Y-115154112D01*
X111121256Y-115010945D01*
X111170866Y-114852148D01*
X111192782Y-114681246D01*
X111187214Y-114501763D01*
X111154375Y-114317224D01*
X111094473Y-114131151D01*
X111007720Y-113947071D01*
X110894327Y-113768506D01*
X110843904Y-113702341D01*
X110677554Y-113522895D01*
X110488407Y-113370971D01*
X110278169Y-113247329D01*
X110048546Y-113152730D01*
X109801245Y-113087933D01*
X109537973Y-113053698D01*
X109375074Y-113048143D01*
X109189342Y-113054435D01*
G37*
X109189342Y-113054435D02*
X109028796Y-113074471D01*
X108884380Y-113109990D01*
X108747037Y-113162733D01*
X108724700Y-113173082D01*
X108574685Y-113261560D01*
X108454366Y-113370871D01*
X108363525Y-113501306D01*
X108301948Y-113653158D01*
X108275054Y-113779760D01*
X108269836Y-113937679D01*
X108296291Y-114102535D01*
X108352312Y-114268010D01*
X108435794Y-114427789D01*
X108537754Y-114567534D01*
X108687892Y-114720769D01*
X108851689Y-114844399D01*
X109026044Y-114936927D01*
X109207855Y-114996857D01*
X109394021Y-115022692D01*
X109480779Y-115022692D01*
X109556598Y-115017573D01*
X109606745Y-115008512D01*
X109641815Y-114992654D01*
X109666743Y-114972587D01*
X109698148Y-114937673D01*
X109713249Y-114910250D01*
X109713486Y-114907938D01*
X109728246Y-114905538D01*
X109767619Y-114917832D01*
X109824243Y-114942361D01*
X109841381Y-114950686D01*
X109971532Y-115000262D01*
X110104847Y-115023909D01*
X110234921Y-115022283D01*
X110355350Y-114996039D01*
X110459731Y-114945833D01*
X110535634Y-114879569D01*
X110600998Y-114776411D01*
X110633382Y-114658323D01*
X110632796Y-114526786D01*
X110234084Y-114526786D01*
X110232999Y-114618270D01*
X110213679Y-114684285D01*
X110172713Y-114732477D01*
X110130519Y-114759092D01*
X110045885Y-114782743D01*
X109947939Y-114774061D01*
X109839235Y-114733344D01*
X109818440Y-114722482D01*
X109723314Y-114653531D01*
X109633242Y-114556887D01*
X109553234Y-114441144D01*
X109488301Y-114314895D01*
X109443454Y-114186732D01*
X109423703Y-114065250D01*
X109423200Y-114044639D01*
X109426491Y-113984151D01*
X109441150Y-113942066D01*
X109474354Y-113900743D01*
X109486981Y-113887876D01*
X109523449Y-113853470D01*
X109553949Y-113835109D01*
X109591445Y-113828756D01*
X109648903Y-113830376D01*
X109667912Y-113831554D01*
X109739179Y-113839152D01*
X109794867Y-113855175D01*
X109851829Y-113885637D01*
X109889880Y-113910774D01*
X109993478Y-114000895D01*
X110084966Y-114117251D01*
X110159094Y-114250447D01*
X110210612Y-114391085D01*
X110234084Y-114526786D01*
X110632796Y-114526786D01*
X110632790Y-114525501D01*
X110599226Y-114378141D01*
X110532694Y-114216436D01*
X110522297Y-114195689D01*
X110413216Y-114019912D01*
X110278644Y-113868355D01*
X110121199Y-113743603D01*
X109987233Y-113668010D01*
X109905153Y-113632031D01*
X109834524Y-113610785D01*
X109756784Y-113599566D01*
X109702550Y-113595875D01*
X109593331Y-113592808D01*
X109511148Y-113598217D01*
X109447313Y-113614232D01*
X109393134Y-113642983D01*
X109342611Y-113684109D01*
X109265279Y-113755391D01*
X109199975Y-113610571D01*
X108805856Y-113610571D01*
X108830645Y-113669536D01*
X108844172Y-113701044D01*
X108870164Y-113760985D01*
X108906529Y-113844556D01*
X108951173Y-113946953D01*
X109002004Y-114063372D01*
X109056929Y-114189009D01*
X109068265Y-114214921D01*
X109122104Y-114339589D01*
X109170256Y-114454217D01*
X109210985Y-114554419D01*
X109242554Y-114635804D01*
X109263227Y-114693984D01*
X109271266Y-114724571D01*
X109271074Y-114727457D01*
X109244728Y-114749763D01*
X109193987Y-114749431D01*
X109122387Y-114726989D01*
X109056261Y-114695503D01*
X108907166Y-114598276D01*
X108779527Y-114479022D01*
X108676474Y-114342500D01*
X108601138Y-114193467D01*
X108556648Y-114036682D01*
X108545431Y-113919000D01*
X108546923Y-113837767D01*
X108556212Y-113776038D01*
X108576642Y-113717305D01*
X108593703Y-113680576D01*
X108673619Y-113557456D01*
X108781211Y-113456866D01*
X108915331Y-113379296D01*
X109074826Y-113325238D01*
X109258549Y-113295184D01*
X109465347Y-113289625D01*
X109504843Y-113291259D01*
X109749702Y-113317812D01*
X109971752Y-113371588D01*
X110172825Y-113453172D01*
X110354753Y-113563150D01*
X110354769Y-113563162D01*
X110511283Y-113696375D01*
X110648182Y-113854470D01*
X110761517Y-114031088D01*
X110847336Y-114219867D01*
X110901690Y-114414448D01*
X110908675Y-114455042D01*
X110917203Y-114619070D01*
X110892961Y-114774328D01*
X110837922Y-114916893D01*
X110754058Y-115042845D01*
X110643343Y-115148262D01*
X110522660Y-115222199D01*
X110435797Y-115261616D01*
X110354078Y-115291667D01*
X110270497Y-115313504D01*
X110178045Y-115328282D01*
X110069717Y-115337151D01*
X109938504Y-115341264D01*
X109795129Y-115341853D01*
X109664391Y-115340887D01*
X109562918Y-115338719D01*
X109483692Y-115334781D01*
X109419698Y-115328505D01*
X109363919Y-115319324D01*
X109309339Y-115306670D01*
X109287128Y-115300743D01*
X109136780Y-115251263D01*
X108991669Y-115188153D01*
X108863796Y-115117023D01*
X108801650Y-115073837D01*
X108757690Y-115041492D01*
X108721747Y-115021865D01*
X108682315Y-115011785D01*
X108627885Y-115008079D01*
X108561257Y-115007572D01*
X108491608Y-115009244D01*
X108438353Y-115013706D01*
X108409825Y-115020126D01*
X108407200Y-115022953D01*
X108420193Y-115043988D01*
X108454740Y-115081701D01*
X108504198Y-115129936D01*
X108561921Y-115182537D01*
X108621263Y-115233348D01*
X108675580Y-115276214D01*
X108697486Y-115291867D01*
X108886457Y-115400927D01*
X109100490Y-115488950D01*
X109333486Y-115553495D01*
X109369290Y-115560921D01*
X109460813Y-115574565D01*
X109578006Y-115585401D01*
X109710336Y-115593079D01*
X109847270Y-115597249D01*
X109978276Y-115597561D01*
X110092821Y-115593665D01*
X110164877Y-115587366D01*
X110376395Y-115549580D01*
X110568811Y-115492644D01*
X110737927Y-115418236D01*
X110879547Y-115328034D01*
X110938112Y-115278126D01*
X111043741Y-115154112D01*
X111121256Y-115010945D01*
X111170866Y-114852148D01*
X111192782Y-114681246D01*
X111187214Y-114501763D01*
X111154375Y-114317224D01*
X111094473Y-114131151D01*
X111007720Y-113947071D01*
X110894327Y-113768506D01*
X110843904Y-113702341D01*
X110677554Y-113522895D01*
X110488407Y-113370971D01*
X110278169Y-113247329D01*
X110048546Y-113152730D01*
X109801245Y-113087933D01*
X109537973Y-113053698D01*
X109375074Y-113048143D01*
X109189342Y-113054435D01*
G36*
X111082108Y-112801392D02*
G01*
X111083312Y-112828185D01*
X111091345Y-112887250D01*
X111105624Y-112975335D01*
X111125568Y-113089191D01*
X111150595Y-113225567D01*
X111180126Y-113381214D01*
X111213578Y-113552882D01*
X111242545Y-113698434D01*
X111286678Y-113917236D01*
X111325038Y-114103746D01*
X111358752Y-114261295D01*
X111388945Y-114393215D01*
X111416745Y-114502837D01*
X111443277Y-114593494D01*
X111469667Y-114668516D01*
X111497043Y-114731236D01*
X111526531Y-114784984D01*
X111559256Y-114833093D01*
X111596345Y-114878894D01*
X111638924Y-114925718D01*
X111667594Y-114955710D01*
X111806775Y-115074315D01*
X111966220Y-115164790D01*
X112141835Y-115225903D01*
X112329528Y-115256420D01*
X112525206Y-115255109D01*
X112620636Y-115242833D01*
X112779792Y-115202043D01*
X112921887Y-115137574D01*
X113040723Y-115052616D01*
X113092392Y-115000097D01*
X113132268Y-114947729D01*
X113168663Y-114889738D01*
X113196297Y-114835874D01*
X113209889Y-114795885D01*
X113209607Y-114783680D01*
X113191168Y-114766336D01*
X113147058Y-114735521D01*
X113083409Y-114695233D01*
X113006351Y-114649474D01*
X112985978Y-114637800D01*
X112892621Y-114585592D01*
X112824438Y-114551391D01*
X112775440Y-114534613D01*
X112739638Y-114534676D01*
X112711043Y-114550996D01*
X112683667Y-114582990D01*
X112667159Y-114606760D01*
X112604678Y-114681442D01*
X112533775Y-114726307D01*
X112443549Y-114747656D01*
X112419602Y-114749854D01*
X112303186Y-114743843D01*
X112204093Y-114708939D01*
X112126014Y-114646712D01*
X112101523Y-114614568D01*
X112084728Y-114586503D01*
X112068682Y-114553306D01*
X112052647Y-114511931D01*
X112035884Y-114459331D01*
X112017655Y-114392459D01*
X111997222Y-114308269D01*
X111973845Y-114203715D01*
X111946785Y-114075749D01*
X111915306Y-113921325D01*
X111878667Y-113737397D01*
X111836130Y-113520917D01*
X111835036Y-113515321D01*
X111686881Y-112757857D01*
X111093034Y-112757857D01*
X111082108Y-112801392D01*
G37*
X111082108Y-112801392D02*
X111083312Y-112828185D01*
X111091345Y-112887250D01*
X111105624Y-112975335D01*
X111125568Y-113089191D01*
X111150595Y-113225567D01*
X111180126Y-113381214D01*
X111213578Y-113552882D01*
X111242545Y-113698434D01*
X111286678Y-113917236D01*
X111325038Y-114103746D01*
X111358752Y-114261295D01*
X111388945Y-114393215D01*
X111416745Y-114502837D01*
X111443277Y-114593494D01*
X111469667Y-114668516D01*
X111497043Y-114731236D01*
X111526531Y-114784984D01*
X111559256Y-114833093D01*
X111596345Y-114878894D01*
X111638924Y-114925718D01*
X111667594Y-114955710D01*
X111806775Y-115074315D01*
X111966220Y-115164790D01*
X112141835Y-115225903D01*
X112329528Y-115256420D01*
X112525206Y-115255109D01*
X112620636Y-115242833D01*
X112779792Y-115202043D01*
X112921887Y-115137574D01*
X113040723Y-115052616D01*
X113092392Y-115000097D01*
X113132268Y-114947729D01*
X113168663Y-114889738D01*
X113196297Y-114835874D01*
X113209889Y-114795885D01*
X113209607Y-114783680D01*
X113191168Y-114766336D01*
X113147058Y-114735521D01*
X113083409Y-114695233D01*
X113006351Y-114649474D01*
X112985978Y-114637800D01*
X112892621Y-114585592D01*
X112824438Y-114551391D01*
X112775440Y-114534613D01*
X112739638Y-114534676D01*
X112711043Y-114550996D01*
X112683667Y-114582990D01*
X112667159Y-114606760D01*
X112604678Y-114681442D01*
X112533775Y-114726307D01*
X112443549Y-114747656D01*
X112419602Y-114749854D01*
X112303186Y-114743843D01*
X112204093Y-114708939D01*
X112126014Y-114646712D01*
X112101523Y-114614568D01*
X112084728Y-114586503D01*
X112068682Y-114553306D01*
X112052647Y-114511931D01*
X112035884Y-114459331D01*
X112017655Y-114392459D01*
X111997222Y-114308269D01*
X111973845Y-114203715D01*
X111946785Y-114075749D01*
X111915306Y-113921325D01*
X111878667Y-113737397D01*
X111836130Y-113520917D01*
X111835036Y-113515321D01*
X111686881Y-112757857D01*
X111093034Y-112757857D01*
X111082108Y-112801392D01*
G36*
X104376119Y-112718379D02*
G01*
X104295749Y-112724895D01*
X104224772Y-112737878D01*
X104149795Y-112759139D01*
X104139203Y-112762557D01*
X103975017Y-112830062D01*
X103837498Y-112917794D01*
X103756449Y-112990667D01*
X103686770Y-113062111D01*
X104092368Y-113422063D01*
X104158056Y-113361896D01*
X104239517Y-113296622D01*
X104321192Y-113253842D01*
X104413711Y-113229823D01*
X104527706Y-113220836D01*
X104560914Y-113220500D01*
X104646623Y-113221701D01*
X104708835Y-113226955D01*
X104760304Y-113238743D01*
X104813784Y-113259544D01*
X104851200Y-113276931D01*
X104927142Y-113318681D01*
X105004073Y-113369531D01*
X105054335Y-113409153D01*
X105156303Y-113518695D01*
X105241736Y-113648003D01*
X105309336Y-113791106D01*
X105357804Y-113942034D01*
X105385844Y-114094818D01*
X105392157Y-114243487D01*
X105375446Y-114382073D01*
X105334412Y-114504606D01*
X105304151Y-114558316D01*
X105226778Y-114643767D01*
X105127087Y-114704878D01*
X105009912Y-114741378D01*
X104880091Y-114752994D01*
X104742458Y-114739455D01*
X104601850Y-114700489D01*
X104463102Y-114635824D01*
X104417496Y-114608121D01*
X104358169Y-114572895D01*
X104307601Y-114548444D01*
X104275646Y-114539447D01*
X104273341Y-114539662D01*
X104250982Y-114555722D01*
X104212879Y-114594932D01*
X104164662Y-114651123D01*
X104119652Y-114707997D01*
X103995422Y-114870659D01*
X104046847Y-114913573D01*
X104210601Y-115030665D01*
X104392282Y-115126059D01*
X104584863Y-115197597D01*
X104781322Y-115243119D01*
X104974633Y-115260467D01*
X105141486Y-115250008D01*
X105346972Y-115205517D01*
X105528072Y-115136074D01*
X105683752Y-115042526D01*
X105812977Y-114925719D01*
X105914713Y-114786501D01*
X105987925Y-114625717D01*
X106013907Y-114535857D01*
X106030646Y-114425803D01*
X106035715Y-114293718D01*
X106029480Y-114151803D01*
X106012303Y-114012258D01*
X105995849Y-113930303D01*
X105923803Y-113700995D01*
X105822726Y-113490638D01*
X105695118Y-113301233D01*
X105543479Y-113134781D01*
X105370308Y-112993280D01*
X105178104Y-112878732D01*
X104969366Y-112793138D01*
X104746594Y-112738496D01*
X104512287Y-112716809D01*
X104479271Y-112716515D01*
X104376119Y-112718379D01*
G37*
X104376119Y-112718379D02*
X104295749Y-112724895D01*
X104224772Y-112737878D01*
X104149795Y-112759139D01*
X104139203Y-112762557D01*
X103975017Y-112830062D01*
X103837498Y-112917794D01*
X103756449Y-112990667D01*
X103686770Y-113062111D01*
X104092368Y-113422063D01*
X104158056Y-113361896D01*
X104239517Y-113296622D01*
X104321192Y-113253842D01*
X104413711Y-113229823D01*
X104527706Y-113220836D01*
X104560914Y-113220500D01*
X104646623Y-113221701D01*
X104708835Y-113226955D01*
X104760304Y-113238743D01*
X104813784Y-113259544D01*
X104851200Y-113276931D01*
X104927142Y-113318681D01*
X105004073Y-113369531D01*
X105054335Y-113409153D01*
X105156303Y-113518695D01*
X105241736Y-113648003D01*
X105309336Y-113791106D01*
X105357804Y-113942034D01*
X105385844Y-114094818D01*
X105392157Y-114243487D01*
X105375446Y-114382073D01*
X105334412Y-114504606D01*
X105304151Y-114558316D01*
X105226778Y-114643767D01*
X105127087Y-114704878D01*
X105009912Y-114741378D01*
X104880091Y-114752994D01*
X104742458Y-114739455D01*
X104601850Y-114700489D01*
X104463102Y-114635824D01*
X104417496Y-114608121D01*
X104358169Y-114572895D01*
X104307601Y-114548444D01*
X104275646Y-114539447D01*
X104273341Y-114539662D01*
X104250982Y-114555722D01*
X104212879Y-114594932D01*
X104164662Y-114651123D01*
X104119652Y-114707997D01*
X103995422Y-114870659D01*
X104046847Y-114913573D01*
X104210601Y-115030665D01*
X104392282Y-115126059D01*
X104584863Y-115197597D01*
X104781322Y-115243119D01*
X104974633Y-115260467D01*
X105141486Y-115250008D01*
X105346972Y-115205517D01*
X105528072Y-115136074D01*
X105683752Y-115042526D01*
X105812977Y-114925719D01*
X105914713Y-114786501D01*
X105987925Y-114625717D01*
X106013907Y-114535857D01*
X106030646Y-114425803D01*
X106035715Y-114293718D01*
X106029480Y-114151803D01*
X106012303Y-114012258D01*
X105995849Y-113930303D01*
X105923803Y-113700995D01*
X105822726Y-113490638D01*
X105695118Y-113301233D01*
X105543479Y-113134781D01*
X105370308Y-112993280D01*
X105178104Y-112878732D01*
X104969366Y-112793138D01*
X104746594Y-112738496D01*
X104512287Y-112716809D01*
X104479271Y-112716515D01*
X104376119Y-112718379D01*
G36*
X107233967Y-112758012D02*
G01*
X107155029Y-112758951D01*
X107101656Y-112761388D01*
X107068487Y-112766036D01*
X107050161Y-112773608D01*
X107041317Y-112784818D01*
X107037017Y-112798679D01*
X107038501Y-112823981D01*
X107046568Y-112881333D01*
X107060588Y-112967223D01*
X107079933Y-113078141D01*
X107103971Y-113210575D01*
X107132073Y-113361012D01*
X107163610Y-113525943D01*
X107197951Y-113701854D01*
X107209029Y-113757868D01*
X107244229Y-113935706D01*
X107277190Y-114102981D01*
X107307249Y-114256278D01*
X107333743Y-114392181D01*
X107356011Y-114507276D01*
X107373389Y-114598146D01*
X107385215Y-114661376D01*
X107390825Y-114693553D01*
X107391200Y-114696760D01*
X107379308Y-114703346D01*
X107342181Y-114708547D01*
X107277641Y-114712453D01*
X107183510Y-114715152D01*
X107057612Y-114716733D01*
X106897767Y-114717284D01*
X106885421Y-114717286D01*
X106734309Y-114717508D01*
X106615456Y-114718322D01*
X106524838Y-114719943D01*
X106458431Y-114722592D01*
X106412211Y-114726484D01*
X106382152Y-114731839D01*
X106364231Y-114738875D01*
X106355838Y-114745969D01*
X106345624Y-114769638D01*
X106343086Y-114809997D01*
X106348669Y-114871328D01*
X106362820Y-114957910D01*
X106385986Y-115074026D01*
X106394038Y-115111893D01*
X106414492Y-115207143D01*
X107245339Y-115207143D01*
X107445864Y-115206982D01*
X107613020Y-115206442D01*
X107749724Y-115205436D01*
X107858890Y-115203878D01*
X107943436Y-115201682D01*
X108006276Y-115198761D01*
X108050327Y-115195029D01*
X108078504Y-115190399D01*
X108093723Y-115184786D01*
X108097117Y-115181922D01*
X108099894Y-115168913D01*
X108098713Y-115139696D01*
X108093211Y-115092231D01*
X108083023Y-115024478D01*
X108067788Y-114934398D01*
X108047142Y-114819948D01*
X108020723Y-114679090D01*
X107988167Y-114509783D01*
X107949112Y-114309986D01*
X107903194Y-114077660D01*
X107879265Y-113957279D01*
X107640482Y-112757857D01*
X107343829Y-112757857D01*
X107233967Y-112758012D01*
G37*
X107233967Y-112758012D02*
X107155029Y-112758951D01*
X107101656Y-112761388D01*
X107068487Y-112766036D01*
X107050161Y-112773608D01*
X107041317Y-112784818D01*
X107037017Y-112798679D01*
X107038501Y-112823981D01*
X107046568Y-112881333D01*
X107060588Y-112967223D01*
X107079933Y-113078141D01*
X107103971Y-113210575D01*
X107132073Y-113361012D01*
X107163610Y-113525943D01*
X107197951Y-113701854D01*
X107209029Y-113757868D01*
X107244229Y-113935706D01*
X107277190Y-114102981D01*
X107307249Y-114256278D01*
X107333743Y-114392181D01*
X107356011Y-114507276D01*
X107373389Y-114598146D01*
X107385215Y-114661376D01*
X107390825Y-114693553D01*
X107391200Y-114696760D01*
X107379308Y-114703346D01*
X107342181Y-114708547D01*
X107277641Y-114712453D01*
X107183510Y-114715152D01*
X107057612Y-114716733D01*
X106897767Y-114717284D01*
X106885421Y-114717286D01*
X106734309Y-114717508D01*
X106615456Y-114718322D01*
X106524838Y-114719943D01*
X106458431Y-114722592D01*
X106412211Y-114726484D01*
X106382152Y-114731839D01*
X106364231Y-114738875D01*
X106355838Y-114745969D01*
X106345624Y-114769638D01*
X106343086Y-114809997D01*
X106348669Y-114871328D01*
X106362820Y-114957910D01*
X106385986Y-115074026D01*
X106394038Y-115111893D01*
X106414492Y-115207143D01*
X107245339Y-115207143D01*
X107445864Y-115206982D01*
X107613020Y-115206442D01*
X107749724Y-115205436D01*
X107858890Y-115203878D01*
X107943436Y-115201682D01*
X108006276Y-115198761D01*
X108050327Y-115195029D01*
X108078504Y-115190399D01*
X108093723Y-115184786D01*
X108097117Y-115181922D01*
X108099894Y-115168913D01*
X108098713Y-115139696D01*
X108093211Y-115092231D01*
X108083023Y-115024478D01*
X108067788Y-114934398D01*
X108047142Y-114819948D01*
X108020723Y-114679090D01*
X107988167Y-114509783D01*
X107949112Y-114309986D01*
X107903194Y-114077660D01*
X107879265Y-113957279D01*
X107640482Y-112757857D01*
X107343829Y-112757857D01*
X107233967Y-112758012D01*
G36*
X107469469Y-111012285D02*
G01*
X107298359Y-111020513D01*
X107149903Y-111033484D01*
X107092750Y-111040898D01*
X106746880Y-111107335D01*
X106413456Y-111202174D01*
X106095078Y-111323908D01*
X105794342Y-111471028D01*
X105513847Y-111642025D01*
X105256191Y-111835392D01*
X105023972Y-112049619D01*
X104819787Y-112283199D01*
X104721530Y-112417679D01*
X104650276Y-112522000D01*
X105617060Y-112521425D01*
X106583843Y-112520851D01*
X106661557Y-112405524D01*
X106805903Y-112222389D01*
X106980135Y-112054990D01*
X107180180Y-111906281D01*
X107401963Y-111779216D01*
X107641411Y-111676750D01*
X107689821Y-111659885D01*
X107955506Y-111587303D01*
X108245424Y-111539116D01*
X108557132Y-111515119D01*
X108888190Y-111515109D01*
X109236153Y-111538882D01*
X109598579Y-111586235D01*
X109973027Y-111656963D01*
X110357054Y-111750863D01*
X110748217Y-111867731D01*
X110933719Y-111930494D01*
X111030144Y-111964275D01*
X111116620Y-111994444D01*
X111186407Y-112018661D01*
X111232765Y-112034583D01*
X111246557Y-112039190D01*
X111241757Y-112034936D01*
X111208455Y-112016655D01*
X111150663Y-111986429D01*
X111072393Y-111946343D01*
X110977657Y-111898480D01*
X110919986Y-111869594D01*
X110431419Y-111641802D01*
X109944585Y-111447095D01*
X109461044Y-111285973D01*
X108982357Y-111158940D01*
X108510084Y-111066495D01*
X108343700Y-111042015D01*
X108196947Y-111026647D01*
X108026972Y-111015982D01*
X107842951Y-111010028D01*
X107654058Y-111008793D01*
X107469469Y-111012285D01*
G37*
X107469469Y-111012285D02*
X107298359Y-111020513D01*
X107149903Y-111033484D01*
X107092750Y-111040898D01*
X106746880Y-111107335D01*
X106413456Y-111202174D01*
X106095078Y-111323908D01*
X105794342Y-111471028D01*
X105513847Y-111642025D01*
X105256191Y-111835392D01*
X105023972Y-112049619D01*
X104819787Y-112283199D01*
X104721530Y-112417679D01*
X104650276Y-112522000D01*
X105617060Y-112521425D01*
X106583843Y-112520851D01*
X106661557Y-112405524D01*
X106805903Y-112222389D01*
X106980135Y-112054990D01*
X107180180Y-111906281D01*
X107401963Y-111779216D01*
X107641411Y-111676750D01*
X107689821Y-111659885D01*
X107955506Y-111587303D01*
X108245424Y-111539116D01*
X108557132Y-111515119D01*
X108888190Y-111515109D01*
X109236153Y-111538882D01*
X109598579Y-111586235D01*
X109973027Y-111656963D01*
X110357054Y-111750863D01*
X110748217Y-111867731D01*
X110933719Y-111930494D01*
X111030144Y-111964275D01*
X111116620Y-111994444D01*
X111186407Y-112018661D01*
X111232765Y-112034583D01*
X111246557Y-112039190D01*
X111241757Y-112034936D01*
X111208455Y-112016655D01*
X111150663Y-111986429D01*
X111072393Y-111946343D01*
X110977657Y-111898480D01*
X110919986Y-111869594D01*
X110431419Y-111641802D01*
X109944585Y-111447095D01*
X109461044Y-111285973D01*
X108982357Y-111158940D01*
X108510084Y-111066495D01*
X108343700Y-111042015D01*
X108196947Y-111026647D01*
X108026972Y-111015982D01*
X107842951Y-111010028D01*
X107654058Y-111008793D01*
X107469469Y-111012285D01*
G36*
X111291914Y-112059357D02*
G01*
X111300986Y-112068429D01*
X111310057Y-112059357D01*
X111300986Y-112050286D01*
X111291914Y-112059357D01*
G37*
X111291914Y-112059357D02*
X111300986Y-112068429D01*
X111310057Y-112059357D01*
X111300986Y-112050286D01*
X111291914Y-112059357D01*
G36*
X80029615Y-111877865D02*
G01*
X79987291Y-111918634D01*
X79929991Y-111982146D01*
X79862546Y-112062558D01*
X79789787Y-112154029D01*
X79716543Y-112250717D01*
X79647647Y-112346781D01*
X79616482Y-112392537D01*
X79456339Y-112657731D01*
X79311664Y-112946815D01*
X79191194Y-113241883D01*
X79164294Y-113319226D01*
X79122140Y-113450042D01*
X79095131Y-113546980D01*
X79082480Y-113615383D01*
X79083403Y-113660594D01*
X79097113Y-113687957D01*
X79108767Y-113696756D01*
X79133992Y-113716889D01*
X79183310Y-113760999D01*
X79250582Y-113823433D01*
X79329668Y-113898534D01*
X79368485Y-113935933D01*
X79448775Y-114013432D01*
X79552403Y-114113129D01*
X79672063Y-114228014D01*
X79800449Y-114351078D01*
X79930254Y-114475309D01*
X80021009Y-114562038D01*
X80288325Y-114817199D01*
X80526252Y-115044060D01*
X80735905Y-115243675D01*
X80918401Y-115417096D01*
X81074855Y-115565374D01*
X81206383Y-115689562D01*
X81314103Y-115790713D01*
X81399129Y-115869878D01*
X81462579Y-115928111D01*
X81505567Y-115966462D01*
X81529211Y-115985986D01*
X81534572Y-115989100D01*
X81545088Y-115970087D01*
X81555263Y-115921493D01*
X81559901Y-115883775D01*
X81575781Y-115806600D01*
X81607110Y-115713052D01*
X81641245Y-115635067D01*
X81712468Y-115491683D01*
X81729715Y-115608100D01*
X81741315Y-115684806D01*
X81756744Y-115784725D01*
X81773128Y-115889271D01*
X81777205Y-115915017D01*
X81787794Y-115994243D01*
X81800003Y-116106137D01*
X81812927Y-116241105D01*
X81825661Y-116389556D01*
X81837301Y-116541899D01*
X81840092Y-116581767D01*
X81850047Y-116725694D01*
X81859574Y-116860990D01*
X81868121Y-116980006D01*
X81875135Y-117075093D01*
X81880066Y-117138603D01*
X81881315Y-117153267D01*
X81875568Y-117265441D01*
X81837991Y-117356226D01*
X81778468Y-117415215D01*
X81737688Y-117439066D01*
X81715820Y-117446411D01*
X81715256Y-117445999D01*
X81708067Y-117423726D01*
X81693468Y-117369892D01*
X81674014Y-117294081D01*
X81663429Y-117251599D01*
X81639993Y-117144100D01*
X81619932Y-117022932D01*
X81602530Y-116881796D01*
X81587072Y-116714396D01*
X81572841Y-116514434D01*
X81565255Y-116387878D01*
X81551228Y-116141074D01*
X81367989Y-115964411D01*
X81216983Y-115819042D01*
X81054715Y-115663221D01*
X80883816Y-115499449D01*
X80706917Y-115330223D01*
X80526650Y-115158044D01*
X80345645Y-114985409D01*
X80166533Y-114814818D01*
X79991945Y-114648770D01*
X79824513Y-114489762D01*
X79666867Y-114340295D01*
X79521639Y-114202867D01*
X79391459Y-114079976D01*
X79278959Y-113974123D01*
X79186770Y-113887804D01*
X79117522Y-113823520D01*
X79073846Y-113783770D01*
X79058576Y-113771035D01*
X79042955Y-113785542D01*
X79028199Y-113837331D01*
X79014791Y-113921350D01*
X79003216Y-114032549D01*
X78993955Y-114165876D01*
X78987493Y-114316282D01*
X78984312Y-114478716D01*
X78984072Y-114549767D01*
X78988165Y-114787112D01*
X79000895Y-114994681D01*
X79024099Y-115184482D01*
X79059616Y-115368522D01*
X79109282Y-115558810D01*
X79166524Y-115742095D01*
X79309420Y-116108133D01*
X79488309Y-116455018D01*
X79700595Y-116780466D01*
X79943680Y-117082196D01*
X80214966Y-117357923D01*
X80511856Y-117605364D01*
X80831753Y-117822237D01*
X81172059Y-118006259D01*
X81530177Y-118155146D01*
X81903508Y-118266615D01*
X82082766Y-118305294D01*
X82186371Y-118324249D01*
X82255095Y-118334723D01*
X82295423Y-118337237D01*
X82313836Y-118332316D01*
X82317166Y-118324228D01*
X82310591Y-118296136D01*
X82294642Y-118247584D01*
X82293439Y-118244238D01*
X82283275Y-118207460D01*
X82285474Y-118173366D01*
X82303628Y-118130642D01*
X82341329Y-118067970D01*
X82357251Y-118043178D01*
X82406518Y-117962997D01*
X82446078Y-117887039D01*
X82476885Y-117809495D01*
X82499894Y-117724558D01*
X82516060Y-117626420D01*
X82526337Y-117509275D01*
X82531679Y-117367314D01*
X82533041Y-117194730D01*
X82531378Y-116985716D01*
X82531356Y-116983933D01*
X82530360Y-116831305D01*
X82532477Y-116713173D01*
X82538883Y-116621744D01*
X82550756Y-116549227D01*
X82569273Y-116487826D01*
X82595610Y-116429751D01*
X82622308Y-116381803D01*
X82669693Y-116311556D01*
X82727631Y-116248815D01*
X82803235Y-116187887D01*
X82903618Y-116123080D01*
X83035890Y-116048699D01*
X83043719Y-116044493D01*
X83134452Y-115994606D01*
X83213446Y-115948922D01*
X83271959Y-115912644D01*
X83300640Y-115891602D01*
X83316740Y-115864374D01*
X83326843Y-115816503D01*
X83331966Y-115740396D01*
X83333166Y-115648921D01*
X83331458Y-115560418D01*
X83326852Y-115490311D01*
X83320131Y-115447591D01*
X83314904Y-115438767D01*
X83303073Y-115458034D01*
X83288394Y-115509007D01*
X83273707Y-115581443D01*
X83271215Y-115596386D01*
X83251381Y-115689703D01*
X83226163Y-115766086D01*
X83204050Y-115807066D01*
X83170331Y-115835178D01*
X83106215Y-115876130D01*
X83019812Y-115925169D01*
X82919230Y-115977544D01*
X82880960Y-115996374D01*
X82734262Y-116071467D01*
X82622435Y-116139168D01*
X82539819Y-116204304D01*
X82480753Y-116271701D01*
X82439577Y-116346186D01*
X82424649Y-116385446D01*
X82414676Y-116436680D01*
X82405371Y-116528117D01*
X82396870Y-116657630D01*
X82389310Y-116823092D01*
X82382831Y-117022376D01*
X82382440Y-117036850D01*
X82377252Y-117219965D01*
X82371852Y-117365988D01*
X82365193Y-117480153D01*
X82356227Y-117567691D01*
X82343905Y-117633837D01*
X82327179Y-117683824D01*
X82305001Y-117722884D01*
X82276324Y-117756250D01*
X82240098Y-117789157D01*
X82230055Y-117797659D01*
X82183871Y-117832150D01*
X82154868Y-117839262D01*
X82135170Y-117826639D01*
X82118079Y-117796595D01*
X82101787Y-117740194D01*
X82085831Y-117654387D01*
X82069748Y-117536122D01*
X82053076Y-117382351D01*
X82035353Y-117190024D01*
X82031112Y-117140393D01*
X82019529Y-117006068D01*
X82007869Y-116875889D01*
X81997070Y-116759991D01*
X81988073Y-116668508D01*
X81983049Y-116621810D01*
X81976078Y-116424017D01*
X82000854Y-116237877D01*
X82056103Y-116072756D01*
X82058413Y-116067812D01*
X82092908Y-116004979D01*
X82147300Y-115918038D01*
X82215456Y-115816266D01*
X82291243Y-115708939D01*
X82334309Y-115650433D01*
X82424399Y-115527699D01*
X82502686Y-115416521D01*
X82566652Y-115320879D01*
X82613779Y-115244752D01*
X82641551Y-115192120D01*
X82647449Y-115166960D01*
X82640652Y-115166199D01*
X82621365Y-115183631D01*
X82578145Y-115228400D01*
X82515067Y-115296098D01*
X82436205Y-115382319D01*
X82345634Y-115482654D01*
X82273188Y-115563713D01*
X81926479Y-115953243D01*
X81908270Y-115881213D01*
X81901309Y-115833149D01*
X81895302Y-115753281D01*
X81890834Y-115652139D01*
X81888492Y-115540250D01*
X81888362Y-115523433D01*
X81890612Y-115373080D01*
X81900810Y-115239932D01*
X81921224Y-115113227D01*
X81954126Y-114982200D01*
X82001785Y-114836088D01*
X82066471Y-114664127D01*
X82073161Y-114647127D01*
X82130836Y-114496924D01*
X82181810Y-114356284D01*
X82224439Y-114230442D01*
X82257075Y-114124633D01*
X82278072Y-114044093D01*
X82285786Y-113994056D01*
X82282813Y-113980294D01*
X82263253Y-113962104D01*
X82217095Y-113918589D01*
X82148406Y-113853611D01*
X82061251Y-113771031D01*
X81959696Y-113674711D01*
X81847809Y-113568513D01*
X81729654Y-113456298D01*
X81609299Y-113341927D01*
X81490809Y-113229263D01*
X81378251Y-113122165D01*
X81275690Y-113024497D01*
X81187193Y-112940120D01*
X81131833Y-112887248D01*
X81050094Y-112809085D01*
X80948867Y-112712267D01*
X80839246Y-112607405D01*
X80732327Y-112505113D01*
X80697916Y-112472188D01*
X80541201Y-112322285D01*
X80412270Y-112199108D01*
X80308367Y-112100069D01*
X80226736Y-112022580D01*
X80164622Y-111964052D01*
X80119267Y-111921897D01*
X80087916Y-111893525D01*
X80067813Y-111876348D01*
X80056201Y-111867779D01*
X80052133Y-111865681D01*
X80029615Y-111877865D01*
G37*
X80029615Y-111877865D02*
X79987291Y-111918634D01*
X79929991Y-111982146D01*
X79862546Y-112062558D01*
X79789787Y-112154029D01*
X79716543Y-112250717D01*
X79647647Y-112346781D01*
X79616482Y-112392537D01*
X79456339Y-112657731D01*
X79311664Y-112946815D01*
X79191194Y-113241883D01*
X79164294Y-113319226D01*
X79122140Y-113450042D01*
X79095131Y-113546980D01*
X79082480Y-113615383D01*
X79083403Y-113660594D01*
X79097113Y-113687957D01*
X79108767Y-113696756D01*
X79133992Y-113716889D01*
X79183310Y-113760999D01*
X79250582Y-113823433D01*
X79329668Y-113898534D01*
X79368485Y-113935933D01*
X79448775Y-114013432D01*
X79552403Y-114113129D01*
X79672063Y-114228014D01*
X79800449Y-114351078D01*
X79930254Y-114475309D01*
X80021009Y-114562038D01*
X80288325Y-114817199D01*
X80526252Y-115044060D01*
X80735905Y-115243675D01*
X80918401Y-115417096D01*
X81074855Y-115565374D01*
X81206383Y-115689562D01*
X81314103Y-115790713D01*
X81399129Y-115869878D01*
X81462579Y-115928111D01*
X81505567Y-115966462D01*
X81529211Y-115985986D01*
X81534572Y-115989100D01*
X81545088Y-115970087D01*
X81555263Y-115921493D01*
X81559901Y-115883775D01*
X81575781Y-115806600D01*
X81607110Y-115713052D01*
X81641245Y-115635067D01*
X81712468Y-115491683D01*
X81729715Y-115608100D01*
X81741315Y-115684806D01*
X81756744Y-115784725D01*
X81773128Y-115889271D01*
X81777205Y-115915017D01*
X81787794Y-115994243D01*
X81800003Y-116106137D01*
X81812927Y-116241105D01*
X81825661Y-116389556D01*
X81837301Y-116541899D01*
X81840092Y-116581767D01*
X81850047Y-116725694D01*
X81859574Y-116860990D01*
X81868121Y-116980006D01*
X81875135Y-117075093D01*
X81880066Y-117138603D01*
X81881315Y-117153267D01*
X81875568Y-117265441D01*
X81837991Y-117356226D01*
X81778468Y-117415215D01*
X81737688Y-117439066D01*
X81715820Y-117446411D01*
X81715256Y-117445999D01*
X81708067Y-117423726D01*
X81693468Y-117369892D01*
X81674014Y-117294081D01*
X81663429Y-117251599D01*
X81639993Y-117144100D01*
X81619932Y-117022932D01*
X81602530Y-116881796D01*
X81587072Y-116714396D01*
X81572841Y-116514434D01*
X81565255Y-116387878D01*
X81551228Y-116141074D01*
X81367989Y-115964411D01*
X81216983Y-115819042D01*
X81054715Y-115663221D01*
X80883816Y-115499449D01*
X80706917Y-115330223D01*
X80526650Y-115158044D01*
X80345645Y-114985409D01*
X80166533Y-114814818D01*
X79991945Y-114648770D01*
X79824513Y-114489762D01*
X79666867Y-114340295D01*
X79521639Y-114202867D01*
X79391459Y-114079976D01*
X79278959Y-113974123D01*
X79186770Y-113887804D01*
X79117522Y-113823520D01*
X79073846Y-113783770D01*
X79058576Y-113771035D01*
X79042955Y-113785542D01*
X79028199Y-113837331D01*
X79014791Y-113921350D01*
X79003216Y-114032549D01*
X78993955Y-114165876D01*
X78987493Y-114316282D01*
X78984312Y-114478716D01*
X78984072Y-114549767D01*
X78988165Y-114787112D01*
X79000895Y-114994681D01*
X79024099Y-115184482D01*
X79059616Y-115368522D01*
X79109282Y-115558810D01*
X79166524Y-115742095D01*
X79309420Y-116108133D01*
X79488309Y-116455018D01*
X79700595Y-116780466D01*
X79943680Y-117082196D01*
X80214966Y-117357923D01*
X80511856Y-117605364D01*
X80831753Y-117822237D01*
X81172059Y-118006259D01*
X81530177Y-118155146D01*
X81903508Y-118266615D01*
X82082766Y-118305294D01*
X82186371Y-118324249D01*
X82255095Y-118334723D01*
X82295423Y-118337237D01*
X82313836Y-118332316D01*
X82317166Y-118324228D01*
X82310591Y-118296136D01*
X82294642Y-118247584D01*
X82293439Y-118244238D01*
X82283275Y-118207460D01*
X82285474Y-118173366D01*
X82303628Y-118130642D01*
X82341329Y-118067970D01*
X82357251Y-118043178D01*
X82406518Y-117962997D01*
X82446078Y-117887039D01*
X82476885Y-117809495D01*
X82499894Y-117724558D01*
X82516060Y-117626420D01*
X82526337Y-117509275D01*
X82531679Y-117367314D01*
X82533041Y-117194730D01*
X82531378Y-116985716D01*
X82531356Y-116983933D01*
X82530360Y-116831305D01*
X82532477Y-116713173D01*
X82538883Y-116621744D01*
X82550756Y-116549227D01*
X82569273Y-116487826D01*
X82595610Y-116429751D01*
X82622308Y-116381803D01*
X82669693Y-116311556D01*
X82727631Y-116248815D01*
X82803235Y-116187887D01*
X82903618Y-116123080D01*
X83035890Y-116048699D01*
X83043719Y-116044493D01*
X83134452Y-115994606D01*
X83213446Y-115948922D01*
X83271959Y-115912644D01*
X83300640Y-115891602D01*
X83316740Y-115864374D01*
X83326843Y-115816503D01*
X83331966Y-115740396D01*
X83333166Y-115648921D01*
X83331458Y-115560418D01*
X83326852Y-115490311D01*
X83320131Y-115447591D01*
X83314904Y-115438767D01*
X83303073Y-115458034D01*
X83288394Y-115509007D01*
X83273707Y-115581443D01*
X83271215Y-115596386D01*
X83251381Y-115689703D01*
X83226163Y-115766086D01*
X83204050Y-115807066D01*
X83170331Y-115835178D01*
X83106215Y-115876130D01*
X83019812Y-115925169D01*
X82919230Y-115977544D01*
X82880960Y-115996374D01*
X82734262Y-116071467D01*
X82622435Y-116139168D01*
X82539819Y-116204304D01*
X82480753Y-116271701D01*
X82439577Y-116346186D01*
X82424649Y-116385446D01*
X82414676Y-116436680D01*
X82405371Y-116528117D01*
X82396870Y-116657630D01*
X82389310Y-116823092D01*
X82382831Y-117022376D01*
X82382440Y-117036850D01*
X82377252Y-117219965D01*
X82371852Y-117365988D01*
X82365193Y-117480153D01*
X82356227Y-117567691D01*
X82343905Y-117633837D01*
X82327179Y-117683824D01*
X82305001Y-117722884D01*
X82276324Y-117756250D01*
X82240098Y-117789157D01*
X82230055Y-117797659D01*
X82183871Y-117832150D01*
X82154868Y-117839262D01*
X82135170Y-117826639D01*
X82118079Y-117796595D01*
X82101787Y-117740194D01*
X82085831Y-117654387D01*
X82069748Y-117536122D01*
X82053076Y-117382351D01*
X82035353Y-117190024D01*
X82031112Y-117140393D01*
X82019529Y-117006068D01*
X82007869Y-116875889D01*
X81997070Y-116759991D01*
X81988073Y-116668508D01*
X81983049Y-116621810D01*
X81976078Y-116424017D01*
X82000854Y-116237877D01*
X82056103Y-116072756D01*
X82058413Y-116067812D01*
X82092908Y-116004979D01*
X82147300Y-115918038D01*
X82215456Y-115816266D01*
X82291243Y-115708939D01*
X82334309Y-115650433D01*
X82424399Y-115527699D01*
X82502686Y-115416521D01*
X82566652Y-115320879D01*
X82613779Y-115244752D01*
X82641551Y-115192120D01*
X82647449Y-115166960D01*
X82640652Y-115166199D01*
X82621365Y-115183631D01*
X82578145Y-115228400D01*
X82515067Y-115296098D01*
X82436205Y-115382319D01*
X82345634Y-115482654D01*
X82273188Y-115563713D01*
X81926479Y-115953243D01*
X81908270Y-115881213D01*
X81901309Y-115833149D01*
X81895302Y-115753281D01*
X81890834Y-115652139D01*
X81888492Y-115540250D01*
X81888362Y-115523433D01*
X81890612Y-115373080D01*
X81900810Y-115239932D01*
X81921224Y-115113227D01*
X81954126Y-114982200D01*
X82001785Y-114836088D01*
X82066471Y-114664127D01*
X82073161Y-114647127D01*
X82130836Y-114496924D01*
X82181810Y-114356284D01*
X82224439Y-114230442D01*
X82257075Y-114124633D01*
X82278072Y-114044093D01*
X82285786Y-113994056D01*
X82282813Y-113980294D01*
X82263253Y-113962104D01*
X82217095Y-113918589D01*
X82148406Y-113853611D01*
X82061251Y-113771031D01*
X81959696Y-113674711D01*
X81847809Y-113568513D01*
X81729654Y-113456298D01*
X81609299Y-113341927D01*
X81490809Y-113229263D01*
X81378251Y-113122165D01*
X81275690Y-113024497D01*
X81187193Y-112940120D01*
X81131833Y-112887248D01*
X81050094Y-112809085D01*
X80948867Y-112712267D01*
X80839246Y-112607405D01*
X80732327Y-112505113D01*
X80697916Y-112472188D01*
X80541201Y-112322285D01*
X80412270Y-112199108D01*
X80308367Y-112100069D01*
X80226736Y-112022580D01*
X80164622Y-111964052D01*
X80119267Y-111921897D01*
X80087916Y-111893525D01*
X80067813Y-111876348D01*
X80056201Y-111867779D01*
X80052133Y-111865681D01*
X80029615Y-111877865D01*
G36*
X83953106Y-115646613D02*
G01*
X83958113Y-115708642D01*
X83971130Y-115800706D01*
X83988893Y-115921419D01*
X84010347Y-116064036D01*
X84034439Y-116221814D01*
X84060112Y-116388010D01*
X84086312Y-116555882D01*
X84111984Y-116718686D01*
X84136074Y-116869680D01*
X84157526Y-117002120D01*
X84175286Y-117109263D01*
X84188298Y-117184366D01*
X84192377Y-117206183D01*
X84224108Y-117359555D01*
X84258179Y-117509351D01*
X84293017Y-117649975D01*
X84327052Y-117775828D01*
X84358712Y-117881312D01*
X84386425Y-117960829D01*
X84408619Y-118008781D01*
X84421042Y-118020670D01*
X84450010Y-118011284D01*
X84505299Y-117986854D01*
X84575902Y-117952300D01*
X84589194Y-117945485D01*
X84804879Y-117823058D01*
X85023786Y-117678630D01*
X85233398Y-117521320D01*
X85421201Y-117360252D01*
X85508929Y-117275139D01*
X85620942Y-117160721D01*
X85508929Y-117057499D01*
X85466431Y-117017799D01*
X85396307Y-116951630D01*
X85301509Y-116861800D01*
X85184985Y-116751121D01*
X85049685Y-116622402D01*
X84898561Y-116478451D01*
X84734561Y-116322080D01*
X84560636Y-116156097D01*
X84379735Y-115983313D01*
X84194809Y-115806536D01*
X84037171Y-115655725D01*
X83989489Y-115616701D01*
X83962277Y-115613122D01*
X83953106Y-115646613D01*
G37*
X83953106Y-115646613D02*
X83958113Y-115708642D01*
X83971130Y-115800706D01*
X83988893Y-115921419D01*
X84010347Y-116064036D01*
X84034439Y-116221814D01*
X84060112Y-116388010D01*
X84086312Y-116555882D01*
X84111984Y-116718686D01*
X84136074Y-116869680D01*
X84157526Y-117002120D01*
X84175286Y-117109263D01*
X84188298Y-117184366D01*
X84192377Y-117206183D01*
X84224108Y-117359555D01*
X84258179Y-117509351D01*
X84293017Y-117649975D01*
X84327052Y-117775828D01*
X84358712Y-117881312D01*
X84386425Y-117960829D01*
X84408619Y-118008781D01*
X84421042Y-118020670D01*
X84450010Y-118011284D01*
X84505299Y-117986854D01*
X84575902Y-117952300D01*
X84589194Y-117945485D01*
X84804879Y-117823058D01*
X85023786Y-117678630D01*
X85233398Y-117521320D01*
X85421201Y-117360252D01*
X85508929Y-117275139D01*
X85620942Y-117160721D01*
X85508929Y-117057499D01*
X85466431Y-117017799D01*
X85396307Y-116951630D01*
X85301509Y-116861800D01*
X85184985Y-116751121D01*
X85049685Y-116622402D01*
X84898561Y-116478451D01*
X84734561Y-116322080D01*
X84560636Y-116156097D01*
X84379735Y-115983313D01*
X84194809Y-115806536D01*
X84037171Y-115655725D01*
X83989489Y-115616701D01*
X83962277Y-115613122D01*
X83953106Y-115646613D01*
G36*
X83848600Y-112686343D02*
G01*
X83845239Y-112744687D01*
X83844398Y-112836634D01*
X83846122Y-112957855D01*
X83850116Y-113094558D01*
X83859493Y-113338717D01*
X83869256Y-113545002D01*
X83879797Y-113717874D01*
X83891509Y-113861791D01*
X83904783Y-113981215D01*
X83920013Y-114080603D01*
X83937591Y-114164417D01*
X83947557Y-114202503D01*
X83972288Y-114309063D01*
X83988254Y-114425194D01*
X83995613Y-114557399D01*
X83994524Y-114712183D01*
X83985145Y-114896047D01*
X83969309Y-115096710D01*
X83938701Y-115442570D01*
X84139523Y-115636460D01*
X84239083Y-115732329D01*
X84350922Y-115839620D01*
X84459548Y-115943489D01*
X84529964Y-116010572D01*
X84765553Y-116234609D01*
X84971127Y-116430373D01*
X85147477Y-116598623D01*
X85295395Y-116740120D01*
X85415672Y-116855624D01*
X85509101Y-116945897D01*
X85576472Y-117011698D01*
X85618579Y-117053788D01*
X85636212Y-117072929D01*
X85636805Y-117073892D01*
X85654815Y-117089698D01*
X85685134Y-117078255D01*
X85730415Y-117037265D01*
X85793313Y-116964429D01*
X85856799Y-116883392D01*
X86044862Y-116618903D01*
X86201998Y-116357028D01*
X86309410Y-116143731D01*
X86366102Y-116012360D01*
X86424551Y-115860734D01*
X86480157Y-115702204D01*
X86528320Y-115550120D01*
X86564439Y-115417830D01*
X86573925Y-115376121D01*
X86598244Y-115260560D01*
X86431497Y-115103293D01*
X86343603Y-115020187D01*
X86229513Y-114911980D01*
X86093610Y-114782849D01*
X85940278Y-114636969D01*
X85773899Y-114478515D01*
X85598858Y-114311663D01*
X85419538Y-114140587D01*
X85240322Y-113969462D01*
X85065592Y-113802465D01*
X85005333Y-113744831D01*
X84786145Y-113535243D01*
X84595589Y-113353261D01*
X84431794Y-113197131D01*
X84292891Y-113065102D01*
X84177012Y-112955420D01*
X84082287Y-112866335D01*
X84006847Y-112796093D01*
X83948823Y-112742942D01*
X83906345Y-112705130D01*
X83877545Y-112680905D01*
X83860552Y-112668514D01*
X83854438Y-112665933D01*
X83848600Y-112686343D01*
G37*
X83848600Y-112686343D02*
X83845239Y-112744687D01*
X83844398Y-112836634D01*
X83846122Y-112957855D01*
X83850116Y-113094558D01*
X83859493Y-113338717D01*
X83869256Y-113545002D01*
X83879797Y-113717874D01*
X83891509Y-113861791D01*
X83904783Y-113981215D01*
X83920013Y-114080603D01*
X83937591Y-114164417D01*
X83947557Y-114202503D01*
X83972288Y-114309063D01*
X83988254Y-114425194D01*
X83995613Y-114557399D01*
X83994524Y-114712183D01*
X83985145Y-114896047D01*
X83969309Y-115096710D01*
X83938701Y-115442570D01*
X84139523Y-115636460D01*
X84239083Y-115732329D01*
X84350922Y-115839620D01*
X84459548Y-115943489D01*
X84529964Y-116010572D01*
X84765553Y-116234609D01*
X84971127Y-116430373D01*
X85147477Y-116598623D01*
X85295395Y-116740120D01*
X85415672Y-116855624D01*
X85509101Y-116945897D01*
X85576472Y-117011698D01*
X85618579Y-117053788D01*
X85636212Y-117072929D01*
X85636805Y-117073892D01*
X85654815Y-117089698D01*
X85685134Y-117078255D01*
X85730415Y-117037265D01*
X85793313Y-116964429D01*
X85856799Y-116883392D01*
X86044862Y-116618903D01*
X86201998Y-116357028D01*
X86309410Y-116143731D01*
X86366102Y-116012360D01*
X86424551Y-115860734D01*
X86480157Y-115702204D01*
X86528320Y-115550120D01*
X86564439Y-115417830D01*
X86573925Y-115376121D01*
X86598244Y-115260560D01*
X86431497Y-115103293D01*
X86343603Y-115020187D01*
X86229513Y-114911980D01*
X86093610Y-114782849D01*
X85940278Y-114636969D01*
X85773899Y-114478515D01*
X85598858Y-114311663D01*
X85419538Y-114140587D01*
X85240322Y-113969462D01*
X85065592Y-113802465D01*
X85005333Y-113744831D01*
X84786145Y-113535243D01*
X84595589Y-113353261D01*
X84431794Y-113197131D01*
X84292891Y-113065102D01*
X84177012Y-112955420D01*
X84082287Y-112866335D01*
X84006847Y-112796093D01*
X83948823Y-112742942D01*
X83906345Y-112705130D01*
X83877545Y-112680905D01*
X83860552Y-112668514D01*
X83854438Y-112665933D01*
X83848600Y-112686343D01*
G36*
X82600450Y-110684043D02*
G01*
X82287128Y-110714720D01*
X82189177Y-110730154D01*
X82108104Y-110745966D01*
X82052239Y-110760315D01*
X82029912Y-110771362D01*
X82029869Y-110771517D01*
X82043147Y-110791661D01*
X82083087Y-110835963D01*
X82145233Y-110899876D01*
X82225131Y-110978857D01*
X82318326Y-111068359D01*
X82351421Y-111099600D01*
X82677942Y-111406517D01*
X82883846Y-111420193D01*
X83033696Y-111437699D01*
X83185019Y-111468729D01*
X83325861Y-111509971D01*
X83444265Y-111558111D01*
X83504472Y-111592160D01*
X83600086Y-111680076D01*
X83682129Y-111804824D01*
X83748911Y-111962608D01*
X83798741Y-112149627D01*
X83824537Y-112311517D01*
X83848977Y-112518018D01*
X84094336Y-112756017D01*
X84178613Y-112837450D01*
X84286188Y-112940908D01*
X84409645Y-113059288D01*
X84541567Y-113185484D01*
X84674537Y-113312391D01*
X84773056Y-113406204D01*
X84900747Y-113527714D01*
X85032228Y-113652933D01*
X85160305Y-113775005D01*
X85277790Y-113887073D01*
X85377490Y-113982283D01*
X85439250Y-114041356D01*
X85546395Y-114143801D01*
X85667294Y-114259141D01*
X85787316Y-114373432D01*
X85891831Y-114472729D01*
X85894333Y-114475103D01*
X85997243Y-114573131D01*
X86116143Y-114687069D01*
X86236771Y-114803214D01*
X86344864Y-114907862D01*
X86351341Y-114914158D01*
X86432881Y-114992689D01*
X86503791Y-115059551D01*
X86558576Y-115109675D01*
X86591740Y-115137991D01*
X86598800Y-115142433D01*
X86619208Y-115127402D01*
X86619660Y-115126558D01*
X86628469Y-115092181D01*
X86635297Y-115025824D01*
X86640228Y-114925270D01*
X86643348Y-114788300D01*
X86644743Y-114612696D01*
X86644762Y-114475683D01*
X86643662Y-114311358D01*
X86640743Y-114180080D01*
X86635355Y-114072577D01*
X86626846Y-113979579D01*
X86614565Y-113891815D01*
X86597859Y-113800015D01*
X86596959Y-113795467D01*
X86498152Y-113401783D01*
X86361849Y-113027425D01*
X86187811Y-112671965D01*
X85975798Y-112334973D01*
X85725572Y-112016022D01*
X85441181Y-111718760D01*
X85146594Y-111466928D01*
X84827387Y-111247759D01*
X84487228Y-111062422D01*
X84129781Y-110912082D01*
X83758714Y-110797907D01*
X83377692Y-110721064D01*
X82990382Y-110682721D01*
X82600450Y-110684043D01*
G37*
X82600450Y-110684043D02*
X82287128Y-110714720D01*
X82189177Y-110730154D01*
X82108104Y-110745966D01*
X82052239Y-110760315D01*
X82029912Y-110771362D01*
X82029869Y-110771517D01*
X82043147Y-110791661D01*
X82083087Y-110835963D01*
X82145233Y-110899876D01*
X82225131Y-110978857D01*
X82318326Y-111068359D01*
X82351421Y-111099600D01*
X82677942Y-111406517D01*
X82883846Y-111420193D01*
X83033696Y-111437699D01*
X83185019Y-111468729D01*
X83325861Y-111509971D01*
X83444265Y-111558111D01*
X83504472Y-111592160D01*
X83600086Y-111680076D01*
X83682129Y-111804824D01*
X83748911Y-111962608D01*
X83798741Y-112149627D01*
X83824537Y-112311517D01*
X83848977Y-112518018D01*
X84094336Y-112756017D01*
X84178613Y-112837450D01*
X84286188Y-112940908D01*
X84409645Y-113059288D01*
X84541567Y-113185484D01*
X84674537Y-113312391D01*
X84773056Y-113406204D01*
X84900747Y-113527714D01*
X85032228Y-113652933D01*
X85160305Y-113775005D01*
X85277790Y-113887073D01*
X85377490Y-113982283D01*
X85439250Y-114041356D01*
X85546395Y-114143801D01*
X85667294Y-114259141D01*
X85787316Y-114373432D01*
X85891831Y-114472729D01*
X85894333Y-114475103D01*
X85997243Y-114573131D01*
X86116143Y-114687069D01*
X86236771Y-114803214D01*
X86344864Y-114907862D01*
X86351341Y-114914158D01*
X86432881Y-114992689D01*
X86503791Y-115059551D01*
X86558576Y-115109675D01*
X86591740Y-115137991D01*
X86598800Y-115142433D01*
X86619208Y-115127402D01*
X86619660Y-115126558D01*
X86628469Y-115092181D01*
X86635297Y-115025824D01*
X86640228Y-114925270D01*
X86643348Y-114788300D01*
X86644743Y-114612696D01*
X86644762Y-114475683D01*
X86643662Y-114311358D01*
X86640743Y-114180080D01*
X86635355Y-114072577D01*
X86626846Y-113979579D01*
X86614565Y-113891815D01*
X86597859Y-113800015D01*
X86596959Y-113795467D01*
X86498152Y-113401783D01*
X86361849Y-113027425D01*
X86187811Y-112671965D01*
X85975798Y-112334973D01*
X85725572Y-112016022D01*
X85441181Y-111718760D01*
X85146594Y-111466928D01*
X84827387Y-111247759D01*
X84487228Y-111062422D01*
X84129781Y-110912082D01*
X83758714Y-110797907D01*
X83377692Y-110721064D01*
X82990382Y-110682721D01*
X82600450Y-110684043D01*
G36*
X81659252Y-110856720D02*
G01*
X81324121Y-110982770D01*
X80992194Y-111144145D01*
X80674799Y-111334625D01*
X80383264Y-111547991D01*
X80348666Y-111576408D01*
X80258057Y-111650763D01*
X80193966Y-111705950D01*
X80156631Y-111749375D01*
X80146293Y-111788447D01*
X80163192Y-111830571D01*
X80207568Y-111883156D01*
X80279659Y-111953608D01*
X80363464Y-112033611D01*
X80453885Y-112120779D01*
X80542467Y-112205956D01*
X80634134Y-112293848D01*
X80733808Y-112389157D01*
X80846412Y-112496587D01*
X80976869Y-112620843D01*
X81130103Y-112766628D01*
X81237666Y-112868903D01*
X81328363Y-112955336D01*
X81437410Y-113059581D01*
X81552701Y-113170048D01*
X81662130Y-113275145D01*
X81690255Y-113302208D01*
X81776284Y-113384850D01*
X81852809Y-113458017D01*
X81914120Y-113516278D01*
X81954509Y-113554199D01*
X81967013Y-113565517D01*
X81992375Y-113588726D01*
X82040120Y-113633994D01*
X82102348Y-113693796D01*
X82144133Y-113734282D01*
X82207745Y-113795114D01*
X82258417Y-113841682D01*
X82289756Y-113868227D01*
X82296766Y-113871865D01*
X82297746Y-113847241D01*
X82299598Y-113791992D01*
X82301932Y-113717807D01*
X82302058Y-113713683D01*
X82308332Y-113622272D01*
X82323698Y-113554749D01*
X82353005Y-113492880D01*
X82366770Y-113470267D01*
X82413058Y-113396785D01*
X82466766Y-113311212D01*
X82498201Y-113260975D01*
X82551047Y-113157958D01*
X82581245Y-113058628D01*
X82586621Y-112972895D01*
X82572462Y-112922354D01*
X82548050Y-112883248D01*
X82518304Y-112853688D01*
X82477288Y-112832318D01*
X82419062Y-112817779D01*
X82337690Y-112808715D01*
X82227233Y-112803769D01*
X82081752Y-112801583D01*
X82042932Y-112801329D01*
X81904400Y-112799328D01*
X81783099Y-112795191D01*
X81685797Y-112789298D01*
X81619264Y-112782025D01*
X81594475Y-112776257D01*
X81549331Y-112750218D01*
X81487956Y-112705413D01*
X81432900Y-112659554D01*
X81355120Y-112599846D01*
X81282607Y-112560865D01*
X81252334Y-112551679D01*
X81182694Y-112522198D01*
X81119082Y-112467019D01*
X81067667Y-112396309D01*
X81034617Y-112320235D01*
X81026101Y-112248963D01*
X81040686Y-112202883D01*
X81068868Y-112181954D01*
X81127306Y-112153015D01*
X81205887Y-112120798D01*
X81251933Y-112104117D01*
X81371591Y-112058627D01*
X81484489Y-112005951D01*
X81600430Y-111940618D01*
X81729217Y-111857154D01*
X81862083Y-111763553D01*
X82006705Y-111666461D01*
X82154462Y-111580684D01*
X82294979Y-111511668D01*
X82417880Y-111464862D01*
X82446205Y-111456865D01*
X82505291Y-111439338D01*
X82542885Y-111423607D01*
X82550000Y-111416952D01*
X82535588Y-111397798D01*
X82496592Y-111356325D01*
X82439376Y-111299104D01*
X82385958Y-111247544D01*
X82293479Y-111159188D01*
X82189296Y-111059102D01*
X82091421Y-110964604D01*
X82061419Y-110935502D01*
X81900921Y-110779556D01*
X81659252Y-110856720D01*
G37*
X81659252Y-110856720D02*
X81324121Y-110982770D01*
X80992194Y-111144145D01*
X80674799Y-111334625D01*
X80383264Y-111547991D01*
X80348666Y-111576408D01*
X80258057Y-111650763D01*
X80193966Y-111705950D01*
X80156631Y-111749375D01*
X80146293Y-111788447D01*
X80163192Y-111830571D01*
X80207568Y-111883156D01*
X80279659Y-111953608D01*
X80363464Y-112033611D01*
X80453885Y-112120779D01*
X80542467Y-112205956D01*
X80634134Y-112293848D01*
X80733808Y-112389157D01*
X80846412Y-112496587D01*
X80976869Y-112620843D01*
X81130103Y-112766628D01*
X81237666Y-112868903D01*
X81328363Y-112955336D01*
X81437410Y-113059581D01*
X81552701Y-113170048D01*
X81662130Y-113275145D01*
X81690255Y-113302208D01*
X81776284Y-113384850D01*
X81852809Y-113458017D01*
X81914120Y-113516278D01*
X81954509Y-113554199D01*
X81967013Y-113565517D01*
X81992375Y-113588726D01*
X82040120Y-113633994D01*
X82102348Y-113693796D01*
X82144133Y-113734282D01*
X82207745Y-113795114D01*
X82258417Y-113841682D01*
X82289756Y-113868227D01*
X82296766Y-113871865D01*
X82297746Y-113847241D01*
X82299598Y-113791992D01*
X82301932Y-113717807D01*
X82302058Y-113713683D01*
X82308332Y-113622272D01*
X82323698Y-113554749D01*
X82353005Y-113492880D01*
X82366770Y-113470267D01*
X82413058Y-113396785D01*
X82466766Y-113311212D01*
X82498201Y-113260975D01*
X82551047Y-113157958D01*
X82581245Y-113058628D01*
X82586621Y-112972895D01*
X82572462Y-112922354D01*
X82548050Y-112883248D01*
X82518304Y-112853688D01*
X82477288Y-112832318D01*
X82419062Y-112817779D01*
X82337690Y-112808715D01*
X82227233Y-112803769D01*
X82081752Y-112801583D01*
X82042932Y-112801329D01*
X81904400Y-112799328D01*
X81783099Y-112795191D01*
X81685797Y-112789298D01*
X81619264Y-112782025D01*
X81594475Y-112776257D01*
X81549331Y-112750218D01*
X81487956Y-112705413D01*
X81432900Y-112659554D01*
X81355120Y-112599846D01*
X81282607Y-112560865D01*
X81252334Y-112551679D01*
X81182694Y-112522198D01*
X81119082Y-112467019D01*
X81067667Y-112396309D01*
X81034617Y-112320235D01*
X81026101Y-112248963D01*
X81040686Y-112202883D01*
X81068868Y-112181954D01*
X81127306Y-112153015D01*
X81205887Y-112120798D01*
X81251933Y-112104117D01*
X81371591Y-112058627D01*
X81484489Y-112005951D01*
X81600430Y-111940618D01*
X81729217Y-111857154D01*
X81862083Y-111763553D01*
X82006705Y-111666461D01*
X82154462Y-111580684D01*
X82294979Y-111511668D01*
X82417880Y-111464862D01*
X82446205Y-111456865D01*
X82505291Y-111439338D01*
X82542885Y-111423607D01*
X82550000Y-111416952D01*
X82535588Y-111397798D01*
X82496592Y-111356325D01*
X82439376Y-111299104D01*
X82385958Y-111247544D01*
X82293479Y-111159188D01*
X82189296Y-111059102D01*
X82091421Y-110964604D01*
X82061419Y-110935502D01*
X81900921Y-110779556D01*
X81659252Y-110856720D01*
G36*
X83360883Y-111800971D02*
G01*
X83325866Y-111814531D01*
X83323954Y-111817049D01*
X83329500Y-111838487D01*
X83366585Y-111854916D01*
X83424418Y-111861598D01*
X83425438Y-111861600D01*
X83497152Y-111881442D01*
X83555314Y-111936593D01*
X83589285Y-112008491D01*
X83604202Y-112113518D01*
X83581687Y-112212490D01*
X83519940Y-112312006D01*
X83500193Y-112335447D01*
X83454655Y-112393298D01*
X83441765Y-112425221D01*
X83460946Y-112430261D01*
X83511624Y-112407459D01*
X83535152Y-112393668D01*
X83630712Y-112317098D01*
X83695029Y-112227437D01*
X83727831Y-112131520D01*
X83728846Y-112036183D01*
X83697801Y-111948264D01*
X83634423Y-111874597D01*
X83557644Y-111829417D01*
X83490776Y-111809155D01*
X83420521Y-111799426D01*
X83360883Y-111800971D01*
G37*
X83360883Y-111800971D02*
X83325866Y-111814531D01*
X83323954Y-111817049D01*
X83329500Y-111838487D01*
X83366585Y-111854916D01*
X83424418Y-111861598D01*
X83425438Y-111861600D01*
X83497152Y-111881442D01*
X83555314Y-111936593D01*
X83589285Y-112008491D01*
X83604202Y-112113518D01*
X83581687Y-112212490D01*
X83519940Y-112312006D01*
X83500193Y-112335447D01*
X83454655Y-112393298D01*
X83441765Y-112425221D01*
X83460946Y-112430261D01*
X83511624Y-112407459D01*
X83535152Y-112393668D01*
X83630712Y-112317098D01*
X83695029Y-112227437D01*
X83727831Y-112131520D01*
X83728846Y-112036183D01*
X83697801Y-111948264D01*
X83634423Y-111874597D01*
X83557644Y-111829417D01*
X83490776Y-111809155D01*
X83420521Y-111799426D01*
X83360883Y-111800971D01*
G36*
X82218572Y-111851338D02*
G01*
X82156199Y-111897844D01*
X82132910Y-111947050D01*
X82149857Y-111995209D01*
X82168656Y-112013744D01*
X82205814Y-112041445D01*
X82234310Y-112048200D01*
X82270218Y-112033289D01*
X82311875Y-112007331D01*
X82364496Y-111957357D01*
X82381398Y-111905915D01*
X82367904Y-111861908D01*
X82329340Y-111834237D01*
X82271029Y-111831804D01*
X82218572Y-111851338D01*
G37*
X82218572Y-111851338D02*
X82156199Y-111897844D01*
X82132910Y-111947050D01*
X82149857Y-111995209D01*
X82168656Y-112013744D01*
X82205814Y-112041445D01*
X82234310Y-112048200D01*
X82270218Y-112033289D01*
X82311875Y-112007331D01*
X82364496Y-111957357D01*
X82381398Y-111905915D01*
X82367904Y-111861908D01*
X82329340Y-111834237D01*
X82271029Y-111831804D01*
X82218572Y-111851338D01*
D12*
X104711500Y-99123500D02*
X104711500Y-101917500D01*
X104965500Y-98869500D02*
X106489500Y-98869500D01*
X104965500Y-102171500D02*
X106489500Y-102171500D01*
X106743500Y-101917500D02*
X106743500Y-99123500D01*
X104711500Y-99123500D02*
G75*
G02*
X104965500Y-98869500I254000J0D01*
G01*
X104965500Y-102171500D02*
G75*
G02*
X104711500Y-101917500I0J254000D01*
G01*
X106743500Y-101917500D02*
G75*
G02*
X106489500Y-102171500I-254000J0D01*
G01*
X106489500Y-98869500D02*
G75*
G02*
X106743500Y-99123500I0J-254000D01*
G01*
D13*
X107276685Y-103045390D02*
X107276685Y-102545390D01*
X107086209Y-102545390D01*
X107038590Y-102569200D01*
X107014780Y-102593009D01*
X106990971Y-102640628D01*
X106990971Y-102712057D01*
X107014780Y-102759676D01*
X107038590Y-102783485D01*
X107086209Y-102807295D01*
X107276685Y-102807295D01*
X106776685Y-103045390D02*
X106776685Y-102545390D01*
X106776685Y-102783485D02*
X106490971Y-102783485D01*
X106490971Y-103045390D02*
X106490971Y-102545390D01*
X106157638Y-102807295D02*
X106157638Y-103045390D01*
X106324304Y-102545390D02*
X106157638Y-102807295D01*
X105990971Y-102545390D01*
X105943352Y-103093009D02*
X105562400Y-103093009D01*
X105157638Y-103045390D02*
X105324304Y-102807295D01*
X105443352Y-103045390D02*
X105443352Y-102545390D01*
X105252876Y-102545390D01*
X105205257Y-102569200D01*
X105181447Y-102593009D01*
X105157638Y-102640628D01*
X105157638Y-102712057D01*
X105181447Y-102759676D01*
X105205257Y-102783485D01*
X105252876Y-102807295D01*
X105443352Y-102807295D01*
X104967161Y-103021580D02*
X104895733Y-103045390D01*
X104776685Y-103045390D01*
X104729066Y-103021580D01*
X104705257Y-102997771D01*
X104681447Y-102950152D01*
X104681447Y-102902533D01*
X104705257Y-102854914D01*
X104729066Y-102831104D01*
X104776685Y-102807295D01*
X104871923Y-102783485D01*
X104919542Y-102759676D01*
X104943352Y-102735866D01*
X104967161Y-102688247D01*
X104967161Y-102640628D01*
X104943352Y-102593009D01*
X104919542Y-102569200D01*
X104871923Y-102545390D01*
X104752876Y-102545390D01*
X104681447Y-102569200D01*
X104538590Y-102545390D02*
X104252876Y-102545390D01*
X104395733Y-103045390D02*
X104395733Y-102545390D01*
X103824304Y-103045390D02*
X104110019Y-103045390D01*
X103967161Y-103045390D02*
X103967161Y-102545390D01*
X104014780Y-102616819D01*
X104062400Y-102664438D01*
X104110019Y-102688247D01*
M02*
